<svg width="40" height="41" viewBox="0 0 40 41" fill="none" xmlns="http://www.w3.org/2000/svg">
<g clip-path="url(#clip0_54_2420)">
<path d="M20.5114 11.521C20.5635 11.529 20.6152 11.5389 20.6676 11.5448C20.8794 11.5684 21.0912 11.595 21.3037 11.6129C21.6883 11.6454 22.0646 11.7184 22.4365 11.8175C22.8545 11.9287 23.2698 12.0465 23.6714 12.207C24.1574 12.4012 24.6183 12.6411 25.065 12.9084C25.3792 13.0963 25.6936 13.2845 25.9789 13.5124C26.1487 13.6482 26.3077 13.797 26.4686 13.9432C26.6533 14.111 26.8389 14.2782 27.0162 14.4532C27.1707 14.6054 27.3155 14.767 27.4616 14.927C27.498 14.967 27.526 15.0153 27.5521 15.0626C27.5661 15.0879 27.5803 15.1018 27.6101 15.0998C27.6286 15.0985 27.6471 15.0998 27.6657 15.0998C28.1738 15.0998 28.6821 15.1067 29.1902 15.0983C30.0812 15.0832 30.8885 15.339 31.6373 15.7923C31.9318 15.9705 32.2046 16.176 32.4488 16.4156C32.7145 16.6762 32.9388 16.9686 33.134 17.2822C33.3887 17.6914 33.5859 18.1243 33.7038 18.59C33.7727 18.8622 33.8098 19.1384 33.8096 19.4193C33.8091 20.4362 33.8059 21.4529 33.8106 22.4698C33.8139 23.1805 33.6316 23.8425 33.279 24.4617C32.9237 25.0858 32.4531 25.6157 31.862 26.0389C31.3166 26.4293 30.7079 26.6864 30.0407 26.8064C29.7783 26.8536 29.5117 26.8752 29.245 26.8785C28.7463 26.8847 28.2477 26.8858 27.7491 26.8882C27.6262 26.8888 27.5032 26.888 27.3804 26.883C27.3224 26.8806 27.2784 26.8964 27.2384 26.9371C27.0961 27.0824 26.9485 27.2228 26.8089 27.3703C26.59 27.6019 26.3424 27.8019 26.0959 28.0039C25.0848 28.832 23.9264 29.3861 22.6658 29.7499C22.1695 29.893 21.6621 29.9867 21.1477 30.0462C20.6538 30.1032 20.1582 30.1255 19.6617 30.1071C18.8043 30.0751 17.968 29.9242 17.1515 29.6679C16.6656 29.5154 16.1935 29.3299 15.7375 29.1069C15.204 28.8461 14.6918 28.5509 14.2261 28.1854C13.9772 27.9899 13.7331 27.7883 13.4958 27.58C13.3534 27.455 13.2282 27.3114 13.0946 27.1769C13.0157 27.0975 12.9343 27.0203 12.8558 26.9403C12.8147 26.8984 12.7688 26.8824 12.708 26.8828C12.2417 26.8865 11.7754 26.8899 11.3091 26.8875C10.9497 26.8858 10.5902 26.8739 10.2327 26.8348C9.74769 26.7816 9.2803 26.6661 8.84136 26.4541C8.50952 26.2939 8.20698 26.0904 7.91823 25.8659C7.556 25.5841 7.26617 25.2404 7.00048 24.8739C6.6919 24.448 6.48784 23.9787 6.34971 23.4783C6.29972 23.2968 6.26632 23.1139 6.25059 22.927C6.2452 22.8619 6.23529 22.7973 6.22409 22.7328C6.22107 22.7153 6.20599 22.6997 6.19629 22.6833V19.2063C6.2062 19.1871 6.22085 19.1689 6.22538 19.1488C6.25856 18.9991 6.29283 18.8495 6.32127 18.699C6.37514 18.4148 6.44604 18.1356 6.5652 17.8696C6.81516 17.3116 7.16554 16.8196 7.60211 16.3851C7.88784 16.1007 8.21775 15.8721 8.57438 15.6798C9.2803 15.2992 10.0304 15.0836 10.8458 15.0985C11.377 15.1082 11.9084 15.1002 12.4395 15.1002H12.5214C12.519 15.0959 12.5167 15.0914 12.5145 15.0871C12.5712 15.0107 12.6235 14.9309 12.6858 14.8591C12.777 14.7542 12.8714 14.6515 12.9716 14.5548C13.1823 14.3517 13.3963 14.1519 13.6115 13.9534C13.7611 13.8154 13.9076 13.6729 14.0684 13.5479C14.5967 13.1363 15.1747 12.7976 15.7754 12.4977C16.423 12.1741 17.1084 11.9457 17.8156 11.7801C18.113 11.7104 18.4117 11.6464 18.717 11.6172C18.9915 11.5911 19.2656 11.5608 19.5397 11.532C19.5481 11.5312 19.5561 11.5255 19.5643 11.5221H20.5111L20.5114 11.521ZM18.7556 26.0069C18.7577 26.0119 18.7599 26.0168 18.7621 26.0218H18.8493C21.9963 26.0218 25.143 26.0218 28.2899 26.0214C28.4964 26.0214 28.7026 26.0151 28.909 26.013C29.1876 26.0101 29.4652 25.9931 29.7414 25.9574C30.0459 25.918 30.3439 25.852 30.6266 25.7329C31.2384 25.4753 31.7366 25.0754 32.1437 24.567C32.4615 24.1701 32.6664 23.7181 32.8048 23.2363C32.8735 22.9969 32.9207 22.7538 32.9207 22.5038C32.9207 21.4936 32.9207 20.4836 32.9207 19.4734C32.9207 19.3039 32.9024 19.136 32.8688 18.9697C32.7806 18.5337 32.6065 18.1306 32.3731 17.7504C32.193 17.4567 31.9842 17.1844 31.7235 16.9526C31.3849 16.6515 31.0018 16.4175 30.5814 16.2404C30.1375 16.0533 29.6748 15.9586 29.1896 15.9595C27.6185 15.9621 26.0474 15.9601 24.4763 15.9606C24.2815 15.9606 24.0871 15.9709 23.8936 15.996C23.4023 16.0592 22.9435 16.2132 22.5167 16.4578C22.0519 16.7242 21.673 17.0811 21.3511 17.4985C21.0617 17.8737 20.8645 18.2893 20.7602 18.7474C20.6706 19.141 20.6361 19.54 20.6357 19.9419C20.6355 20.3722 20.6443 20.8028 20.6486 21.2332C20.6542 21.792 20.6592 22.3511 20.5963 22.908C20.5711 23.1323 20.537 23.355 20.4745 23.5724C20.3228 24.1009 20.0763 24.5854 19.7447 25.0289C19.5367 25.3071 19.3046 25.564 19.023 25.7757C18.9588 25.8239 18.898 25.8765 18.837 25.9286C18.8084 25.953 18.7827 25.9805 18.7556 26.0067V26.0069ZM13.7195 21.3041C13.7165 21.305 13.7137 21.3056 13.7107 21.3065C13.7083 21.3005 13.7046 21.2948 13.7036 21.2886C13.6426 20.9492 13.5799 20.6101 13.5213 20.2704C13.4754 20.0039 13.4405 19.7355 13.39 19.4697C13.3465 19.2396 13.2909 19.0115 13.2351 18.7837C13.1739 18.5339 13.1062 18.2859 13.0685 18.0313C13.0608 17.9786 13.0539 17.9256 13.0463 17.8715H11.4981C11.4847 17.9299 11.4709 17.9864 11.4593 18.0432C11.3983 18.3391 11.3418 18.6358 11.2761 18.9308C11.2246 19.1618 11.1654 19.3906 11.1305 19.6252C11.0943 19.8679 11.0412 20.1084 10.9928 20.3491C10.9294 20.6629 10.8596 20.9758 10.854 21.2976C10.854 21.3076 10.849 21.3173 10.8449 21.3335C10.8197 21.3082 10.8247 21.2825 10.8227 21.2598C10.8122 21.1272 10.81 20.9938 10.7924 20.8623C10.7465 20.5184 10.6965 20.175 10.6432 19.8322C10.6146 19.6475 10.5724 19.4648 10.5433 19.2801C10.4883 18.9306 10.4407 18.58 10.3851 18.2305C10.3694 18.131 10.3385 18.0335 10.3112 17.9357C10.2976 17.8871 10.264 17.8668 10.2075 17.867C9.68305 17.8691 9.15877 17.8683 8.63428 17.8685C8.61661 17.8685 8.59916 17.8713 8.57459 17.8735C9.05771 19.84 9.53953 21.8011 10.0207 23.7603H11.5556C11.5942 23.5806 11.6293 23.4063 11.6696 23.2333C11.7179 23.0246 11.7767 22.8182 11.82 22.6087C11.92 22.1253 12.015 21.6409 12.1083 21.1562C12.1633 20.8707 12.2124 20.584 12.2296 20.2933C12.2318 20.2565 12.237 20.2198 12.2408 20.183C12.2512 20.1919 12.2536 20.2003 12.2553 20.2092C12.3242 20.5952 12.3917 20.9815 12.4622 21.3673C12.5427 21.8085 12.6255 22.2492 12.7078 22.6902C12.7748 23.0486 12.8961 23.3961 12.9373 23.7614H14.5052C14.9838 21.7981 15.4617 19.8378 15.9405 17.8735H14.2289C14.2255 17.8953 14.2222 17.9128 14.2196 17.9306C14.2022 18.0532 14.1878 18.1762 14.1666 18.2982C14.1309 18.5047 14.0878 18.71 14.0531 18.9167C13.9824 19.3367 13.9119 19.7567 13.8473 20.1778C13.8066 20.4427 13.7745 20.709 13.7423 20.9752C13.7292 21.0844 13.7266 21.1949 13.7193 21.3048L13.7195 21.3041ZM16.6997 19.4959C16.6841 19.561 16.6856 23.7064 16.7005 23.7607H18.2583V19.4959H16.6997ZM17.4763 17.5413C17.3146 17.5447 17.1591 17.5668 17.0143 17.6345C16.7505 17.758 16.5936 17.9608 16.5755 18.2457C16.5576 18.5249 16.682 18.7433 16.9251 18.8942C17.061 18.9786 17.2138 19.0138 17.3733 19.024C17.5726 19.037 17.7674 19.0186 17.9508 18.936C18.2106 18.819 18.3591 18.6213 18.3789 18.3428C18.3996 18.0547 18.283 17.8293 18.0262 17.6784C17.8566 17.5787 17.6687 17.546 17.4763 17.5413Z" fill="#F3F3F3"/>
<path d="M22.7607 17.8681H28.0194V19.2608H24.4404V20.5718C24.442 20.5731 24.4437 20.5747 24.4454 20.5762C24.4471 20.5777 24.4488 20.5794 24.4508 20.5803C24.4527 20.5811 24.4553 20.5811 24.4575 20.5816C24.4598 20.582 24.462 20.5822 24.4644 20.5824C24.4667 20.5827 24.4691 20.5824 24.4713 20.5824C24.476 20.5824 24.4805 20.5824 24.4853 20.5824C24.4922 20.5824 24.4993 20.5824 24.5062 20.5824C25.5433 20.5824 26.5806 20.5824 27.6178 20.5824C27.6201 20.5824 27.6225 20.5824 27.6247 20.5824C27.6294 20.5824 27.6339 20.5829 27.6385 20.5833C27.6406 20.5833 27.643 20.5842 27.6451 20.5848C27.6473 20.5855 27.6494 20.5863 27.6516 20.5872C27.6647 20.6363 27.6675 21.8738 27.6533 21.9577C27.6281 21.9577 27.601 21.9577 27.574 21.9577C27.0034 21.9607 26.4326 21.9631 25.862 21.967C25.4166 21.9698 24.9714 21.9743 24.526 21.978C24.5077 21.978 24.4894 21.978 24.4631 21.978C24.4508 22.2782 24.454 22.5745 24.4499 22.8706C24.4458 23.1653 24.4396 23.4601 24.4344 23.754C24.3829 23.7683 22.8635 23.7733 22.761 23.7596V17.8672L22.7607 17.8681Z" fill="#F3F3F3"/>
<path d="M28.9805 19.4919H30.5542V23.762H28.9805V19.4919Z" fill="#F3F3F3"/>
<path d="M29.7302 19.0294C29.5197 19.0435 29.3309 18.987 29.1656 18.8607C29.0185 18.7483 28.9142 18.606 28.8883 18.4228C28.8534 18.1749 28.8924 17.9459 29.0978 17.7688C29.2074 17.6743 29.3341 17.6102 29.4757 17.5767C29.7959 17.501 30.1013 17.5248 30.3792 17.7143C30.4831 17.7852 30.5695 17.8717 30.626 17.984C30.6589 18.0497 30.6773 18.1187 30.6768 18.1922C30.6766 18.2463 30.6755 18.3004 30.6768 18.3544C30.6816 18.5361 30.6055 18.6823 30.4665 18.7989C30.2834 18.9522 30.0651 19.0171 29.8274 19.0292C29.7951 19.0309 29.7625 19.0294 29.73 19.0294H29.7302Z" fill="#F3F3F3"/>
</g>
<defs>
<clipPath id="clip0_54_2420">
<rect width="27.6139" height="18.5915" fill="white" transform="translate(6.19727 11.521)"/>
</clipPath>
</defs>
</svg>
