<svg width="213" height="130" viewBox="0 0 213 130" fill="none" xmlns="http://www.w3.org/2000/svg">
<g clip-path="url(#clip0_54_415)">
<path d="M80.0992 67.154V104.735H71.9599V99.3193C69.0922 103.299 64.6504 105.709 58.7687 105.709C48.5183 105.709 40.0007 97.0679 40.0007 85.9445C40.0007 74.8211 48.5183 66.1804 58.7687 66.1804C64.6504 66.1804 69.0922 68.5901 71.9599 72.4967V67.1662H80.0992V67.154ZM71.9599 85.9445C71.9599 78.9589 66.8347 73.9205 60.0499 73.9205C53.2652 73.9205 48.14 78.9589 48.14 85.9445C48.14 92.9301 53.2652 97.9685 60.0499 97.9685C66.8347 97.9685 71.9599 92.9301 71.9599 85.9445Z" fill="#49744F"/>
<path d="M109.337 66.4727V75.2594C103.992 74.8821 97.7323 77.3648 97.7323 85.7865V104.723H89.593V67.142H97.7323V73.4582C99.9898 68.3468 104.59 66.4727 109.337 66.4727Z" fill="#49744F"/>
<path d="M132.083 98.2605C136.598 98.2605 139.991 96.2281 141.809 93.5994L148.52 97.506C145.055 102.617 139.405 105.696 132.022 105.696C119.588 105.696 111.521 97.2017 111.521 85.9323C111.521 74.6629 119.588 66.1682 131.412 66.1682C143.237 66.1682 150.326 75.1862 150.326 86.0053C150.326 87.1371 150.18 88.3298 150.021 89.3886H120.027C121.308 95.2545 126.055 98.2605 132.083 98.2605ZM142.114 82.7803C140.979 76.318 136.232 73.5311 131.339 73.5311C125.237 73.5311 121.088 77.1334 119.954 82.7803H142.114Z" fill="#49744F"/>
<path d="M0 85.9445C0 74.7481 8.51756 66.1804 19.8906 66.1804C27.2733 66.1804 33.6797 70.014 36.6938 75.8799L29.6894 79.9325C28.0298 76.4032 24.3446 74.1518 19.8174 74.1518C13.1912 74.1518 8.13927 79.1902 8.13927 85.9567C8.13927 92.7232 13.1912 97.7616 19.8174 97.7616C24.3446 97.7616 28.0298 95.4371 29.8359 91.9687L36.8403 95.9483C33.6797 101.887 27.2733 105.721 19.8906 105.721C8.51756 105.721 0 97.0801 0 85.9567L0 85.9445Z" fill="#49744F"/>
<path d="M193.781 66.1804H174.024V105.709H193.781C204.848 105.709 213 96.9584 213 85.9445C213 74.9307 204.848 66.1804 193.781 66.1804ZM193.781 97.8468H181.895V74.0301H193.781C200.358 74.0301 205.129 79.0441 205.129 85.9445C205.129 92.8449 200.358 97.8589 193.781 97.8589V97.8468Z" fill="#49744F"/>
<path d="M162.175 90.9342C164.938 90.9342 167.178 88.7003 167.178 85.9445C167.178 83.1888 164.938 80.9548 162.175 80.9548C159.412 80.9548 157.172 83.1888 157.172 85.9445C157.172 88.7003 159.412 90.9342 162.175 90.9342Z" fill="#49744F"/>
<path d="M82.125 4.14995C82.9304 4.05259 83.7968 4.00391 84.6998 4.00391C88.4339 4.00391 92.1435 4.84364 93.7177 5.20874C95.2552 5.62252 97.6836 6.57178 100.417 8.72587C102.443 10.4297 103.895 12.4864 104.737 14.8352L104.554 14.8596C100.832 15.4072 88.6291 17.9994 82.1372 29.0376V4.14995H82.125Z" fill="#AA8D68"/>
<path d="M100.905 49.7144C99.1479 49.7144 97.9154 49.5927 97.4639 49.5441C91.509 49.3007 88.1044 47.2561 86.9207 46.392L86.3228 45.9052C83.6503 43.739 82.125 40.6721 82.125 37.4714C82.125 31.3986 87.2502 26.4697 93.5346 26.4697C96.1216 26.4697 98.5622 27.2973 100.612 28.8672L100.832 29.0254C101.637 29.6583 104.468 31.7515 105.164 32.2261C109.362 35.0739 114.279 36.7169 118.672 36.7169C122.528 36.7169 125.872 35.4512 128.422 33.0537C127.483 35.4512 125.823 38.9196 123.102 41.5605C116.122 48.6435 106.201 49.7023 100.905 49.7023V49.7144Z" fill="#AA8D68"/>
<path d="M119.234 33.93C115.305 33.93 111.985 32.713 109.886 30.4859C108.105 28.6117 107.287 26.0925 107.47 23.0135C107.507 22.4415 107.531 21.9304 107.617 21.4314C107.922 19.9223 109.057 12.1335 102.272 6.25538C99.3677 3.88223 96.7685 2.83561 95.0845 2.37315C93.8764 2.09324 91.4846 1.52125 88.7512 1.26568C91.6067 0.59633 95.2675 0 99.3921 0C107.251 0 114.402 2.10541 120.637 6.24321C125.726 9.49261 129.753 15.2612 130.668 20.6038C131.266 24.121 130.46 27.2852 128.337 29.7557C126.092 32.36 122.687 33.9178 119.234 33.9178V33.93Z" fill="#AA8D68"/>
<path d="M45.3955 130.146L39.5992 122.564V130.146H37V118.219H39.4284L45.0294 125.558V118.219H47.6286V130.146H45.3955Z" fill="white"/>
<path d="M60.7712 127.322C60.5271 127.992 60.1732 128.551 59.7217 129.002C59.2702 129.452 58.7089 129.781 58.0622 130.012C57.4154 130.231 56.6954 130.34 55.8901 130.34C54.2793 130.34 53.0224 129.902 52.095 129.014C51.1676 128.125 50.7161 126.811 50.7161 125.046V118.231H53.3519V124.973C53.3519 125.947 53.5837 126.689 54.0352 127.176C54.4867 127.675 55.1213 127.919 55.9267 127.919C56.732 127.919 57.3666 127.675 57.8181 127.2C58.2696 126.726 58.5015 126.008 58.5015 125.059V118.231H61.1373V124.961C61.1373 125.874 61.0152 126.653 60.7712 127.334V127.322Z" fill="white"/>
<path d="M71.4972 130.146L68.9347 126.324H66.8724V130.146H64.2366V118.219H69.7034C71.1312 118.219 72.2294 118.56 73.0226 119.253C73.8158 119.947 74.2063 120.909 74.2063 122.15V122.186C74.2063 123.148 73.9744 123.939 73.4985 124.547C73.0226 125.156 72.4125 125.606 71.6437 125.886L74.5601 130.146H71.485H71.4972ZM71.5461 122.296C71.5461 121.724 71.363 121.298 70.9969 121.018C70.6308 120.738 70.1305 120.592 69.4716 120.592H66.8602V124.012H69.5204C70.1671 124.012 70.6674 123.854 71.0213 123.549C71.363 123.245 71.5461 122.831 71.5461 122.32V122.284V122.296Z" fill="white"/>
<path d="M85.323 128.198C85.1034 128.661 84.8105 129.05 84.42 129.355C84.0295 129.671 83.578 129.902 83.0411 130.073C82.5042 130.243 81.9184 130.316 81.2717 130.316C80.3565 130.316 79.4657 130.158 78.5871 129.853C77.7085 129.549 76.9153 129.062 76.1953 128.417L77.7451 126.555C78.2942 126.994 78.8555 127.346 79.4291 127.614C80.0026 127.882 80.6371 128.004 81.3205 128.004C81.8696 128.004 82.2967 127.906 82.5896 127.699C82.8947 127.505 83.0411 127.225 83.0411 126.872V126.835C83.0411 126.665 83.0045 126.519 82.9435 126.385C82.8825 126.251 82.7604 126.129 82.5896 126.02C82.4065 125.91 82.1625 125.789 81.8574 125.679C81.5401 125.57 81.1375 125.448 80.6371 125.326C80.027 125.18 79.4779 125.01 78.9898 124.827C78.5016 124.645 78.0867 124.426 77.7451 124.158C77.4034 123.89 77.1349 123.562 76.9519 123.16C76.7688 122.758 76.6712 122.272 76.6712 121.675V121.639C76.6712 121.091 76.7688 120.604 76.9763 120.166C77.1837 119.728 77.4644 119.351 77.8305 119.034C78.1966 118.718 78.6359 118.475 79.1484 118.304C79.6609 118.134 80.2222 118.049 80.8324 118.049C81.711 118.049 82.5164 118.182 83.2485 118.438C83.9807 118.694 84.6641 119.071 85.2742 119.558L83.9075 121.529C83.3706 121.164 82.8458 120.884 82.3333 120.665C81.8208 120.458 81.3083 120.349 80.7958 120.349C80.2833 120.349 79.8928 120.446 79.6365 120.653C79.3802 120.86 79.2582 121.103 79.2582 121.395V121.432C79.2582 121.627 79.2948 121.797 79.368 121.931C79.4413 122.077 79.5755 122.199 79.7707 122.32C79.966 122.43 80.2344 122.539 80.5639 122.649C80.9056 122.746 81.3205 122.868 81.8452 123.002C82.4554 123.16 82.9923 123.343 83.4682 123.537C83.9441 123.732 84.3468 123.975 84.6641 124.255C84.9813 124.535 85.2376 124.864 85.3962 125.229C85.5671 125.606 85.6403 126.056 85.6403 126.58V126.616C85.6403 127.213 85.5305 127.736 85.323 128.198Z" fill="white"/>
<path d="M88.4592 130.146V118.219H91.095V130.146H88.4592Z" fill="white"/>
<path d="M102.883 130.146L97.0865 122.564V130.146H94.4873V118.219H96.9157L102.517 125.558V118.219H105.116V130.146H102.883Z" fill="white"/>
<path d="M117.063 129.805C116.209 130.17 115.245 130.365 114.146 130.365C113.207 130.365 112.365 130.207 111.596 129.902C110.827 129.598 110.168 129.172 109.619 128.624C109.07 128.077 108.643 127.432 108.326 126.677C108.02 125.923 107.862 125.107 107.862 124.219V124.182C107.862 123.33 108.02 122.527 108.326 121.785C108.631 121.043 109.07 120.385 109.631 119.826C110.193 119.266 110.852 118.815 111.608 118.499C112.377 118.17 113.207 118.012 114.122 118.012C114.659 118.012 115.147 118.049 115.586 118.122C116.025 118.195 116.428 118.304 116.806 118.438C117.185 118.572 117.539 118.742 117.868 118.949C118.198 119.156 118.515 119.387 118.82 119.643L117.16 121.639C116.929 121.444 116.709 121.274 116.477 121.128C116.245 120.982 116.013 120.86 115.769 120.75C115.525 120.641 115.257 120.568 114.976 120.507C114.695 120.446 114.378 120.422 114.036 120.422C113.561 120.422 113.109 120.519 112.694 120.726C112.279 120.933 111.913 121.189 111.596 121.529C111.279 121.87 111.035 122.26 110.864 122.71C110.693 123.16 110.595 123.635 110.595 124.158V124.195C110.595 124.742 110.681 125.241 110.864 125.704C111.047 126.166 111.291 126.568 111.62 126.908C111.95 127.249 112.328 127.517 112.767 127.7C113.207 127.882 113.695 127.979 114.232 127.979C115.208 127.979 116.038 127.736 116.709 127.261V125.545H114.061V123.282H119.259V128.466C118.649 128.99 117.917 129.44 117.063 129.805Z" fill="white"/>
<path d="M133.854 130.146V125.363H128.997V130.146H126.361V118.219H128.997V122.941H133.854V118.219H136.489V130.146H133.854Z" fill="white"/>
<path d="M151.462 126.58C151.145 127.322 150.706 127.979 150.144 128.539C149.583 129.099 148.912 129.549 148.131 129.866C147.35 130.194 146.496 130.353 145.581 130.353C144.665 130.353 143.811 130.194 143.03 129.866C142.261 129.537 141.59 129.111 141.017 128.551C140.455 128.004 140.016 127.347 139.699 126.604C139.382 125.862 139.235 125.059 139.235 124.207V124.17C139.235 123.318 139.394 122.515 139.711 121.773C140.028 121.03 140.468 120.373 141.041 119.813C141.602 119.254 142.274 118.803 143.055 118.487C143.836 118.158 144.69 118 145.605 118C146.52 118 147.374 118.158 148.155 118.487C148.924 118.815 149.595 119.254 150.169 119.801C150.73 120.349 151.169 121.006 151.487 121.748C151.804 122.491 151.963 123.294 151.963 124.146V124.182C151.963 125.034 151.804 125.837 151.487 126.58H151.462ZM149.193 124.182C149.193 123.671 149.107 123.184 148.924 122.734C148.741 122.284 148.497 121.882 148.168 121.541C147.838 121.201 147.46 120.933 147.02 120.726C146.581 120.531 146.093 120.422 145.568 120.422C145.044 120.422 144.543 120.519 144.104 120.714C143.665 120.909 143.286 121.176 142.981 121.517C142.676 121.858 142.42 122.247 142.249 122.698C142.078 123.148 141.981 123.623 141.981 124.134V124.17C141.981 124.681 142.066 125.168 142.249 125.618C142.432 126.069 142.676 126.47 143.006 126.811C143.335 127.152 143.714 127.42 144.153 127.626C144.592 127.821 145.08 127.931 145.617 127.931C146.154 127.931 146.63 127.833 147.069 127.639C147.509 127.444 147.887 127.176 148.204 126.835C148.521 126.495 148.765 126.105 148.936 125.655C149.107 125.205 149.205 124.73 149.205 124.219V124.182H149.193Z" fill="white"/>
<path d="M164.056 130.146V122.357L160.688 127.456H160.614L157.283 122.418V130.158H154.684V118.231H157.515L160.663 123.27L163.812 118.231H166.643V130.158H164.043L164.056 130.146Z" fill="white"/>
<path d="M169.925 130.146V118.219H178.931V120.556H172.524V122.977H178.162V125.314H172.524V127.821H179.016V130.158H169.925V130.146Z" fill="white"/>
</g>
<defs>
<clipPath id="clip0_54_415">
<rect width="213" height="130" fill="white"/>
</clipPath>
</defs>
</svg>
