<svg width="114" height="70" viewBox="0 0 114 70" fill="none" xmlns="http://www.w3.org/2000/svg">
<g clip-path="url(#clip0_54_1626)">
<path d="M42.8703 36.1599V56.3958H38.5141V53.4797C36.9793 55.6225 34.602 56.92 31.454 56.92C25.9679 56.92 21.4092 52.2673 21.4092 46.2778C21.4092 40.2883 25.9679 35.6356 31.454 35.6356C34.602 35.6356 36.9793 36.9331 38.5141 39.0367V36.1664H42.8703V36.1599ZM38.5141 46.2778C38.5141 42.5164 35.771 39.8034 32.1397 39.8034C28.5085 39.8034 25.7654 42.5164 25.7654 46.2778C25.7654 50.0393 28.5085 52.7523 32.1397 52.7523C35.771 52.7523 38.5141 50.0393 38.5141 46.2778Z" fill="#49744F"/>
<path d="M58.5185 35.7929V40.5242C55.6578 40.3211 52.3074 41.6579 52.3074 46.1926V56.3892H47.9512V36.1533H52.3074V39.5544C53.5157 36.8021 55.9779 35.7929 58.5185 35.7929Z" fill="#49744F"/>
<path d="M70.6924 52.9096C73.1089 52.9096 74.9245 51.8152 75.8976 50.3997L79.4897 52.5033C77.6349 55.2556 74.611 56.9135 70.6597 56.9135C64.0045 56.9135 59.6875 52.3394 59.6875 46.2713C59.6875 40.2031 64.0045 35.6291 70.3332 35.6291C76.6618 35.6291 80.4563 40.4849 80.4563 46.3106C80.4563 46.92 80.378 47.5622 80.2931 48.1324H64.2397C64.9254 51.291 67.466 52.9096 70.6924 52.9096ZM76.0609 44.574C75.4535 41.0944 72.9129 39.5937 70.294 39.5937C67.0284 39.5937 64.8079 41.5334 64.2005 44.574H76.0609Z" fill="#49744F"/>
<path d="M0 46.2778C0 40.249 4.55869 35.6356 10.6457 35.6356C14.597 35.6356 18.0258 37.6998 19.639 40.8584L15.8901 43.0406C15.0019 41.1402 13.0295 39.9279 10.6065 39.9279C7.0601 39.9279 4.35623 42.6409 4.35623 46.2844C4.35623 49.9279 7.0601 52.6409 10.6065 52.6409C13.0295 52.6409 15.0019 51.3892 15.9685 49.5216L19.7173 51.6645C18.0258 54.8624 14.597 56.9266 10.6457 56.9266C4.55869 56.9266 0 52.2739 0 46.2844L0 46.2778Z" fill="#49744F"/>
<path d="M103.713 35.6356H93.1396V56.92H103.713C109.637 56.92 114 52.2084 114 46.2778C114 40.3473 109.637 35.6356 103.713 35.6356ZM103.713 52.6867H97.3522V39.8624H103.713C107.234 39.8624 109.787 42.5622 109.787 46.2778C109.787 49.9934 107.234 52.6933 103.713 52.6933V52.6867Z" fill="#49744F"/>
<path d="M86.7979 48.9646C88.2767 48.9646 89.4756 47.7617 89.4756 46.2778C89.4756 44.794 88.2767 43.5911 86.7979 43.5911C85.319 43.5911 84.1201 44.794 84.1201 46.2778C84.1201 47.7617 85.319 48.9646 86.7979 48.9646Z" fill="#49744F"/>
<path d="M43.9541 2.23458C44.3852 2.18216 44.8489 2.15594 45.3322 2.15594C47.3307 2.15594 49.3161 2.60811 50.1586 2.8047C50.9815 3.0275 52.2812 3.53864 53.7442 4.69854C54.8283 5.61597 55.6055 6.72344 56.0562 7.98819L55.9582 8.00129C53.9662 8.29618 47.4352 9.69199 43.9606 15.6356V2.23458H43.9541Z" fill="#AA8D68"/>
<path d="M54.0054 26.7693C53.065 26.7693 52.4053 26.7038 52.1637 26.6776C48.9765 26.5465 47.1543 25.4456 46.5208 24.9803L46.2008 24.7182C44.7705 23.5518 43.9541 21.9004 43.9541 20.1769C43.9541 16.9069 46.6972 14.2529 50.0607 14.2529C51.4452 14.2529 52.7515 14.6985 53.8487 15.5439L53.9662 15.6291C54.3973 15.9698 55.9125 17.097 56.2848 17.3525C58.5315 18.886 61.1635 19.7706 63.5147 19.7706C65.5785 19.7706 67.368 19.0891 68.733 17.7981C68.2301 19.0891 67.3419 20.9567 65.8855 22.3787C62.1497 26.1926 56.8399 26.7628 54.0054 26.7628V26.7693Z" fill="#AA8D68"/>
<path d="M63.8146 18.27C61.7116 18.27 59.9352 17.6147 58.8118 16.4155C57.8583 15.4063 57.4207 14.0498 57.5187 12.3919C57.5383 12.0839 57.5513 11.8087 57.597 11.54C57.7603 10.7274 58.3677 6.53342 54.7364 3.36828C53.182 2.09043 51.7909 1.52687 50.8896 1.27785C50.243 1.12713 48.963 0.819135 47.5 0.68152C49.0283 0.321101 50.9876 0 53.1951 0C57.4011 0 61.2283 1.13368 64.5657 3.36173C67.2892 5.1114 69.4444 8.21756 69.9343 11.0944C70.2543 12.9882 69.8232 14.692 68.6868 16.0223C67.4851 17.4246 65.6629 18.2634 63.8146 18.2634V18.27Z" fill="#AA8D68"/>
<path d="M23.6233 69.8952L20.521 65.8126V69.8952H19.1299V63.4731H20.4296L23.4273 67.4247V63.4731H24.8185V69.8952H23.6233Z" fill="#10223E"/>
<path d="M31.8523 68.3748C31.7217 68.7352 31.5323 69.0367 31.2906 69.2791C31.049 69.5216 30.7486 69.6985 30.4024 69.8231C30.0563 69.941 29.6709 70 29.2399 70C28.3778 70 27.7051 69.7641 27.2087 69.2857C26.7124 68.8073 26.4707 68.0996 26.4707 67.1494V63.4797H27.8814V67.1101C27.8814 67.6343 28.0055 68.0341 28.2472 68.2962C28.4888 68.5649 28.8284 68.6959 29.2595 68.6959C29.6905 68.6959 30.0301 68.5649 30.2718 68.3093C30.5134 68.0537 30.6375 67.6671 30.6375 67.156V63.4797H32.0482V67.1035C32.0482 67.595 31.9829 68.0144 31.8523 68.3814V68.3748Z" fill="#10223E"/>
<path d="M37.593 69.8952L36.2215 67.8375H35.1177V69.8952H33.707V63.4731H36.633C37.3971 63.4731 37.9849 63.6566 38.4094 64.0302C38.8339 64.4037 39.0429 64.9214 39.0429 65.5898V65.6095C39.0429 66.1271 38.9188 66.5531 38.6641 66.8807C38.4094 67.2084 38.0829 67.4509 37.6714 67.6016L39.2323 69.8952H37.5865H37.593ZM37.6191 65.6684C37.6191 65.3604 37.5212 65.1311 37.3253 64.9804C37.1293 64.8296 36.8615 64.751 36.5089 64.751H35.1112V66.5924H36.535C36.8811 66.5924 37.1489 66.5072 37.3383 66.3434C37.5212 66.1796 37.6191 65.9568 37.6191 65.6815V65.6619V65.6684Z" fill="#10223E"/>
<path d="M44.9927 68.8466C44.8751 69.0956 44.7184 69.3053 44.5094 69.4692C44.3004 69.6395 44.0587 69.764 43.7714 69.8558C43.484 69.9475 43.1705 69.9869 42.8244 69.9869C42.3345 69.9869 41.8578 69.9017 41.3875 69.7378C40.9173 69.574 40.4928 69.3119 40.1074 68.9646L40.9369 67.9619C41.2308 68.1979 41.5312 68.3879 41.8382 68.5321C42.1451 68.6762 42.4847 68.7418 42.8505 68.7418C43.1444 68.7418 43.373 68.6893 43.5297 68.5779C43.693 68.4731 43.7714 68.3224 43.7714 68.1323V68.1127C43.7714 68.0209 43.7518 67.9423 43.7191 67.8702C43.6865 67.7981 43.6211 67.7326 43.5297 67.6736C43.4317 67.6146 43.3011 67.5491 43.1378 67.4901C42.968 67.4312 42.7525 67.3656 42.4847 67.3001C42.1582 67.2215 41.8643 67.1297 41.603 67.0314C41.3418 66.9331 41.1197 66.8152 40.9369 66.671C40.754 66.5268 40.6103 66.3499 40.5123 66.1336C40.4144 65.9174 40.3621 65.6553 40.3621 65.3342V65.3145C40.3621 65.0196 40.4144 64.7575 40.5254 64.5216C40.6364 64.2857 40.7867 64.0825 40.9826 63.9121C41.1785 63.7418 41.4136 63.6107 41.6879 63.519C41.9622 63.4272 42.2627 63.3813 42.5892 63.3813C43.0595 63.3813 43.4905 63.4534 43.8824 63.591C44.2743 63.7287 44.64 63.9318 44.9665 64.1939L44.2351 65.2555C43.9477 65.0589 43.6669 64.9082 43.3926 64.7903C43.1183 64.6789 42.8439 64.6199 42.5696 64.6199C42.2953 64.6199 42.0863 64.6723 41.9492 64.7837C41.812 64.8951 41.7467 65.0262 41.7467 65.1834V65.2031C41.7467 65.308 41.7663 65.3997 41.8055 65.4718C41.8447 65.5504 41.9165 65.6159 42.021 65.6815C42.1255 65.7405 42.2692 65.7994 42.4455 65.8584C42.6284 65.9108 42.8505 65.9764 43.1313 66.0485C43.4579 66.1336 43.7452 66.2319 43.9999 66.3368C44.2547 66.4416 44.4702 66.5727 44.64 66.7234C44.8098 66.8741 44.947 67.0511 45.0319 67.2477C45.1233 67.4508 45.1625 67.6933 45.1625 67.9751V67.9947C45.1625 68.3158 45.1037 68.5976 44.9927 68.8466Z" fill="#10223E"/>
<path d="M46.6719 69.8952V63.4731H48.0826V69.8952H46.6719Z" fill="#10223E"/>
<path d="M54.3908 69.8952L51.2886 65.8126V69.8952H49.8975V63.4731H51.1971L54.1949 67.4247V63.4731H55.586V69.8952H54.3908Z" fill="#10223E"/>
<path d="M61.9801 69.7116C61.5229 69.9082 61.007 70.0131 60.4192 70.0131C59.9163 70.0131 59.4656 69.9279 59.0542 69.7641C58.6427 69.6002 58.29 69.3709 57.9961 69.076C57.7022 68.7811 57.4737 68.4338 57.3038 68.0275C57.1406 67.6212 57.0557 67.1821 57.0557 66.7038V66.6841C57.0557 66.2254 57.1406 65.7929 57.3038 65.3931C57.4671 64.9934 57.7022 64.6395 58.0027 64.3381C58.3031 64.0367 58.6558 63.7942 59.0607 63.6238C59.4722 63.4469 59.9163 63.3617 60.4061 63.3617C60.6935 63.3617 60.9547 63.3814 61.1898 63.4207C61.425 63.46 61.6405 63.519 61.8429 63.5911C62.0454 63.6631 62.2348 63.7549 62.4111 63.8663C62.5875 63.9777 62.7573 64.1022 62.9206 64.2398L62.0323 65.3145C61.9083 65.2097 61.7907 65.1179 61.6666 65.0393C61.5425 64.9606 61.4184 64.8951 61.2878 64.8361C61.1572 64.7772 61.0135 64.7378 60.8633 64.7051C60.7131 64.6723 60.5433 64.6592 60.3604 64.6592C60.1057 64.6592 59.864 64.7116 59.642 64.823C59.4199 64.9344 59.224 65.072 59.0542 65.2555C58.8844 65.439 58.7537 65.6487 58.6623 65.8912C58.5709 66.1336 58.5186 66.3892 58.5186 66.671V66.6907C58.5186 66.9855 58.5643 67.2542 58.6623 67.5032C58.7603 67.7523 58.8909 67.9685 59.0672 68.152C59.2436 68.3355 59.446 68.4796 59.6812 68.5779C59.9163 68.6762 60.1775 68.7287 60.4649 68.7287C60.9874 68.7287 61.4315 68.5976 61.7907 68.342V67.4181H60.3735V66.1992H63.1557V68.9908C62.8291 69.2726 62.4373 69.515 61.9801 69.7116Z" fill="#10223E"/>
<path d="M70.9671 69.8952V67.3198H68.3677V69.8952H66.957V63.4731H68.3677V66.0157H70.9671V63.4731H72.3778V69.8952H70.9671Z" fill="#10223E"/>
<path d="M80.3918 67.9751C80.222 68.3748 79.9869 68.7287 79.6864 69.0301C79.386 69.3316 79.0268 69.574 78.6088 69.7444C78.1908 69.9213 77.7336 70.0065 77.2438 70.0065C76.754 70.0065 76.2968 69.9213 75.8788 69.7444C75.4674 69.5675 75.1082 69.3381 74.8012 69.0367C74.5008 68.7418 74.2656 68.3879 74.0958 67.9882C73.926 67.5885 73.8477 67.1559 73.8477 66.6972V66.6776C73.8477 66.2189 73.9326 65.7864 74.1024 65.3866C74.2722 64.9869 74.5073 64.633 74.8143 64.3316C75.1147 64.0301 75.4739 63.7877 75.8919 63.6173C76.3099 63.4404 76.767 63.3552 77.2569 63.3552C77.7467 63.3552 78.2039 63.4404 78.6219 63.6173C79.0333 63.7942 79.3925 64.0301 79.6995 64.325C79.9999 64.6199 80.2351 64.9738 80.4049 65.3735C80.5747 65.7733 80.6596 66.2058 80.6596 66.6645V66.6841C80.6596 67.1428 80.5747 67.5753 80.4049 67.9751H80.3918ZM79.177 66.6841C79.177 66.4089 79.1313 66.1468 79.0333 65.9043C78.9354 65.6618 78.8047 65.4456 78.6284 65.2621C78.4521 65.0786 78.2496 64.9345 78.0145 64.8231C77.7794 64.7182 77.5181 64.6592 77.2373 64.6592C76.9565 64.6592 76.6887 64.7117 76.4536 64.8165C76.2184 64.9214 76.016 65.0655 75.8527 65.249C75.6894 65.4325 75.5523 65.6422 75.4608 65.8847C75.3694 66.1271 75.3171 66.3827 75.3171 66.6579V66.6776C75.3171 66.9528 75.3629 67.2149 75.4608 67.4574C75.5588 67.6999 75.6894 67.9161 75.8658 68.0996C76.0421 68.2831 76.2446 68.4272 76.4797 68.5387C76.7148 68.6435 76.976 68.7025 77.2634 68.7025C77.5508 68.7025 77.8055 68.6501 78.0406 68.5452C78.2757 68.4404 78.4782 68.2962 78.648 68.1127C78.8178 67.9292 78.9484 67.7195 79.0399 67.4771C79.1313 67.2346 79.1835 66.979 79.1835 66.7038V66.6841H79.177Z" fill="#10223E"/>
<path d="M87.1311 69.8951V65.7012L85.3285 68.4469H85.2893L83.5064 65.7339V69.9017H82.1152V63.4797H83.6304L85.3155 66.1927L87.0005 63.4797H88.5157V69.9017H87.1246L87.1311 69.8951Z" fill="#10223E"/>
<path d="M90.2725 69.8952V63.4731H95.0924V64.7313H91.6636V66.0354H94.6809V67.2936H91.6636V68.6435H95.1381V69.9017H90.2725V69.8952Z" fill="#10223E"/>
</g>
<defs>
<clipPath id="clip0_54_1626">
<rect width="114" height="70" fill="white"/>
</clipPath>
</defs>
</svg>
