<svg width="147" height="90" viewBox="0 0 147 90" fill="none" xmlns="http://www.w3.org/2000/svg">
<g clip-path="url(#clip0_54_338)">
<path d="M55.2798 46.4826V72.5002H49.6625V68.7509C47.6834 71.506 44.6179 73.1743 40.5587 73.1743C33.4845 73.1743 27.6062 67.1922 27.6062 59.4914C27.6062 51.7906 33.4845 45.8086 40.5587 45.8086C44.6179 45.8086 47.6834 47.4768 49.6625 50.1814V46.4911H55.2798V46.4826ZM49.6625 59.4914C49.6625 54.6553 46.1254 51.1671 41.443 51.1671C36.7605 51.1671 33.2234 54.6553 33.2234 59.4914C33.2234 64.3276 36.7605 67.8157 41.443 67.8157C46.1254 67.8157 49.6625 64.3276 49.6625 59.4914Z" fill="white"/>
<path d="M75.458 46.0107V52.0939C71.7693 51.8327 67.449 53.5515 67.449 59.3818V72.4917H61.8318V46.4741H67.449V50.8469C69.007 47.3083 72.182 46.0107 75.458 46.0107Z" fill="white"/>
<path d="M91.1561 68.0176C94.2721 68.0176 96.6133 66.6105 97.8681 64.7906L102.5 67.4952C100.108 71.0338 96.2091 73.1655 91.114 73.1655C82.5323 73.1655 76.9656 67.2845 76.9656 59.4826C76.9656 51.6807 82.5323 45.7998 90.6929 45.7998C98.8535 45.7998 103.746 52.043 103.746 59.5332C103.746 60.3168 103.645 61.1424 103.536 61.8754H82.8355C83.7197 65.9365 86.9958 68.0176 91.1561 68.0176ZM98.0787 57.3005C97.2955 52.8266 94.0194 50.8972 90.6423 50.8972C86.4315 50.8972 83.5682 53.3911 82.7849 57.3005H98.0787Z" fill="white"/>
<path d="M0 59.4914C0 51.7401 5.87831 45.8086 13.7273 45.8086C18.8224 45.8086 23.2438 48.4626 25.3239 52.5236L20.4899 55.3293C19.3445 52.8859 16.8012 51.3272 13.6768 51.3272C9.10381 51.3272 5.61724 54.8153 5.61724 59.4999C5.61724 64.1844 9.10381 67.6725 13.6768 67.6725C16.8012 67.6725 19.3445 66.0632 20.5909 63.662L25.425 66.4171C23.2438 70.5287 18.8224 73.1827 13.7273 73.1827C5.87831 73.1827 0 67.2007 0 59.4999L0 59.4914Z" fill="white"/>
<path d="M133.736 45.8086H120.101V73.1743H133.736C141.374 73.1743 147 67.1164 147 59.4914C147 51.8664 141.374 45.8086 133.736 45.8086ZM133.736 67.7315H125.533V51.243H133.736C138.275 51.243 141.568 54.7142 141.568 59.4914C141.568 64.2686 138.275 67.7399 133.736 67.7399V67.7315Z" fill="white"/>
<path d="M111.924 62.9459C113.831 62.9459 115.377 61.3993 115.377 59.4915C115.377 57.5837 113.831 56.0371 111.924 56.0371C110.017 56.0371 108.471 57.5837 108.471 59.4915C108.471 61.3993 110.017 62.9459 111.924 62.9459Z" fill="white"/>
<path d="M56.6777 2.8638C57.2336 2.7964 57.8315 2.7627 58.4547 2.7627C61.0317 2.7627 63.5919 3.34405 64.6783 3.59681C65.7394 3.88327 67.4153 4.54045 69.3018 6.03175C70.6998 7.2113 71.702 8.63519 72.2831 10.2613L72.1567 10.2781C69.5881 10.6573 61.1665 12.4519 56.6862 20.0937V2.8638H56.6777Z" fill="#AA8D68"/>
<path d="M69.6387 34.4089C68.4259 34.4089 67.5754 34.3246 67.2638 34.2909C63.154 34.1224 60.8043 32.707 59.9874 32.1088L59.5748 31.7718C57.7304 30.272 56.6777 28.1488 56.6777 25.933C56.6777 21.7287 60.2148 18.3164 64.552 18.3164C66.3374 18.3164 68.0217 18.8893 69.4365 19.9762L69.5881 20.0857C70.144 20.5239 72.0978 21.973 72.5778 22.3016C75.4749 24.2732 78.8688 25.4106 81.9006 25.4106C84.5618 25.4106 86.8694 24.5343 88.6295 22.8745C87.981 24.5343 86.8357 26.9356 84.9576 28.7639C80.1405 33.6675 73.2937 34.4005 69.6387 34.4005V34.4089Z" fill="#AA8D68"/>
<path d="M82.288 23.4812C79.5763 23.4812 77.2856 22.6387 75.837 21.0968C74.6075 19.7993 74.0432 18.0552 74.1695 15.9236C74.1948 15.5276 74.2117 15.1738 74.2706 14.8283C74.4812 13.7836 75.2644 8.39132 70.5819 4.32186C68.5776 2.67891 66.7838 1.95433 65.6216 1.63416C64.7878 1.44038 63.1372 1.04438 61.2507 0.867451C63.2214 0.404055 65.7479 -0.00878906 68.5944 -0.00878906C74.018 -0.00878906 78.953 1.4488 83.2565 4.31344C86.7683 6.56301 89.5475 10.5566 90.1791 14.2554C90.5918 16.6903 90.0359 18.8809 88.5706 20.5913C87.021 22.3943 84.6714 23.4728 82.288 23.4728V23.4812Z" fill="#AA8D68"/>
<path d="M30.4611 89.8565L26.4608 84.6075V89.8565H24.667V81.5996H26.3429L30.2084 86.6801V81.5996H32.0023V89.8565H30.4611Z" fill="white"/>
<path d="M41.0723 87.9022C40.9038 88.3656 40.6596 88.7531 40.348 89.0649C40.0364 89.3766 39.649 89.6041 39.2026 89.7642C38.7563 89.9158 38.2594 89.9917 37.7036 89.9917C36.5919 89.9917 35.7245 89.6883 35.0845 89.0733C34.4444 88.4582 34.1328 87.5483 34.1328 86.3266V81.6084H35.9519V86.2761C35.9519 86.9501 36.1119 87.464 36.4235 87.8011C36.7351 88.1465 37.173 88.315 37.7289 88.315C38.2847 88.315 38.7226 88.1465 39.0342 87.8179C39.3458 87.4893 39.5058 86.9922 39.5058 86.335V81.6084H41.3249V86.2676C41.3249 86.8995 41.2407 87.4388 41.0723 87.9106V87.9022Z" fill="white"/>
<path d="M48.475 89.8565L46.7064 87.2109H45.2832V89.8565H43.4641V81.5996H47.237C48.2223 81.5996 48.9803 81.8355 49.5277 82.3158C50.0751 82.796 50.3446 83.4616 50.3446 84.321V84.3463C50.3446 85.0119 50.1846 85.5595 49.8561 85.9808C49.5277 86.4021 49.1066 86.7138 48.5761 86.9076L50.5888 89.8565H48.4666H48.475ZM48.5087 84.4221C48.5087 84.0261 48.3824 83.7312 48.1297 83.5375C47.8771 83.3437 47.5318 83.2426 47.077 83.2426H45.2748V85.6101H47.1107C47.557 85.6101 47.9023 85.5006 48.1465 85.2899C48.3824 85.0793 48.5087 84.7928 48.5087 84.439V84.4137V84.4221Z" fill="white"/>
<path d="M58.0167 88.5092C57.8651 88.8294 57.663 89.099 57.3935 89.3096C57.124 89.5287 56.8124 89.6887 56.4418 89.8067C56.0713 89.9247 55.667 89.9752 55.2207 89.9752C54.5891 89.9752 53.9743 89.8657 53.3679 89.6551C52.7616 89.4444 52.2142 89.1074 51.7173 88.6609L52.7868 87.3718C53.1658 87.6751 53.5532 87.9194 53.949 88.1048C54.3448 88.2901 54.7828 88.3744 55.2544 88.3744C55.6334 88.3744 55.9281 88.307 56.1302 88.1638C56.3408 88.0289 56.4418 87.8352 56.4418 87.5908V87.5656C56.4418 87.4476 56.4166 87.3465 56.3745 87.2538C56.3324 87.1611 56.2481 87.0769 56.1302 87.0011C56.0039 86.9252 55.8355 86.841 55.6249 86.7651C55.406 86.6893 55.1281 86.6051 54.7828 86.5208C54.3617 86.4197 53.9827 86.3017 53.6458 86.1754C53.309 86.049 53.0226 85.8973 52.7868 85.712C52.551 85.5266 52.3658 85.2991 52.2394 85.0211C52.1131 84.7431 52.0457 84.406 52.0457 83.9932V83.9679C52.0457 83.5888 52.1131 83.2518 52.2563 82.9484C52.3994 82.6451 52.5931 82.3839 52.8458 82.1649C53.0984 81.9458 53.4016 81.7773 53.7553 81.6594C54.109 81.5414 54.4964 81.4824 54.9175 81.4824C55.5239 81.4824 56.0797 81.5751 56.585 81.752C57.0903 81.929 57.5619 82.1902 57.983 82.5272L57.0398 83.8921C56.6692 83.6393 56.3071 83.4455 55.9534 83.2939C55.5997 83.1507 55.246 83.0748 54.8922 83.0748C54.5385 83.0748 54.269 83.1422 54.0922 83.2855C53.9153 83.4287 53.8311 83.5972 53.8311 83.7994V83.8247C53.8311 83.9595 53.8564 84.0774 53.9069 84.1701C53.9574 84.2712 54.0501 84.3555 54.1848 84.4397C54.3196 84.5156 54.5049 84.5914 54.7322 84.6672C54.968 84.7346 55.2544 84.8189 55.6165 84.9116C56.0376 85.0211 56.4081 85.1475 56.7366 85.2823C57.065 85.4171 57.343 85.5856 57.5619 85.7794C57.7809 85.9732 57.9577 86.2006 58.0672 86.4534C58.1851 86.7146 58.2356 87.0263 58.2356 87.3886V87.4139C58.2356 87.8267 58.1599 88.189 58.0167 88.5092Z" fill="white"/>
<path d="M60.1812 89.8565V81.5996H62.0002V89.8565H60.1812Z" fill="white"/>
<path d="M70.1354 89.8565L66.1351 84.6075V89.8565H64.3413V81.5996H66.0172L69.8828 86.6801V81.5996H71.6766V89.8565H70.1354Z" fill="white"/>
<path d="M79.9215 89.6212C79.3319 89.874 78.6666 90.0088 77.9087 90.0088C77.2602 90.0088 76.6791 89.8993 76.1486 89.6886C75.618 89.478 75.1632 89.1831 74.7843 88.804C74.4053 88.4248 74.1105 87.9783 73.8916 87.4559C73.681 86.9335 73.5715 86.369 73.5715 85.754V85.7287C73.5715 85.1389 73.681 84.5828 73.8916 84.0689C74.1021 83.555 74.4053 83.1 74.7927 82.7124C75.1801 82.3248 75.6348 82.0131 76.157 81.794C76.6875 81.5666 77.2602 81.457 77.8918 81.457C78.2624 81.457 78.5993 81.4823 78.9024 81.5329C79.2056 81.5834 79.4835 81.6592 79.7446 81.7519C80.0057 81.8446 80.2499 81.9626 80.4773 82.1058C80.7047 82.249 80.9236 82.4091 81.1342 82.586L79.9888 83.9678C79.8288 83.833 79.6772 83.715 79.5172 83.6139C79.3572 83.5128 79.1972 83.4286 79.0288 83.3527C78.8603 83.2769 78.6751 83.2264 78.4814 83.1842C78.2877 83.1421 78.0687 83.1253 77.8329 83.1253C77.5044 83.1253 77.1928 83.1927 76.9065 83.3359C76.6202 83.4791 76.3675 83.6561 76.1486 83.892C75.9296 84.1279 75.7612 84.3975 75.6433 84.7092C75.5254 85.021 75.458 85.3496 75.458 85.7119V85.7371C75.458 86.1163 75.5169 86.4617 75.6433 86.7819C75.7696 87.102 75.938 87.3801 76.1654 87.616C76.3928 87.8519 76.6539 88.0373 76.957 88.1636C77.2602 88.29 77.5971 88.3574 77.9676 88.3574C78.6414 88.3574 79.214 88.1889 79.6772 87.8603V86.6723H77.8497V85.1052H81.4374V88.6944C81.0163 89.0567 80.511 89.3685 79.9215 89.6212Z" fill="white"/>
<path d="M91.5098 89.8565V86.5453H88.1579V89.8565H86.3389V81.5996H88.1579V84.8687H91.5098V81.5996H93.3288V89.8565H91.5098Z" fill="white"/>
<path d="M103.662 87.3881C103.443 87.9021 103.14 88.3571 102.753 88.7446C102.365 89.1322 101.902 89.4439 101.363 89.663C100.824 89.8905 100.235 90 99.6029 90C98.9713 90 98.3818 89.8905 97.8428 89.663C97.3122 89.4355 96.849 89.1406 96.4532 88.7531C96.0658 88.3739 95.7626 87.9189 95.5437 87.405C95.3247 86.891 95.2236 86.335 95.2236 85.7452V85.7199C95.2236 85.1301 95.3331 84.5741 95.5521 84.0601C95.771 83.5462 96.0742 83.0912 96.47 82.7036C96.8574 82.3161 97.3206 82.0043 97.8596 81.7853C98.3986 81.5578 98.9881 81.4482 99.6197 81.4482C100.251 81.4482 100.841 81.5578 101.38 81.7853C101.91 82.0127 102.374 82.3161 102.769 82.6952C103.157 83.0743 103.46 83.5293 103.679 84.0433C103.898 84.5572 104.007 85.1133 104.007 85.7031V85.7283C104.007 86.3181 103.898 86.8742 103.679 87.3881H103.662ZM102.096 85.7283C102.096 85.3745 102.037 85.0375 101.91 84.7257C101.784 84.414 101.616 84.1359 101.388 83.9C101.161 83.6641 100.9 83.4788 100.597 83.3355C100.293 83.2007 99.9566 83.1249 99.5945 83.1249C99.2323 83.1249 98.8871 83.1923 98.5839 83.3271C98.2807 83.4619 98.0196 83.6473 97.8091 83.8832C97.5985 84.1191 97.4217 84.3887 97.3038 84.7004C97.1859 85.0122 97.1185 85.3408 97.1185 85.6946V85.7199C97.1185 86.0738 97.1775 86.4108 97.3038 86.7225C97.4301 87.0343 97.5985 87.3123 97.8259 87.5482C98.0533 87.7841 98.3144 87.9695 98.6176 88.1127C98.9207 88.2475 99.2576 88.3234 99.6282 88.3234C99.9987 88.3234 100.327 88.256 100.63 88.1211C100.934 87.9863 101.195 87.801 101.414 87.5651C101.633 87.3292 101.801 87.0596 101.919 86.7478C102.037 86.4361 102.104 86.1075 102.104 85.7536V85.7283H102.096Z" fill="white"/>
<path d="M112.353 89.8569V84.4646L110.029 87.9948H109.978L107.679 84.5067V89.8653H105.885V81.6084H107.839L110.012 85.0965L112.185 81.6084H114.139V89.8653H112.345L112.353 89.8569Z" fill="white"/>
<path d="M116.404 89.8565V81.5996H122.619V83.2173H118.198V84.8939H122.089V86.5116H118.198V88.2472H122.678V89.8649H116.404V89.8565Z" fill="white"/>
</g>
<defs>
<clipPath id="clip0_54_338">
<rect width="147" height="90" fill="white"/>
</clipPath>
</defs>
</svg>
