<svg width="40" height="41" viewBox="0 0 40 41" fill="none" xmlns="http://www.w3.org/2000/svg">
<g clip-path="url(#clip0_54_2463)">
<path d="M23.1863 22.4813C22.8397 23.432 21.9486 24.1086 20.9038 24.1086C19.5579 24.1086 18.4668 22.9856 18.4668 21.6003C18.4668 21.3689 18.4972 21.1449 18.5542 20.9321L23.1863 22.4813Z" fill="#F3F3F3"/>
<path d="M19.5059 23.4447L18.4666 26.6538L12.3382 26.58L12.2666 28.4613L19.6852 28.5351L21.7995 22.8545L19.5059 23.4447Z" fill="#F3F3F3"/>
<path d="M10.833 24.1455H12.0694C12.6134 24.1455 13.055 24.6001 13.055 25.1599V29.9552C13.055 30.5151 12.6133 30.9696 12.0694 30.9696H10.833V24.1455Z" fill="#F3F3F3"/>
<path d="M13.3627 16.436L27.3654 20.8929L29.6711 19.2143L28.3777 23.4397L12.7441 18.3461L13.3627 16.436Z" fill="#F3F3F3"/>
<path d="M30.9083 18.2302L29.5586 22.745L30.9645 23.1501L32.3142 18.7512L30.9083 18.2302Z" fill="#F3F3F3"/>
<path d="M32.2578 16.3202L27.1403 20.0246L13.5313 15.6256C13.5313 15.6256 13.1939 11.9791 13.8125 11.4002C14.4311 10.8214 15.5558 10.9372 16.0057 11.1108C16.4556 11.2845 32.258 16.3202 32.258 16.3202H32.2578Z" fill="#F3F3F3"/>
</g>
<defs>
<clipPath id="clip0_54_2463">
<rect width="21.4815" height="20" fill="white" transform="translate(10.833 10.9695)"/>
</clipPath>
</defs>
</svg>
