<svg width="34" height="29" viewBox="0 0 34 29" fill="none" xmlns="http://www.w3.org/2000/svg">
<path d="M19.0469 1C16.084 1.00012 13.6816 3.40228 13.6816 6.36523V9.66699C13.6819 12.6298 16.0841 15.0311 19.0469 15.0312H22.7021L26.4756 18.333V15.0312H27.3008C30.2637 15.0312 32.6658 12.6298 32.666 9.66699V6.36523C32.666 3.40221 30.2638 1 27.3008 1H19.0469Z" fill="#49744F"/>
<path d="M19.0469 1L19.0469 0.458341H19.0469V1ZM13.6816 9.66699L13.14 9.66703V9.66699H13.6816ZM19.0469 15.0312V15.5729H19.0469L19.0469 15.0312ZM22.7021 15.0312V14.4896H22.9057L23.0588 14.6236L22.7021 15.0312ZM26.4756 18.333H27.0172V19.5267L26.1189 18.7406L26.4756 18.333ZM26.4756 15.0312H25.9339V14.4896H26.4756V15.0312ZM32.666 9.66699H33.2077V9.66703L32.666 9.66699ZM19.0469 1L19.0469 1.54166C16.3831 1.54177 14.2233 3.70146 14.2233 6.36523H13.6816H13.14C13.14 3.10311 15.7848 0.458472 19.0469 0.458341L19.0469 1ZM13.6816 6.36523H14.2233V9.66699H13.6816H13.14V6.36523H13.6816ZM13.6816 9.66699L14.2233 9.66695C14.2235 12.3305 16.3831 14.4895 19.0469 14.4896L19.0469 15.0312L19.0469 15.5729C15.785 15.5728 13.1402 12.929 13.14 9.66703L13.6816 9.66699ZM19.0469 15.0312V14.4896H22.7021V15.0312V15.5729H19.0469V15.0312ZM22.7021 15.0312L23.0588 14.6236L26.8323 17.9254L26.4756 18.333L26.1189 18.7406L22.3455 15.4389L22.7021 15.0312ZM26.4756 18.333H25.9339V15.0312H26.4756H27.0172V18.333H26.4756ZM26.4756 15.0312V14.4896H27.3008V15.0312V15.5729H26.4756V15.0312ZM27.3008 15.0312V14.4896C29.9646 14.4896 32.1242 12.3306 32.1244 9.66695L32.666 9.66699L33.2077 9.66703C33.2074 12.9291 30.5627 15.5729 27.3008 15.5729V15.0312ZM32.666 9.66699H32.1244V6.36523H32.666H33.2077V9.66699H32.666ZM32.666 6.36523H32.1244C32.1244 3.70136 29.9647 1.54166 27.3008 1.54166V1V0.458341C30.563 0.458341 33.2077 3.10306 33.2077 6.36523H32.666ZM27.3008 1V1.54166H19.0469V1V0.458341H27.3008V1Z" fill="white"/>
<path d="M24.1754 9.60157H21.7735L21.3609 10.7736H20.3786L22.4339 5.02891H23.5234L25.5786 10.7736H24.5881L24.1754 9.60157ZM23.9113 8.83396L22.9786 6.16795L22.0377 8.83396H23.9113Z" fill="white"/>
<path d="M15.0234 9.66656C17.9864 9.66668 20.3887 12.0688 20.3887 15.0318V18.3336C20.3885 21.2963 17.9862 23.6977 15.0234 23.6978H11.3682L7.59473 26.9996V23.6978H6.76953C3.80664 23.6978 1.40452 21.2964 1.4043 18.3336V15.0318C1.4043 12.0688 3.80651 9.66656 6.76953 9.66656H15.0234Z" fill="#49744F"/>
<path d="M15.0234 9.66656L15.0235 9.12491H15.0234V9.66656ZM20.3887 18.3336L20.9303 18.3336V18.3336H20.3887ZM15.0234 23.6978V24.2395H15.0235L15.0234 23.6978ZM11.3682 23.6978V23.1562H11.1646L11.0115 23.2902L11.3682 23.6978ZM7.59473 26.9996H7.05307V28.1933L7.95141 27.4072L7.59473 26.9996ZM7.59473 23.6978H8.13639V23.1562H7.59473V23.6978ZM1.4043 18.3336H0.862638V18.3336L1.4043 18.3336ZM15.0234 9.66656L15.0234 10.2082C17.6872 10.2083 19.847 12.368 19.847 15.0318H20.3887H20.9303C20.9303 11.7697 18.2855 9.12504 15.0235 9.12491L15.0234 9.66656ZM20.3887 15.0318H19.847V18.3336H20.3887H20.9303V15.0318H20.3887ZM20.3887 18.3336L19.847 18.3335C19.8468 20.9971 17.6872 23.156 15.0234 23.1562L15.0234 23.6978L15.0235 24.2395C18.2853 24.2393 20.9301 21.5956 20.9303 18.3336L20.3887 18.3336ZM15.0234 23.6978V23.1562H11.3682V23.6978V24.2395H15.0234V23.6978ZM11.3682 23.6978L11.0115 23.2902L7.23804 26.5919L7.59473 26.9996L7.95141 27.4072L11.7248 24.1055L11.3682 23.6978ZM7.59473 26.9996H8.13639V23.6978H7.59473H7.05307V26.9996H7.59473ZM7.59473 23.6978V23.1562H6.76953V23.6978V24.2395H7.59473V23.6978ZM6.76953 23.6978V23.1562C4.1057 23.1562 1.94615 20.9971 1.94596 18.3335L1.4043 18.3336L0.862638 18.3336C0.862879 21.5956 3.50758 24.2395 6.76953 24.2395V23.6978ZM1.4043 18.3336H1.94596V15.0318H1.4043H0.862638V18.3336H1.4043ZM1.4043 15.0318H1.94596C1.94596 12.3679 4.10566 10.2082 6.76953 10.2082V9.66656V9.12491C3.50736 9.12491 0.862638 11.7696 0.862638 15.0318H1.4043ZM6.76953 9.66656V10.2082H15.0234V9.66656V9.12491H6.76953V9.66656Z" fill="white"/>
<path d="M8.91312 20.0275V18.366C8.91312 17.9846 8.99484 17.7032 9.15826 17.5216C9.32169 17.34 9.53657 17.2129 9.80289 17.1403L9.81197 17.1039L8.82233 16.7317V16.4502C8.82233 16.19 8.90404 15.9448 9.06747 15.7148C9.23695 15.4848 9.47907 15.3002 9.79381 15.161C10.1086 15.0218 10.4899 14.9521 10.9378 14.9521C11.3312 14.9521 11.6884 15.0157 12.0092 15.1428C12.33 15.2639 12.5842 15.4545 12.7718 15.7148C12.9595 15.9751 13.0533 16.314 13.0533 16.7317V20.0275H12.0818V16.8134C12.0818 16.4381 11.9728 16.1688 11.7549 16.0053C11.537 15.8359 11.2586 15.7511 10.9196 15.7511C10.5746 15.7511 10.3053 15.8238 10.1116 15.969C9.9179 16.1082 9.81802 16.2868 9.81197 16.5047L10.7471 16.9587L10.6654 17.4399C10.4415 17.4459 10.2538 17.5216 10.1025 17.6669C9.95724 17.8121 9.88461 18.0361 9.88461 18.3387V20.0275H8.91312Z" fill="white"/>
</svg>
