<svg width="40" height="40" viewBox="0 0 40 40" fill="none" xmlns="http://www.w3.org/2000/svg">
<path d="M14.8313 10H13.5947C12.5323 10 11.667 10.8808 11.667 11.9621V28.8683C11.667 29.9497 12.5323 30.8304 13.5947 30.8304H26.5002C27.5112 30.8304 28.3308 29.9933 28.3308 28.9671V11.8633C28.3308 10.8343 27.5083 10 26.5002 10H14.8313ZM12.1896 28.8712V11.9621C12.1896 11.2267 12.7379 10.625 13.4405 10.5465C13.1092 10.8837 12.9036 11.3517 12.9036 11.8633V28.9671C12.9036 29.4817 13.1092 29.9467 13.4405 30.2839C12.7379 30.2055 12.1896 29.6037 12.1896 28.8683V28.8712ZM27.811 11.8633V28.9671C27.811 29.7026 27.2256 30.2985 26.5031 30.2985H14.8313C14.0573 30.2985 13.4262 29.6561 13.4262 28.8683V11.9621C13.4262 11.1744 14.0573 10.532 14.8313 10.532H26.5002C27.2227 10.532 27.8082 11.1279 27.8082 11.8633H27.811Z" fill="#F3F3F3" stroke="#F3F3F3" stroke-width="0.5"/>
<path d="M20.6173 14.7672C17.5558 14.7672 15.0684 17.302 15.0684 20.4152C15.0684 23.5284 17.5586 26.0632 20.6173 26.0632C23.6759 26.0632 26.1661 23.5284 26.1661 20.4152C26.1661 17.302 23.6759 14.7672 20.6173 14.7672ZM20.6173 25.5342C17.8442 25.5342 15.591 23.2377 15.591 20.4181C15.591 17.5985 17.8471 15.3021 20.6173 15.3021C23.3874 15.3021 25.6435 17.5985 25.6435 20.4181C25.6435 23.2407 23.3874 25.5342 20.6173 25.5342Z" fill="#F3F3F3" stroke="#F3F3F3" stroke-width="0.5"/>
<path d="M20.6172 18.7264C19.7005 18.7264 18.9551 19.4851 18.9551 20.4182C18.9551 21.3513 19.7005 22.11 20.6172 22.11C21.5339 22.11 22.2793 21.3513 22.2793 20.4182C22.2793 19.4851 21.5339 18.7264 20.6172 18.7264ZM20.6172 21.5751C19.9889 21.5751 19.4806 21.0548 19.4806 20.4182C19.4806 19.7816 19.9917 19.2613 20.6172 19.2613C21.2426 19.2613 21.7538 19.7816 21.7538 20.4182C21.7538 21.0548 21.2426 21.5751 20.6172 21.5751Z" fill="#F3F3F3" stroke="#F3F3F3" stroke-width="0.5"/>
<path d="M25.2575 12.5754C24.6692 12.5754 24.1895 13.0638 24.1895 13.6626C24.1895 14.2614 24.6692 14.7498 25.2575 14.7498C25.8458 14.7498 26.3256 14.2614 26.3256 13.6626C26.3256 13.0638 25.8458 12.5754 25.2575 12.5754ZM25.2575 14.2178C24.9577 14.2178 24.7149 13.9707 24.7149 13.6655C24.7149 13.3603 24.9577 13.1132 25.2575 13.1132C25.5574 13.1132 25.8001 13.3603 25.8001 13.6655C25.8001 13.9707 25.5574 14.2178 25.2575 14.2178Z" fill="#F3F3F3" stroke="#F3F3F3" stroke-width="0.5"/>
</svg>
