<svg width="159" height="102" viewBox="0 0 159 102" fill="none" xmlns="http://www.w3.org/2000/svg">
<g clip-path="url(#clip0_54_4465)">
<path d="M58.9911 32.4165L59.0393 32.4015C58.5149 32.5699 53.9189 34.1964 53.8617 39.1422C53.8285 42.0104 55.893 43.6069 57.5987 44.4367C58.8314 45.038 59.4974 46.3969 59.2081 47.7349L58.6234 50.4498C58.1955 52.4972 55.9653 53.6187 54.0666 52.7317C49.6846 50.6843 44.736 46.4 44.8234 39.0369C44.9319 29.6535 52.4543 24.9483 56.4143 23.7727" fill="#F3F3F3"/>
<path d="M61.3113 10.12C61.1305 10.3605 60.9527 10.6071 60.7929 10.8686C60.4886 11.3587 60.2324 11.8608 60.0184 12.3779C59.7833 12.9461 58.7707 15.6911 59.5874 18.863C59.6055 18.9322 59.6236 19.0043 59.6447 19.0735C59.6628 19.1396 59.6839 19.2058 59.705 19.2719C59.7351 19.3681 59.7652 19.4613 59.7984 19.5575C59.8195 19.6237 59.8406 19.6868 59.8647 19.753C60.6181 21.8395 62.0497 23.6975 64.081 24.9573C66.8928 26.7041 70.232 26.9206 73.1162 25.8382C73.1162 25.8382 74.9697 25.3662 77.0251 23.2165C77.459 22.7505 77.8538 22.2394 78.2034 21.6802C78.3812 21.3975 78.535 21.1089 78.6796 20.8143C79.4029 20.8624 80.1353 20.7932 80.8465 20.6038C82.6518 20.1198 84.1315 18.9442 85.0115 17.2936C86.5576 14.3983 85.7258 10.7484 83.0767 8.80613C82.5342 8.40927 81.9435 8.09659 81.3167 7.88012C81.0967 7.80495 80.9309 7.5975 80.8887 7.34796C80.5753 5.45684 79.4602 3.79122 77.8297 2.77801C76.1993 1.76481 74.2102 1.50324 72.3688 2.05644C72.1247 2.1316 71.8685 2.07448 71.6997 1.90912C71.2266 1.44311 70.6841 1.05226 70.0874 0.742581C67.1701 -0.772717 63.5204 0.0931678 61.6006 2.75697C60.5066 4.27527 60.0998 6.11828 60.4644 7.94626C60.6181 8.71894 60.9075 9.45555 61.3143 10.117L61.3113 10.12ZM65.8289 22.1492C62.5801 20.1318 61.5856 15.8565 63.6048 12.6154C63.6409 12.5583 63.6801 12.5072 63.7193 12.4501C65.3437 13.3701 67.2786 13.5715 69.0657 12.9942C69.2315 12.9401 69.4394 13.0093 69.5992 13.1656C70.3044 13.8631 71.1784 14.4043 72.1156 14.729C72.3266 14.8012 72.4803 14.9605 72.5044 15.1289C72.7817 17.035 73.8666 18.7157 75.485 19.759C75.4519 19.8161 75.4217 19.8732 75.3856 19.9303C73.3633 23.1714 69.0778 24.1636 65.8289 22.1492ZM64.2889 4.69017C65.2533 3.35226 67.0887 2.91631 68.5564 3.67697C68.8608 3.83331 69.135 4.03174 69.3731 4.26625C70.4068 5.27946 71.9197 5.64625 73.3272 5.22233C74.2554 4.94272 75.256 5.07501 76.0757 5.58612C76.8955 6.09724 77.459 6.93606 77.6158 7.88913C77.8569 9.33528 78.8544 10.5289 80.2196 11.0039C80.5361 11.1152 80.8345 11.2715 81.1117 11.4729C82.4438 12.4501 82.8627 14.2841 82.0852 15.7392C81.6391 16.572 80.8947 17.1673 79.9846 17.4109C79.0744 17.6544 78.1341 17.5161 77.3355 17.02C76.4946 16.4969 75.928 15.634 75.7864 14.6539C75.6237 13.5475 74.9727 12.5854 74.0203 11.9931C73.7672 11.8367 73.4929 11.7044 73.2036 11.6052C72.7335 11.4429 72.2904 11.1693 71.9378 10.8175C70.8951 9.78626 69.4033 9.41345 68.0531 9.8494C67.1068 10.1531 66.0821 10.0298 65.2413 9.50666C64.4004 8.98352 63.9031 8.22887 63.7193 7.30887C63.5355 6.38887 63.7404 5.45985 64.2949 4.69318L64.2889 4.69017Z" fill="#10223E"/>
<path d="M47.3313 43.4295H39.3117C39.8421 33.8056 43.4405 26.7192 50.0286 22.3506C55.3057 18.851 60.6552 18.4512 60.7094 18.4482C61.7039 18.382 62.4574 17.5281 62.3971 16.536C62.3338 15.5408 61.4749 14.7892 60.4773 14.8493C60.2272 14.8644 54.2419 15.2823 48.1752 19.2509C38.0278 25.8863 35.7555 37.0316 35.6349 45.2094C35.6289 45.6934 35.8157 46.1595 36.1563 46.5022C36.4968 46.845 36.961 47.0404 37.4432 47.0404H49.4078C48.567 46.0302 47.8346 44.8366 47.3343 43.4325L47.3313 43.4295Z" fill="#10223E"/>
<path d="M69.109 23.1414C68.1115 23.1414 67.3008 23.9501 67.3008 24.9453V43.4325H53.4736C54.2723 44.4788 55.3904 45.3687 56.8069 46.0602C57.1956 46.2496 57.4367 46.6285 57.4608 47.0404H69.109C70.1066 47.0404 70.9173 46.2316 70.9173 45.2364V24.9453C70.9173 23.9501 70.1066 23.1414 69.109 23.1414Z" fill="#10223E"/>
<path d="M55.4377 54.8423C54.7084 54.8423 53.9791 54.683 53.298 54.3643C50.1697 52.9031 42.9005 48.4804 43.012 39.0159C43.1326 28.5831 51.4927 23.3518 55.8958 22.0439C56.8512 21.7583 57.8608 22.3025 58.1441 23.2586C58.4304 24.2146 57.8849 25.2188 56.9265 25.5014C53.4065 26.5477 46.725 30.7268 46.6285 39.0579C46.5472 46.1594 51.7338 49.65 54.832 51.0961C55.3775 51.3517 55.8476 51.1954 56.0797 51.0781C56.4805 50.8797 56.7608 50.5159 56.8512 50.0799L57.4389 47.353C57.5534 46.8269 57.2912 46.2917 56.806 46.0542C53.7048 44.5479 52.0171 42.0855 52.0533 39.1181C52.1226 33.2493 57.2279 31.1237 58.334 30.7328C58.3762 30.7178 58.4184 30.7028 58.4636 30.6877L58.5118 30.6727C59.4611 30.3841 60.4677 30.9102 60.7661 31.8573C61.0644 32.8013 60.5431 33.8115 59.5967 34.1152C59.1989 34.2445 55.712 35.4741 55.6698 39.1602C55.6517 40.6965 56.5679 41.9232 58.3912 42.8101C60.3773 43.7752 61.4412 45.955 60.977 48.1106L60.3924 50.8256C60.0759 52.3378 59.0934 53.6096 57.7011 54.3041C56.9868 54.6619 56.2123 54.8393 55.4408 54.8393L55.4377 54.8423Z" fill="#10223E"/>
<path d="M69.1087 88.9726H37.4401C36.4425 88.9726 35.6318 88.1638 35.6318 87.1687V53.336C35.6318 52.3409 36.4425 51.5321 37.4401 51.5321C38.4376 51.5321 39.2483 52.3409 39.2483 53.336V85.3647H67.3004V53.336C67.3004 52.3409 68.1111 51.5321 69.1087 51.5321C70.1062 51.5321 70.9169 52.3409 70.9169 53.336V87.1687C70.9169 88.1638 70.1062 88.9726 69.1087 88.9726Z" fill="#10223E"/>
<path d="M46.7854 101.528H44.2237C41.8187 101.528 39.8598 99.5917 39.8266 97.2015L39.1094 85.3647H51.8968L51.1795 97.2045C51.1463 99.5947 49.1874 101.531 46.7824 101.531L46.7854 101.528ZM42.9489 88.9726L43.4401 97.1414C43.4401 97.5713 43.7897 97.9201 44.2207 97.9201H46.7824C47.2134 97.9201 47.563 97.5713 47.563 97.1414V97.0331L48.0542 88.9726H42.9489Z" fill="#10223E"/>
<path d="M62.6859 101.528H60.1212C57.7162 101.528 55.7573 99.5917 55.7241 97.2015L55.0068 85.3647H67.7942L67.0769 97.2045C67.0438 99.5947 65.0848 101.531 62.6799 101.531L62.6859 101.528ZM58.8524 88.9726L59.3436 97.1414C59.3436 97.5713 59.6932 97.9201 60.1242 97.9201H62.6889C63.1199 97.9201 63.4695 97.5713 63.4695 97.1414V97.0331L63.9607 88.9726H58.8554H58.8524Z" fill="#10223E"/>
<path d="M106.482 43.5708H56.1733C56.6434 43.9226 57.1346 44.2082 57.6018 44.4337C58.6837 44.9598 59.3287 46.0692 59.2744 47.2388H105.539C106.464 47.2388 107.296 49.1389 106.726 50.1281C106.621 50.3115 105.677 51.0751 105.539 51.0751H58.4215C57.7133 52.7107 55.7604 53.5225 54.0666 52.7287C53.1173 52.2838 52.1408 51.7366 51.1945 51.0751H5.23467C5.07193 51.0751 4.04725 50.2183 3.95684 50.0048C3.39025 48.6669 4.28534 47.3951 5.6566 47.2328L47.2857 47.2268C46.5292 46.1504 45.9054 44.9358 45.4714 43.5708H4.35767C-1.90192 45.05 -1.05806 54.1178 4.59575 54.9145C6.58483 55.1941 9.15859 54.707 11.22 54.9145L11.5395 55.2332V63.0141C9.99038 63.1975 7.6939 65.705 7.6939 67.1722V101.531H19.2336V67.5991C19.2336 67.5149 18.7906 66.198 18.7002 65.9996C18.1426 64.7639 16.7261 63.3809 15.388 63.0171V54.9145H95.3883V63.0171C94.0502 63.3839 92.6307 64.7639 92.0762 65.9996C91.9858 66.198 91.5428 67.5149 91.5428 67.5991V101.531H103.082V67.1722C103.082 66.6009 102.127 64.9684 101.699 64.5024C100.961 63.6996 99.9933 63.432 99.2369 62.6954V54.9145H106.181C106.262 54.9145 107.516 54.4124 107.715 54.3132C112.516 51.917 111.53 44.8456 106.485 43.5708H106.482ZM15.385 97.6946H11.5395V67.8126C11.5395 66.8174 13.64 66.0177 14.6466 66.8475C14.7883 66.9617 15.388 67.9569 15.388 68.026V97.6946H15.385ZM99.2309 97.6946H95.3853V68.026C95.3853 67.4307 96.5637 66.4777 97.2147 66.4356C97.8777 66.3905 99.2309 67.2052 99.2309 67.8126V97.6946Z" fill="#10223E"/>
<path d="M149.539 67.2676H113.515C113.003 67.2676 112.515 67.0511 112.171 66.6723C111.828 66.2935 111.662 65.7854 111.716 65.2773L114.637 37.4427C115.263 28.6395 122.677 21.7485 131.526 21.7485C140.374 21.7485 147.788 28.6395 148.415 37.4427L151.335 65.2773C151.389 65.7854 151.224 66.2935 150.88 66.6723C150.536 67.0511 150.048 67.2676 149.536 67.2676H149.539ZM115.523 63.6598H147.532L144.819 37.7884C144.819 37.7674 144.816 37.7464 144.813 37.7253C144.331 30.7892 138.496 25.3564 131.529 25.3564C124.561 25.3564 118.726 30.7892 118.244 37.7253C118.244 37.7464 118.241 37.7674 118.238 37.7884L115.526 63.6598H115.523Z" fill="#10223E"/>
<path d="M131.529 24.7671C136.977 24.7671 141.393 20.3614 141.393 14.9267C141.393 9.49201 136.977 5.0863 131.529 5.0863C126.081 5.0863 121.665 9.49201 121.665 14.9267C121.665 20.3614 126.081 24.7671 131.529 24.7671Z" fill="#F3F3F3"/>
<path d="M131.529 26.571C125.094 26.571 119.856 21.3487 119.856 14.9267C119.856 8.50471 125.091 3.28235 131.529 3.28235C137.966 3.28235 143.201 8.50471 143.201 14.9267C143.201 21.3487 137.966 26.571 131.529 26.571ZM131.529 6.89321C127.086 6.89321 123.473 10.4981 123.473 14.9297C123.473 19.3613 127.086 22.9662 131.529 22.9662C135.971 22.9662 139.585 19.3613 139.585 14.9297C139.585 10.4981 135.971 6.89321 131.529 6.89321Z" fill="#10223E"/>
<path d="M133.337 102.85H125.366C122.882 102.85 120.788 100.914 120.601 98.4455L117.934 63.6598H133.337V102.85ZM121.836 67.2676L124.205 98.1689C124.25 98.7702 124.76 99.2422 125.366 99.2422H129.72V67.2676H121.836Z" fill="#10223E"/>
<path d="M137.689 102.85H129.718V63.6598H145.121L142.454 98.4455C142.264 100.917 140.173 102.85 137.689 102.85ZM133.337 99.2422H137.692C138.298 99.2422 138.807 98.7702 138.852 98.1689L141.221 67.2676H133.337V99.2422Z" fill="#10223E"/>
<path d="M140.705 37.6863H139.521V36.5047C139.521 36.2161 139.286 35.9816 138.997 35.9816H138.132C137.842 35.9816 137.607 36.2161 137.607 36.5047V37.6863H136.423C136.134 37.6863 135.898 37.9208 135.898 38.2094V39.0723C135.898 39.3609 136.134 39.5954 136.423 39.5954H137.607V40.777C137.607 41.0656 137.842 41.3001 138.132 41.3001H138.997C139.286 41.3001 139.521 41.0656 139.521 40.777V39.5954H140.705C140.995 39.5954 141.23 39.3609 141.23 39.0723V38.2094C141.23 37.9208 140.995 37.6863 140.705 37.6863Z" fill="#10223E"/>
<path d="M131.477 32.5631C132.518 32.5631 133.361 31.7218 133.361 30.684C133.361 29.6462 132.518 28.8049 131.477 28.8049C130.437 28.8049 129.594 29.6462 129.594 30.684C129.594 31.7218 130.437 32.5631 131.477 32.5631Z" fill="#10223E"/>
<path d="M131.477 40.3621C132.518 40.3621 133.361 39.5208 133.361 38.483C133.361 37.4452 132.518 36.6039 131.477 36.6039C130.437 36.6039 129.594 37.4452 129.594 38.483C129.594 39.5208 130.437 40.3621 131.477 40.3621Z" fill="#10223E"/>
<path d="M131.477 48.161C132.518 48.161 133.361 47.3197 133.361 46.2819C133.361 45.2441 132.518 44.4028 131.477 44.4028C130.437 44.4028 129.594 45.2441 129.594 46.2819C129.594 47.3197 130.437 48.161 131.477 48.161Z" fill="#10223E"/>
<path d="M122.562 14.9086C123.138 14.9658 123.798 14.8756 124.359 14.8305C124.989 14.7824 125.615 14.7102 126.236 14.608C127.312 14.4336 128.37 14.1841 129.395 13.8503C130.175 13.5978 130.935 13.2971 131.664 12.9514C132.647 12.4824 133.397 12.0163 133.918 11.6525C133.97 11.6165 134.355 11.3038 134.358 11.3008C134.364 11.2948 134.37 11.2888 134.379 11.2827L135.365 10.489C135.516 10.3688 135.751 10.3748 135.889 10.504C136.031 10.6333 136.022 10.8348 135.871 10.955L134.895 11.7397C134.865 11.7668 134.777 11.845 134.636 11.9562C134.554 12.0223 136.347 13.2791 136.492 13.3663C137.411 13.9165 138.436 14.3344 139.518 14.5899C139.88 14.6771 140.283 14.8816 140.669 14.8034C141.121 14.7132 141.127 14.2201 141.118 13.8984C141.103 13.3723 141.061 12.8491 140.992 12.326C140.865 11.391 140.639 10.462 140.274 9.57202C139.678 8.11986 138.683 6.79397 137.273 5.82586C135.211 4.40978 132.912 4.18429 132.02 4.15423C131.76 4.14521 131.462 4.14521 131.197 4.15423C130.29 4.18429 127.954 4.40978 125.857 5.82286C124.341 6.84508 123.295 8.27018 122.695 9.83359C122.339 10.7656 122.129 11.7337 122.023 12.7078C121.969 13.1949 121.939 13.685 121.933 14.172C121.933 14.4727 121.978 14.8154 122.394 14.8816C122.448 14.8906 122.505 14.8966 122.562 14.9026V14.9086Z" fill="#10223E"/>
</g>
<defs>
<clipPath id="clip0_54_4465">
<rect width="159" height="102" fill="white"/>
</clipPath>
</defs>
</svg>
