<svg width="60" height="60" viewBox="0 0 60 60" fill="none" xmlns="http://www.w3.org/2000/svg">
<circle cx="30" cy="30" r="30" fill="#49744F"/>
<path d="M43.6744 40.5687C43.6744 40.5687 41.8456 42.345 41.3974 42.8657C40.6673 43.6362 39.8071 44 38.6794 44C38.571 44 38.4553 44 38.3469 43.9929C36.2 43.8573 34.2048 43.0298 32.7085 42.3236C28.617 40.3689 25.0244 37.5939 22.0389 34.0769C19.5739 31.145 17.9258 28.4341 16.8343 25.5236C16.162 23.7473 15.9162 22.3633 16.0246 21.0578C16.0969 20.2232 16.4222 19.5312 17.0222 18.9391L19.4872 16.5065C19.8414 16.1783 20.2173 16 20.586 16C21.0414 16 21.41 16.2711 21.6413 16.4994C21.6486 16.5065 21.6558 16.5136 21.663 16.5208C22.104 16.9274 22.5232 17.3483 22.9642 17.7977C23.1883 18.026 23.4196 18.2543 23.6509 18.4897L25.6244 20.4372C26.3906 21.1934 26.3906 21.8925 25.6244 22.6487C25.4147 22.8555 25.2123 23.0624 25.0027 23.2622C24.3955 23.8757 24.8725 23.4049 24.2436 23.9614C24.2291 23.9756 24.2147 23.9828 24.2074 23.997C23.5858 24.6105 23.7014 25.2098 23.8315 25.6164C23.8388 25.6378 23.846 25.6592 23.8532 25.6806C24.3665 26.9076 25.0893 28.0633 26.1881 29.4401L26.1953 29.4472C28.1905 31.8727 30.294 33.7631 32.6144 35.2113C32.9108 35.3968 33.2144 35.5466 33.5036 35.6893C33.7638 35.8177 34.0096 35.9389 34.2192 36.0674C34.2481 36.0816 34.277 36.103 34.3059 36.1173C34.5517 36.2386 34.783 36.2956 35.0216 36.2956C35.6216 36.2956 35.9975 35.9247 36.1203 35.8034L37.5373 34.4051C37.783 34.1625 38.1734 33.8701 38.6288 33.8701C39.077 33.8701 39.4456 34.1483 39.6697 34.3908C39.677 34.398 39.677 34.398 39.6842 34.4051L43.6672 38.3358C44.4118 39.0634 43.6744 40.5687 43.6744 40.5687Z" stroke="white" stroke-width="1.5" stroke-linecap="round" stroke-linejoin="round"/>
</svg>
