<svg width="112" height="102" viewBox="0 0 112 102" fill="none" xmlns="http://www.w3.org/2000/svg">
<g clip-path="url(#clip0_54_1740)">
<path d="M74.0884 24.2682C74.1576 24.3185 75.2869 25.1256 76.8817 25.1256C77.686 25.1256 78.6056 24.9221 79.5689 24.314C80.1059 23.9756 80.2649 23.2692 79.9215 22.7365C79.5805 22.2038 78.8683 22.046 78.3313 22.3867C76.8402 23.3286 75.5911 22.5239 75.4436 22.4233C74.9319 22.0575 74.2175 22.1672 73.8418 22.6725C73.4639 23.18 73.5745 23.8956 74.0861 24.2705L74.0884 24.2682Z" fill="#10223E"/>
<path d="M35.4202 29.753C33.9291 30.6949 32.6799 29.8902 32.5324 29.7896C32.0208 29.4238 31.3064 29.5335 30.9307 30.0388C30.5527 30.5463 30.6634 31.2619 31.175 31.6368C31.2441 31.6871 32.3734 32.4942 33.9682 32.4942C34.7726 32.4942 35.6921 32.2907 36.6555 31.6826C37.1925 31.3442 37.3515 30.6377 37.0081 30.1051C36.667 29.5724 35.9549 29.4146 35.4179 29.7553L35.4202 29.753Z" fill="#10223E"/>
<path d="M108.013 63.5137C108.333 62.67 108.333 61.7098 107.932 60.8228C104.899 54.1036 101.733 44.115 99.0339 35.2308C96.3467 26.3808 90.4721 24.4672 87.4276 23.5893C88.0107 22.2198 88.3334 20.7178 88.3334 19.1426C88.3334 18.6099 88.2919 18.0863 88.2181 17.5719H91.3456C92.1038 17.5719 92.7629 16.9935 92.786 16.2436C92.809 15.4663 92.1822 14.8285 91.4032 14.8285H88.331V8.40417C88.331 3.76313 84.5376 0 79.8591 0H73.8577C69.1793 0 65.3858 3.76313 65.3858 8.40417V14.8285H62.3713C61.613 14.8285 60.9539 15.4069 60.9308 16.1568C60.9078 16.9341 61.5347 17.5719 62.3136 17.5719H65.3189C65.2475 18.0863 65.2037 18.6099 65.2037 19.1426C65.2037 20.6126 65.4872 22.0186 65.9988 23.3127C63.2355 23.9871 58.2851 25.9487 55.7361 31.5339C55.0816 32.9674 54.6598 34.5586 54.4778 36.2641L54.0353 40.4365C51.3572 35.4525 47.2757 32.9468 44.1759 31.7031C44.9549 30.2399 45.425 28.5938 45.4988 26.8449C46.3354 26.4562 47.1005 25.9121 47.7412 25.2308C49.1425 23.7447 49.8362 21.8037 49.7002 19.7667C49.4582 16.1933 46.5612 13.2921 42.9636 13.0178C42.2285 12.9606 41.4956 13.0132 40.7834 13.171C40.3041 13.2784 39.797 13.1047 39.4559 12.7206C38.0639 11.1476 36.0565 10.2469 33.9478 10.2469C31.839 10.2469 29.8316 11.1499 28.4396 12.7206C28.0985 13.1047 27.5892 13.2784 27.1121 13.171C25.999 12.924 24.8282 12.9355 23.6828 13.2167C20.5968 13.978 18.4074 16.6186 18.1954 19.7644C18.0571 21.8015 18.7531 23.7425 20.1543 25.2285C20.795 25.9075 21.5602 26.4516 22.3968 26.8426C22.4636 28.4429 22.8623 29.961 23.5261 31.3282C20.3456 32.3295 13.9248 35.169 11.9751 42.1512C9.99535 49.2453 7.72064 54.4579 3.86493 60.7473C3.32333 61.6298 3.22193 62.6929 3.58607 63.6623C1.48421 64.5493 0 66.6206 0 69.0143V71.0696C0 71.8218 0.583081 72.4757 1.33901 72.4985C2.1226 72.5214 2.7656 71.8995 2.7656 71.1268V68.9229C2.7656 67.4483 3.86032 66.2023 5.333 65.9965C5.34453 65.9965 5.35375 65.9942 5.36527 65.9919C6.28944 65.8639 7.24357 66.1154 7.93498 66.7372C8.5895 67.3271 8.95364 68.141 8.95364 69.012V100.564C8.95364 101.316 9.53672 101.97 10.2927 101.993C11.0762 102.016 11.7192 101.394 11.7192 100.621V69.012C11.7192 68.4633 11.6409 67.9284 11.4957 67.4163C11.6386 67.4345 11.7792 67.446 11.9197 67.446C12.5996 67.446 13.2634 67.2402 13.8234 66.8653C20.0414 57.302 20.3433 50.6125 20.3456 50.5439C20.3687 49.8809 20.9264 49.3665 21.5971 49.3848C22.2654 49.4076 22.7886 49.9632 22.7655 50.6262C22.7563 50.8937 22.5074 56.3761 18.0502 64.5082L16.8264 80.1917C16.7826 80.7518 17.0868 81.3005 17.6399 81.552C17.8243 81.6366 18.0294 81.6709 18.2322 81.6709H22.5811L23.2772 99.3274C23.3371 100.823 24.5655 101.995 26.0727 101.995H40.9079C42.4174 101.995 43.6458 100.823 43.7034 99.3274L44.3994 81.6709H48.859C49.0664 81.6709 49.2761 81.6343 49.4628 81.5474C50.0251 81.2868 50.3248 80.7198 50.2625 80.1505L49.419 72.3796C46.7548 71.5932 44.9457 70.6284 43.7818 69.8305C42.1985 68.7468 41.65 66.7212 42.4751 65.0111C46.121 57.4552 44.7544 50.9051 44.7382 50.8411C44.5976 50.1941 45.0125 49.554 45.6647 49.4145C46.3192 49.2728 46.9622 49.6866 47.1028 50.3336C47.1674 50.6331 48.6562 57.7592 44.6553 66.0491C44.3464 66.6869 44.5562 67.4483 45.1531 67.8575C46.3538 68.6805 48.3681 69.7093 51.5347 70.4592H61.8066L59.8845 98.7284C59.8269 99.572 60.1288 100.409 60.7096 101.028C61.2927 101.646 62.1131 102 62.9659 102H71.3433C72.975 102 74.3279 100.736 74.427 99.1216L75.1046 73.7194C75.1276 72.8941 75.8075 72.2379 76.6395 72.2379C77.4715 72.2379 78.1513 72.8941 78.1744 73.7194L78.8542 99.1216C78.9533 100.736 80.3062 102 81.9379 102H90.3062C91.1612 102 91.9863 101.643 92.5693 101.021C93.1524 100.4 93.4497 99.5583 93.3875 98.7101L90.0457 53.5777C91.0275 56.3052 91.7558 58.2165 91.7673 58.2462C93.1109 61.9133 94.4384 64.8763 95.3303 66.7418C95.759 67.6403 96.5195 68.3582 97.4714 68.6691C97.8378 68.7903 98.2158 68.8497 98.5914 68.8497C99.1837 68.8497 99.7737 68.7011 100.313 68.4039C100.313 68.4039 100.313 68.4039 100.315 68.4039C100.295 68.6051 100.283 68.8086 100.283 69.012V100.564C100.283 101.316 100.866 101.97 101.622 101.993C102.406 102.016 103.049 101.394 103.049 100.621V69.1058C103.049 68.2873 103.337 67.4826 103.906 66.8927C104.503 66.2754 105.312 65.9348 106.171 65.9462C107.861 65.9622 109.232 67.3385 109.232 69.0143V71.0696C109.232 71.8218 109.815 72.4757 110.571 72.4985C111.355 72.5214 111.998 71.8995 111.998 71.1268V69.0143C111.998 66.4697 110.325 64.291 108.011 63.5114L108.013 63.5137ZM22.1732 23.3607C21.3021 22.4347 20.8688 21.2253 20.9541 19.9542C21.1039 17.732 22.9061 15.9281 25.1439 15.7567C25.6072 15.7224 26.0635 15.7544 26.5083 15.8527C27.9741 16.1796 29.5113 15.6744 30.5184 14.5358C31.385 13.5573 32.6364 12.9949 33.9478 12.9949C35.2591 12.9949 36.5106 13.5573 37.3771 14.5358C38.3843 15.6744 39.9215 16.1796 41.3872 15.8527C41.8297 15.7544 42.2884 15.7224 42.7493 15.7567C44.9871 15.9281 46.7894 17.732 46.9392 19.9542C47.0245 21.2253 46.5935 22.4347 45.72 23.3607C44.8466 24.2866 43.662 24.7964 42.3852 24.7964C41.219 24.7964 40.1105 24.3575 39.2693 23.5756C41.9818 22.1192 42.2308 19.7599 42.2423 19.6318C42.3091 18.8774 41.7445 18.2121 40.9839 18.1458C40.2234 18.0841 39.5527 18.6396 39.4859 19.3941C39.4859 19.4123 39.2186 21.3191 35.7569 21.8335C35.4919 21.8426 35.2223 21.8746 34.9549 21.9341C34.2958 22.0827 33.5882 22.0827 32.9291 21.9341C31.4426 21.6003 29.933 22.0804 28.9881 23.1892C28.117 24.2111 26.8471 24.7964 25.5012 24.7964C24.1552 24.7964 23.0398 24.2866 22.1663 23.3607H22.1732ZM32.104 99.2565H26.0704C26.052 99.2565 26.0382 99.2428 26.0382 99.2245L25.3468 81.6732H32.1063V99.2542L32.104 99.2565ZM29.4905 37.2198C30.8895 37.6953 32.3898 37.9559 33.9501 37.9559C35.5103 37.9559 37.0084 37.6953 38.4073 37.2198C37.9856 39.2774 36.1464 40.832 33.9501 40.832C31.7537 40.832 29.9146 39.2797 29.4905 37.2198ZM40.9378 99.2245C40.9378 99.2428 40.9217 99.2565 40.9056 99.2565H34.8719V81.6754H41.6315L40.9401 99.2268L40.9378 99.2245ZM33.9478 35.0913C29.4952 35.0913 25.8077 31.7946 25.2292 27.533C25.3214 27.5376 25.4136 27.5399 25.5058 27.5399C27.6676 27.5399 29.7072 26.6002 31.1038 24.961C31.3781 24.6387 31.8436 24.5038 32.3184 24.6112C33.3808 24.8513 34.5101 24.8513 35.5703 24.6112C36.045 24.5038 36.5106 24.6387 36.7848 24.961C38.1815 26.6002 40.2234 27.5399 42.3829 27.5399C42.475 27.5399 42.5672 27.5353 42.6594 27.533C42.081 31.7946 38.3935 35.0913 33.9432 35.0913H33.9478ZM69.0848 17.5742H84.4569C85.0354 17.5742 85.5124 18.0223 85.5516 18.5962C85.5631 18.7768 85.5701 18.9597 85.5701 19.1449C85.5701 23.9574 81.6222 27.8737 76.7708 27.8737C71.9195 27.8737 67.9716 23.9574 67.9716 19.1449C67.9716 18.9597 67.9785 18.7768 67.99 18.5962C68.0292 18.0223 68.504 17.5742 69.0848 17.5742ZM80.6703 30.432C80.6703 32.5147 78.9626 34.2111 76.8607 34.2111C74.7589 34.2111 73.0511 32.517 73.0511 30.432C73.0511 30.2902 73.0603 30.1508 73.0764 30.0113C74.238 30.4 75.4779 30.6149 76.7685 30.6149C78.126 30.6149 79.4281 30.3794 80.6381 29.9519C80.6588 30.1096 80.668 30.2696 80.668 30.4297L80.6703 30.432ZM105.045 62.9673C103.3 63.8429 100.714 65.1392 98.9441 66.0239C98.7528 66.12 98.5338 66.136 98.331 66.0674C98.1282 65.9988 97.9646 65.8548 97.8724 65.6627C97.0058 63.8566 95.6945 60.9417 94.3601 57.2974C94.3301 57.2151 91.2188 49.0578 89.1815 42.3523C88.9602 41.6276 88.1905 41.2161 87.4576 41.4356C87.0612 41.5545 86.7593 41.8334 86.6002 42.1809C86.5956 42.19 86.591 42.1969 86.5887 42.206C86.5772 42.2335 86.568 42.2609 86.5565 42.2883C86.5518 42.3021 86.5449 42.3158 86.5403 42.3318C86.5334 42.3569 86.5265 42.3821 86.5196 42.4072C86.515 42.4255 86.5104 42.4415 86.5058 42.4598C86.5011 42.485 86.4965 42.5101 86.4919 42.5375C86.4896 42.5558 86.485 42.5718 86.4827 42.5901C86.4804 42.6175 86.4781 42.6473 86.4758 42.6747C86.4758 42.6907 86.4735 42.7067 86.4735 42.7227C86.4735 42.7524 86.4735 42.7822 86.4735 42.8119C86.4735 42.8256 86.4735 42.837 86.4735 42.8507V42.8713C86.4735 42.8713 86.4735 42.8713 86.4735 42.8736L87.2317 53.1182H65.7522L66.4505 42.8416C66.5012 42.0849 65.9251 41.431 65.1645 41.3807C64.3994 41.3281 63.7425 41.902 63.6918 42.6564L61.9864 67.7226H54.5146C57.0913 58.564 57.2872 51.6481 56.1786 46.4287L57.2249 36.5568C57.3747 35.1439 57.7204 33.8362 58.2528 32.6702C60.5621 27.6085 65.3604 26.2024 67.3724 25.8275C68.2182 26.9935 69.2784 27.9971 70.4952 28.779C70.3523 29.3163 70.2809 29.8741 70.2809 30.4342C70.2809 34.0305 73.2309 36.9569 76.8561 36.9569C80.4813 36.9569 83.4313 34.0305 83.4313 30.4342C83.4313 29.8718 83.3599 29.314 83.2147 28.7722C83.2055 28.7402 83.1963 28.7104 83.1847 28.6807C84.261 27.9651 85.2105 27.0735 85.9918 26.0516C86.0126 26.0584 86.031 26.0653 86.0517 26.0698L86.3744 26.1476L86.3928 26.1521C89.0685 26.918 94.0489 28.3424 96.3813 36.0241C99.1054 44.9929 102.307 55.0843 105.404 61.9453C105.577 62.3294 105.416 62.7775 105.038 62.9673H105.045Z" fill="#10223E"/>
</g>
<defs>
<clipPath id="clip0_54_1740">
<rect width="112" height="102" fill="white"/>
</clipPath>
</defs>
</svg>
