<svg width="60" height="60" viewBox="0 0 60 60" fill="none" xmlns="http://www.w3.org/2000/svg">
<circle cx="30" cy="30" r="30" fill="white"/>
<g clip-path="url(#clip0_2012_610)">
<path d="M43.7697 25.9558C43.7697 28.1045 43.2495 30.1308 42.3287 31.9147C40.1405 36.4099 36.2653 41.774 31.9237 47.4847C31.4006 48.1727 30.3702 48.1715 29.8477 47.4833C27.9289 44.9556 26.0952 42.4945 24.4541 40.1365L34.5307 29.8251L34.5312 29.8247C34.7885 29.6047 35.0259 29.3619 35.2401 29.0993L42.8983 21.2627C43.461 22.7178 43.7697 24.3005 43.7697 25.9558Z" fill="#35A755"/>
<path d="M35.2393 29.099C36.0367 28.122 36.5153 26.8719 36.5153 25.5094C36.5153 22.3823 33.9942 19.8473 30.8842 19.8473C29.4181 19.8473 28.0829 20.4106 27.0811 21.3339L34.875 13.6333C38.5527 14.8366 41.504 17.6584 42.8975 21.2624L35.2393 29.099Z" fill="#4385F7"/>
<path d="M34.53 29.8249L24.4533 40.1364C22.4395 37.2434 20.7157 34.5056 19.4802 31.9909C19.1077 31.2808 18.799 30.5319 18.5615 29.7516L26.7995 21.6123C25.8411 22.6274 25.2532 23.9994 25.2532 25.5095C25.2532 28.6367 27.7743 31.1717 30.8842 31.1717C32.2747 31.1717 33.5477 30.6649 34.53 29.8249Z" fill="#FCBC03"/>
<path d="M26.9041 21.5046C26.8688 21.5401 26.834 21.576 26.7998 21.6124L18.5618 29.7516C18.1965 28.5511 18 27.2764 18 25.9557C18 22.265 19.5346 18.9349 21.9972 16.5752L26.9041 21.5046Z" fill="#EF342B"/>
<path d="M34.8752 13.6335L27.0813 21.3341C27.0209 21.3895 26.9619 21.4465 26.9039 21.5046L21.9971 16.5752C24.309 14.36 27.4387 13 30.8844 13C32.2774 13 33.6187 13.2223 34.8752 13.6335Z" fill="#1C71ED"/>
</g>
<defs>
<clipPath id="clip0_2012_610">
<rect width="25.7692" height="35" fill="white" transform="translate(18 13)"/>
</clipPath>
</defs>
</svg>
