<svg width="120" height="120" viewBox="0 0 120 120" fill="none" xmlns="http://www.w3.org/2000/svg">
<path d="M61.0458 76.8968C62.4403 76.5042 63.5981 75.8107 64.0256 74.8292C64.9071 75.0713 65.8543 74.9797 66.6503 74.5872C66.6503 74.6264 66.6568 74.6722 66.6634 74.7115C67.3804 75.6013 67.7488 76.4781 67.0449 77.3221H64.94L62.8547 78.611L60.5919 78.5718C60.3222 77.8521 60.1512 77.1716 61.0392 76.8903L61.0458 76.8968Z" fill="#FFB294"/>
<path d="M66.8742 74.9927C67.9398 75.732 67.9924 77.0144 67.6635 78.0155C66.9728 78.9969 65.4796 78.3426 64.46 78.624C62.1183 79.2587 62.1117 79.8017 60.9868 79.7755C59.1713 79.7363 57.9675 78.9642 58.0662 78.3688C58.1451 77.8846 58.9345 77.3939 60.2106 76.9163L62.2761 76.419C61.9604 76.6022 61.5196 76.7593 61.0395 76.9032C60.3882 77.322 60.6185 77.7734 61.2236 78.3099C61.9012 78.6044 62.7432 78.3099 63.8285 77.7538L66.1571 76.648C66.7821 76.262 67.0715 75.732 66.8676 74.9927H66.8742Z" fill="#383034"/>
<path d="M77.6961 76.5171C77.6961 76.5629 77.6961 76.6087 77.7093 76.661C78.0645 77.2826 78.0382 78.1724 77.9593 79.1539C77.9593 79.1539 76.3213 81.6664 76.2884 81.7907C76.2555 81.915 74.0124 82.4581 74.0124 82.4581L73.3086 80.7242C74.2624 79.8278 74.4597 78.8006 74.8215 77.3546C75.8477 77.4789 76.8344 77.3546 77.7027 76.5236L77.6961 76.5171Z" fill="#FFB294"/>
<path d="M77.7015 76.6545C78.4909 77.2892 78.4514 78.5781 78.287 79.5399C77.9186 80.312 77.3924 80.7896 76.7806 81.9281L76.2083 82.674C75.0637 83.6227 73.018 83.747 72.2944 83.2432C71.8274 82.4253 72.3865 81.6206 73.7942 80.1942C73.2614 81.2869 73.8731 81.8168 75.2611 81.6729C75.9189 81.5486 76.3662 80.6718 77.0832 79.4745C77.741 78.2248 78.1817 77.4854 77.7015 76.6479V76.6545Z" fill="#383034"/>
<path d="M71.8079 50.2083C71.479 51.3598 71.0712 52.5375 70.5976 53.7218C70.3345 54.3892 70.0516 55.05 69.7622 55.7108C68.6439 58.2233 67.3415 60.6442 66.1377 62.7052C67.4138 64.5438 67.8019 66.8665 67.8874 69.0453C67.9861 71.5185 67.6901 73.8151 67.848 75.0517C67.6835 75.1302 67.473 75.2218 67.2362 75.3003C67.1967 75.3134 67.1507 75.3265 67.1112 75.3396C67.0586 75.3592 66.9994 75.3723 66.9468 75.3919C66.0588 75.6536 64.8418 75.8041 63.6709 75.4115C63.5262 75.3657 63.3815 75.3069 63.2434 75.2414C64.059 73.3832 61.8883 65.8 61.3555 61.2919C61.8028 59.1851 62.283 57.1503 62.8092 55.194C63.0131 54.4219 63.2236 53.6564 63.4407 52.9105C64.2366 50.1755 65.1181 47.6107 66.0916 45.2422L67.4796 46.4395L71.8211 50.2083H71.8079Z" fill="#80B8C7"/>
<path d="M79.2534 71.5641C79.1481 73.2653 78.8981 74.8748 79.0494 76.6545C78.8916 77.0275 78.6153 77.3284 78.2732 77.564C78.1811 77.6294 78.0891 77.6883 77.9904 77.7406C77.9443 77.7668 77.8983 77.7864 77.8522 77.8061C76.8853 78.2641 75.6091 78.2902 74.7079 77.7799C74.5698 77.7014 74.4382 77.6098 74.3198 77.5051C75.3065 73.5401 73.866 68.044 72.6424 64.6744C72.0307 62.7508 71.6557 60.5001 71.3663 58.1577C71.2611 57.3006 71.169 56.4304 71.0769 55.5602C71.0243 55.0433 70.9716 54.5264 70.919 54.0095C70.8138 53.9114 70.7085 53.8132 70.5967 53.7085C68.8338 52.0205 67.1564 49.9529 67.3866 47.1394C67.1564 46.9562 67.209 46.7076 67.4656 46.4328C68.893 44.8821 76.8129 42.4678 78.0298 46.1253C79.2468 48.9453 78.6745 51.0783 77.7536 53.558C77.7404 53.8917 77.7273 54.2189 77.7207 54.5329C77.6286 58.0399 77.7404 60.5982 77.6023 63.5818C79.2797 66.8336 79.3915 69.2741 79.2468 71.5576L79.2534 71.5641Z" fill="#80B8C7"/>
<g style="mix-blend-mode:multiply" opacity="0.5">
<path d="M66.1385 62.7051C67.4146 64.5436 67.8027 66.8664 67.8883 69.0452C67.6843 68.3843 67.4607 67.73 67.2041 67.0888C66.5595 65.4531 66.2043 64.439 65.1781 63.0061C65.2768 61.547 65.9149 60.6572 65.7307 59.1981C65.5531 57.7652 64.8492 56.7052 62.7969 55.1873C63.0008 54.4152 63.2113 53.6497 63.4284 52.9038C63.5797 52.9169 63.731 52.9496 63.8757 52.9889C65.9938 53.4927 68.0067 54.4152 69.7564 55.7042C68.6382 58.2167 67.3357 60.6375 66.1319 62.6985L66.1385 62.7051Z" fill="#5D8D94"/>
</g>
<g style="mix-blend-mode:multiply" opacity="0.5">
<path d="M79.2546 71.5643C78.7349 68.6789 77.939 65.3747 76.7484 64.3148C76.3405 63.9484 76.2221 63.9026 76.1827 63.2483C76.0051 60.2647 76.4721 59.4469 72.6963 58.4196C72.3937 58.3346 72.0846 58.2626 71.782 58.2102C71.6965 58.1972 71.5386 58.1906 71.3676 58.1775C71.2623 57.3204 71.1702 56.4502 71.0781 55.58C71.2031 54.9126 71.3412 54.3696 71.3939 54.3696C73.5054 54.2583 75.6235 54.3238 77.7285 54.5462C77.6364 58.0532 77.7482 60.6115 77.6101 63.5951C79.2875 66.8469 79.3993 69.2874 79.2546 71.5709V71.5643Z" fill="#5D8D94"/>
</g>
<path d="M60.1387 40.2171L64.8419 35.2642L67.6376 39.3011L60.3492 42.7558L60.1387 40.2171Z" fill="#A0D1D6"/>
<g style="mix-blend-mode:multiply" opacity="0.3">
<path d="M60.1387 40.2171L64.8419 35.2642L67.6376 39.3011L60.3492 42.7558L60.1387 40.2171Z" fill="#5D8D94"/>
</g>
<path d="M78.9064 54.8274C77.4987 55.8546 75.8805 56.4828 74.1834 56.7641C70.1116 57.4315 65.5662 56.0967 62.2838 53.3422C62.7705 50.7839 63.4612 48.4415 64.0927 45.7982C64.323 44.8429 64.5466 43.8484 64.7505 42.7884C64.79 42.5987 64.8295 42.4024 64.8624 42.1996C64.8755 42.1341 64.8887 42.0687 64.8952 42.0033L64.5927 40.2956L64.1059 37.5214C64.1059 37.5214 61.9549 37.3447 61.6654 34.8781C61.5141 33.6153 63.2902 31.0439 62.5798 29.3362C61.797 27.4388 61.8102 24.6384 63.2244 24.7366C66.4477 23.9121 69.8419 24.6711 73.3217 26.248C75.1767 27.2687 75.4924 28.5314 75.3477 30.5139C75.3346 30.7102 75.3148 30.9196 75.2951 31.129C75.2819 31.2598 75.2622 31.4103 75.249 31.5739C75.2227 31.816 75.1898 32.0646 75.157 32.3198C75.157 32.3198 75.1372 32.4768 75.1043 32.7647C75.0846 32.8825 75.0714 33.033 75.0451 33.1965C74.9333 34.0406 74.736 35.4146 74.4597 36.9849C74.4531 37.0307 74.4465 37.0699 74.44 37.1157C74.2229 38.9674 76.1831 40.9106 76.9264 42.5464C79.0117 46.2562 79.0643 50.7577 78.913 54.8274H78.9064Z" fill="#A0D1D6"/>
<path d="M64.9612 28.2174C64.9612 28.2174 64.9217 30.141 65.7835 32.3656L68.3752 28.4857L68.6712 26.7322L64.9612 28.2174Z" fill="white"/>
<path d="M59.2569 40.2039L58.2702 40.3806L57.8953 40.5834L57.4217 40.9956L56.6191 41.9444L56.9415 42.8669L57.9019 43.9399L58.5728 44.2147L59.1517 43.6979L60.02 43.1352L60.7304 42.3108L60.9409 41.3293C61.0856 40.976 59.9081 39.8048 59.2503 40.2039H59.2569Z" fill="#29708D"/>
<path d="M59.197 40.4593L58.2695 40.3808L57.9735 40.6883L57.6051 41.1398L57.1973 41.8268L57.4341 42.3568L58.4471 43.3251L58.7299 43.7242L59.1575 43.6915L60.0258 43.1288L60.7362 42.3044L60.9467 41.323C61.0914 40.9697 59.8614 40.0537 59.2036 40.4528L59.197 40.4593Z" fill="#1C495C"/>
<path d="M60.8489 40.9761C60.77 41.4472 59.4149 41.5911 58.9873 41.0939L58.6782 40.7078L58.0467 40.4985C58.0467 40.4985 57.6257 40.2564 57.5468 40.1255C57.4678 39.9881 57.4218 39.8638 57.4284 39.746C57.4415 39.5432 57.6981 39.5759 57.6981 39.5759L58.198 39.661H58.7242L60.1385 40.2237L60.8489 40.9761Z" fill="#29708D"/>
<path d="M57.1973 41.82L57.2696 42.4416C57.2696 42.4416 57.9603 42.049 58.0985 42.0687C58.2366 42.0883 58.5194 42.4743 58.5194 42.4743C58.5194 42.4743 58.7563 42.4285 58.8812 42.4939C59.0062 42.5594 59.1049 42.7099 59.1444 42.8407C59.1838 42.9781 59.1115 43.2006 59.1115 43.2006C59.1115 43.2006 59.4404 43.5539 59.4075 43.7633C59.3746 43.9726 58.9667 44.0839 58.9667 44.0839L58.5852 44.2016L57.6972 43.4099L57.2038 41.8135L57.1973 41.82Z" fill="#29708D"/>
<path d="M57.7441 42.193L57.1192 41.5845L56.3825 41.7677L55.4352 41.7415C54.955 41.7022 54.1986 42.7687 55.2379 42.4416L56.4351 42.5005L56.8758 42.5397L57.7178 42.5528L57.7441 42.1995V42.193Z" fill="#29708D"/>
<path d="M57.6716 40.348C57.6322 40.1582 57.7506 40.0404 57.9413 40.0928C58.1321 40.1451 58.3163 40.3414 58.3557 40.5377C58.3952 40.7274 58.2768 40.8452 58.0861 40.7929C57.8953 40.7405 57.7111 40.5442 57.6716 40.348Z" fill="#808080"/>
<path d="M57.8487 40.2694L55.9082 42.0818L56.2371 42.4286L58.1776 40.6162C58.1776 40.6162 58.2105 40.5507 58.2039 40.4984C58.1776 40.3937 58.0789 40.2825 57.9737 40.2563C57.9211 40.2432 57.8816 40.2498 57.8553 40.2694H57.8487Z" fill="#CCCCCC"/>
<path d="M55.4751 41.866C55.3304 41.4799 55.5146 41.3098 55.8895 41.4799C56.2645 41.6501 56.6855 42.095 56.8368 42.481C56.9815 42.867 56.7973 43.0372 56.4224 42.867C56.0474 42.6969 55.6264 42.252 55.4751 41.866Z" fill="#808080"/>
<path d="M55.7898 41.7808L52.8691 44.5092L53.6059 45.2943L56.5265 42.5659C56.5857 42.5136 56.6055 42.422 56.5791 42.3042C56.5265 42.0687 56.2897 41.82 56.0595 41.7481C55.9411 41.7153 55.849 41.7284 55.7898 41.7808Z" fill="#CCCCCC"/>
<path d="M53.4612 45.2747L54.6057 44.2082C54.6518 44.1624 54.6715 44.0904 54.6452 43.9988C54.5992 43.8091 54.415 43.6128 54.2308 43.5539C54.1387 43.5277 54.0598 43.5408 54.0137 43.5801L52.8691 44.6466L53.4612 45.2681V45.2747Z" fill="#C1272D"/>
<path d="M52.81 44.7777C52.7573 44.5421 52.8955 44.4047 53.1323 44.4767C53.3625 44.5487 53.5993 44.7973 53.652 45.0328C53.7046 45.2684 53.5664 45.4058 53.3296 45.3338C53.0994 45.2618 52.8626 45.0132 52.81 44.7777Z" fill="#CCC1BF"/>
<path d="M52.7721 44.9869C52.7721 44.9869 52.7589 45.0196 52.7655 45.0392C52.7787 45.0785 52.8116 45.1177 52.851 45.1308C52.8708 45.1374 52.8905 45.1308 52.9037 45.1308L53.1668 44.9672C53.1668 44.9672 53.1931 44.9214 53.1799 44.8887C53.1668 44.8167 53.0944 44.7448 53.0286 44.7251C52.9957 44.7121 52.9694 44.7251 52.9497 44.7382L52.7655 44.9869H52.7721Z" fill="#0071BC"/>
<path d="M52.8144 45.0206L50.834 46.8704L50.8925 46.9324L52.8729 45.0826L52.8144 45.0206Z" fill="#333333"/>
<path d="M59.8948 19.4304C59.8948 19.4304 56.4611 24.2198 62.355 27.7334L63.7429 23.5852L59.8948 19.437V19.4304Z" fill="black"/>
<path d="M63.9206 24.2002C63.9206 24.2002 64.9534 26.8043 64.9534 27.7923C64.9534 28.7803 65.0323 29.9253 66.144 30.1608C67.2557 30.3964 68.4463 28.7017 68.9989 27.1838C69.5514 25.6658 70.3145 25.1424 70.3145 25.1424C70.3145 25.1424 69.6961 24.7302 69.0515 23.8469C68.7884 23.2777 68.5581 22.4598 68.4397 21.2886C68.2358 19.2145 63.9141 24.2068 63.9141 24.2068L63.9206 24.2002Z" fill="#FFB294"/>
<g style="mix-blend-mode:multiply" opacity="0.5">
<path d="M64.5529 25.9928C64.5529 25.9928 64.5134 28.623 65.7632 29.0549C67.013 29.4867 68.0458 25.5937 68.0458 25.5937L67.2762 22.2502L64.5529 25.9862V25.9928Z" fill="#FFB294"/>
</g>
<path d="M60.6639 19.2276C60.6639 19.2276 58.8023 22.3027 60.3481 24.5142C61.894 26.7257 63.8411 28.4989 64.9527 27.7922C66.0644 27.0791 67.6037 26.765 67.88 24.789C68.1562 22.8131 68.8009 23.5655 68.8009 21.5176C68.8009 21.2035 68.7219 18.4424 66.1434 17.6115C63.5648 16.7805 62.2558 17.4544 60.6705 19.2276H60.6639Z" fill="#FFB294"/>
<path d="M60.0338 22.9766C60.5206 23.7225 61.4941 24.6319 63.9214 25.103C67.0065 25.705 67.1183 28.9699 67.1183 28.9699C67.1183 28.9699 69.4009 27.1968 69.618 24.5076C69.835 21.825 69.3943 18.4358 66.1448 17.2515C62.8952 16.0673 57.6065 19.2471 60.0338 22.97V22.9766Z" fill="black"/>
<g style="mix-blend-mode:multiply" opacity="0.3">
<path d="M76.9126 42.553C76.1692 40.9173 74.209 38.9741 74.4261 37.1224C74.4261 37.0766 74.4392 37.0374 74.4458 36.9916C74.7221 35.4213 74.9194 34.0407 75.0312 33.2032C75.0576 33.0396 75.0707 32.8892 75.0904 32.7714C75.1299 32.4835 75.1431 32.3265 75.1431 32.3265C75.176 32.0713 75.2088 31.8161 75.2352 31.5806C75.2549 31.4235 75.268 31.2731 75.2812 31.1357C75.3075 30.9263 75.3207 30.7169 75.3338 30.5206C74.9852 29.6439 74.6234 28.9045 74.4655 29.1466C71.6041 33.6874 72.2751 38.359 68.4861 38.6796C68.3546 38.6927 68.223 38.6927 68.098 38.6796C69.1044 35.9251 69.8083 32.9546 70.6503 30.1804C69.0321 33.1705 67.4336 37.4234 65.8089 37.1551C65.5984 36.8214 65.4997 36.5663 65.4997 36.5663C65.0655 37.1355 64.5985 37.4692 64.0854 37.5215L64.5722 40.2957C65.3484 40.4528 65.822 40.034 66.2891 40.492C66.5851 40.721 66.8745 40.9173 67.1639 41.094C66.3548 41.5062 65.5589 41.8595 64.8419 42.2063C64.809 42.4025 64.7695 42.5988 64.7301 42.7951C64.5261 43.8551 64.3091 44.843 64.0723 45.8049C64.4077 45.7002 64.7235 45.5759 65.0195 45.3599C66.1115 44.5617 66.8679 44.0775 67.677 43.6326C69.4465 42.6643 71.6436 42.8017 73.2289 44.0448L73.2618 44.071C73.2618 44.071 76.6165 48.88 76.6889 51.5103C76.7481 53.7545 74.7484 56.1296 74.1629 56.7708C75.8667 56.496 77.4848 55.8613 78.886 54.8341C79.0373 50.7644 78.9846 46.2694 76.8928 42.5596L76.9126 42.553Z" fill="#5D8D94"/>
</g>
<path d="M58.6973 44.4177L56.7897 44.2149L55.1715 44.0579L54.1125 44.313L53.6454 44.5093C53.2047 44.686 53.4744 45.0393 53.7967 44.9804L54.1519 44.8823L54.8689 44.7972L55.6978 44.8757L54.0335 45.2487L52.1588 45.8375C51.6918 46.0338 51.8102 46.4591 52.2575 46.3544L53.8625 46.1058L52.0075 46.8124C51.5733 46.9367 51.6523 47.4078 52.2246 47.2966L54.1388 46.8321L52.4482 47.5583C52.0799 47.7546 52.2509 48.2126 52.8298 48.0032L54.1651 47.5779L55.2636 47.4144L54.6519 47.7481L53.8033 48.0621C53.2573 48.278 53.4415 48.6902 53.948 48.5332L54.8163 48.2322L55.632 48.0883L56.7766 47.8724C57.8554 47.7611 58.671 47.0283 59.1118 46.5049C59.1446 46.5245 59.3486 45.0916 58.7039 44.4177H58.6973Z" fill="#29708D"/>
<path d="M58.6973 44.4176L66.6567 38.8365L71.3205 28.7473C72.169 26.562 75.9646 27.707 75.2541 31.3841L70.2548 40.4919C66.2159 43.5605 61.9797 46.4132 59.1051 46.5113C59.1972 45.543 59.1051 44.8036 58.6973 44.4241V44.4176Z" fill="#A0D1D6"/>
<path d="M68.8141 47.6105L67.4722 46.4459L66.0843 45.2485C65.7685 46.0141 65.4659 46.8123 65.1699 47.6171H68.8141V47.6105Z" fill="#80B8C7"/>
<path d="M67.3879 47.1526C67.3747 47.3096 67.3681 47.4601 67.3681 47.6106H78.531C78.4192 47.1395 78.2613 46.6488 78.0377 46.1319C76.8207 42.4744 68.9008 44.8887 67.4734 46.4394C67.2168 46.7142 67.1642 46.9694 67.3944 47.146L67.3879 47.1526Z" fill="#80B8C7"/>
<path d="M60.1387 40.2171L64.8419 35.2642L67.6376 39.3011L60.3492 42.7558L60.1387 40.2171Z" fill="#A0D1D6"/>
<g style="mix-blend-mode:multiply" opacity="0.3">
<path d="M60.1387 40.2171L64.8419 35.2642L67.6376 39.3011L60.3492 42.7558L60.1387 40.2171Z" fill="#5D8D94"/>
</g>
<path d="M61.6577 34.8715C61.9405 37.3382 64.0981 37.5149 64.0981 37.5149L64.5849 40.2891L64.8875 41.9968C64.8743 42.0622 64.8612 42.1276 64.8546 42.193C64.8217 42.3893 64.7822 42.5856 64.7428 42.7819C64.5388 43.8419 64.3218 44.8298 64.085 45.7916C63.9402 46.4132 63.7889 47.0152 63.6376 47.604H78.6158C78.3198 45.8374 77.8067 44.1232 76.9187 42.5464C76.1753 40.9106 74.2151 38.9674 74.4322 37.1157C74.4322 37.0699 74.4453 37.0307 74.4519 36.9849C74.7282 35.4146 74.9255 34.034 75.0373 33.1965C75.0637 33.033 75.0768 32.8825 75.0966 32.7647C75.136 32.4768 75.1492 32.3198 75.1492 32.3198C75.1821 32.0646 75.215 31.8094 75.2413 31.5739C75.261 31.4169 75.2742 31.2664 75.2873 31.129C75.3136 30.9196 75.3268 30.7102 75.3399 30.5139C75.4847 28.5314 75.1689 27.2687 73.3139 26.248C69.8341 24.6711 66.4465 23.9121 63.2167 24.7366C61.8024 24.6319 61.7892 27.4322 62.572 29.3362C63.2759 31.0374 61.5064 33.6087 61.6577 34.8781V34.8715Z" fill="#A0D1D6"/>
<path d="M64.9612 28.2174C64.9612 28.2174 64.9217 30.141 65.7835 32.3656L68.3752 28.4857L68.6712 26.7322L64.9612 28.2174Z" fill="white"/>
<path d="M59.2569 40.2039L58.2702 40.3806L57.8953 40.5834L57.4217 40.9956L56.6191 41.9444L56.9415 42.8669L57.9019 43.9399L58.5728 44.2147L59.1517 43.6979L60.02 43.1352L60.7304 42.3108L60.9409 41.3293C61.0856 40.976 59.9081 39.8048 59.2503 40.2039H59.2569Z" fill="#29708D"/>
<path d="M59.197 40.4593L58.2695 40.3808L57.9735 40.6883L57.6051 41.1398L57.1973 41.8268L57.4341 42.3568L58.4471 43.3251L58.7299 43.7242L59.1575 43.6915L60.0258 43.1288L60.7362 42.3044L60.9467 41.323C61.0914 40.9697 59.8614 40.0537 59.2036 40.4528L59.197 40.4593Z" fill="#1C495C"/>
<path d="M60.8489 40.9761C60.77 41.4472 59.4149 41.5911 58.9873 41.0939L58.6782 40.7078L58.0467 40.4985C58.0467 40.4985 57.6257 40.2564 57.5468 40.1255C57.4678 39.9881 57.4218 39.8638 57.4284 39.746C57.4415 39.5432 57.6981 39.5759 57.6981 39.5759L58.198 39.661H58.7242L60.1385 40.2237L60.8489 40.9761Z" fill="#29708D"/>
<path d="M57.1973 41.82L57.2696 42.4416C57.2696 42.4416 57.9603 42.049 58.0985 42.0687C58.2366 42.0883 58.5194 42.4743 58.5194 42.4743C58.5194 42.4743 58.7563 42.4285 58.8812 42.4939C59.0062 42.5594 59.1049 42.7099 59.1444 42.8407C59.1838 42.9781 59.1115 43.2006 59.1115 43.2006C59.1115 43.2006 59.4404 43.5539 59.4075 43.7633C59.3746 43.9726 58.9667 44.0839 58.9667 44.0839L58.5852 44.2016L57.6972 43.4099L57.2038 41.8135L57.1973 41.82Z" fill="#29708D"/>
<path d="M57.7441 42.193L57.1192 41.5845L56.3825 41.7677L55.4352 41.7415C54.955 41.7022 54.1986 42.7687 55.2379 42.4416L56.4351 42.5005L56.8758 42.5397L57.7178 42.5528L57.7441 42.1995V42.193Z" fill="#29708D"/>
<path d="M57.6716 40.348C57.6322 40.1582 57.7506 40.0404 57.9413 40.0928C58.1321 40.1451 58.3163 40.3414 58.3557 40.5377C58.3952 40.7274 58.2768 40.8452 58.0861 40.7929C57.8953 40.7405 57.7111 40.5442 57.6716 40.348Z" fill="#808080"/>
<path d="M57.8487 40.2694L55.9082 42.0818L56.2371 42.4286L58.1776 40.6162C58.1776 40.6162 58.2105 40.5507 58.2039 40.4984C58.1776 40.3937 58.0789 40.2825 57.9737 40.2563C57.9211 40.2432 57.8816 40.2498 57.8553 40.2694H57.8487Z" fill="#CCCCCC"/>
<path d="M55.4751 41.866C55.3304 41.4799 55.5146 41.3098 55.8895 41.4799C56.2645 41.6501 56.6855 42.095 56.8368 42.481C56.9815 42.867 56.7973 43.0372 56.4224 42.867C56.0474 42.6969 55.6264 42.252 55.4751 41.866Z" fill="#808080"/>
<path d="M55.7898 41.7808L52.8691 44.5092L53.6059 45.2943L56.5265 42.5659C56.5857 42.5136 56.6055 42.422 56.5791 42.3042C56.5265 42.0687 56.2897 41.82 56.0595 41.7481C55.9411 41.7153 55.849 41.7284 55.7898 41.7808Z" fill="#CCCCCC"/>
<path d="M53.4612 45.2747L54.6057 44.2082C54.6518 44.1624 54.6715 44.0904 54.6452 43.9988C54.5992 43.8091 54.415 43.6128 54.2308 43.5539C54.1387 43.5277 54.0598 43.5408 54.0137 43.5801L52.8691 44.6466L53.4612 45.2681V45.2747Z" fill="#C1272D"/>
<path d="M52.81 44.7777C52.7573 44.5421 52.8955 44.4047 53.1323 44.4767C53.3625 44.5487 53.5993 44.7973 53.652 45.0328C53.7046 45.2684 53.5664 45.4058 53.3296 45.3338C53.0994 45.2618 52.8626 45.0132 52.81 44.7777Z" fill="#CCC1BF"/>
<path d="M52.7721 44.9869C52.7721 44.9869 52.7589 45.0196 52.7655 45.0392C52.7787 45.0785 52.8116 45.1177 52.851 45.1308C52.8708 45.1374 52.8905 45.1308 52.9037 45.1308L53.1668 44.9672C53.1668 44.9672 53.1931 44.9214 53.1799 44.8887C53.1668 44.8167 53.0944 44.7448 53.0286 44.7251C52.9957 44.7121 52.9694 44.7251 52.9497 44.7382L52.7655 44.9869H52.7721Z" fill="#0071BC"/>
<path d="M52.8144 45.0206L50.834 46.8704L50.8925 46.9324L52.8729 45.0826L52.8144 45.0206Z" fill="#333333"/>
<path d="M59.8948 19.4304C59.8948 19.4304 56.4611 24.2198 62.355 27.7334L63.7429 23.5852L59.8948 19.437V19.4304Z" fill="#383034"/>
<path d="M63.9206 24.2002C63.9206 24.2002 64.9534 26.8043 64.9534 27.7923C64.9534 28.7803 65.0323 29.9253 66.144 30.1608C67.2557 30.3964 68.4463 28.7017 68.9989 27.1838C69.5514 25.6658 70.3145 25.1424 70.3145 25.1424C70.3145 25.1424 69.6961 24.7302 69.0515 23.8469C68.7884 23.2777 68.5581 22.4598 68.4397 21.2886C68.2358 19.2145 63.9141 24.2068 63.9141 24.2068L63.9206 24.2002Z" fill="#FFB294"/>
<g style="mix-blend-mode:multiply" opacity="0.5">
<path d="M64.5529 25.9928C64.5529 25.9928 64.5134 28.623 65.7632 29.0549C67.013 29.4867 68.0458 25.5937 68.0458 25.5937L67.2762 22.2502L64.5529 25.9862V25.9928Z" fill="#E5935C"/>
</g>
<path d="M60.6639 19.2276C60.6639 19.2276 58.8023 22.3027 60.3481 24.5142C61.894 26.7257 63.8411 28.4989 64.9527 27.7922C66.0644 27.0791 67.6037 26.765 67.88 24.789C68.1562 22.8131 68.8009 23.5655 68.8009 21.5176C68.8009 21.2035 68.7219 18.4424 66.1434 17.6115C63.5648 16.7805 62.2558 17.4544 60.6705 19.2276H60.6639Z" fill="#FFB294"/>
<path d="M60.0338 22.9766C60.5206 23.7225 61.4941 24.6319 63.9214 25.103C67.0065 25.705 67.1183 28.9699 67.1183 28.9699C67.1183 28.9699 69.4009 27.1968 69.618 24.5076C69.835 21.825 69.3943 18.4358 66.1448 17.2515C62.8952 16.0673 57.6065 19.2471 60.0338 22.97V22.9766Z" fill="#383034"/>
<g style="mix-blend-mode:multiply" opacity="0.3">
<path d="M64.7359 42.7886C64.532 43.8485 64.3149 44.8365 64.0781 45.7983C64.4136 45.6936 64.7293 45.5693 65.0254 45.3534C66.1173 44.5552 66.8738 44.071 67.6829 43.6261C69.4524 42.6577 71.6494 42.7951 73.2347 44.0383L73.2676 44.0644C73.2676 44.0644 74.4188 45.7198 75.3857 47.6107H78.6024C78.3064 45.8441 77.7933 44.1299 76.9053 42.553C76.1619 40.9173 74.2017 38.9741 74.4188 37.1224C74.4188 37.0766 74.4319 37.0374 74.4385 36.9916C74.7148 35.4213 74.9121 34.0407 75.0239 33.2032C75.0503 33.0396 75.0634 32.8892 75.0831 32.7714C75.1226 32.4835 75.1358 32.3265 75.1358 32.3265C75.1687 32.0713 75.2015 31.8161 75.2279 31.5806C75.2476 31.4235 75.2608 31.2731 75.2739 31.1357C75.3002 30.9263 75.3134 30.7169 75.3265 30.5206C74.9779 29.6439 74.6161 28.9045 74.4582 29.1466C71.5968 33.6874 72.2678 38.359 68.4788 38.6796C68.3473 38.6927 68.2157 38.6927 68.0907 38.6796C69.0972 35.9251 69.801 32.9546 70.643 30.1804C69.0248 33.1705 67.4263 37.4234 65.8016 37.1551C65.5911 36.8214 65.4924 36.5663 65.4924 36.5663C65.0583 37.1355 64.5912 37.4692 64.0781 37.5215L64.5649 40.2957C65.3411 40.4528 65.8147 40.034 66.2818 40.492C66.5778 40.721 66.8672 40.9173 67.1566 41.094C66.3475 41.5062 65.5516 41.8595 64.8346 42.2063C64.8017 42.4025 64.7622 42.5988 64.7228 42.7951L64.7359 42.7886Z" fill="#5D8D94"/>
</g>
<path d="M58.6973 44.4177L56.7897 44.2149L55.1715 44.0579L54.1125 44.313L53.6454 44.5093C53.2047 44.686 53.4744 45.0393 53.7967 44.9804L54.1519 44.8823L54.8689 44.7972L55.6978 44.8757L54.0335 45.2487L52.1588 45.8375C51.6918 46.0338 51.8102 46.4591 52.2575 46.3544L53.8625 46.1058L52.0075 46.8124C51.5733 46.9367 51.6523 47.4078 52.2246 47.2966L54.1388 46.8321L52.4482 47.5583C52.0799 47.7546 52.2509 48.2126 52.8298 48.0032L54.1651 47.5779L55.2636 47.4144L54.6519 47.7481L53.8033 48.0621C53.2573 48.278 53.4415 48.6902 53.948 48.5332L54.8163 48.2322L55.632 48.0883L56.7766 47.8724C57.8554 47.7611 58.671 47.0283 59.1118 46.5049C59.1446 46.5245 59.3486 45.0916 58.7039 44.4177H58.6973Z" fill="#29708D"/>
<path d="M58.6973 44.4176L66.6567 38.8365L71.3205 28.7473C72.169 26.562 75.9646 27.707 75.2541 31.3841L70.2548 40.4919C66.2159 43.5605 61.9797 46.4132 59.1051 46.5113C59.1972 45.543 59.1051 44.8036 58.6973 44.4241V44.4176Z" fill="#A0D1D6"/>
<path d="M26.7031 79.0884L27.8674 78.4276C28.1832 78.2509 28.6173 78.2706 29.0975 78.5454C30.0645 79.095 30.8407 80.4428 30.8407 81.5486C30.8407 82.1047 30.6434 82.4973 30.321 82.6805L29.1567 83.3413C29.479 83.1581 29.6764 82.7655 29.6764 82.2094C29.6764 81.0971 28.8936 79.7558 27.9332 79.2062C27.453 78.9314 27.0189 78.9052 26.7031 79.0884Z" fill="#383034"/>
<path d="M26.1836 80.2205C26.1836 79.1082 26.9664 78.6567 27.9268 79.2063C28.8937 79.7559 29.6699 81.1037 29.6699 82.2095C29.6699 83.3153 28.8872 83.7733 27.9268 83.2236C26.9664 82.674 26.1836 81.3262 26.1836 80.2205Z" fill="black"/>
<path d="M27.8146 82.1899L27.5449 82.0328C27.0253 81.7319 26.5911 81.0907 26.5385 80.5476L26.1504 75.2544L29.2092 77.0144L28.8211 81.8562C28.775 82.3469 28.3409 82.4909 27.8146 82.1899Z" fill="#CCC1BF"/>
<path d="M60.7363 98.6321L61.9006 97.9713C62.2164 97.7946 62.6505 97.8143 63.1307 98.0891C64.0977 98.6387 64.8739 99.9865 64.8739 101.092C64.8739 101.648 64.6766 102.041 64.3542 102.224L63.1899 102.885C63.5123 102.702 63.7096 102.309 63.7096 101.753C63.7096 100.641 62.9268 99.2995 61.9664 98.7499C61.4862 98.4751 61.0521 98.4489 60.7363 98.6321Z" fill="#383034"/>
<path d="M60.2168 99.7642C60.2168 98.6519 60.9996 98.2004 61.96 98.75C62.9269 99.2996 63.7031 100.647 63.7031 101.753C63.7031 102.859 62.9204 103.317 61.96 102.767C60.9996 102.218 60.2168 100.87 60.2168 99.7642Z" fill="black"/>
<path d="M61.8478 101.734L61.5781 101.577C61.0585 101.276 60.6243 100.634 60.5717 100.091L60.1836 94.7981L63.2424 96.5581L62.8543 101.4C62.8082 101.891 62.3741 102.035 61.8478 101.734Z" fill="#CCC1BF"/>
<path d="M87.5031 69.1826L87.4505 87.614L65.6641 100.203L65.7167 81.7777L87.5031 69.1826Z" fill="#8B8086"/>
<path d="M65.7163 81.7779L65.6637 100.203L25.2812 77.0147L25.3339 58.5898L65.7163 81.7779Z" fill="#CCC1BF"/>
<path d="M65.7163 81.7779L65.6637 100.203L25.2812 77.0147L25.3339 58.5898L65.7163 81.7779Z" fill="#CCC1BF"/>
<path d="M87.5028 69.1827L65.7164 81.7778L25.334 58.5897L47.1204 45.9946L87.5028 69.1827Z" fill="#C6C6C6"/>
<path d="M38.2007 42.0427L13.0332 56.4829V59.931L80.9118 98.9137L106 84.5062V81.0581L38.2007 42.0427Z" fill="#8B8086"/>
<path d="M39.0164 41.0613L13.0332 56.4829L80.9118 95.4656L106 81.0581L39.0164 41.0613Z" fill="#61595D"/>
<path d="M59.2171 94.0521L31.7868 78.3033C30.5435 77.5902 29.5371 76.0133 29.5371 74.7767V73.1017C29.5371 71.8651 30.5435 71.4464 31.7868 72.1595L59.2171 87.9083C60.4604 88.6215 61.4668 90.1983 61.4668 91.435V93.1099C61.4668 94.3465 60.4604 94.7653 59.2171 94.0521Z" fill="#8B8086"/>
<path d="M96.357 65.9439L48.5809 38.5094C47.3969 37.829 46.2457 37.7112 45.4169 38.1823C44.7065 38.588 44.3184 39.3797 44.3184 40.4003V44.771C44.3184 44.9346 44.4039 45.0851 44.5486 45.1636L99.4816 76.7135C99.554 76.7528 99.6329 76.7724 99.7118 76.7724C99.7908 76.7724 99.8697 76.7528 99.9421 76.7135C100.08 76.635 100.172 76.4845 100.172 76.3209V71.9503C100.172 69.8042 98.5015 67.1674 96.3636 65.9439H96.357ZM99.2514 75.5423L45.2261 44.5158V40.4069C45.2261 39.9227 45.338 39.275 45.8708 38.9675C46.4102 38.6599 47.2258 38.7777 48.1205 39.2946L95.8966 66.729C97.745 67.789 99.2514 70.1313 99.2514 71.9568V75.5489V75.5423Z" fill="#CCC1BF"/>
<path d="M55.1382 42.5398H54.2305V50.4763H55.1382V42.5398Z" fill="#CCC1BF"/>
<path d="M72.6949 52.616H71.7871V60.5525H72.6949V52.616Z" fill="#CCC1BF"/>
<path d="M90.2457 62.6985H89.3379V70.635H90.2457V62.6985Z" fill="#CCC1BF"/>
<path d="M38.9832 30.0888C38.9832 29.1728 38.6543 28.5316 38.128 28.2306L37.2334 27.7137C36.7072 27.4062 35.9704 27.452 35.1679 27.9165L15.8943 38.9871C14.2893 39.9097 13 42.1408 13 43.9728L13.0329 56.4763L13.9275 56.9932L39.0161 42.5857L38.9832 30.0822V30.0888ZM33.6155 32.9022L17.4731 42.1735C17.4336 41.5716 17.8546 40.8584 18.3611 40.564L34.5035 31.2927C34.543 31.8946 34.1286 32.6078 33.6155 32.9022Z" fill="#8B8086"/>
<path d="M36.0683 28.4334C37.6733 27.5109 38.9758 28.2502 38.9824 30.0888L39.0153 42.5923L13.9333 56.9998L13.9004 44.4963C13.9004 42.6643 15.1897 40.4266 16.7947 39.504L36.0683 28.4334ZM34.5159 33.4191C35.029 33.1247 35.4434 32.4115 35.4434 31.8227C35.4434 31.2338 35.029 30.9983 34.5093 31.2927L18.3669 40.564C17.8538 40.8584 17.4394 41.5716 17.4394 42.1605C17.4394 42.7493 17.8604 42.9849 18.3734 42.6904L34.5159 33.4191Z" fill="#CCC1BF"/>
<path d="M105.33 76.105V79.1147C105.33 79.7625 104.902 80.4102 104.034 80.9009L83.8198 92.5146C82.0964 93.496 79.3073 93.496 77.5838 92.5146L24.3348 61.933L23.2034 61.2853L19.9473 53.774L36.0371 44.5354C37.7605 43.5409 40.5496 43.5409 42.2731 44.5354L49.351 48.5724L89.444 71.4464L105.336 76.105H105.33Z" fill="#A0D1D6"/>
<path d="M104.034 74.3187L50.048 43.3119L42.2727 38.8431C40.5493 37.8485 37.7602 37.8485 36.0368 38.8431L20.2298 47.9181L19.2168 48.5004L22.736 57.9942L25.3146 59.4729L28.1958 61.1282L77.6033 89.4983C79.3267 90.4928 82.1158 90.4928 83.8392 89.4983L104.053 77.8911C105.777 76.8966 105.777 75.3001 104.053 74.3122L104.034 74.3187Z" fill="#CEF1F5"/>
<path d="M99.1256 72.2576C93.4159 69.0647 84.0028 63.8042 83.7199 63.6079C83.3186 63.3266 73.4911 59.1391 69.4982 55.8088C65.5054 52.4784 59.026 49.2659 59.026 49.2659L54.7832 51.3727L89.3901 78.5585C91.6069 74.8683 95.4419 73.7364 99.1256 72.2511V72.2576Z" fill="#2B6673"/>
<path d="M49.3434 48.5724C49.1921 48.7098 49.0408 48.8276 48.8632 48.9257L29.3265 60.1468C28.9647 60.3496 28.5832 60.4609 28.1951 60.4936C28.2872 60.487 28.3661 60.487 28.4582 60.4674L25.8599 60.9581C25.156 61.089 24.7022 61.632 24.3272 61.933L23.1958 61.2853L19.9397 53.774L16.8941 46.76C16.006 44.7448 16.5783 42.3566 18.1965 41.421L37.7398 30.2064C38.0095 30.0429 38.2989 29.9382 38.5949 29.8793L41.1538 29.3951C41.1538 29.3951 41.1275 29.4017 41.1143 29.4147C42.5483 29.0941 44.1336 29.984 44.8835 31.6851L50.1591 43.5867C50.9616 45.3991 50.5735 47.4993 49.3368 48.5724H49.3434Z" fill="#A0D1D6"/>
<path d="M48.8636 48.9258L29.3269 60.1469C28.873 60.402 28.5046 60.7684 28.1823 61.1283L25.3011 59.4729L20.2229 47.9182L19.4993 46.2628C18.6113 44.2476 19.1836 41.8594 20.8083 40.9303L40.345 29.7092C41.9501 28.7801 43.9958 29.67 44.8905 31.6852L50.0476 43.3185L50.1726 43.5868C51.0738 45.6151 50.4752 47.9967 48.8702 48.9258H48.8636Z" fill="#CEF1F5"/>
<g style="mix-blend-mode:multiply" opacity="0.3">
<path d="M36.181 59.8327C35.6153 59.4271 35.0298 59.0018 34.6812 58.3998C34.2668 57.6866 34.2405 56.8164 33.9445 56.0509C33.6682 55.3443 33.1748 54.7358 32.8393 54.0553C31.7342 51.8177 32.5368 48.9911 34.2602 47.1787C34.4246 47.0021 34.6088 46.8254 34.6746 46.5899C34.7404 46.3412 34.668 46.0795 34.5957 45.8309C34.1352 44.2475 33.9181 42.5136 34.5365 40.9826C35.1548 39.4581 36.8322 38.2607 38.4372 38.6468C40.5817 39.1571 41.5684 41.9837 43.7325 42.3893C44.5548 42.5463 45.4494 42.3108 46.219 42.6314C47.186 43.0305 47.6267 44.1232 47.9688 45.1112C48.4424 46.4786 48.916 47.8396 49.3896 49.207C49.5541 49.6716 49.7185 50.1623 49.6725 50.653C49.633 51.0783 49.4423 51.4774 49.2515 51.8569C47.5412 55.305 47.5346 59.8065 45.5152 63.0845C44.5614 64.6352 44.5811 65.6363 43.1142 64.6483C41.5881 63.6276 37.6873 60.8992 36.1941 59.8327H36.181Z" fill="#5D8D94"/>
</g>
<path d="M55.5854 61.3573C55.2565 62.2471 54.2567 62.6462 53.4739 63.1958C52.6188 63.7912 51.9741 64.6353 51.2374 65.3681C50.4941 66.1009 49.5929 66.7617 48.5535 66.8402C47.9615 66.8795 47.3629 66.729 46.8104 66.5065C46.2578 66.2841 45.7316 65.9962 45.2514 65.6494C44.2581 64.9428 43.4358 64.0137 42.8175 62.9603C42.1597 61.8349 41.0086 59.4925 41.6137 58.1709C41.8571 57.6474 42.4557 57.3465 42.9096 57.0193C43.6595 56.4893 44.3897 55.9332 45.1922 55.4817C46.3565 54.8405 47.7313 54.4414 49.0272 54.762C50.4085 55.1022 51.461 56.1818 52.428 57.2091C52.8556 57.6671 53.2897 58.1185 53.7173 58.5765C54.2435 59.1327 54.7698 59.6888 55.296 60.245C55.421 60.3693 55.5394 60.5067 55.6052 60.6702C55.6907 60.8927 55.6644 61.1413 55.5789 61.3573H55.5854Z" fill="#DB4F4F"/>
<g style="mix-blend-mode:multiply" opacity="0.5">
<path d="M53.7251 58.5699C52.0082 61.0301 49.9756 63.2154 47.4102 64.7464C46.7524 65.139 46.0091 65.4858 45.2592 65.6428C44.2659 64.9362 43.4437 64.0071 42.8253 62.9537C42.1675 61.8283 41.0164 59.4859 41.6215 58.1643C41.8649 57.6408 42.4635 57.3399 42.9174 57.0127C43.6673 56.4827 44.3975 55.9266 45.2 55.4751C46.3643 54.8339 47.7391 54.4348 49.035 54.7554C50.4164 55.0956 51.4688 56.1752 52.4358 57.2025C52.8634 57.6605 53.2975 58.1119 53.7251 58.5699Z" fill="#DB4F4F"/>
</g>
<path d="M99.1401 72.2644C93.4304 69.078 83.9975 63.8045 83.7212 63.6082C83.32 63.3268 73.4924 59.1394 69.4996 55.809C65.5067 52.4787 59.0273 49.2661 59.0273 49.2661L56.4159 52.2301C53.7978 57.0849 47.5948 56.725 44.9636 61.3509C44.457 62.2407 43.9571 63.1436 43.4638 64.0662C42.7928 65.4009 41.1746 66.2515 39.4512 66.9778C54.1991 76.1313 67.1249 79.743 76.959 87.0056C87.5036 79.6187 80.8927 86.6196 96.6339 74.2797C96.4234 73.9591 96.226 73.6646 96.0287 73.3898C97.1075 73.0561 98.1665 72.7159 99.1335 72.2579L99.1401 72.2644Z" fill="#2B6673"/>
<g style="mix-blend-mode:multiply" opacity="0.5">
<path d="M52.3694 67.8806C55.1454 70.6287 59.0987 71.7606 62.5193 73.6646C66.2359 75.7321 69.4065 78.7811 73.3796 80.2991C73.5967 80.3841 73.8335 80.4627 74.0637 80.4234C74.3729 80.3645 74.5966 80.1093 74.7939 79.8673C75.5833 78.9054 76.366 77.9371 77.1554 76.9753C76.6686 76.7463 76.1687 77.2043 75.7214 77.5053C74.7478 78.1661 73.4257 78.1138 72.3337 77.6754C71.2418 77.2305 70.334 76.4519 69.446 75.6863C68.7026 75.0451 67.9528 74.3974 67.2094 73.7562C66.749 73.3571 66.2885 72.9579 65.9596 72.4476C65.1505 71.1848 65.3544 69.5556 65.5847 68.0704C65.6373 67.7432 65.7031 67.3834 65.9465 67.1544C66.3806 66.7487 67.0845 66.9843 67.6107 67.2525C72.189 69.5883 75.9648 73.3113 80.622 75.49C80.8654 75.2218 80.6089 74.8096 80.3523 74.5479C77.5961 71.8064 73.9519 70.1118 71.0576 67.5142C70.5708 67.0759 70.0906 66.5982 69.8275 65.9963C69.5644 65.3943 69.5512 64.6419 69.959 64.125C70.8208 63.0193 72.61 63.6997 73.9782 63.3399C74.3005 63.2548 74.6229 63.1043 74.9583 63.1305C75.5306 63.1763 75.9056 63.7063 76.2805 64.1446C78.1224 66.3103 81.2798 66.9188 83.3124 68.9079C84.1215 69.6996 84.924 70.7791 86.0489 70.7072C86.6869 70.6679 87.2198 70.2492 87.8052 70.0005C88.3907 69.7454 89.1997 69.7192 89.5352 70.2557C89.772 70.6352 89.6668 71.1194 89.7128 71.5578C89.7589 72.0027 90.147 72.4999 90.5614 72.3298C90.8114 72.2251 90.91 71.9307 90.9429 71.669C91.1731 69.8173 89.5221 68.2143 87.7855 67.5208C86.0423 66.8207 84.1084 66.6898 82.3849 65.9374C80.8128 65.2504 79.4972 64.0727 77.9448 63.3464C76.9054 62.8622 75.7806 62.5809 74.7676 62.0575C72.1758 60.7162 70.3866 57.8569 67.5186 57.3073C66.5845 57.1306 65.6307 57.2222 64.6835 57.3138C60.8945 57.6868 57.0859 58.0663 53.3956 59.0215C51.9747 59.3879 50.5736 59.7871 49.1265 60.0357C48.2319 60.1927 46.9557 60.6311 47.2912 61.8219C47.5609 62.7837 49.1133 63.8895 49.7448 64.7008C50.5999 65.7935 51.4025 66.9254 52.3892 67.9068L52.3694 67.8806Z" fill="#2E4E57"/>
</g>
<path d="M105.979 72.2448C105.979 71.3288 105.65 70.6876 105.124 70.3866L104.236 69.8697C103.71 69.5622 102.973 69.608 102.164 70.0726L82.897 81.1366C81.292 82.0592 79.9895 84.2968 79.9961 86.1289L80.0224 94.9356L80.917 95.4525L106.006 81.045L105.979 72.2383V72.2448ZM100.612 75.0582L84.4626 84.3296C84.4231 83.7276 84.8441 83.0144 85.3506 82.72L101.5 73.4487C101.539 74.0506 101.118 74.7638 100.612 75.0582Z" fill="#8B8086"/>
<path d="M103.06 70.596C104.666 69.6734 105.975 70.4128 105.981 72.2448L106.007 84.4996L80.9189 98.9071L80.8926 86.6523C80.8926 84.8202 82.1884 82.5826 83.7935 81.66L103.06 70.596ZM101.508 75.5751C102.021 75.2807 102.436 74.5675 102.436 73.9786C102.436 73.3898 102.015 73.1542 101.501 73.4487L85.3525 82.72C84.8394 83.0144 84.425 83.7276 84.425 84.3164C84.425 84.9053 84.846 85.1408 85.3591 84.8464L101.508 75.5751Z" fill="#CCC1BF"/>
<path d="M73.6357 91.7491C73.5567 91.7491 73.4778 91.7295 73.4054 91.6902L18.4724 60.1403C18.3343 60.0618 18.2422 59.9113 18.2422 59.7477V55.3771C18.2422 54.3498 18.6303 53.5647 19.3407 53.159C20.163 52.6879 21.3207 52.7992 22.5047 53.4796L70.2809 80.914C72.4187 82.1376 74.0896 84.7809 74.0896 86.9204V91.2911C74.0896 91.4547 74.004 91.6052 73.8593 91.6837C73.787 91.7229 73.708 91.7426 73.6291 91.7426L73.6357 91.7491ZM19.1565 59.486L73.1818 90.5125V86.9204C73.1818 85.1015 71.6754 82.7591 69.827 81.6926L22.0509 54.2648C21.1562 53.7479 20.334 53.6301 19.8012 53.9442C19.2684 54.2517 19.1565 54.8929 19.1565 55.3836V59.4926V59.486Z" fill="white"/>
<path d="M29.0699 57.51H28.1621V65.44H29.0699V57.51Z" fill="white"/>
<path d="M46.6207 67.5862H45.7129V75.5227H46.6207V67.5862Z" fill="white"/>
<path d="M64.1773 77.6687H63.2695V85.5987H64.1773V77.6687Z" fill="white"/>
<path d="M57.5523 73.3766C57.1774 73.3766 56.7696 73.2589 56.3683 73.0233L48.797 68.6723C47.6524 68.018 46.7578 66.5851 46.7578 65.4205V61.0498H48.0734V65.4205C48.0734 66.1271 48.7181 67.1151 49.4548 67.5404L57.0261 71.8914C57.3616 72.0811 57.5918 72.0877 57.6642 72.0484C57.7102 72.0223 57.7497 71.9176 57.7497 71.7409V67.3703H59.0653V71.7409C59.0653 72.3821 58.7956 72.9121 58.322 73.1804C58.0917 73.3112 57.8352 73.3766 57.5589 73.3766H57.5523Z" fill="#8B8086"/>
<path d="M76.4312 62.7116C76.0563 62.7116 75.6485 62.5938 75.2472 62.3583L67.6759 58.0073C66.5313 57.3464 65.6367 55.9201 65.6367 54.7554V50.3848H66.9523V54.7554C66.9523 55.4621 67.597 56.45 68.3337 56.8753L75.905 61.2264C76.2405 61.4161 76.4707 61.4227 76.5431 61.3834C76.5891 61.3572 76.6286 61.2525 76.6286 61.0759V56.7052H77.9442V61.0759C77.9442 61.7171 77.6745 62.2471 77.2009 62.5153C76.9706 62.6462 76.7141 62.7116 76.4378 62.7116H76.4312Z" fill="#8B8086"/>
<path d="M65.7821 45.5431C64.085 47.133 62.276 48.6052 60.3421 49.953C59.7172 50.3914 59.0725 50.8232 58.4147 51.2354C56.8229 50.5288 56.3427 48.723 56.3427 48.723L54.3166 42.0165L53.7246 40.0405C53.7246 40.0405 56.7834 38.7581 58.6713 40.5116C59.8882 41.637 60.2895 45.072 60.9604 46.4526C60.9604 46.4526 63.493 45.4646 65.7821 45.5366V45.5431Z" fill="#DB4F4F"/>
<g style="mix-blend-mode:multiply" opacity="0.5">
<path d="M60.3419 49.9529C59.717 50.3913 59.0723 50.8231 58.4145 51.2353C56.8226 50.5287 56.3424 48.7228 56.3424 48.7228L54.3164 42.0164C54.494 41.1985 54.7571 40.1582 55.0531 40.1058C55.3623 40.0469 55.6781 42.3893 55.7767 42.7819C56.0201 43.7699 56.303 44.7513 56.6384 45.7196C57.0463 46.9235 57.5659 48.1536 58.5329 48.9846C59.0526 49.436 59.6775 49.7435 60.3419 49.9464V49.9529Z" fill="#DB4F4F"/>
</g>
<path d="M59.6636 41.0154C59.6636 41.0154 59.4662 42.6446 58.6177 44.9739C57.8152 47.1984 58.4532 48.9454 56.9403 51.6215C56.7166 52.014 56.4469 52.4328 56.118 52.8777C54.1052 55.5799 51.9015 56.1361 51.1977 56.6791L47.81 56.7184C46.3892 57.2484 43.8435 66.2318 42.1529 61.6256C39.8243 55.8351 40.6926 49.9203 43.1659 45.3991C45.4617 41.2117 49.1322 38.215 52.9343 37.6196C60.7424 39.2554 59.657 41.0154 59.657 41.0154H59.6636Z" fill="#DB4F4F"/>
<g style="mix-blend-mode:multiply" opacity="0.5">
<path d="M56.9403 51.6149C56.7166 52.0075 56.4469 52.4262 56.118 52.8711C54.1052 55.5733 51.9015 56.1295 51.1977 56.6726L47.81 56.7118C46.3892 57.2418 43.8435 66.2252 42.1529 61.619C39.8243 55.8285 40.6926 49.9137 43.1659 45.3926C43.337 45.7982 43.3633 46.4198 43.4027 46.7012C43.6264 48.4874 43.8632 50.4568 45.1393 51.8504C45.8892 52.6748 46.9351 53.1656 47.9942 53.5123C49.2309 53.9245 50.5399 54.1666 51.8358 54.0358C53.1316 53.8918 54.4143 53.3422 55.2695 52.3608C55.4405 52.1645 55.5918 51.9551 55.8023 51.7915C56.1246 51.5495 56.5653 51.5037 56.9403 51.6149Z" fill="#DB4F4F"/>
</g>
<path d="M56.454 43.6259C56.4672 44.0709 56.3817 44.4831 56.2567 44.8625C55.8554 46.0206 55.0003 46.7927 55.0003 46.7927C50.9219 48.3892 49.284 43.2137 50.0273 42.0295C50.6654 41.0153 51.4482 40.505 52.7309 39.5693C52.7309 39.5693 56.4014 41.8201 56.4475 43.6259H56.454Z" fill="#FFB294"/>
<g style="mix-blend-mode:multiply" opacity="0.5">
<path d="M56.2565 44.8625C55.8552 46.0206 55.0001 46.7927 55.0001 46.7927C53.3029 46.9105 53.2898 43.5801 53.6845 42.2061C53.8292 41.7023 53.6121 42.867 53.9542 42.9782C54.8159 43.2661 55.4868 44.2737 56.2565 44.8625Z" fill="#E5935C"/>
</g>
<path d="M60.9854 39.3796C61.4919 40.1189 61.4195 41.1396 61.2814 42.193C61.2814 42.193 61.163 42.9847 60.0776 44.1036C60.071 44.1952 60.1105 45.2813 60.0447 45.4972C59.9263 45.8832 59.058 45.7131 59.058 45.6739C59.058 45.6346 58.6041 46.7207 57.328 46.8451C56.0518 46.9628 53.4141 44.097 53.4141 44.097L53.9403 41.6434C56.4465 40.132 58.9725 37.312 60.9919 39.373L60.9854 39.3796Z" fill="#FFB294"/>
<path d="M60.8473 39.6675C60.6039 40.2433 56.2098 40.0732 56.0453 40.649C56.0453 40.662 56.0387 40.6751 56.0387 40.6882C55.3349 43.1941 55.723 43.5344 54.7363 43.3577L52.7366 43.0829C52.7366 43.0829 50.3553 41.035 52.9339 37.6065C53.1049 37.384 53.2825 37.1747 53.4733 36.9849C54.8021 35.6371 56.6702 35.166 59.4067 36.7298C61.334 37.8355 61.2946 38.6337 60.8538 39.6675H60.8473Z" fill="#E6E6E6"/>
<path d="M56.0387 40.6947C55.3349 43.2007 55.723 43.5409 54.7363 43.3642L52.7366 43.0894C52.7366 43.0894 50.3553 41.0415 52.9339 37.613C53.1049 37.3906 53.2825 37.1812 53.4733 36.9915C53.6838 38.601 53.401 38.9282 56.0387 40.6947Z" fill="#DEDEE0"/>
<path d="M54.3478 42.6576C54.2228 42.4024 53.9663 42.1931 53.6834 42.2061C53.3414 42.2258 53.0914 42.5595 53.0454 42.8932C52.9993 43.2268 53.1177 43.5605 53.2295 43.8811C53.3216 44.1429 53.44 44.4307 53.7032 44.5223C54.157 44.6859 54.5254 44.1821 54.5912 43.8026C54.6504 43.4689 54.4991 42.952 54.3478 42.6576Z" fill="#FFB294"/>
<path d="M45.2109 61.3572L58.242 68.8357L78.4825 57.209V56.5351L65.4581 50.7053L45.2109 60.6767V61.3572Z" fill="#8B8086"/>
<path d="M78.4825 56.5352L58.242 68.1619L45.2109 60.6768L47.4935 59.3683L50.868 57.4316L65.4581 49.0566L78.4825 56.5352Z" fill="white"/>
<g style="mix-blend-mode:multiply" opacity="0.3">
<path d="M58.8083 60.5197L58.4597 62.1096L56.1377 63.0845L55.3878 62.0376L53.2302 61.8871L51.3554 60.3364L47.4941 59.3681L50.8687 57.4314L52.4671 58.5764L56.6047 59.0213L58.8083 60.5197Z" fill="#5D8D94"/>
</g>
<g style="mix-blend-mode:multiply" opacity="0.3">
<path d="M59.209 51.4185L63.3005 53.2113L65.7804 53.087L65.3068 53.6235L65.5436 53.9572L66.1883 53.4861L66.8921 53.7478L68.4643 53.2113L69.3654 52.0925L68.6879 51.1961L66.8461 50.797L66.3527 50.6399L62.7808 49.6323L59.209 51.4185Z" fill="#5D8D94"/>
</g>
<path d="M50.4733 59.9244L51.3481 60.3366C52.4204 61.1414 53.4663 61.3835 54.4003 61.3835L55.387 62.0378L56.1304 63.0846C56.6632 63.7324 56.9 63.3202 56.6434 62.7837L56.2422 62.1032L55.4002 61.1021L55.7159 60.9058L56.4329 61.1087L57.4591 61.6714L57.7288 61.9658C57.8735 62.1294 58.1103 62.1752 58.3077 62.077C58.3537 62.0574 58.459 62.1032 58.459 62.1032C58.6168 62.1817 58.8076 62.1228 58.8931 61.9723C58.9918 61.8088 58.9852 61.6059 58.8865 61.4424L58.4327 60.703L57.6038 60.0226L58.2748 60.1272L58.8142 60.5133L59.1694 60.9386C59.5509 61.3508 59.7943 60.9778 59.6299 60.5656L59.2089 59.9375L58.0972 59.1131L56.3409 58.5897L52.9729 58.5569L51.5784 58.0139L50.2496 57.798C49.23 57.1502 49.7036 59.3356 50.4733 59.931V59.9244Z" fill="#FFB294"/>
<path d="M43.3167 46.3806C42.6852 51.3009 43.5798 56.2669 43.7376 56.3978C46.3557 58.5177 46.6386 58.4654 51.3484 60.3366C51.5326 59.3683 52.0325 58.7271 52.9666 58.557L48.6383 53.9573C48.6383 51.1569 48.8817 49.5343 48.8093 45.674C47.6187 41.8464 44.6323 41.6174 43.3167 46.3806Z" fill="#DB4F4F"/>
<g style="mix-blend-mode:multiply" opacity="0.3">
<path d="M64.6291 55.2724C66.4249 56.3062 66.4249 57.9746 64.6291 59.0084C62.8333 60.0422 59.9259 60.0422 58.1301 59.0084C56.3343 57.9746 56.3343 56.3062 58.1301 55.2724C59.9259 54.2386 62.8333 54.2386 64.6291 55.2724Z" fill="#5D8D94"/>
</g>
<path d="M61.8328 52.2103C61.9709 52.2103 60.3527 52.0663 58.6885 52.5898C57.7939 52.8646 56.3599 53.6562 56.0441 54.6966C56.0441 54.834 55.6955 55.3836 56.5177 56.6791C56.7545 56.9604 57.0637 57.2156 57.4584 57.4577C57.8333 57.6801 58.2543 57.8633 58.7016 58.0073C62.0696 59.0803 66.5689 57.7717 66.5689 55.2396C66.5689 53.8133 64.7205 52.3673 61.8393 52.2037L61.8328 52.2103Z" fill="#E6E6E6"/>
<path d="M66.3142 56.2209C64.3605 60.1729 58.6179 59.6298 56.9011 57.2482C56.9011 57.2482 56.6379 56.8687 56.5195 56.6855C56.7563 56.9668 57.0655 57.222 57.4602 57.4641C57.8351 57.6866 58.2561 57.8698 58.7034 58.0137C61.6043 58.9363 65.3341 58.0988 66.3142 56.2209Z" fill="#666666"/>
<path d="M64.4201 57.5296C64.2688 57.6997 64.0715 57.8567 63.8347 57.9941C62.2428 58.511 60.2891 58.511 58.7038 58.0072C58.467 57.8633 58.2762 57.7128 58.1249 57.5492C57.4014 56.7641 57.6316 55.763 58.8091 55.1087C60.2233 54.3236 62.4796 54.3432 63.8347 55.1611C64.92 55.8088 65.1108 56.7706 64.4135 57.5296H64.4201Z" fill="#999999"/>
<path d="M65.2352 57.1567C65.0445 57.366 64.8011 57.5689 64.4985 57.7455C62.4856 58.3998 60.0255 58.3998 58.0192 57.7586C57.7232 57.582 57.4798 57.3857 57.289 57.1763C56.3747 56.1818 56.6707 54.919 58.1507 54.1011C59.9399 53.1066 62.7816 53.1393 64.4985 54.1666C65.8667 54.9844 66.1035 56.1949 65.2352 57.1567Z" fill="#FBB03B"/>
<path d="M61.8337 52.2103C61.9718 52.2103 60.3536 52.0663 58.6894 52.5898C57.6632 52.9038 56.3476 53.702 56.045 54.6966C56.0122 54.7751 55.4925 56.2669 57.4593 57.4577C57.8343 57.6801 58.2553 57.8633 58.7026 58.0073C61.6232 58.9364 65.7082 58.1054 66.4646 55.8547C67.0632 53.9245 64.6359 52.3738 61.8337 52.2037V52.2103ZM64.8399 57.3268C64.7083 57.3988 64.5636 57.4708 64.4189 57.5362C62.5639 58.3671 59.9721 58.3671 58.1237 57.5558C57.9198 57.4642 57.729 57.3661 57.5448 57.2548C55.5714 56.0771 55.6438 54.1928 57.6961 53.0543C59.7485 51.9158 63.0112 51.9485 64.9846 53.1263C66.958 54.304 66.8856 56.1884 64.8333 57.3268H64.8399Z" fill="white"/>
<path d="M68.7864 46.8646C68.4246 48.2844 66.5038 49.4687 64.4843 50.2931C63.024 50.8951 61.5111 51.3007 60.5046 51.4643C59.6495 51.6082 58.9588 51.4905 58.4062 51.2353C59.0641 50.8231 59.7021 50.3913 60.3336 49.9529C62.261 48.5985 64.0765 47.1329 65.7736 45.543C66.984 45.5822 68.1286 45.9159 68.7864 46.8646Z" fill="#DB4F4F"/>
<g style="mix-blend-mode:multiply" opacity="0.5">
<path d="M64.4902 50.2931C63.0299 50.8951 61.5169 51.3007 60.5105 51.4643C59.6554 51.6082 58.9647 51.4905 58.4121 51.2353C59.0699 50.8231 59.708 50.3913 60.3395 49.9529C60.8986 50.1295 61.4906 50.2277 62.0761 50.2735C62.8786 50.3324 63.6877 50.3127 64.4902 50.2931Z" fill="#DB4F4F"/>
</g>
<path d="M68.279 46.1907L64.3125 51.3661L64.5888 51.654L68.904 46.7076C68.6935 46.5374 68.483 46.3673 68.279 46.1907Z" fill="#666666"/>
<path d="M66.2412 45.543C67.2016 45.0196 68.1291 45.3467 69.0369 46.0861L69.471 46.6226L69.3987 47.5255L68.9185 48.5004L67.8989 49.0827H66.8201L67.4516 48.3565C67.6095 48.0751 67.3727 47.6629 66.853 48.0555L66.2083 48.9061L65.7808 48.4285L65.3203 46.6815L66.2347 45.5365L66.2412 45.543Z" fill="#FFB294"/>
<path d="M64.826 51.2355C64.5366 50.928 63.9182 50.9999 63.1552 51.4776C62.6618 51.7851 61.8067 52.6357 62.3132 53.1591C62.7408 53.5975 63.859 53.447 64.3261 52.9694C64.7931 52.4917 65.2799 51.7131 64.826 51.2355Z" fill="#666666"/>
<path d="M64.669 51.9354C64.8203 51.6867 64.8861 51.4381 64.7217 51.2614C64.4848 51.0128 63.7678 51.1829 63.1495 51.5624C62.8075 51.7783 62.1694 52.3999 62.2681 52.8383C63.0706 52.3541 63.8665 51.7653 64.669 51.9354Z" fill="#CCCCCC"/>
<path d="M62.2742 52.8384C62.2873 52.9038 62.3202 52.9692 62.3728 53.0281C62.7149 53.3814 63.3727 53.0478 63.9121 52.701C64.162 52.544 64.4844 52.2364 64.6686 51.9355C63.866 51.7653 63.0701 52.3542 62.2676 52.8384H62.2742Z" fill="#FBB03B"/>
<path d="M72.2818 52.3935C72.216 52.9431 72.1503 53.4927 72.0845 54.0423C72.0319 54.448 71.9858 54.8602 71.9332 55.2724C71.8806 55.6911 71.8345 56.1033 71.7819 56.5221C71.7556 56.7642 71.5517 56.9539 71.3412 57.0717C70.7557 57.3988 69.8216 57.3857 69.2494 57.052C69.052 56.9343 68.8613 56.7445 68.8349 56.5155L68.6968 55.3051C68.6508 54.8994 68.6047 54.5003 68.5587 54.0946C68.4929 53.5254 68.4271 52.9627 68.3613 52.3935C68.3876 52.6421 68.5784 52.9562 69.0783 53.1983L68.9533 51.5102C69.7296 51.0784 70.9728 51.0914 71.7293 51.5364C72.1371 51.7785 72.3147 52.0925 72.2818 52.4066V52.3935Z" fill="#534741"/>
<path d="M71.5837 54.5264C70.8601 54.9124 69.7024 54.8994 68.9985 54.5002C68.913 54.4544 68.8341 54.3956 68.7617 54.3301L68.8933 55.5471C68.9591 55.606 69.038 55.6649 69.1169 55.7041C69.755 56.064 70.8141 56.0771 71.4719 55.7303C71.5771 55.6714 71.6824 55.5995 71.7679 55.5144L71.8929 54.304C71.8008 54.389 71.6955 54.461 71.5837 54.5199V54.5264Z" fill="white"/>
<path d="M72.5969 52.112C72.5969 52.0401 72.5969 51.9681 72.5969 51.9027C72.5969 51.5493 72.3798 51.2222 71.9523 50.967C71.0774 50.4436 69.6368 50.424 68.7356 50.9343C68.2752 51.1895 68.0515 51.5362 68.0449 51.8765C68.0449 51.9354 68.0449 51.9943 68.0449 52.0466V52.3083C68.0449 52.3083 68.0449 52.3476 68.0449 52.3672C68.0449 52.3868 68.0449 52.4065 68.0449 52.4261C68.0449 52.4457 68.0515 52.4719 68.0581 52.4915C68.0581 52.5111 68.0647 52.5308 68.0712 52.5504C68.0778 52.57 68.091 52.5962 68.0975 52.6158C68.1041 52.6355 68.1107 52.6551 68.1173 52.6682C68.1304 52.6878 68.1436 52.714 68.1567 52.7336C68.1699 52.7532 68.1765 52.7663 68.1896 52.7859C68.2028 52.8056 68.2225 52.8317 68.2423 52.8514C68.2554 52.871 68.2686 52.8841 68.2817 52.9037C68.3015 52.9233 68.3278 52.9495 68.3475 52.9691C68.3607 52.9822 68.3738 53.0019 68.3936 53.0149C68.4199 53.0411 68.4528 53.0607 68.4791 53.0869C68.4922 53.1 68.5054 53.1131 68.5251 53.1196C68.5712 53.1523 68.6238 53.1851 68.6764 53.2178C69.5513 53.7412 70.9919 53.7543 71.8931 53.2505C71.9523 53.2178 72.0049 53.1851 72.0509 53.1523C72.0707 53.1393 72.0838 53.1262 72.097 53.1196C72.1299 53.0935 72.1628 53.0738 72.1891 53.0477C72.2088 53.0346 72.222 53.0149 72.2351 53.0019C72.2614 52.9822 72.2812 52.9561 72.3075 52.9364C72.3206 52.9233 72.3338 52.9037 72.3469 52.8841C72.3667 52.8645 72.3864 52.8383 72.3996 52.8187C72.4127 52.799 72.4193 52.7859 72.4325 52.7663C72.4456 52.7467 72.4588 52.7205 72.4719 52.7009C72.4851 52.6813 72.4917 52.6616 72.4982 52.642C72.5114 52.6224 72.518 52.5962 72.5245 52.5766C72.5311 52.5569 72.5377 52.5373 72.5377 52.5177C72.5377 52.4981 72.5509 52.4719 72.5574 52.4523C72.5574 52.4326 72.5574 52.413 72.5574 52.3934C72.5574 52.3737 72.5574 52.3476 72.5574 52.3279C72.5574 52.3214 72.5574 52.112 72.5574 52.112H72.5969Z" fill="#F0DDC7"/>
<path d="M69.5242 51.9549C69.5242 51.9549 69.5045 51.9418 69.4979 51.9352C69.4519 51.896 69.4321 51.8829 69.4124 51.8698C69.0769 51.6081 69.123 51.2417 69.5308 51.0127L69.6295 51.2155C69.2677 51.4184 69.2348 51.739 69.5242 51.968V51.9549Z" fill="#C7B299"/>
<path d="M71.235 51.8698C71.1955 51.9026 71.156 51.9287 71.1165 51.9614C71.406 51.739 71.3797 51.4249 71.031 51.2221C70.6495 50.9931 70.018 50.9866 69.6299 51.209L69.5312 51.0062C69.9786 50.7576 70.7021 50.7641 71.1363 51.0193C71.531 51.2548 71.5639 51.6147 71.235 51.8698Z" fill="#C7B299"/>
<path d="M68.6049 51.5755C68.6772 51.4512 68.743 51.3204 68.8154 51.196C68.6443 51.5036 68.7693 51.8569 69.1903 52.1121C69.8021 52.4719 70.8019 52.485 71.4334 52.1317C71.8741 51.8831 72.0123 51.5232 71.8413 51.2026C71.907 51.3269 71.9794 51.4578 72.0452 51.5821C72.2425 51.9419 72.0846 52.3541 71.5781 52.6355C70.8611 53.0346 69.7231 53.0215 69.0259 52.6093C68.5457 52.3214 68.4075 51.9223 68.5983 51.569L68.6049 51.5755Z" fill="#C7B299"/>
<path d="M68.0449 52.3084V51.8896C68.0449 52.2168 68.262 52.5505 68.6896 52.8057C69.5644 53.3291 71.005 53.3422 71.9062 52.8384C72.3667 52.5832 72.5969 52.243 72.5969 51.9027V52.3215C72.5969 52.6617 72.3667 53.0019 71.9062 53.2571C71.005 53.7609 69.5644 53.7478 68.6896 53.2244C68.262 52.9692 68.0449 52.6355 68.0449 52.3084Z" fill="#C7B299"/>
<path d="M60.0841 61.3377C58.8079 62.0705 58.8079 63.2613 60.0841 63.9941C61.3602 64.7269 63.4257 64.7269 64.7018 63.9941C65.978 63.2613 65.978 62.0705 64.7018 61.3377C63.4257 60.6049 61.3602 60.6049 60.0841 61.3377Z" fill="#E6E6E6"/>
<path d="M60.5788 63.4837V64.0922C60.5788 64.2558 60.9275 64.3408 61.1314 64.2231L65.1111 61.933C65.1769 61.8938 65.2098 61.848 65.2098 61.8022V61.1937C65.2295 61.1152 65.0979 61.0105 64.8874 61.0105H60.9143C60.8222 61.0105 60.7433 61.0301 60.6841 61.0628C60.6249 61.0956 60.592 61.1414 60.5854 61.1937L60.5723 63.4837H60.5788ZM65.1111 61.3246C65.1111 61.3246 65.1506 61.2984 65.1637 61.2853C65.1506 61.2984 65.1308 61.3115 65.1111 61.3246Z" fill="#FFA821"/>
<path d="M60.6841 61.0628C60.6249 61.0955 60.592 61.1413 60.5854 61.1937L60.5723 63.4837C60.5723 63.6472 60.9209 63.7323 61.1248 63.6145L65.1045 61.3245C65.3084 61.2067 65.1637 61.0039 64.8809 61.0039H60.9077C60.8157 61.0039 60.7367 61.0235 60.6775 61.0563L60.6841 61.0628Z" fill="#FFD38F"/>
<path d="M60.7305 60.6311C60.7305 60.6311 60.737 60.5853 60.7568 60.5656C60.7699 60.546 60.7962 60.5264 60.8226 60.5133C60.8752 60.4806 60.9541 60.4609 61.0396 60.4609H64.7694C64.7891 60.4609 64.8154 60.4609 64.8352 60.4609C64.868 60.4609 64.8878 60.4675 64.9075 60.474C64.9272 60.474 64.9404 60.4871 64.9601 60.4937C64.9996 60.5133 65.0259 60.5329 65.0457 60.5525C65.072 60.5787 65.0785 60.6049 65.0785 60.6376V61.2068C65.0785 61.2526 65.0522 61.2919 64.9864 61.3311L61.2501 63.4772C61.0594 63.5884 60.7305 63.5099 60.7305 63.3529V62.7837L60.737 60.6376L60.7305 60.6311Z" fill="#42210B"/>
<path d="M62.145 63.3333C62.0792 63.4511 61.9871 63.5885 61.8555 63.5623C61.8029 63.5492 61.7569 63.5165 61.7174 63.4773C61.4806 63.2679 61.2438 63.0585 61.007 62.8491C60.9412 62.7903 60.8688 62.7183 60.8557 62.6332C60.836 62.5024 60.9544 62.3911 61.0662 62.3126C61.4543 62.0182 61.8358 61.7238 62.2239 61.4293C62.5725 61.1611 62.9343 60.8928 63.3488 60.7619C63.625 60.6769 63.9408 60.6573 64.2236 60.7423C64.342 60.7816 64.5657 60.8405 64.467 60.9713C64.4012 61.0629 64.1776 61.148 64.0789 61.2134C63.5658 61.5602 63.1119 61.9855 62.7238 62.4631C62.5068 62.7379 62.3094 63.0323 62.145 63.3399V63.3333Z" fill="#D9E021"/>
<path d="M64.4669 61.6582C64.6182 61.6844 64.7761 61.7171 64.9142 61.6582C65.0261 61.6059 65.105 61.4947 65.1379 61.3769C65.1708 61.2591 65.1774 61.1348 65.1774 61.0105C64.7958 60.8665 64.3617 60.8535 63.967 60.9647C63.7828 61.017 63.0329 61.2918 63.25 61.5601C63.3684 61.7106 63.6118 61.6255 63.7697 61.619C63.9999 61.6059 64.2367 61.619 64.4669 61.6582Z" fill="#D9E021"/>
<path d="M60.6714 60.2516C60.6714 60.2516 60.6779 60.2058 60.6977 60.1796C60.7108 60.16 60.7371 60.1403 60.7635 60.1207C60.8227 60.088 60.895 60.0684 60.9871 60.0684H64.8155C64.8418 60.0684 64.8616 60.0684 64.8813 60.0684C64.9142 60.0684 64.9339 60.0749 64.9537 60.0814C64.9734 60.0814 64.9931 60.0945 65.0063 60.1011C65.0457 60.1207 65.0721 60.1403 65.0918 60.16C65.1181 60.1861 65.1313 60.2188 65.1247 60.245V60.8339C65.1247 60.8797 65.0984 60.9255 65.0326 60.9582L61.191 63.1632C60.9937 63.2744 60.6582 63.1959 60.6582 63.0388V62.45L60.6648 60.245L60.6714 60.2516Z" fill="#FCED7E"/>
<path d="M60.5788 62.2144V62.8229C60.5788 62.9865 60.9275 63.0716 61.1314 62.9538L65.1111 60.6638C65.1769 60.6245 65.2098 60.5787 65.2098 60.5329V59.9244C65.2295 59.8459 65.0979 59.7412 64.8874 59.7412H60.9143C60.8222 59.7412 60.7433 59.7608 60.6841 59.7936C60.6249 59.8263 60.592 59.8721 60.5854 59.9244L60.5723 62.2144H60.5788ZM65.1111 60.0618C65.1111 60.0618 65.1506 60.0356 65.1637 60.0226C65.1506 60.0356 65.1308 60.0487 65.1111 60.0618Z" fill="#FFA821"/>
<path d="M60.6841 59.8001C60.6249 59.8328 60.592 59.8786 60.5854 59.931L60.5723 62.221C60.5723 62.3845 60.9209 62.4696 61.1248 62.3518L65.1045 60.0618C65.3084 59.944 65.1637 59.7412 64.8809 59.7412H60.9077C60.8157 59.7412 60.7367 59.7608 60.6775 59.7936L60.6841 59.8001Z" fill="#FFD38F"/>
<path d="M64.2955 60.0358C64.2955 60.0358 64.335 60.0292 64.3613 60.0227C64.4205 60.0161 64.4731 60.0816 64.4205 60.1274C64.3942 60.1535 64.3679 60.1666 64.335 60.1797C64.2429 60.2124 64.1968 60.0554 64.2955 60.0358Z" fill="#FFA821"/>
<path d="M63.8225 60.2646C63.8225 60.2646 63.8685 60.2515 63.8948 60.2515C63.9474 60.2515 63.9606 60.3169 63.9211 60.3431C63.9014 60.3562 63.8882 60.3627 63.8685 60.3692C63.8093 60.3823 63.7633 60.2973 63.8225 60.2646Z" fill="#FFA821"/>
<path d="M63.4276 60.0358C63.4934 60.0227 63.5526 59.9965 63.6183 60.0227C63.6578 60.0358 63.6841 60.0881 63.6447 60.1208C63.5986 60.1666 63.5394 60.1928 63.4736 60.2059C63.3618 60.232 63.3158 60.0554 63.4276 60.0358Z" fill="#FFA821"/>
<path d="M63.2429 60.4676C63.2429 60.4676 63.2955 60.4283 63.3218 60.4414C63.4008 60.4676 63.4008 60.5461 63.3416 60.5657C63.3218 60.5657 63.3087 60.5722 63.2889 60.5722C63.2363 60.5722 63.21 60.5068 63.2495 60.4676H63.2429Z" fill="#FFA821"/>
<path d="M62.8618 60.3234C62.8618 60.3234 62.8947 60.3104 62.9079 60.3038C62.9934 60.2711 63.046 60.4085 62.9671 60.4478C62.8487 60.5132 62.7632 60.3627 62.8553 60.3234H62.8618Z" fill="#FFA821"/>
<path d="M62.7174 60.8601C62.7634 60.8405 62.8161 60.8274 62.8687 60.8143C62.9345 60.7947 62.9739 60.8929 62.9147 60.9256C62.8753 60.9517 62.8555 60.991 62.8095 61.0106C62.7042 61.0564 62.6187 60.9059 62.7174 60.8601Z" fill="#FFA821"/>
<path d="M62.4403 60.6638C62.4798 60.6638 62.5127 60.69 62.5258 60.7227C62.5587 60.8078 62.4535 60.8666 62.3877 60.8208C62.3153 60.7685 62.3614 60.6769 62.4403 60.6638Z" fill="#FFA821"/>
<path d="M62.4067 60.1142C62.4462 60.088 62.479 60.0946 62.5185 60.1142C62.5514 60.1273 62.558 60.1862 62.5317 60.2123C62.5054 60.232 62.4856 60.2516 62.4462 60.2516C62.3738 60.2516 62.3541 60.16 62.4067 60.1207V60.1142Z" fill="#FFA821"/>
<path d="M61.9662 60.4281C62.0715 60.3889 62.1175 60.5262 62.0452 60.572C61.9333 60.6375 61.8544 60.4739 61.9662 60.4281Z" fill="#FFA821"/>
<path d="M61.8815 60.9844C61.8815 60.9844 61.9209 60.9714 61.9407 60.9648C61.9999 60.9452 62.0525 61.0302 61.9999 61.0695C61.9867 61.0826 61.967 61.0957 61.9538 61.1088C61.9275 61.1349 61.8946 61.1349 61.8617 61.1218C61.8354 61.1088 61.8288 61.0891 61.8223 61.0564C61.8223 61.0237 61.8486 60.9975 61.8749 60.9844H61.8815Z" fill="#FFA821"/>
<path d="M62.1441 61.2134C62.2165 61.2134 62.2165 61.3181 62.1441 61.3181C62.0718 61.3181 62.0718 61.2134 62.1441 61.2134Z" fill="#FFA821"/>
<path d="M61.5782 61.4554C61.6111 61.4423 61.644 61.4423 61.6769 61.4489C61.7164 61.4489 61.7427 61.5078 61.7295 61.5405C61.7164 61.5732 61.7032 61.5994 61.6703 61.619C61.6309 61.6517 61.5717 61.6583 61.5256 61.619C61.5125 61.6059 61.5059 61.5928 61.4993 61.5732C61.4796 61.5209 61.519 61.4685 61.5717 61.4489L61.5782 61.4554Z" fill="#FFA821"/>
<path d="M61.0457 61.7563C61.1049 61.7563 61.1049 61.8283 61.0523 61.8349C61.026 61.861 60.9734 61.848 60.9668 61.8087C60.9668 61.7629 61.0128 61.7367 61.0457 61.7563Z" fill="#FFA821"/>
<path d="M61.1902 61.2395C61.1902 61.2395 61.2165 61.2395 61.2297 61.2395C61.3415 61.2199 61.3875 61.3769 61.2757 61.4096C61.2626 61.4096 61.2494 61.4161 61.2362 61.4227C61.1244 61.4619 61.0718 61.2657 61.1902 61.246V61.2395Z" fill="#FFA821"/>
<path d="M61.3885 60.8536C61.3885 60.8536 61.4148 60.8274 61.4411 60.8274C61.5069 60.8144 61.5529 60.906 61.4871 60.9387C61.4542 60.9518 61.4345 60.9583 61.4016 60.9387C61.3687 60.919 61.3687 60.8798 61.3885 60.8536Z" fill="#FFA821"/>
<path d="M61.3418 60.546C61.3681 60.474 61.4273 60.4544 61.4865 60.4805C61.5786 60.5198 61.5391 60.6245 61.4865 60.6441C61.447 60.6572 61.4207 60.6507 61.3878 60.6376C61.355 60.6245 61.3418 60.5787 61.3484 60.546H61.3418Z" fill="#FFA821"/>
<path d="M60.9208 60.7554C61.0129 60.7358 61.0721 60.8274 61.0129 60.8862C60.9011 60.9975 60.7893 60.7881 60.9208 60.7554Z" fill="#FFA821"/>
<path d="M61.7571 60.1534C61.8031 60.1272 61.8492 60.1272 61.8952 60.1534C61.9215 60.1665 61.9281 60.1992 61.915 60.2189C61.8886 60.2647 61.8492 60.2843 61.7965 60.2908C61.7176 60.2908 61.6979 60.1927 61.7571 60.1534Z" fill="#FFA821"/>
<path d="M63.0328 60.0422C63.0789 60.1273 62.9276 60.1796 62.9144 60.088C62.9078 60.0226 62.9934 59.9703 63.0328 60.0422Z" fill="#FFA821"/>
<path d="M61.1445 60.1599C61.1511 60.1271 61.1774 60.101 61.1972 60.0944C61.2169 60.0944 61.23 60.0944 61.2498 60.0879C61.3353 60.0879 61.3484 60.2122 61.2695 60.2318C61.23 60.2384 61.2103 60.2449 61.1774 60.2318C61.1511 60.2187 61.1445 60.186 61.1511 60.1599H61.1445Z" fill="#FFA821"/>
<path d="M60.8491 60.4216C60.8491 60.4216 60.8886 60.3889 60.9215 60.3758C60.9873 60.3561 61.0201 60.4477 60.9675 60.4805C60.9215 60.5066 60.8952 60.5066 60.8754 60.4935C60.8425 60.4739 60.8294 60.4412 60.8491 60.415V60.4216Z" fill="#FFA821"/>
</svg>
