<svg width="120" height="120" viewBox="0 0 120 120" fill="none" xmlns="http://www.w3.org/2000/svg">
<g clip-path="url(#clip0_2017_603)">
<path d="M82.3883 71.1502C82.6803 71.7321 82.4562 72.9026 82.1167 74.2084C81.5056 75.4804 80.2494 75.1354 79.1358 75.1015C76.9765 75.0339 75.6389 76.4073 72.8549 75.8796C71.1981 75.5684 70.1592 75.0068 70.0098 73.8904C70.0505 73.3965 70.424 72.9635 71.103 72.5778C71.103 72.5778 75.2246 71.5968 75.3333 71.5494C75.4419 71.5021 77.3839 70.5819 77.4383 70.4601C77.4926 70.3383 78.6673 67.5508 78.6673 67.5508L82.7618 68.3221L82.3951 71.157L82.3883 71.1502Z" fill="black"/>
<path d="M88.4321 77.3478C88.758 78.5928 88.8191 78.9514 88.6154 79.8512C88.4117 80.3248 88.2148 80.5278 87.9839 81.1841C87.7123 81.9892 87.6784 83.3627 86.4154 84.1273C84.9012 85.2031 82.0832 85.1219 81.248 83.8566C81.2752 83.2612 81.7369 81.9622 82.5246 80.927L84.0864 78.3424L84.1135 75.8526L88.2691 75.1489L88.4321 77.3478Z" fill="black"/>
<path d="M83.5295 39.0867L80.4331 55.4399C80.8541 60.4263 82.5517 65.3587 82.0628 70.1692C81.6825 72.1652 77.5473 71.8404 76.7596 70.3654C77.0516 66.6239 74.8855 61.0556 74.0911 54.9121C73.9485 48.8363 74.0571 42.5779 75.3337 37.7673L83.5363 39.0867H83.5295Z" fill="#25435C"/>
<path d="M83.5295 39.0867L80.4331 55.4399C80.8541 60.4263 82.5517 65.3587 82.0628 70.1692C81.6825 72.1652 77.5473 71.8404 76.7596 70.3654C77.0516 66.6239 74.8855 61.0556 74.0911 54.9121C73.9485 48.8363 74.0571 42.5779 75.3337 37.7673L83.5363 39.0867H83.5295Z" fill="#A0D1D6"/>
<path d="M75.1709 39.1544C74.974 40.8459 77.0858 45.4061 79.6457 47.5373C79.5914 51.1503 79.7611 57.4359 80.1753 61.5428C81.8186 67.5238 83.2988 73.2478 83.5229 76.9961C84.1748 77.8959 86.2322 78.3357 87.5495 77.9162C87.6581 77.8824 87.7396 77.8553 87.8143 77.8215C87.8415 77.808 87.8754 77.7945 87.9026 77.7809C88.3711 77.5509 88.697 77.172 88.7242 76.624C88.9143 71.8878 88.2761 67.057 87.1625 62.172L88.1878 45.4805C89.1384 43.2207 89.6748 40.5955 88.6156 36.5698L87.4884 36.7863L75.1709 39.1612V39.1544Z" fill="#A0D1D6"/>
<g style="mix-blend-mode:multiply" opacity="0.3">
<path d="M84.6828 62.5034C87.073 65.6902 87.3174 71.793 87.5551 77.9094C87.6094 77.8891 87.6909 77.8553 87.8199 77.8147C87.8471 77.8011 87.881 77.7876 87.9082 77.7741C88.3767 77.544 88.7026 77.1652 88.7298 76.6171C88.9199 71.881 88.2816 67.0501 87.168 62.1652L88.1934 45.4737C89.144 43.2139 89.6804 40.5887 88.6211 36.563L87.494 36.7795L75.1426 39.6618C80.4865 42.9365 83.5353 55.8526 84.6896 62.5034H84.6828Z" fill="#5D8D94"/>
</g>
<path d="M58.0929 37.5034C58.0929 37.5034 57.5429 38.6401 58.5953 39.9053L66.2954 36.5765C67.0016 36.272 67.5924 35.7646 68.0134 35.1286L64.0818 31.7727L58.0929 37.5034Z" fill="#DB3745"/>
<path d="M72.3729 25.8119L67.1037 22.6387L64.6117 31.2584L64.082 31.7659L68.0136 35.1218C68.129 34.9526 68.2376 34.7767 68.3191 34.5873L72.3729 25.8051V25.8119Z" fill="#A0D1D6"/>
<path d="M83.3108 26.6374C79.3453 23.2815 76.1742 22.3884 76.1742 22.3884C63.7074 16.9554 65.3574 28.4507 65.3574 28.4507C66.4642 34.6279 71.91 35.9743 71.91 35.9743L73.7841 37.0975L75.1353 39.6685C86.4614 44.2829 88.6139 36.5697 88.6139 36.5697C87.7719 28.4304 83.3108 26.6442 83.3108 26.6442V26.6374Z" fill="#A0D1D6"/>
<path d="M69.1275 28.5114C69.1275 28.5114 68.917 30.6021 72.38 33.8971L73.1677 26.4546L69.1275 28.5182V28.5114Z" fill="white"/>
<g style="mix-blend-mode:multiply" opacity="0.3">
<path d="M73.7852 37.0908L75.1364 39.6618C86.4625 44.2761 88.615 36.563 88.615 36.563C88.615 36.563 82.7075 37.084 81.0371 32.0772L77.9476 31.2585C77.9476 31.2585 76.9833 36.3871 73.7852 37.0908Z" fill="#5D8D94"/>
</g>
<path d="M73.0985 27.0298C72.6571 29.885 71.3806 30.1015 71.3806 30.1015L69.1602 29.0731L66.6953 27.9296L69.2348 23.4438L71.9917 23.7686C71.9917 23.7686 73.5534 24.0798 73.0985 27.0298Z" fill="#FFB294"/>
<g style="mix-blend-mode:multiply" opacity="0.5">
<path d="M71.3806 30.1016L69.1602 29.0731L69.9682 27.5779L71.3806 30.1016Z" fill="#E5935C"/>
</g>
<path d="M63.7207 30.2776C63.7479 30.697 63.9584 30.9135 64.2911 30.8324L64.6782 30.6835C64.6782 30.6835 66.009 31.6104 67.143 31.3601C68.277 31.1098 70.2665 29.3303 70.0289 27.2261C70.0289 27.2261 71.9641 21.3736 66.6881 20.2843C65.1942 19.9731 62.0775 21.1571 61.3985 23.9311C60.9707 25.67 60.4207 27.6389 63.5578 29.4859L63.714 30.2843L63.7207 30.2776Z" fill="#FFB294"/>
<path d="M68.9975 27.5237L68.4271 28.0853C67.2728 27.8891 66.4783 28.3153 65.419 27.111C65.419 27.111 64.5703 28.6198 62.1597 28.4304C62.1597 28.4304 61.7048 28.2341 61.3653 27.9026C60.5776 27.1381 59.6338 23.8498 62.9135 21.1841C63.8777 20.406 65.4258 19.3573 67.8703 20.5142C70.4234 21.7186 71.279 24.5129 70.6883 26.7253C70.4913 27.4628 69.6697 27.8688 68.9907 27.5237H68.9975Z" fill="#383034"/>
<path d="M68.1688 27.1449C68.3114 26.7525 68.8003 26.5563 69.2009 26.6713C69.6015 26.7931 69.8867 27.172 69.9682 27.5847C70.009 27.7945 69.9954 28.0245 69.8799 28.2072C69.7238 28.4508 69.4114 28.5522 69.1262 28.5184C68.4879 28.4508 67.9379 27.808 68.1756 27.1449H68.1688Z" fill="#FFB294"/>
<path d="M58.0924 37.5034L57.2165 37.8349L54.8195 37.9229L53.0473 38.5792L52.3343 38.9919C51.7707 39.4723 52.0355 39.8106 52.6874 39.3302L52.0898 39.5805L51.3429 40.1489C50.9627 40.5142 51.3565 40.8728 51.8793 40.5684L52.7621 40.0068L54.48 39.682L53.3936 40.203L52.5448 41.0623C52.1374 41.5765 52.5991 41.996 53.1763 41.4276C53.1763 41.4276 53.9028 40.8052 53.9368 40.7713C53.9707 40.7375 55.1047 40.5345 55.1047 40.5345C55.2948 40.6563 55.4646 40.724 55.7633 40.9879L55.5596 41.5224L54.7312 41.8945C54.2559 42.1787 54.2695 42.7064 54.7312 42.6658L55.7294 42.4696L56.4084 42.023L57.0535 41.6577L57.5831 41.3532L58.5813 39.9121L58.9615 39.7429C59.7153 39.3302 59.1177 37.341 58.0788 37.5169L58.0924 37.5034Z" fill="#FFB294"/>
<path d="M58.0929 37.5034C58.0929 37.5034 57.5429 38.6401 58.5953 39.9053L66.2954 36.5765C67.0016 36.272 67.5924 35.7646 68.0134 35.1286L64.0818 31.7727L58.0929 37.5034Z" fill="#A0D1D6"/>
<path d="M58.0924 37.5034L57.2165 37.8349L54.8195 37.9229L53.0473 38.5792L52.3343 38.9919C51.7707 39.4723 52.0355 39.8106 52.6874 39.3302L52.0898 39.5805L51.3429 40.1489C50.9627 40.5142 51.3565 40.8728 51.8793 40.5684L52.7621 40.0068L54.48 39.682L53.3936 40.203L52.5448 41.0623C52.1374 41.5765 52.5991 41.996 53.1763 41.4276C53.1763 41.4276 53.9028 40.8052 53.9368 40.7713C53.9707 40.7375 55.1047 40.5345 55.1047 40.5345C55.2948 40.6563 55.4646 40.724 55.7633 40.9879L55.5596 41.5224L54.7312 41.8945C54.2559 42.1787 54.2695 42.7064 54.7312 42.6658L55.7294 42.4696L56.4084 42.023L57.0535 41.6577L57.5831 41.3532L58.5813 39.9121L58.9615 39.7429C59.7153 39.3302 59.1177 37.341 58.0788 37.5169L58.0924 37.5034Z" fill="#FFB294"/>
<path d="M75.0608 67.0635C75.0608 67.0635 75.4546 66.9012 75.5497 67.7469C75.6447 68.5926 75.7534 69.6752 75.441 70.0202C75.1355 70.3653 74.2867 70.4194 73.2206 70.3721C72.1546 70.3247 70.7965 71.0081 70.586 71.0554C70.3755 71.1028 68.0465 71.4546 67.7681 70.2773C67.4897 69.1001 70.5113 68.3017 70.7015 68.1731C70.8916 68.0446 72.27 67.28 72.4194 67.05C72.7793 66.4952 75.0608 67.0635 75.0608 67.0635Z" fill="#1A1A1A"/>
<path d="M72.4255 58.3828C72.4594 58.7347 72.507 59.1609 72.5613 59.6413C72.7854 61.7117 73.1113 64.621 73.152 65.2841C73.1996 66.1027 72.6088 67.1041 72.6088 67.1041C72.6699 67.2935 73.0366 68.3016 74.0484 68.2746C75.0601 68.2475 75.2706 67.3409 75.2706 67.3409C75.2706 67.3409 75.2502 66.9755 75.2706 65.8118C75.2774 65.3991 75.3996 64.4857 75.549 63.4708C75.6984 62.4694 75.8749 61.3666 76.0107 60.575C76.1194 59.9052 76.2009 59.4451 76.2009 59.4451C76.2009 59.4451 75.807 59.1947 75.2774 58.897C74.1298 58.2543 72.3304 57.3883 72.4255 58.3693V58.3828Z" fill="#FFB294"/>
<path d="M75.1562 58.9309C75.1562 58.9309 75.6519 59.9526 76.005 60.5886C76.0933 60.7509 76.168 60.8795 76.2291 60.9675C76.2698 61.0283 76.3377 61.2449 76.4124 61.5561C76.8334 63.3085 77.655 68.2679 77.655 68.7144C77.655 69.2354 77.2544 69.9661 77.2544 69.9661C77.7297 69.8917 77.9402 70.23 78.4223 70.5615C78.8977 70.893 79.5835 70.3924 79.5835 70.3924C79.5835 70.3924 79.4409 68.0514 79.5156 66.6034C79.5699 65.4465 79.7396 65.0202 79.8483 63.5994C79.8754 63.2476 79.9026 62.8281 79.9162 62.3206C80.0112 59.7902 78.6328 58.3896 78.6328 58.3896L75.2785 58.9174L75.163 58.9377L75.1562 58.9309Z" fill="#FFB294"/>
<g style="mix-blend-mode:multiply" opacity="0.5">
<path d="M72.4264 58.383C72.4604 58.7349 72.5079 59.1611 72.5622 59.6415C73.0443 60.0745 73.6215 60.3925 74.1104 60.8255C74.8913 61.563 75.353 62.4494 75.5431 63.4778C75.6925 62.4764 75.8691 61.3736 76.0049 60.582C76.0931 60.7443 76.1678 60.8729 76.2289 60.9609C76.2697 61.0217 76.3376 61.2383 76.4123 61.5495C76.4462 61.4345 76.4802 61.3194 76.5141 61.1977C77.1049 61.4818 77.7567 61.7051 78.3203 62.0434C78.7685 62.3073 79.1691 62.6523 79.495 63.0515C79.5901 63.1665 79.7055 63.383 79.8413 63.5996C79.8685 63.2477 79.8957 62.8282 79.9092 62.3208C80.0043 59.7904 78.6259 58.3898 78.6259 58.3898L75.2715 58.9176C74.124 58.2748 72.3246 57.4088 72.4196 58.3898L72.4264 58.383Z" fill="#FCB58D"/>
</g>
<path d="M79.5225 69.2624C79.5225 69.2624 79.8144 69.0662 79.9163 70.1894C80.0182 71.3125 80.0182 71.5831 80.0182 71.5831C80.0182 71.5831 79.9978 72.0229 79.5768 72.5439C79.1626 73.0649 78.2799 74.6481 76.6163 74.8172C74.9527 74.9796 74.1582 74.6616 74.1582 74.0865C74.1582 73.5114 74.5045 72.9634 74.8576 72.6792C75.2107 72.395 76.7792 70.893 77.0848 70.0743C77.0848 70.0743 77.2817 69.5195 78.0897 70.2638C79.0336 71.1366 79.5768 70.46 79.5225 69.2624Z" fill="#1A1A1A"/>
<path d="M26.1445 75.2706L27.3464 74.5872C27.6723 74.4046 28.1205 74.4249 28.6162 74.709C29.6143 75.2774 30.4156 76.6711 30.4156 77.8146C30.4156 78.3897 30.2119 78.7956 29.8791 78.9851L28.6773 79.6684C29.01 79.479 29.2137 79.073 29.2137 78.4979C29.2137 77.3477 28.4057 75.9607 27.4143 75.3924C26.9186 75.1082 26.4705 75.0812 26.1445 75.2706Z" fill="#383034"/>
<path d="M25.6074 76.4412C25.6074 75.291 26.4155 74.8242 27.4068 75.3925C28.405 75.9608 29.2062 77.3546 29.2062 78.498C29.2062 79.6415 28.3982 80.1151 27.4068 79.5468C26.4155 78.9784 25.6074 77.5846 25.6074 76.4412Z" fill="black"/>
<path d="M27.2921 78.4844L27.0137 78.322C26.4773 78.0107 26.0292 77.3477 25.9748 76.7861L25.5742 71.3125L28.7317 73.1325L28.331 78.1393C28.2835 78.6467 27.8354 78.7956 27.2921 78.4844Z" fill="#CCC1BF"/>
<path d="M61.2773 95.4803L62.4792 94.797C62.8051 94.6143 63.2533 94.6346 63.749 94.9188C64.7471 95.4871 65.5484 96.8809 65.5484 98.0243C65.5484 98.5994 65.3447 99.0054 65.012 99.1948L63.8101 99.8782C64.1428 99.6887 64.3465 99.2828 64.3465 98.7077C64.3465 97.5575 63.5385 96.1704 62.5471 95.6021C62.0514 95.3179 61.6033 95.2909 61.2773 95.4803Z" fill="#383034"/>
<path d="M60.7402 96.6509C60.7402 95.5007 61.5483 95.0339 62.5396 95.6022C63.5378 96.1705 64.339 97.5643 64.339 98.7078C64.339 99.8512 63.531 100.325 62.5396 99.7565C61.5483 99.1881 60.7402 97.7944 60.7402 96.6509Z" fill="black"/>
<path d="M62.425 98.6941L62.1466 98.5317C61.6101 98.2205 61.162 97.5574 61.1077 96.9958L60.707 91.5222L63.8645 93.3422L63.4639 98.349C63.4163 98.8565 62.9682 99.0053 62.425 98.6941Z" fill="#CCC1BF"/>
<path d="M88.9068 65.0337L88.8525 84.0865L66.3633 97.1108L66.4176 78.0513L88.9068 65.0337Z" fill="#8B8086"/>
<path d="M66.4172 78.0514L66.3628 97.1109L24.6777 73.1325L24.7321 54.073L66.4172 78.0514Z" fill="#CCC1BF"/>
<path d="M66.4172 78.0514L66.3628 97.1109L24.6777 73.1325L24.7321 54.073L66.4172 78.0514Z" fill="#CCC1BF"/>
<path d="M88.9067 65.0338L66.4175 78.0514L24.7324 54.073L47.2216 41.0554L88.9067 65.0338Z" fill="#C6C6C6"/>
<path d="M38.0126 36.969L12.0332 51.9013V55.467L82.1014 95.7782L107.999 80.8797V77.3073L38.0126 36.969Z" fill="#8B8086"/>
<path d="M38.8545 35.9541L12.0332 51.9013L82.1014 92.2126L107.999 77.3073L38.8545 35.9541Z" fill="#61595D"/>
<path d="M59.7077 90.751L31.3926 74.4655C30.1092 73.728 29.0703 72.0974 29.0703 70.8187V69.0866C29.0703 67.8078 30.1092 67.3748 31.3926 68.1123L59.7077 84.3978C60.9911 85.1353 62.03 86.7659 62.03 88.0446V89.7767C62.03 91.0555 60.9911 91.4885 59.7077 90.751Z" fill="#8B8086"/>
<path d="M98.0455 61.6848L48.7282 33.3086C47.5059 32.605 46.3177 32.4832 45.4621 32.9703C44.7287 33.3898 44.3281 34.2085 44.3281 35.264V39.7836C44.3281 39.9527 44.4164 40.1083 44.5658 40.1895L101.271 72.8147C101.346 72.8553 101.427 72.8756 101.508 72.8756C101.59 72.8756 101.671 72.8553 101.746 72.8147C101.889 72.7335 101.984 72.5779 101.984 72.4087V67.8891C101.984 65.6699 100.259 62.9432 98.0523 61.678L98.0455 61.6848ZM101.033 71.6036L45.2652 39.5265V35.2775C45.2652 34.7768 45.3806 34.107 45.9306 33.789C46.4874 33.471 47.3294 33.5928 48.2529 34.1273L97.5702 62.4967C99.4782 63.5928 101.033 66.015 101.033 67.9027V71.6171V71.6036Z" fill="#CCC1BF"/>
<path d="M55.4976 37.4763H54.5605V45.6834H55.4976V37.4763Z" fill="#CCC1BF"/>
<path d="M73.6206 47.9026H72.6836V56.1096H73.6206V47.9026Z" fill="#CCC1BF"/>
<path d="M91.7378 58.3289H90.8008V66.5359H91.7378V58.3289Z" fill="#CCC1BF"/>
<path d="M38.8213 24.6076C38.8213 23.6603 38.4818 22.9973 37.9386 22.686L37.0151 22.1515C36.4719 21.8335 35.7114 21.8809 34.883 22.3613L14.9877 33.8024C13.3309 34.7564 12 37.0703 12 38.9648L12.034 51.8944L12.9574 52.4289L38.8553 37.5304L38.8213 24.6008V24.6076ZM33.2805 27.5101L16.6173 37.0974C16.5766 36.4749 17.0112 35.7375 17.534 35.433L34.1972 25.8457C34.2379 26.4682 33.8102 27.2057 33.2805 27.5101Z" fill="#8B8086"/>
<path d="M35.8127 22.8957C37.4695 21.9417 38.814 22.7063 38.8208 24.6075L38.8547 37.5371L12.9636 52.4356L12.9297 39.506C12.9297 37.6115 14.2606 35.2976 15.9174 34.3436L35.8127 22.8957ZM34.2102 28.0446C34.7398 27.7401 35.1676 27.0026 35.1676 26.3937C35.1676 25.7847 34.7398 25.5412 34.2034 25.8456L17.5402 35.4329C17.0106 35.7374 16.5828 36.4749 16.5828 37.0838C16.5828 37.6927 17.0174 37.9363 17.547 37.6318L34.2102 28.0446Z" fill="#CCC1BF"/>
<path d="M107.307 72.1922V75.3045C107.307 75.9743 106.865 76.6441 105.969 77.1516L85.1029 89.161C83.3238 90.1759 80.4448 90.1759 78.6657 89.161L23.699 57.5372L22.5311 56.8674L19.1699 49.1002L35.7788 39.5467C37.5578 38.5183 40.4369 38.5183 42.2159 39.5467L49.5222 43.7213L90.9085 67.3748L107.314 72.1922H107.307Z" fill="#A0D1D6"/>
<path d="M105.969 70.3452L50.2417 38.2816L42.2157 33.6605C40.4367 32.6321 37.5576 32.6321 35.7786 33.6605L19.4617 43.0448L18.416 43.6469L22.0488 53.4643L24.7105 54.9934L27.6847 56.7051L78.6859 86.0421C80.465 87.0705 83.344 87.0705 85.123 86.0421L105.989 74.0394C107.768 73.011 107.768 71.3601 105.989 70.3384L105.969 70.3452Z" fill="#CEF1F5"/>
<path d="M85.0068 59.2695C84.5926 58.9785 74.4481 54.6483 70.3264 51.2045C68.269 49.486 65.58 47.808 63.4004 46.5496L58.4707 49.2492L96.8218 79.4318L103.469 73.9582L105.344 70.6971C105.344 70.6971 85.421 59.5672 85.0136 59.2762L85.0068 59.2695Z" fill="#2B6673"/>
<g style="mix-blend-mode:multiply" opacity="0.5">
<path d="M85.0077 59.2695C84.5935 58.9786 74.4489 54.6484 70.3272 51.2045C68.263 49.4792 65.5605 47.7878 63.3673 46.5293C61.724 47.2871 60.1487 48.214 58.5938 49.3439L96.8158 79.4251L103.463 73.9515L105.338 70.6903C105.338 70.6903 85.4151 59.5604 85.0077 59.2695Z" fill="#2E4E57"/>
</g>
<path d="M49.515 43.7146C49.3588 43.8567 49.2026 43.9784 49.0193 44.0799L28.8523 55.6834C28.4789 55.8932 28.0851 56.0082 27.6844 56.042C27.7795 56.0353 27.861 56.0353 27.956 56.015L25.2739 56.5224C24.5474 56.6577 24.0788 57.2193 23.6918 57.5305L22.5239 56.8607L19.1627 49.0935L16.0188 41.8404C15.1022 39.7565 15.6929 37.287 17.3633 36.3194L37.5438 24.7227C37.8222 24.5535 38.121 24.4453 38.4265 24.3844L41.0679 23.8837C41.0679 23.8837 41.0408 23.8905 41.0272 23.8973C42.5075 23.5657 44.1439 24.4791 44.918 26.245L50.3637 38.5522C51.1921 40.4263 50.7915 42.5982 49.515 43.7078V43.7146Z" fill="#A0D1D6"/>
<path d="M49.0196 44.0798L28.8527 55.6833C28.3841 55.9472 28.0039 56.3261 27.6712 56.6982L24.697 54.9864L19.455 43.0379L18.7081 41.3261C17.7914 39.2422 18.3822 36.7726 20.0593 35.8119L40.2263 24.2084C41.8831 23.2476 43.9948 24.1678 44.9183 26.2517L50.2418 38.2814L50.3708 38.5588C51.3011 40.6563 50.6832 43.1191 49.0264 44.0798H49.0196Z" fill="#CEF1F5"/>
<g style="mix-blend-mode:multiply" opacity="0.3">
<path d="M37.1782 53.9784C36.5942 53.559 35.9899 53.1192 35.63 52.4967C35.2022 51.7592 35.1751 50.8594 34.8695 50.0677C34.5843 49.337 34.0751 48.7078 33.7288 48.0041C32.588 45.6902 33.4164 42.7673 35.1954 40.8932C35.3652 40.7105 35.5553 40.5278 35.6232 40.2843C35.6911 40.0272 35.6164 39.7565 35.5417 39.4994C35.0664 37.8621 34.8424 36.0691 35.4806 34.4859C36.1189 32.9027 37.8504 31.6713 39.5072 32.0705C41.7208 32.5982 42.7394 35.5211 44.9733 35.9406C45.8221 36.1029 46.7456 35.8594 47.54 36.1909C48.5382 36.6036 48.9931 37.7335 49.3462 38.7552L50.8129 42.9906C50.9827 43.471 51.1524 43.9784 51.1049 44.4859C51.0642 44.9257 50.8672 45.3384 50.6703 45.7308C48.9049 49.2897 48.8981 53.9514 46.8135 57.3411C45.8289 58.9446 45.8493 59.9798 44.3351 58.9581C42.7597 57.9027 38.7331 55.0813 37.1918 53.9784H37.1782Z" fill="#5D8D94"/>
</g>
<path d="M43.9212 35.954C43.9348 35.9134 43.8262 35.8525 43.8262 35.8525C43.8601 35.8864 43.8873 35.9202 43.9212 35.954Z" fill="#FFC9B3"/>
<path d="M102.642 75.1692L86.8412 83.674L81.8572 86.36C80.8047 85.5887 79.6775 84.8174 78.4824 84.0528C78.1837 83.8566 77.8713 83.6604 77.559 83.471C76.2281 82.6455 74.8293 81.8269 73.3694 81.0082C73.1317 80.8796 72.9009 80.7443 72.6564 80.6158C67.8625 77.9635 62.4575 75.291 56.8896 72.4561C55.8235 71.9081 54.7574 71.3668 53.6846 70.812C50.8055 69.3302 47.9197 67.7876 45.0678 66.1706C44.5993 65.9135 44.1443 65.6496 43.6826 65.379C43.282 65.1489 42.8814 64.9189 42.4875 64.6821C41.9647 64.3708 41.4486 64.0596 40.9326 63.7551C40.2943 63.3695 39.6696 62.9838 39.0381 62.5914C38.6035 62.314 38.1689 62.0434 37.7344 61.766C40.4708 60.3925 42.2431 58.2206 43.9949 56.0014C47.0641 52.111 50.8395 46.7321 58.7501 46.563C63.1298 49.3099 62.2674 49.3776 64.1076 51.1909L78.4213 60.8323L85.6801 66.0758C85.6801 66.0758 90.7388 68.3154 92.7147 68.3965C93.4548 68.4168 94.3308 68.2545 95.1252 68.038C96.6666 67.6252 98.2895 68.2815 99.0975 69.655L99.5253 70.3722L102.635 75.1624L102.642 75.1692Z" fill="#2B6673"/>
<g style="mix-blend-mode:multiply" opacity="0.5">
<path d="M75.6788 68.6401C80.2554 72.084 85.7759 74.0055 91.1945 75.8796C91.5951 76.015 92.2334 75.9947 92.2198 75.5752C92.213 75.3384 91.9685 75.1895 91.758 75.088C82.7203 70.6361 74.443 64.6618 67.388 57.4832C67.2318 57.3275 67.0485 57.1516 66.8244 57.1584C66.675 57.1584 66.5392 57.2463 66.4102 57.3275C64.9639 58.2748 63.5379 59.2558 62.0645 60.1625C62.9608 60.6564 64.0744 60.5955 65.0725 60.8864C66.4441 61.2856 67.7139 62.1652 68.8547 62.9974C71.2448 64.7362 73.309 66.8675 75.672 68.6401H75.6788Z" fill="#2E4E57"/>
</g>
<g style="mix-blend-mode:multiply" opacity="0.5">
<path d="M86.9362 81.7457C86.9091 82.3682 86.8955 83.0245 86.8412 83.674L81.8572 86.3601C80.8047 85.5887 79.6775 84.8174 78.4824 84.0529C78.1837 83.8567 77.8713 83.6605 77.559 83.471C76.2281 82.6456 74.8293 81.8269 73.3694 81.0082C73.1317 80.8797 72.9009 80.7444 72.6564 80.6158C67.8625 77.9636 62.4575 75.291 56.8896 72.4561C55.8235 71.9081 54.7574 71.3668 53.6846 70.812C50.8055 69.3303 47.9197 67.7877 45.0678 66.1706C44.5993 65.9135 44.1443 65.6496 43.6826 65.379C43.282 65.149 42.8814 64.9189 42.4875 64.6821C41.9647 64.3709 41.4486 64.0597 40.9326 63.7552C40.2943 63.3695 39.6696 62.9839 39.0381 62.5915C38.6035 62.3141 38.1689 62.0434 37.7344 61.766C40.4708 60.3925 42.2431 58.2207 43.9949 56.0015C45.4684 57.4561 47.0845 58.7417 49.0401 59.7904C51.1315 60.9067 53.413 61.7254 55.321 63.126C56.5433 64.0191 57.5754 65.1354 58.6754 66.1638C63.0279 70.2572 68.3854 73.1057 73.6953 75.8594C75.5219 76.8066 77.4571 77.7674 79.5077 77.6456C80.7096 77.5847 81.864 77.1381 83.0658 76.9893C84.2677 76.8337 85.6257 77.0366 86.3794 77.9839C87.1875 79.0055 86.9974 80.4534 86.9294 81.7457H86.9362Z" fill="#2E4E57"/>
</g>
<path d="M107.98 68.2003C107.98 67.2531 107.64 66.59 107.097 66.2788L106.18 65.7443C105.637 65.4263 104.876 65.4737 104.041 65.9541L84.1527 77.3952C82.4959 78.3492 81.1514 80.6631 81.1582 82.5576L81.1854 91.6645L82.1089 92.199L108.007 77.3005L107.98 68.1936V68.2003ZM102.439 71.1097L85.7688 80.6969C85.728 80.0745 86.1626 79.337 86.6855 79.0325L103.355 69.4453C103.396 70.0677 102.962 70.8052 102.439 71.1097Z" fill="#8B8086"/>
<path d="M104.965 66.4952C106.622 65.5412 107.973 66.3058 107.98 68.2002L108.007 80.8728L82.1092 95.7713L82.082 83.0988C82.082 81.2043 83.4197 78.8904 85.0765 77.9364L104.965 66.4952ZM103.363 71.6441C103.892 71.3396 104.32 70.6021 104.32 69.9932C104.32 69.3843 103.885 69.1407 103.356 69.4452L86.6858 79.0324C86.1562 79.3369 85.7284 80.0744 85.7284 80.6833C85.7284 81.2923 86.1629 81.5358 86.6926 81.2314L103.363 71.6441Z" fill="#CCC1BF"/>
<path d="M74.5925 88.3695C74.511 88.3695 74.4295 88.3492 74.3548 88.3086L17.6498 55.6834C17.5072 55.6022 17.4121 55.4466 17.4121 55.2775V50.7578C17.4121 49.6956 17.8127 48.8837 18.5461 48.4642C19.3949 47.9771 20.5899 48.0921 21.8122 48.7957L71.1295 77.1651C73.3363 78.4304 75.061 81.1638 75.061 83.3762V87.8959C75.061 88.065 74.9727 88.2206 74.8233 88.3018C74.7486 88.3424 74.6672 88.3627 74.5857 88.3627L74.5925 88.3695ZM18.3559 55.0068L74.1239 87.0907V83.3762C74.1239 81.4953 72.569 79.0731 70.6609 77.9703L21.3436 49.6009C20.4202 49.0664 19.5714 48.9446 19.0214 49.2693C18.4714 49.5873 18.3559 50.2504 18.3559 50.7578V55.0068Z" fill="white"/>
<path d="M28.5894 52.9634H27.6523V61.1636H28.5894V52.9634Z" fill="white"/>
<path d="M46.7066 63.3828H45.7695V71.5898H46.7066V63.3828Z" fill="white"/>
<path d="M64.8296 73.8091H63.8926V82.0094H64.8296V73.8091Z" fill="white"/>
<path d="M60.0208 47.7876C59.9529 47.9026 58.8393 48.6807 58.7578 48.789C56.4559 51.7457 49.1836 52.1313 45.2792 56.3262C44.9261 56.6983 44.6138 57.0975 44.3218 57.5305C42.6514 55.2572 40.757 52.3817 40.757 52.3817C40.757 52.3817 39.6094 42.4155 40.6415 39.4723C41.6804 36.5292 46.6577 33.3289 46.6577 33.3289C46.6577 33.3289 51.533 31.5089 53.7466 34.452C55.7973 37.1719 55.9738 42.9838 60.0072 47.7876H60.0208Z" fill="#49744F"/>
<g style="mix-blend-mode:multiply" opacity="0.3">
<path d="M58.758 48.7958C56.4561 51.7525 49.1838 52.1381 45.2794 56.333L42.543 53.2071L44.6887 44.9866C46.8955 54.3235 51.2141 51.4142 58.7512 48.7958H58.758Z" fill="#FA952F"/>
</g>
<path d="M62.0712 48.0649L62.3496 48.3085L62.8317 49.7834L63.6602 50.6495L64.1219 51.2043L64.9163 51.6238C65.3034 51.7726 65.446 51.3328 65.12 50.9675L64.5089 50.4465L64.2781 49.7564C64.5972 49.4248 65.0046 49.3234 65.4935 49.4384C65.4935 49.4384 66.0639 50.1894 66.0843 50.2232C66.1046 50.257 66.5596 50.9742 66.5596 50.9742C66.8991 51.6102 67.4016 51.3667 67.1911 50.8254L66.6954 49.8849L66.3355 49.1474L67.2861 49.8782L67.8905 50.5818C68.2571 50.9742 68.6781 50.7713 68.454 50.3653L67.9651 49.6955L67.4355 49.0595L68.2911 49.5331L68.7053 50.0947C68.8275 50.257 69.0244 50.3924 69.2213 50.3382C69.3979 50.2706 69.4115 50.0541 69.2757 49.9255C69.3639 49.8173 69.2553 49.594 69.1602 49.4925L68.3114 48.7144L66.0775 47.5913L64.0676 46.9079L63.3614 46.529C62.5262 46.1163 61.5552 47.5236 62.0916 48.0717L62.0712 48.0649Z" fill="#FF9A73"/>
<path d="M45.2373 56.8877L47.4305 59.1745C47.4305 59.1745 47.899 60.4804 48.9176 61.3058L50.0719 62.8687C50.3095 63.2611 50.7373 63.092 50.5608 62.6928L49.9157 61.2449L50.6966 62.1245L51.5182 63.2544C51.7762 63.6468 52.2108 63.4777 52.0071 63.0176L51.1244 61.2043L52.0071 61.7118L53.1614 62.8823C53.4738 63.1732 53.8744 62.9296 53.5892 62.456L52.3941 60.954L53.7658 62.0501C54.2954 62.4222 54.5466 61.9689 54.2343 61.5832L51.9052 59.3369C51.9052 59.3369 53.1614 59.5737 53.4738 59.7496C53.7861 59.9256 54.5874 59.7293 54.3973 59.4181C54.2003 59.1069 51.6133 58.2476 51.6133 58.2476L49.2367 57.4154L46.0317 56.272L45.2305 56.8944L45.2373 56.8877Z" fill="#FF9A73"/>
<path d="M40.6478 39.479C40.6478 39.479 37.7619 45.8051 38.2712 52.8822C38.4749 55.7375 47.1528 59.6955 47.1528 59.6955C47.3905 58.3897 47.988 57.5169 49.2442 57.4086L42.8478 50.5615L45.238 43.3491L40.6478 39.479Z" fill="#49744F"/>
<path d="M64.0543 46.9012C64.0543 46.9012 63.3005 47.1312 62.8592 47.889C62.6962 48.1529 62.5808 48.4776 62.54 48.8836L57.556 46.7253L55.4035 39.709L54.5615 36.9756L53.9844 34.7834C55.3899 36.0825 57.3863 39.9932 58.8462 42.8349L64.0475 46.9079L64.0543 46.9012Z" fill="#49744F"/>
<g style="mix-blend-mode:multiply" opacity="0.3">
<path d="M62.8521 47.8891C62.6892 48.1529 62.5737 48.4777 62.533 48.8837L57.549 46.7253L55.3965 39.7091C55.444 39.4994 55.4848 39.3167 55.4915 39.2017C56.6798 40.5007 56.9447 42.8079 58.1329 44.1205C59.5589 45.7105 61.0324 46.8471 62.8453 47.8958L62.8521 47.8891Z" fill="#FA952F"/>
</g>
<path d="M51.0988 34.797C51.1124 35.5886 51.6692 36.6779 51.255 37.5913C51.2278 37.6522 51.1938 37.7198 51.1531 37.7807C50.2636 39.2083 46.1895 39.2557 46.1895 35.0405C46.1895 33.2002 46.9975 31.8809 46.9975 31.8809L51.7371 33.87C51.2346 34.0527 51.0988 34.3842 51.1056 34.797H51.0988Z" fill="#FF9A73"/>
<g style="mix-blend-mode:multiply" opacity="0.5">
<path d="M51.2533 37.5913C51.1719 37.6115 51.0836 37.6251 50.9953 37.6386C49.4539 37.7672 48.2792 36.4952 48.123 34.5195L51.0972 34.8037C51.1107 35.5953 51.6675 36.6846 51.2533 37.598V37.5913Z" fill="#FFB294"/>
</g>
<path d="M45.6856 33.0784C45.6856 33.0784 47.3492 34.418 48.5103 35.2367C49.6714 36.0486 50.8529 36.1975 51.4708 36.1163C54.3906 35.7238 52.7406 33.7414 52.9511 31.1636C53.0869 29.4992 52.7542 29.2421 52.4147 28.349C51.9122 27.0432 51.172 25.3314 47.2948 26.4884C45.4275 27.0432 44.2257 28.0784 44.2325 29.7902C44.2392 31.1501 44.6195 32.8551 44.6195 32.8551L45.6788 33.0784H45.6856Z" fill="#FF9A73"/>
<path d="M50.4118 26.8945C49.9908 27.3816 46.9624 26.7524 47.0303 29.1407C47.0506 29.797 47.5939 30.5886 48.076 31.2991C48.368 31.7388 48.6463 32.1583 48.7482 32.4899C48.9926 33.6401 48.0896 33.1191 48.1235 33.9581C48.1914 35.6292 45.8556 35.9608 44.5451 34.3843C44.5451 34.3843 43.771 31.9824 43.8185 30.1083C43.8321 29.7158 43.866 29.3437 43.9475 28.9987C44.2259 27.7808 45.0136 26.8471 46.8673 26.2382C49.1964 25.4736 52.218 26.0961 50.4118 26.8877V26.8945Z" fill="#E6E6E6"/>
<path d="M48.1235 33.9648C48.1914 35.636 45.8556 35.9675 44.5451 34.391C44.5451 34.391 43.771 31.9891 43.8185 30.115C43.8321 29.7226 43.866 29.3504 43.9475 29.0054C44.158 29.5805 44.579 30.0744 45.0883 30.4127C45.9574 31.0013 47.0303 31.1975 48.076 31.299C48.368 31.7388 48.6463 32.1583 48.7482 32.4898C48.9926 33.64 48.0896 33.119 48.1235 33.958V33.9648Z" fill="#DEDEE0"/>
<path d="M46.4803 33.4236C46.7315 33.7484 47.2883 34.4588 47.7433 34.4791C48.0217 34.4926 48.368 34.6076 48.4834 34.3776C48.5988 34.1475 48.497 33.5995 48.4019 33.3695C47.6957 31.6036 45.3667 32.0163 46.4803 33.4236Z" fill="#FF9A73"/>
<path d="M53.6513 32.9635C53.5902 33.5792 52.6124 33.0041 52.2593 33.2341C52.0895 33.3424 52.5037 30.6089 52.5716 30.8999C52.721 31.5832 53.726 32.2598 53.6581 32.9567L53.6513 32.9635Z" fill="#FF9A73"/>
<path d="M81.6736 31.6711C81.6736 31.6711 85.639 43.5114 82.8279 45.7442C81.1168 48.958 74.4284 51.7658 73.3691 52.28C72.5475 52.6183 70.7074 51.096 71.8006 49.9729C72.5679 49.0798 78.7198 43.1528 78.7198 43.1528L77.1173 37.2056C74.2315 31.0284 80.5532 28.8971 81.6736 31.6711Z" fill="#A0D1D6"/>
<path d="M73.0303 52.05L72.7315 52.2868C72.0593 53.41 71.3599 53.7347 70.5179 54.0798L69.866 55.0406L69.5808 56.2584C69.3364 57.0433 68.9697 56.7523 69.0037 56.1772L69.1191 55.4194L69.5129 54.2016L69.153 54.1407L68.5827 54.594L67.8629 55.4803L67.7271 55.8457C67.6524 56.0487 67.4555 56.1772 67.245 56.1637H67.1907L67.116 56.2449C67.0005 56.3734 66.8104 56.3937 66.6746 56.2922C66.5252 56.1772 66.4505 55.9945 66.4845 55.8119L66.6203 54.9729L67.116 54.0527L66.5524 54.3978L66.2061 54.9458L66.0431 55.46C65.8462 55.9742 65.4931 55.7307 65.4863 55.2977L65.6289 54.5737L66.3351 53.4167L67.7271 52.2936L70.4703 50.9472L71.5704 50.345C72.6432 49.7699 73.5259 51.2381 73.0438 52.0636L73.0303 52.05Z" fill="#FFB294"/>
</g>
<defs>
<clipPath id="clip0_2017_603">
<rect width="96" height="80" fill="white" transform="translate(12 20)"/>
</clipPath>
</defs>
</svg>
