<svg width="149" height="70" viewBox="0 0 149 70" fill="none" xmlns="http://www.w3.org/2000/svg">
<path d="M85.746 31.9004C88.6445 31.9004 91 29.5449 91 26.6464C91 24.2616 89.4003 22.2436 87.2136 21.6052V6.22468C87.2136 3.34817 84.8727 1 81.9889 1H53.3339C50.905 1 49.1659 2.60703 48.1753 5.7844L45.6803 13.8269H29.0744L21.1713 9.26262C20.4082 8.82234 19.5496 8.58018 18.6837 8.55817C16.7465 8.49947 14.9633 9.51211 13.9947 11.1852C13.6278 11.8236 13.4077 12.506 13.327 13.1958L7.87481 10.0478C5.31383 8.56551 2.12179 9.51211 0.705553 11.9704C0.00110189 13.1885 -0.182349 14.6047 0.184553 15.9549C0.544116 17.3051 1.41734 18.4425 2.63545 19.1469L9.42313 23.0655V50.7665C6.27512 52.3956 4.28651 55.6023 4.28651 59.2126C4.28651 64.4666 8.55724 68.7373 13.8113 68.7373C19.0653 68.7373 23.336 64.4666 23.336 59.2126C23.336 55.6023 21.3474 52.3882 18.1994 50.7665V49.2622L45.0126 33.779L71.8257 49.2622V50.7665C68.6777 52.3956 66.6891 55.6023 66.6891 59.2126C66.6891 64.4666 70.9598 68.7373 76.2139 68.7373C81.4679 68.7373 85.7386 64.4666 85.7386 59.2126C85.7386 55.6023 83.75 52.3882 80.602 50.7665V31.9078H85.7533L85.746 31.9004ZM50.9784 6.65762C51.8296 3.93521 52.8789 3.93521 53.3339 3.93521H81.9889C83.251 3.93521 84.2784 4.96254 84.2784 6.22468V21.3997H79.7435V9.54147C79.7435 8.73428 79.083 8.07386 78.2758 8.07386H55.4032C54.7355 8.07386 54.1558 8.52148 53.987 9.15989L50.7069 21.3924H46.4068L50.9784 6.65762ZM76.8082 13.8269H55.7775L56.5333 11.0091H76.8156V13.8269H76.8082ZM54.985 16.7621H76.8082V21.3924H53.7448L54.985 16.7621ZM16.541 12.6528C16.9666 11.9116 17.7591 11.4714 18.603 11.4934C18.9846 11.5007 19.3662 11.6108 19.7037 11.8089L27.9443 16.564C28.1645 16.696 28.4213 16.7621 28.6781 16.7621H44.7704L43.3322 21.3924H27.5407L16.6291 15.0964C16.1521 14.3846 16.0861 13.4453 16.541 12.6528ZM3.25185 13.438C3.89026 12.3299 5.29182 11.941 6.41454 12.5941L26.4107 24.1368C26.6308 24.2689 26.8876 24.3349 27.1445 24.3349H85.7386C87.0154 24.3349 88.0574 25.3769 88.0574 26.6537C88.0574 27.9306 87.0154 28.9726 85.7386 28.9726H25.5154L4.09572 16.6006C2.98768 15.9622 2.61344 14.546 3.25185 13.438ZM71.8184 39.1211L59.307 31.9004H71.8184V39.1211ZM18.1921 28.1287L24.3854 31.7023C24.6055 31.8344 24.8623 31.9004 25.1192 31.9004H30.7034L18.1921 39.1211V28.1287ZM15.2569 26.4336V59.2126C15.2569 60.0124 14.6038 60.6655 13.8039 60.6655C13.0041 60.6655 12.351 60.0124 12.351 59.2126V24.7605L15.2569 26.4409V26.4336ZM20.3935 59.2052C20.3935 62.8376 17.4363 65.7948 13.8039 65.7948C10.1716 65.7948 7.21438 62.8376 7.21438 59.2052C7.21438 57.2827 8.04358 55.5289 9.41579 54.3034V59.2052C9.41579 61.6268 11.3824 63.5934 13.8039 63.5934C16.2255 63.5934 18.1921 61.6268 18.1921 59.2052V54.3034C19.5643 55.5289 20.3935 57.2827 20.3935 59.2052ZM18.1921 42.5112L36.5738 31.9004H42.3856L18.1921 45.8647V42.5112ZM47.9404 32.0839L48.256 31.9004H53.444L71.8257 42.5112V45.8647L47.9478 32.0766L47.9404 32.0839ZM82.7961 59.2052C82.7961 62.8376 79.8389 65.7948 76.2065 65.7948C72.5742 65.7948 69.617 62.8376 69.617 59.2052C69.617 57.2827 70.4462 55.5289 71.8184 54.3034V59.2052C71.8184 61.6268 73.785 63.5934 76.2065 63.5934C78.6281 63.5934 80.5947 61.6268 80.5947 59.2052V54.3034C81.9669 55.5289 82.7961 57.2827 82.7961 59.2052ZM77.6595 59.2052C77.6595 60.0051 77.0064 60.6582 76.2065 60.6582C75.4067 60.6582 74.7536 60.0051 74.7536 59.2052V31.8931H77.6595V59.2052Z" fill="#10223E"/>
<path d="M124.403 0.900391C125.523 0.900391 126.483 1.56123 126.934 2.50684H133.551C138.753 2.5069 143.063 6.57375 143.362 11.7705L144.01 22.9844V22.9932C144.088 23.3507 144.153 23.7153 144.197 24.0889L144.234 24.4688V24.4697L146.708 59.1855C147.904 59.6435 148.759 60.7971 148.759 62.1504V66.998C148.759 68.1555 147.82 69.0947 146.662 69.0947H139.66C138.503 69.0947 137.558 68.1559 137.558 66.998V62.251H137.547V62.1504C137.547 60.8514 138.331 59.7337 139.455 59.2422L138.075 39.833H115.486L114.384 55.3633C116.522 56.7141 117.862 59.0923 117.862 61.6572C117.862 65.7594 114.522 69.0995 110.42 69.0996C106.318 69.0996 102.977 65.7595 102.977 61.6572C102.977 58.8085 104.638 56.2024 107.165 54.9688L109.333 24.4746C109.71 19.2029 114.084 15.0762 119.304 15.0762H134.264C134.967 15.0762 135.654 15.1606 136.322 15.3037L136.144 12.1816C136.07 10.8858 134.852 9.73738 133.551 9.7373H126.934C126.483 10.6828 125.523 11.3438 124.403 11.3438H105.703C104.156 11.3435 102.9 10.0867 102.9 8.54004V3.70312C102.901 2.15662 104.157 0.900622 105.703 0.900391H124.403ZM106.951 57.9932C105.968 58.9281 105.376 60.2473 105.376 61.6514C105.376 64.4367 107.64 66.701 110.425 66.7012C113.21 66.7012 115.475 64.4368 115.475 61.6514C115.475 60.3969 114.992 59.2139 114.182 58.3027L113.996 60.8906C113.877 62.8757 112.157 64.3977 110.178 64.2793C108.187 64.1608 106.665 62.4525 106.777 60.4619V60.46L106.951 57.9932ZM140.734 61.3623C140.302 61.3624 139.951 61.7127 139.951 62.1455V66.7012H146.365V62.1455C146.365 61.7072 146.02 61.3623 145.582 61.3623H140.734ZM119.309 17.4639C115.378 17.4641 112.074 20.5581 111.736 24.5303H111.739L111.731 24.6367L109.176 60.6113C109.136 61.2672 109.652 61.8461 110.327 61.8867C110.985 61.9217 111.574 61.4089 111.614 60.7354V60.7344L114.17 24.7432C114.366 21.9886 116.574 19.9075 119.309 19.9072H134.269C136.998 19.9072 139.212 21.9884 139.408 24.7432L141.848 58.9688H144.296L141.853 24.6367C141.565 20.6133 138.234 17.4639 134.269 17.4639H119.309ZM115.666 37.4395H137.907L137.746 35.1494H115.826L115.666 37.4395ZM119.309 22.3008C117.85 22.301 116.664 23.4267 116.558 24.917L116 32.75H137.578L137.021 24.917C136.914 23.4211 135.733 22.3008 134.269 22.3008H119.309ZM127.218 7.34375H133.556C136.096 7.34375 138.365 9.46802 138.532 12.0039L138.54 12.0117L138.542 12.0498L138.779 16.1768C139.731 16.6698 140.59 17.3139 141.338 18.0732L140.98 11.9082V11.9072C140.753 7.97905 137.489 4.90039 133.556 4.90039H127.218V7.34375ZM105.709 3.28809C105.479 3.28811 105.299 3.46832 105.299 3.69824V8.53516C105.299 8.76492 105.479 8.94529 105.709 8.94531H124.309V8.93359H124.409C124.639 8.93352 124.819 8.75332 124.819 8.52344V3.69824C124.819 3.46835 124.639 3.28816 124.409 3.28809H105.709Z" fill="#10223E" stroke="#10223E" stroke-width="0.2"/>
</svg>
