<svg width="50" height="50" viewBox="0 0 50 50" fill="none" xmlns="http://www.w3.org/2000/svg">
<path d="M50 48.4705C50 49.3152 49.2307 50 48.2818 50H1.71821C0.769271 50 0 49.3152 0 48.4705V16.3341C0 13.635 1.55172 11.1764 3.98814 10.0151L21.9881 1.43558C23.8934 0.527467 26.1066 0.527467 28.0119 1.43558L46.0119 10.0151C48.4483 11.1764 50 13.635 50 16.3341V48.4705Z" fill="#49744F"/>
<path d="M16.4614 19.6696C16.7835 19.6304 17.1299 19.6108 17.491 19.6108C18.9841 19.6108 20.4675 19.9487 21.097 20.0955C21.7118 20.262 22.6828 20.6439 23.7758 21.5105C24.5859 22.1959 25.1665 23.0233 25.5032 23.9683L25.43 23.978C23.9418 24.1984 19.0622 25.2412 16.4663 29.6819V19.6696H16.4614Z" fill="white"/>
<path d="M23.971 38C23.2684 38 22.7755 37.951 22.595 37.9314C20.2138 37.8335 18.8524 37.011 18.3791 36.6634L18.14 36.4676C17.0714 35.5961 16.4614 34.3623 16.4614 33.0746C16.4614 30.6316 18.5108 28.6487 21.0238 28.6487C22.0583 28.6487 23.0342 28.9816 23.8539 29.6132L23.9418 29.6768C24.2638 29.9314 25.3959 30.7735 25.674 30.9645C27.3525 32.1101 29.319 32.7711 31.0756 32.7711C32.6176 32.7711 33.9546 32.2619 34.9744 31.2974C34.5987 32.2619 33.935 33.6573 32.8469 34.7197C30.0558 37.5691 26.0887 37.9951 23.971 37.9951V38Z" fill="white"/>
<path d="M31.2999 31.65C29.7287 31.65 28.4015 31.1604 27.5622 30.2644C26.8498 29.5104 26.5229 28.497 26.596 27.2583C26.6107 27.0282 26.6204 26.8225 26.6546 26.6218C26.7766 26.0147 27.2304 22.8813 24.5174 20.5165C23.356 19.5618 22.3167 19.1408 21.6433 18.9547C21.1602 18.8421 20.2039 18.612 19.1108 18.5092C20.2527 18.2399 21.7165 18 23.3658 18C26.5082 18 29.3676 18.847 31.8611 20.5116C33.8958 21.8189 35.5061 24.1396 35.872 26.2889C36.1111 27.7038 35.7891 28.9768 34.9401 29.9707C34.0422 31.0184 32.6808 31.6451 31.2999 31.6451V31.65Z" fill="white"/>
</svg>
