<svg width="40" height="40" viewBox="0 0 40 40" fill="none" xmlns="http://www.w3.org/2000/svg">
<path fill-rule="evenodd" clip-rule="evenodd" d="M31.6377 24.6654C31.6377 25.6647 31.5172 26.1342 30.5975 26.2363H30.6044V30.8335H28.8803V28.7739H11.9616V30.8335H10.2374V26.2363C9.31782 26.1342 9.19727 25.6647 9.19727 24.6654V20.6772C9.19727 18.9169 11.9475 18.9285 11.9475 20.6723V21.5689C12.7958 20.7942 13.0297 20.6965 14.1493 20.5921H18.46L19.7854 23.0442H21.0222L19.5939 20.4423L20.9873 19.7204L24.2705 22.8846L29.1601 18.1558C30.2174 17.1334 31.6295 17.887 31.6295 19.1632L31.6376 24.6654H31.6377ZM28.8803 26.2581H11.9616V27.4342H28.8803V26.2581Z" fill="#F3F3F3"/>
<path fill-rule="evenodd" clip-rule="evenodd" d="M23.9012 17.9392L21.5771 19.1461L23.9337 21.5476L26.7604 18.6671C27.8617 17.5448 24.7558 17.4956 23.9012 17.9393V17.9392Z" fill="#F3F3F3"/>
<path fill-rule="evenodd" clip-rule="evenodd" d="M13.0093 9.16675H18.5389C18.9335 9.16675 19.2563 9.48954 19.2563 9.88408V15.4137C19.2563 15.8082 18.9335 16.131 18.5389 16.131H13.0093C12.6148 16.131 12.292 15.8082 12.292 15.4137V9.88408C12.292 9.48954 12.6148 9.16675 13.0093 9.16675ZM15.2154 10.3523H16.3327C16.451 10.3523 16.548 10.4492 16.548 10.5676V11.8751H17.8554C17.9738 11.8751 18.0707 11.9719 18.0707 12.0904V13.2076C18.0707 13.326 17.9739 13.4228 17.8554 13.4228H16.548V14.7303C16.548 14.8486 16.4511 14.9455 16.3327 14.9455H15.2154C15.0972 14.9455 15.0002 14.8487 15.0002 14.7303V13.4228H13.6928C13.5744 13.4228 13.4775 13.326 13.4775 13.2076V12.0904C13.4775 11.972 13.5743 11.8751 13.6928 11.8751H15.0002V10.5676C15.0002 10.4493 15.0971 10.3523 15.2154 10.3523Z" fill="#F3F3F3"/>
<path fill-rule="evenodd" clip-rule="evenodd" d="M26.6074 17.6786C27.673 17.6786 28.5419 16.8096 28.5419 15.7441C28.5419 14.6786 27.673 13.8096 26.6074 13.8096C25.5417 13.8096 24.6729 14.6785 24.6729 15.7441C24.6729 16.8097 25.5418 17.6786 26.6074 17.6786Z" fill="#F3F3F3"/>
</svg>
