<svg width="60" height="60" viewBox="0 0 60 60" fill="none" xmlns="http://www.w3.org/2000/svg">
<circle cx="30" cy="30" r="30" fill="#4CC764"/>
<g clip-path="url(#clip0_2012_607)">
<path d="M46 29.7752C46 22.7318 39.0463 17 30.4993 17C21.9523 17 15 22.7318 15 29.7752C15 36.0906 20.5142 41.3788 27.9627 42.3795C28.4677 42.49 29.1541 42.717 29.3282 43.1562C29.4849 43.5542 29.4298 44.1776 29.379 44.58C29.379 44.58 29.1976 45.6912 29.1585 45.927C29.0902 46.325 28.8465 47.4834 30.5007 46.776C32.155 46.0685 39.4265 41.4377 42.6784 37.6367C44.9247 35.1341 46.0014 32.5962 46.0014 29.7767L46 29.7752Z" fill="#F3F3F3"/>
<path d="M40.8432 33.843C41.0072 33.843 41.1392 33.7089 41.1392 33.5423V32.4251C41.1392 32.2601 41.0057 32.1245 40.8432 32.1245H37.8844V30.9646H40.8432C41.0072 30.9646 41.1392 30.8304 41.1392 30.6639V29.5482C41.1392 29.3831 41.0057 29.2475 40.8432 29.2475H37.8844V28.0876H40.8432C41.0072 28.0876 41.1392 27.9535 41.1392 27.787V26.6713C41.1392 26.5062 41.0057 26.3706 40.8432 26.3706H36.4884C36.3244 26.3706 36.1924 26.5047 36.1924 26.6713V26.6772V33.5364V33.5423C36.1924 33.7089 36.3244 33.843 36.4884 33.843H40.8432Z" fill="#4CC764"/>
<path d="M24.7358 33.843C24.8997 33.843 25.0318 33.7089 25.0318 33.5423V32.4251C25.0318 32.2601 24.8983 32.1245 24.7358 32.1245H21.777V26.6713C21.777 26.5062 21.6434 26.3706 21.4809 26.3706H20.381C20.217 26.3706 20.085 26.5047 20.085 26.6713V33.5364V33.5423C20.085 33.7089 20.217 33.843 20.381 33.843H24.7358Z" fill="#4CC764"/>
<path d="M27.3564 26.3706H26.2579C26.0944 26.3706 25.9619 26.5052 25.9619 26.6713V33.5408C25.9619 33.7069 26.0944 33.8415 26.2579 33.8415H27.3564C27.5199 33.8415 27.6525 33.7069 27.6525 33.5408V26.6713C27.6525 26.5052 27.5199 26.3706 27.3564 26.3706Z" fill="#4CC764"/>
<path d="M34.8394 26.3706H33.7395C33.5755 26.3706 33.4435 26.5047 33.4435 26.6713V30.7523L30.3483 26.5077C30.341 26.4974 30.3323 26.487 30.325 26.4767C30.325 26.4767 30.325 26.4767 30.3236 26.4752C30.3178 26.4694 30.312 26.462 30.3062 26.4561C30.3047 26.4546 30.3018 26.4531 30.3004 26.4517C30.2946 26.4472 30.2902 26.4428 30.2844 26.4384C30.2815 26.4369 30.2786 26.434 30.2757 26.4325C30.2714 26.4281 30.2655 26.4251 30.2597 26.4222C30.2568 26.4207 30.2539 26.4178 30.251 26.4163C30.2452 26.4133 30.2409 26.4104 30.2351 26.4075C30.2322 26.406 30.2293 26.4045 30.2264 26.403C30.2206 26.4001 30.2148 26.3971 30.209 26.3957C30.2061 26.3957 30.2031 26.3927 30.1988 26.3927C30.193 26.3912 30.1872 26.3883 30.1814 26.3868C30.1785 26.3868 30.1741 26.3853 30.1712 26.3839C30.1654 26.3839 30.1596 26.3809 30.1538 26.3794C30.1495 26.3794 30.1451 26.3794 30.1408 26.378C30.1349 26.378 30.1306 26.3765 30.1248 26.3765C30.119 26.3765 30.1146 26.3765 30.1088 26.3765C30.1059 26.3765 30.1016 26.3765 30.0987 26.3765H29.006C28.842 26.3765 28.71 26.5106 28.71 26.6772V33.5482C28.71 33.7147 28.842 33.8489 29.006 33.8489H30.1059C30.2699 33.8489 30.402 33.7147 30.402 33.5482V29.4686L33.5001 33.7192C33.5218 33.7501 33.548 33.7752 33.577 33.7943C33.577 33.7943 33.5799 33.7958 33.5799 33.7973C33.5857 33.8017 33.5915 33.8047 33.5987 33.8091C33.6016 33.8105 33.6045 33.812 33.6074 33.8135C33.6118 33.8164 33.6176 33.8179 33.622 33.8209C33.6263 33.8238 33.6321 33.8253 33.6365 33.8268C33.6394 33.8268 33.6423 33.8297 33.6452 33.8297C33.6524 33.8327 33.6582 33.8341 33.6655 33.8356C33.6655 33.8356 33.6684 33.8356 33.6698 33.8356C33.6945 33.8415 33.7206 33.8459 33.7468 33.8459H34.8394C35.0034 33.8459 35.1355 33.7118 35.1355 33.5453V26.6742C35.1355 26.5077 35.0034 26.3736 34.8394 26.3736V26.3706Z" fill="#4CC764"/>
</g>
<defs>
<clipPath id="clip0_2012_607">
<rect width="31" height="30" fill="white" transform="translate(15 17)"/>
</clipPath>
</defs>
</svg>
