<svg width="69" height="25" viewBox="0 0 69 25" fill="none" xmlns="http://www.w3.org/2000/svg">
<mask id="path-1-inside-1_54_839" fill="white">
<path d="M57.5 0C63.8513 7.40896e-07 69 5.14873 69 11.5C69 14.1833 68.0785 16.65 66.5381 18.6064L67.9795 24.8975L61.0557 22.4365C59.9357 22.8004 58.7413 23 57.5 23H11.5C5.14873 23 0 17.8513 0 11.5C0 5.14873 5.14873 1.85224e-07 11.5 0H57.5Z"/>
</mask>
<path d="M57.5 0C63.8513 7.40896e-07 69 5.14873 69 11.5C69 14.1833 68.0785 16.65 66.5381 18.6064L67.9795 24.8975L61.0557 22.4365C59.9357 22.8004 58.7413 23 57.5 23H11.5C5.14873 23 0 17.8513 0 11.5C0 5.14873 5.14873 1.85224e-07 11.5 0H57.5Z" fill="white"/>
<path d="M57.5 0V-1V0ZM66.5381 18.6064L65.7524 17.9878L65.4565 18.3636L65.5633 18.8298L66.5381 18.6064ZM67.9795 24.8975L67.6446 25.8397L69.3611 26.4498L68.9542 24.6741L67.9795 24.8975ZM61.0557 22.4365L61.3906 21.4943L61.0701 21.3804L60.7467 21.4855L61.0557 22.4365ZM57.5 23V24V23ZM11.5 23V24V23ZM11.5 0V-1V0ZM57.5 0V1C63.299 1 68 5.70101 68 11.5H69H70C70 4.59644 64.4036 -0.999999 57.5 -1V0ZM69 11.5H68C68 13.9502 67.1595 16.2007 65.7524 17.9878L66.5381 18.6064L67.3238 19.2251C68.9975 17.0993 70 14.4164 70 11.5H69ZM66.5381 18.6064L65.5633 18.8298L67.0048 25.1208L67.9795 24.8975L68.9542 24.6741L67.5128 18.3831L66.5381 18.6064ZM67.9795 24.8975L68.3144 23.9552L61.3906 21.4943L61.0557 22.4365L60.7208 23.3788L67.6446 25.8397L67.9795 24.8975ZM61.0557 22.4365L60.7467 21.4855C59.7236 21.8178 58.6334 22 57.5 22V23V24C58.8492 24 60.1478 23.7829 61.3647 23.3876L61.0557 22.4365ZM57.5 23V22H11.5V23V24H57.5V23ZM11.5 23V22C5.70101 22 1 17.299 1 11.5H0H-1C-1 18.4036 4.59644 24 11.5 24V23ZM0 11.5H1C1 5.70101 5.70101 1 11.5 1V0V-1C4.59644 -1 -1 4.59644 -1 11.5H0ZM11.5 0V1H57.5V0V-1H11.5V0Z" fill="#AA8D68" mask="url(#path-1-inside-1_54_839)"/>
</svg>
