<svg width="135" height="102" viewBox="0 0 135 102" fill="none" xmlns="http://www.w3.org/2000/svg">
<g clip-path="url(#clip0_54_5741)">
<path d="M60.7755 66.0147C60.7755 66.0048 60.7715 65.9949 60.7696 65.9831C60.7379 65.8048 60.7022 65.6344 60.6646 65.4661C60.0941 63.0833 58.3828 60.6312 58.3808 60.6312C58.2719 60.5064 58.2065 60.443 58.2065 60.443C56.8656 58.6802 55.2157 57.6423 53.8391 57.0382C54.1738 56.3153 54.3838 55.525 54.4432 54.6911C54.877 54.4633 55.2731 54.1662 55.6118 53.8037C56.4496 52.9065 56.8676 51.7359 56.7844 50.5059C56.6398 48.3489 54.9047 46.598 52.7497 46.4316C52.31 46.3979 51.8703 46.4296 51.4444 46.5247C51.2939 46.5583 51.1315 46.5009 51.0206 46.3741C50.1867 45.4254 48.9844 44.8807 47.7227 44.8807C46.461 44.8807 45.2587 45.4254 44.4248 46.3741C44.3139 46.5009 44.1515 46.5583 44.001 46.5247C43.5751 46.4296 43.1354 46.3979 42.6957 46.4316C40.5407 46.598 38.8056 48.3489 38.661 50.5059C38.5778 51.7359 38.9957 52.9065 39.8336 53.8037C40.1723 54.1662 40.5704 54.4633 41.0022 54.6911C41.0537 55.4339 41.226 56.1429 41.4993 56.8005C39.5939 57.466 36.2762 59.1477 35.2205 62.9605C35.2027 63.0219 35.1849 63.0833 35.169 63.1447L34.8165 59.8251C34.7115 58.8367 34.4679 57.9137 34.0915 57.0798C32.7229 54.0573 30.1579 52.8609 28.5278 52.3955C28.7476 51.7299 28.8684 51.0209 28.8684 50.284C28.8684 50.0642 28.8546 49.8483 28.8328 49.6344C29.2527 49.4105 29.6369 49.1174 29.9677 48.7648C30.8056 47.8676 31.2235 46.697 31.1403 45.467C30.9957 43.31 29.2606 41.5591 27.1056 41.3927C26.6659 41.359 26.2262 41.3907 25.8003 41.4858C25.6498 41.5194 25.4874 41.462 25.3765 41.3352C24.5426 40.3865 23.3403 39.8418 22.0786 39.8418C20.8169 39.8418 19.6146 40.3865 18.7807 41.3352C18.6698 41.462 18.5074 41.5194 18.3569 41.4858C17.931 41.3907 17.4913 41.359 17.0516 41.3927C14.8966 41.5591 13.1615 43.31 13.0169 45.467C12.9337 46.697 13.3516 47.8676 14.1895 48.7648C14.544 49.1451 14.962 49.4541 15.4195 49.6839C15.4017 49.882 15.3898 50.082 15.3898 50.284C15.3898 51.0842 15.5304 51.8508 15.7879 52.5638C14.0508 53.1026 10.9075 54.4118 9.4675 59.1893C7.97405 64.1489 6.22113 69.7206 4.54546 73.4641C4.33353 73.9356 4.2959 74.4406 4.40285 74.9081C3.14511 75.4627 2.26172 76.7244 2.26172 78.1782V79.3607C2.26172 79.9628 2.74897 80.4501 3.3511 80.4501C3.95323 80.4501 4.44049 79.9628 4.44049 79.3607V78.1782C4.44049 77.4176 5.05846 76.7917 5.82103 76.7838C5.82499 76.7838 5.83094 76.7838 5.8349 76.7838C6.20529 76.7838 6.55191 76.9264 6.81534 77.1879C7.08274 77.4513 7.22931 77.8039 7.22931 78.1782V95.8559C7.22931 96.4581 7.71656 96.9453 8.31869 96.9453C8.92083 96.9453 9.40808 96.4581 9.40808 95.8559V78.3188C9.61011 78.3763 9.8161 78.408 10.0241 78.408C10.2736 78.408 10.5252 78.3664 10.7708 78.2832C11.361 78.0812 11.8325 77.6593 12.0998 77.0967C12.597 76.049 13.3516 74.3614 14.1083 72.2797C14.1122 72.2718 14.1717 72.1113 14.2747 71.834L12.5911 94.7606C12.5495 95.3231 12.7456 95.8817 13.1298 96.2957C13.5141 96.7096 14.0568 96.9453 14.6213 96.9453H19.264C20.3396 96.9453 21.2309 96.1055 21.2962 95.032L21.3992 81.1156C21.4349 80.151 21.9142 80.0104 22.1123 79.9965H22.2866C22.4906 80.0123 22.9937 80.1569 23.0016 81.2008L23.1086 95.032C23.1739 96.1055 24.0652 96.9453 25.1408 96.9453H29.7895C30.352 96.9453 30.8927 96.7096 31.277 96.2996C31.6612 95.8896 31.8593 95.333 31.8217 94.7725L30.4748 74.809C30.4985 74.9417 30.5322 75.0725 30.5798 75.2012C30.8214 75.841 31.3344 76.3263 31.988 76.5283L33.4736 76.9898C33.937 77.4117 34.2361 78.0673 34.2361 78.6754V95.751C34.2361 96.3531 34.7234 96.8403 35.3255 96.8403C35.9276 96.8403 36.4149 96.3531 36.4149 95.751V78.6754C36.4149 78.2297 36.3396 77.7999 36.2069 77.3978C36.203 77.2611 36.3099 77.0987 36.3872 76.9739C39.9009 71.1824 39.9702 67.2705 39.9702 67.2309C39.9742 66.7575 40.3585 66.3732 40.8318 66.3732H40.8358C41.3112 66.3732 41.6935 66.7595 41.6935 67.2329C41.6935 67.3993 41.6538 71.1447 38.4827 76.7996L37.9024 84.2986C37.8786 84.6016 37.9836 84.9007 38.1896 85.1225C38.3956 85.3444 38.6848 85.4711 38.9898 85.4711H41.1072L41.4815 95.0359C41.5211 96.0461 42.3431 96.8364 43.3553 96.8364H51.5851C52.5952 96.8364 53.4192 96.0441 53.4588 95.0339L53.8331 85.4692H56.0139C56.3229 85.4692 56.618 85.3384 56.824 85.1067C57.03 84.8769 57.129 84.5699 57.0973 84.2629L56.723 80.7828C55.4217 80.5234 54.3362 80.1233 53.4806 79.5885C52.2466 78.818 51.7772 77.2334 52.3853 75.9044C54.3996 71.5092 53.3915 67.4884 53.3815 67.4488C53.2627 66.9892 53.538 66.5178 53.9975 66.397C54.4571 66.2782 54.9265 66.5495 55.0493 67.0091C55.0988 67.1952 56.2357 71.6439 53.952 76.6214C53.7024 77.1661 53.8926 77.8118 54.3937 78.1247C54.9839 78.4931 55.9961 78.9348 57.6599 79.1963H58.1214C58.6542 78.1564 59.1058 77.1681 59.49 76.2213C59.49 76.2213 59.494 76.2114 59.496 76.2054C59.7614 75.5498 59.9951 74.916 60.1952 74.3059C60.2328 74.1178 60.2665 73.9296 60.2981 73.7454C61.1459 70.606 61.1419 68.0311 60.7795 66.0108L60.7755 66.0147ZM15.7859 47.2773C15.364 46.8257 15.1541 46.2355 15.1957 45.6136C15.269 44.5301 16.1405 43.6487 17.2239 43.5655C17.4477 43.5477 17.6696 43.5655 17.8835 43.6111C18.8124 43.819 19.785 43.4982 20.4208 42.7732C20.8407 42.2959 21.4448 42.0206 22.0806 42.0206C22.7164 42.0206 23.3205 42.2939 23.7404 42.7732C24.3782 43.4982 25.3507 43.819 26.2777 43.6111C26.4916 43.5635 26.7134 43.5477 26.9392 43.5655C28.0227 43.6487 28.8942 44.5301 28.9675 45.6136C29.0091 46.2355 28.7991 46.8257 28.3772 47.2773C27.9553 47.7289 27.3809 47.9785 26.763 47.9785C26.1113 47.9785 25.4953 47.6933 25.0754 47.1941C24.6 46.6316 23.9008 46.3187 23.164 46.3187C22.9679 46.3187 22.7699 46.3405 22.5718 46.386C22.2529 46.4593 21.9102 46.4593 21.5914 46.386C20.6485 46.1721 19.6899 46.4811 19.0877 47.1941C18.6659 47.6933 18.0518 47.9785 17.4002 47.9785C16.7485 47.9785 16.2078 47.7289 15.7859 47.2773ZM26.6916 50.284C26.6916 52.7975 24.6456 54.8436 22.1321 54.8436C19.6186 54.8436 17.5725 52.7975 17.5725 50.284C17.5725 50.2405 17.5765 50.1969 17.5785 50.1513C18.8065 50.1018 19.9533 49.5433 20.7515 48.5985C20.8248 48.5113 20.9655 48.4757 21.1081 48.5093C21.7439 48.6539 22.4193 48.6539 23.0551 48.5093C23.1977 48.4776 23.3383 48.5113 23.4116 48.5985C24.2316 49.569 25.42 50.1315 26.6857 50.1533C26.6857 50.1969 26.6897 50.2385 26.6897 50.2821L26.6916 50.284ZM30.758 73.2799C30.5619 73.6008 30.4589 73.9593 30.4431 74.3238L29.7063 63.4101C29.6667 62.81 29.1457 62.3544 28.5456 62.396C27.9454 62.4356 27.4918 62.9565 27.5315 63.5567L27.8642 68.4748H16.7069L17.0655 63.5824C17.0655 63.5824 17.0655 63.5824 17.0655 63.5805V63.5646C17.0655 63.5646 17.0655 63.5448 17.0655 63.5349C17.0655 63.5092 17.0674 63.4854 17.0655 63.4596C17.0655 63.4458 17.0655 63.4319 17.0635 63.42C17.0635 63.3982 17.0615 63.3764 17.0575 63.3547C17.0556 63.3388 17.0516 63.321 17.0496 63.3051C17.0456 63.2873 17.0437 63.2695 17.0397 63.2517C17.0357 63.2319 17.0298 63.214 17.0258 63.1962C17.0219 63.1804 17.0179 63.1665 17.014 63.1506C17.008 63.1308 17.0001 63.113 16.9922 63.0932C16.9862 63.0793 16.9823 63.0655 16.9763 63.0516C16.9684 63.0338 16.9605 63.016 16.9506 62.9981C16.9446 62.9843 16.9367 62.9704 16.9288 62.9565C16.9189 62.9407 16.911 62.9248 16.9011 62.909C16.8912 62.8951 16.8832 62.8793 16.8733 62.8654C16.8634 62.8516 16.8535 62.8377 16.8436 62.8258C16.8317 62.81 16.8218 62.7961 16.808 62.7822C16.7981 62.7704 16.7882 62.7605 16.7783 62.7486C16.7644 62.7327 16.7505 62.7189 16.7367 62.705C16.7268 62.6951 16.7149 62.6852 16.705 62.6753C16.6891 62.6614 16.6753 62.6476 16.6594 62.6357C16.6475 62.6258 16.6356 62.6178 16.6218 62.6079C16.6059 62.5961 16.5901 62.5842 16.5742 62.5743C16.5584 62.5644 16.5426 62.5545 16.5267 62.5465C16.5128 62.5386 16.499 62.5287 16.4831 62.5228C16.4633 62.5129 16.4415 62.503 16.4217 62.4931C16.4098 62.4871 16.3999 62.4832 16.3881 62.4772C16.3643 62.4673 16.3385 62.4594 16.3128 62.4515C16.3049 62.4495 16.2969 62.4455 16.289 62.4435C16.289 62.4435 16.2851 62.4435 16.2831 62.4435C16.2613 62.4376 16.2395 62.4317 16.2177 62.4277C16.2019 62.4237 16.186 62.4198 16.1702 62.4178C16.1583 62.4158 16.1464 62.4138 16.1345 62.4119C16.1088 62.4079 16.083 62.4039 16.0573 62.4019C16.0573 62.4019 16.0553 62.4019 16.0533 62.4019C16.0494 62.4019 16.0434 62.4019 16.0395 62.4019C16.0078 62.4 15.9761 62.4 15.9444 62.4C15.9404 62.4 15.9384 62.4 15.9365 62.4C15.9028 62.4 15.8691 62.4039 15.8374 62.4079C15.8335 62.4079 15.8295 62.4079 15.8255 62.4079C15.7938 62.4118 15.7641 62.4178 15.7344 62.4237C15.7285 62.4237 15.7206 62.4277 15.7146 62.4297C15.6869 62.4356 15.6611 62.4435 15.6334 62.4534C15.6255 62.4554 15.6176 62.4594 15.6077 62.4633C15.5839 62.4713 15.5581 62.4812 15.5364 62.4911C15.5265 62.495 15.5185 62.499 15.5086 62.5049C15.4868 62.5148 15.4651 62.5267 15.4433 62.5386C15.4334 62.5446 15.4254 62.5485 15.4155 62.5545C15.3957 62.5663 15.3739 62.5802 15.3541 62.5941C15.3462 62.6 15.3363 62.606 15.3284 62.6139C15.3086 62.6277 15.2907 62.6436 15.2709 62.6575C15.263 62.6654 15.2551 62.6713 15.2472 62.6792C15.2293 62.6951 15.2115 62.7109 15.1957 62.7288C15.1878 62.7367 15.1798 62.7466 15.1719 62.7565C15.1561 62.7723 15.1422 62.7902 15.1283 62.808C15.1184 62.8199 15.1105 62.8318 15.1026 62.8436C15.0907 62.8595 15.0788 62.8753 15.0669 62.8932C15.057 62.909 15.0471 62.9249 15.0392 62.9387C15.0313 62.9526 15.0214 62.9664 15.0135 62.9823C15.0035 63.0021 14.9936 63.0219 14.9857 63.0417C14.9798 63.0536 14.9738 63.0655 14.9699 63.0774C14.96 63.1011 14.9521 63.1249 14.9441 63.1487C14.9402 63.1586 14.9382 63.1665 14.9342 63.1764C14.9342 63.1823 14.9303 63.1883 14.9283 63.1942C13.8013 66.9298 12.084 71.4696 12.0622 71.527C11.3294 73.5434 10.6064 75.1636 10.1291 76.1678C10.1152 76.1975 10.0934 76.2173 10.0617 76.2272C10.03 76.2371 10.0003 76.2351 9.97059 76.2213L6.58558 74.5119C6.53012 74.4842 6.50635 74.4169 6.5321 74.3614C8.25729 70.507 10.0379 64.8501 11.5512 59.8251C12.7951 55.6973 15.4472 54.9308 16.8733 54.5208H16.8832C18.1192 56.0479 20.0088 57.0303 22.1261 57.0303C24.2435 57.0303 26.242 55.9924 27.474 54.3841C28.6288 54.6356 30.9541 55.4477 32.1029 57.987C32.3842 58.6069 32.5664 59.3061 32.6456 60.0627L33.4894 68.0172C32.7506 69.7682 31.8732 71.4458 30.7521 73.2879L30.758 73.2799ZM46.3798 94.6596H43.6464L43.2859 85.4711H46.3798V94.6596ZM51.2919 94.6596H48.5586V85.4711H51.6524L51.2919 94.6596ZM47.7247 58.7753C45.5459 58.7753 43.7197 57.2383 43.2721 55.1902C44.4803 55.1268 45.6093 54.5703 46.3956 53.6393C46.4689 53.5522 46.6095 53.5165 46.7522 53.5502C47.3899 53.6948 48.0614 53.6948 48.6992 53.5502C48.8418 53.5185 48.9824 53.5522 49.0557 53.6393C49.842 54.5703 50.971 55.1268 52.1793 55.1902C51.7316 57.2383 49.9054 58.7753 47.7267 58.7753H47.7247ZM52.407 53.0174C51.7554 53.0174 51.1394 52.7322 50.7195 52.233C50.2441 51.6705 49.5449 51.3596 48.8081 51.3596C48.612 51.3596 48.414 51.3813 48.2179 51.4269C47.897 51.5002 47.5563 51.5002 47.2354 51.4269C46.2926 51.213 45.334 51.522 44.7318 52.235C44.31 52.7342 43.6959 53.0194 43.0443 53.0194C42.3926 53.0194 41.8519 52.7698 41.43 52.3182C41.0081 51.8666 40.7982 51.2764 40.8398 50.6544C40.9131 49.571 41.7846 48.6896 42.868 48.6064C43.0918 48.5905 43.3137 48.6064 43.5296 48.6539C44.4585 48.8619 45.431 48.541 46.0668 47.8161C46.4867 47.3387 47.0928 47.0634 47.7267 47.0634C48.3605 47.0634 48.9666 47.3368 49.3865 47.8161C50.0243 48.541 50.9948 48.8619 51.9238 48.6539C52.1377 48.6064 52.3595 48.5905 52.5833 48.6064C53.6668 48.6896 54.5383 49.571 54.6116 50.6544C54.6532 51.2764 54.4432 51.8666 54.0213 52.3182C53.5994 52.7698 53.025 53.0194 52.407 53.0194V53.0174Z" fill="#10223E"/>
<path d="M100.45 5.09845C101.098 5.0727 101.837 5.07271 102.475 5.09845C104.671 5.18758 110.328 5.83325 115.403 9.89337C121.584 14.8372 124.772 22.9447 124.887 33.9891C124.897 34.0127 124.906 34.0367 124.914 34.0604C126.156 35.3062 126.887 37.0628 126.887 38.8592C126.887 42.454 123.976 45.3772 120.389 45.4031C120.048 46.4568 119.638 47.4832 119.155 48.4695C120.022 49.2004 121.713 50.8345 123.036 53.3934C124.649 56.507 125.994 61.6159 123.506 68.4969H123.51C130.371 72.894 134.628 80.5037 134.628 88.8582V90.4666C134.628 92.8157 132.849 96.1885 124.386 98.9119C118.198 100.903 109.994 101.998 101.286 101.998C101.112 101.998 100.94 101.996 100.768 101.996C100.756 101.998 100.742 101.998 100.728 101.998C100.712 101.998 100.697 101.996 100.681 101.996C92.1976 101.946 84.2308 100.857 78.1877 98.9119C69.7225 96.1885 67.9456 92.8157 67.9455 90.4666V88.8582C67.9455 80.3887 72.3213 72.6817 79.3528 68.3143C76.9561 61.5264 78.2886 56.4793 79.885 53.3934C81.0853 51.0741 82.5871 49.5131 83.5041 48.6971C82.9833 47.6474 82.5375 46.544 82.175 45.4012C78.6038 45.3576 75.7122 42.4403 75.7122 38.8592C75.7122 37.0786 76.4306 35.3374 77.6526 34.0916C77.7497 22.9899 80.9964 14.8471 87.3088 9.88751C92.4683 5.83329 98.2179 5.18763 100.45 5.09845ZM116.196 67.6092C117.352 71.2695 116.104 75.1537 112.543 78.7645C111.737 79.5804 110.654 80.03 109.521 80.0301C109.384 80.0301 109.247 80.0244 109.109 80.0106C107.827 79.8878 106.682 79.2003 105.969 78.1287L101.914 72.034V99.619C119.822 99.51 132.247 94.7469 132.247 90.4666V88.8582C132.247 80.0422 126.996 72.1411 118.867 68.7303L116.196 67.6092ZM83.7024 68.7303C75.5756 72.143 70.3225 80.0421 70.3225 88.8582V90.4666C70.3228 94.6575 82.2315 99.3108 99.5354 99.6063V73.5731L96.5051 78.1287C95.7921 79.2022 94.647 79.8878 93.3655 80.0106C93.2269 80.0244 93.0899 80.0301 92.9534 80.0301C91.8186 80.03 90.7369 79.5804 89.9309 78.7645C86.3837 75.1677 85.1321 71.3014 86.2649 67.6551L83.7024 68.7303ZM88.4836 81.5652C89.0876 81.5654 89.5764 82.055 89.5764 82.659V86.7606C89.5764 89.6306 87.2394 91.9676 84.3694 91.9676C81.4994 91.9675 79.1623 89.6325 79.1623 86.7606V82.659C79.1623 82.055 79.6512 81.5655 80.2551 81.5652H88.4836ZM120.299 81.1014C120.889 81.1014 121.368 81.5815 121.368 82.1717V84.5838H123.783C124.373 84.584 124.853 85.0631 124.853 85.6531V87.4119C124.853 88.002 124.374 88.482 123.783 88.4822H121.368V90.8943C121.368 91.4846 120.889 91.9637 120.299 91.9637H118.54C117.95 91.9637 117.471 91.4846 117.471 90.8943V88.4822H115.058C114.468 88.4821 113.989 88.0021 113.989 87.4119V85.6531C113.989 85.0631 114.468 84.5839 115.058 84.5838H117.471V82.1717C117.471 81.5814 117.95 81.1014 118.54 81.1014H120.299ZM89.4758 66.3104C89.4461 66.4013 89.4081 66.492 89.3547 66.577C87.9365 68.8884 87.1786 72.5904 91.6252 77.0965C92.0233 77.4985 92.5755 77.7007 93.1399 77.6453C93.7064 77.5918 94.2136 77.2887 94.5286 76.8133L99.4543 69.407C95.5099 69.0165 92.5063 67.49 91.5735 65.4305L89.4758 66.3104ZM111.303 65.5555C110.267 67.6252 107.119 69.1322 103.045 69.4432L107.948 76.8113C108.262 77.2847 108.77 77.5899 109.336 77.6434C109.899 77.6988 110.454 77.4986 110.852 77.0945L110.85 77.0926C113.304 74.6068 115.69 70.7621 113.119 66.5731C113.058 66.4721 113.014 66.3674 112.985 66.2606L111.303 65.5555ZM108.928 58.742C106.224 60.0115 103.641 60.4236 101.435 60.4236C100.381 60.4236 99.4144 60.3299 98.5608 60.1912C96.6497 59.8822 95.0833 59.3275 94.0237 58.866C94.2673 61.4092 93.8309 63.1788 93.6448 63.7889V64.0438C93.6448 64.6815 94.3778 65.4087 95.6057 65.991H95.6038C97.1289 66.714 99.2664 67.1277 101.469 67.1277C103.671 67.1277 105.808 66.7139 107.333 65.991C108.561 65.4087 109.294 64.6815 109.294 64.0438V63.7889C109.104 63.1709 108.659 61.3524 108.928 58.742ZM111.998 23.3045C111.652 22.9364 111.074 22.9191 110.705 23.2635L108.277 25.5389C108.259 25.5547 108.243 25.5709 108.227 25.5887C108.213 25.6005 107.275 26.4888 107.146 26.5945C105.866 27.6363 104.018 28.9792 101.6 30.3221C97.0145 32.8673 89.4119 35.8981 79.2034 35.9061C78.4984 36.7003 78.0891 37.766 78.0891 38.8572C78.0891 40.9211 79.5979 42.6348 81.5686 42.9637C81.5389 42.8053 81.5113 42.6427 81.4836 42.4744L81.2102 40.577C81.1171 39.9275 81.5666 39.3256 82.2161 39.2322L82.22 39.2381C82.8657 39.143 83.4726 39.5943 83.5657 40.244L83.8372 42.1219C83.9223 42.6545 84.0193 43.1299 84.1243 43.5399C84.1223 43.5418 84.1175 43.5418 84.1135 43.5418C84.5532 45.245 85.1893 46.8572 85.9973 48.3426C86.0389 48.4059 86.075 48.4716 86.1047 48.5389C87.9052 51.7654 90.5216 54.3859 93.6907 56.0457C93.7164 56.0596 93.7401 56.0738 93.7639 56.0877C93.7877 56.1 95.9021 57.3753 99.0364 57.8621C103.176 58.5058 107.074 57.543 110.621 54.9998C114.593 52.1556 117.411 47.9549 118.556 43.1736C118.568 43.1261 118.717 42.4381 118.773 42.0994L119.039 40.2401C119.132 39.5904 119.735 39.1411 120.385 39.2342C121.034 39.3275 121.484 39.9294 121.391 40.5789L121.119 42.4559C121.092 42.6322 121.062 42.8012 121.032 42.9656C123.003 42.6368 124.512 40.923 124.512 38.8592C124.512 37.6491 124.009 36.471 123.159 35.6609C123.065 35.5562 122.962 35.5021 122.916 35.492C115.918 34.1768 111.289 30.1286 108.916 27.4744C109.265 27.1536 109.479 26.9316 109.552 26.8524L111.956 24.5984C112.325 24.2518 112.343 23.6729 111.998 23.3045ZM45.1291 0.574034C46.2363 -0.19042 47.728 -0.190316 48.8371 0.574034L77.1116 20.0701C75.5983 24.0335 74.8105 28.7141 74.7629 34.0897V34.0916C74.4659 34.3927 74.1978 34.7254 73.9641 35.0799H7.33324V54.4412C7.33324 55.0967 6.80114 55.6294 6.14574 55.6297C5.49013 55.6297 4.95726 55.0968 4.95726 54.4412V35.0799H2.22387C1.2454 35.0799 0.392959 34.4523 0.101796 33.5193C-0.189268 32.5845 0.158035 31.5847 0.962148 31.0301L45.1291 0.574034ZM104.17 45.7801C104.78 45.7802 105.349 46.0538 105.727 46.533C106.105 47.0103 106.241 47.6284 106.101 48.2225C105.501 50.7614 103.75 52.2213 101.3 52.2274H101.283C98.8356 52.2272 97.0906 50.7674 96.4924 48.2186L96.4944 48.2225C96.3557 47.6263 96.493 47.0123 96.8733 46.533C97.2516 46.0537 97.8179 45.7801 98.428 45.7801H104.17ZM98.4221 47.7586C99.0044 50.2523 100.732 50.2469 101.296 50.2469C102.817 50.2428 103.786 49.4083 104.174 47.7664L98.426 47.7586H98.4221ZM101.263 40.1453C101.918 40.1454 102.451 40.6774 102.451 41.3328V41.9988C102.451 42.6544 101.918 43.1873 101.263 43.1873C100.607 43.1873 100.074 42.6544 100.074 41.9988V41.3328C100.075 40.6774 100.607 40.1453 101.263 40.1453ZM94.5442 37.9861C95.6872 37.9861 96.6143 39.0703 96.6145 40.408C96.6145 41.7459 95.6873 42.8309 94.5442 42.8309C93.4013 42.8306 92.4748 41.7457 92.4748 40.408C92.475 39.0705 93.4014 37.9865 94.5442 37.9861ZM107.982 37.9861C109.125 37.9861 110.052 39.0703 110.052 40.408C110.052 41.7459 109.125 42.8309 107.982 42.8309C106.839 42.8306 105.912 41.7457 105.912 40.408C105.912 39.0705 106.839 37.9864 107.982 37.9861Z" fill="#10223E"/>
</g>
<defs>
<clipPath id="clip0_54_5741">
<rect width="134.622" height="102" fill="white"/>
</clipPath>
</defs>
</svg>
