<svg width="40" height="40" viewBox="0 0 40 40" fill="none" xmlns="http://www.w3.org/2000/svg">
<path d="M19.9901 29.7862C19.9125 29.7862 19.8337 29.765 19.7631 29.7209C19.5623 29.5958 19.5012 29.331 19.6266 29.13C20.0256 28.4916 20.0264 28.3682 19.6383 27.8091C18.8246 26.9127 18.8287 25.9146 19.6841 25.0417C19.85 24.873 20.1214 24.8702 20.2906 25.0355C20.4599 25.2014 20.4626 25.4734 20.2968 25.6426C19.7558 26.1944 19.7592 26.668 20.3088 27.2768C20.9323 28.1682 20.9349 28.6552 20.3543 29.5845C20.2727 29.7146 20.1332 29.7861 19.9901 29.7861V29.7862Z" fill="#F3F3F3" stroke="#F3F3F3" stroke-width="0.2"/>
<path d="M15.7352 30.8333C15.6577 30.8333 15.5788 30.8122 15.5083 30.768C15.3075 30.6429 15.2464 30.3781 15.3717 30.1771C15.7704 29.5387 15.7716 29.4153 15.3832 28.8562C14.5697 27.9603 14.5739 26.9629 15.4293 26.0894C15.5946 25.9196 15.8666 25.9173 16.0358 26.0826C16.205 26.2485 16.2078 26.52 16.0419 26.6891C15.501 27.2421 15.5044 27.7157 16.0539 28.3239C16.6772 29.2158 16.6797 29.7023 16.0994 30.6316C16.0179 30.7617 15.8783 30.8333 15.7352 30.8333V30.8333Z" fill="#F3F3F3" stroke="#F3F3F3" stroke-width="0.2"/>
<path d="M11.4803 30.1554C11.4027 30.1554 11.3239 30.1342 11.2533 30.09C11.0526 29.9649 10.9914 29.7002 11.1168 29.4991C11.5158 28.8607 11.5167 28.7373 11.1285 28.1782C10.3148 27.2818 10.319 26.2838 11.1743 25.4108C11.3405 25.2421 11.6117 25.2394 11.7808 25.4047C11.9501 25.5705 11.9529 25.8426 11.787 26.0117C11.2461 26.5636 11.2495 27.0371 11.799 27.6459C12.4225 28.5373 12.4251 29.0243 11.8445 29.9537C11.763 30.0838 11.6234 30.1553 11.4803 30.1553V30.1554Z" fill="#F3F3F3" stroke="#F3F3F3" stroke-width="0.2"/>
<path d="M26.7717 30.5268C26.5348 30.5268 26.3428 30.3346 26.3428 30.0979V25.1876C26.3428 24.9507 26.5349 24.7587 26.7717 24.7587C27.0084 24.7587 27.2006 24.9508 27.2006 25.1876V30.0979C27.2006 30.3347 27.0084 30.5268 26.7717 30.5268Z" fill="#F3F3F3" stroke="#F3F3F3" stroke-width="0.2"/>
<path d="M24.646 29.299C24.498 29.299 24.3536 29.2219 24.2743 29.0845C24.156 28.8796 24.226 28.617 24.4313 28.4986L28.6835 26.0434C28.8887 25.9251 29.151 25.9948 29.2694 26.2004C29.3877 26.4054 29.3177 26.6679 29.1124 26.7863L24.8602 29.2415C24.7927 29.2805 24.719 29.299 24.646 29.299Z" fill="#F3F3F3" stroke="#F3F3F3" stroke-width="0.2"/>
<path d="M28.8977 29.299C28.8248 29.299 28.7511 29.2805 28.6835 29.2414L24.4313 26.7863C24.2261 26.6679 24.156 26.4053 24.2743 26.2004C24.3927 25.9949 24.6553 25.9251 24.8602 26.0434L29.1124 28.4986C29.3176 28.617 29.3877 28.8795 29.2693 29.0845C29.1901 29.2219 29.0457 29.299 28.8977 29.299Z" fill="#F3F3F3" stroke="#F3F3F3" stroke-width="0.2"/>
<path d="M30.3961 23.8286H8.93857C7.68553 23.8286 6.66602 22.8094 6.66602 21.5566V14.7726C6.66602 13.5192 7.68553 12.5 8.93857 12.5H30.3961C31.6492 12.5 32.6687 13.5192 32.6687 14.7726V21.5566C32.6687 22.8094 31.6492 23.8286 30.3961 23.8286ZM8.93857 13.3578C8.15863 13.3578 7.52392 13.9922 7.52392 14.7725V21.5565C7.52392 22.3362 8.15863 22.9706 8.93857 22.9706H30.3961C31.1761 22.9706 31.8108 22.3362 31.8108 21.5565V14.7726C31.8108 13.9923 31.1761 13.3579 30.3961 13.3579H8.93857V13.3578Z" fill="#F3F3F3" stroke="#F3F3F3" stroke-width="0.2"/>
<path d="M9.75027 21.3685C10.1371 21.3685 10.4507 21.0548 10.4507 20.668C10.4507 20.2811 10.1371 19.9675 9.75027 19.9675C9.36341 19.9675 9.0498 20.2811 9.0498 20.668C9.0498 21.0548 9.36341 21.3685 9.75027 21.3685Z" fill="#F3F3F3" stroke="#F3F3F3" stroke-width="0.2"/>
<path d="M28.3767 19.1366H10.9582C10.7214 19.1366 10.5293 18.9445 10.5293 18.7077C10.5293 18.471 10.7215 18.2788 10.9582 18.2788H28.3768C28.6136 18.2788 28.8057 18.471 28.8057 18.7077C28.8057 18.9445 28.6135 19.1366 28.3768 19.1366H28.3767Z" fill="#F3F3F3" stroke="#F3F3F3" stroke-width="0.2"/>
<path d="M27.0904 21.0662H12.2443C12.0075 21.0662 11.8154 20.874 11.8154 20.6373C11.8154 20.4005 12.0076 20.2084 12.2443 20.2084H27.0904C27.3272 20.2084 27.5193 20.4005 27.5193 20.6373C27.5193 20.8741 27.3271 21.0662 27.0904 21.0662Z" fill="#F3F3F3" stroke="#F3F3F3" stroke-width="0.2"/>
</svg>
