<svg width="14" height="14" viewBox="0 0 14 14" fill="none" xmlns="http://www.w3.org/2000/svg">
<circle cx="7" cy="7" r="7" fill="#49744F"/>
<path d="M10.1908 9.46511C10.1908 9.46511 9.76403 9.87958 9.65946 10.0011C9.4891 10.1809 9.28838 10.2658 9.02526 10.2658C8.99996 10.2658 8.97297 10.2658 8.94767 10.2641C8.44672 10.2325 7.98119 10.0394 7.63205 9.87459C6.67738 9.4185 5.83909 8.77099 5.14248 7.95038C4.56732 7.26625 4.18275 6.63372 3.92806 5.95459C3.7712 5.54012 3.71385 5.21719 3.73915 4.91258C3.75602 4.71783 3.83192 4.55637 3.97191 4.41821L4.54708 3.8506C4.62972 3.77404 4.71743 3.73242 4.80345 3.73242C4.90972 3.73242 4.99574 3.79567 5.04971 3.84894C5.0514 3.8506 5.05309 3.85227 5.05477 3.85393C5.15766 3.94881 5.25549 4.04702 5.35838 4.15189C5.41067 4.20515 5.46464 4.25842 5.51861 4.31335L5.97908 4.76777C6.15787 4.94421 6.15787 5.10733 5.97908 5.28378C5.93017 5.33205 5.88294 5.38032 5.83403 5.42693C5.69234 5.57008 5.80364 5.46024 5.6569 5.59007C5.65353 5.5934 5.65015 5.59507 5.64847 5.5984C5.50341 5.74155 5.5304 5.88137 5.56076 5.97625C5.56245 5.98124 5.56413 5.98624 5.56582 5.99123C5.68557 6.27753 5.85424 6.54719 6.11062 6.86844L6.11231 6.87011C6.57784 7.43605 7.06867 7.87716 7.6101 8.21506C7.67925 8.25834 7.75009 8.29329 7.81756 8.32658C7.87828 8.35654 7.93563 8.38484 7.98454 8.4148C7.99129 8.41813 7.99804 8.42313 8.00478 8.42646C8.06213 8.45475 8.11611 8.46807 8.17177 8.46807C8.31176 8.46807 8.39947 8.38151 8.42815 8.35322L8.75876 8.02694C8.81611 7.97035 8.90719 7.9021 9.01345 7.9021C9.11803 7.9021 9.20405 7.96702 9.25634 8.02361C9.25802 8.02528 9.25802 8.02528 9.25971 8.02694L10.1891 8.94411C10.3628 9.11389 10.1908 9.46511 10.1908 9.46511Z" stroke="white" stroke-width="0.35" stroke-linecap="round" stroke-linejoin="round"/>
</svg>
