<svg width="120" height="120" viewBox="0 0 120 120" fill="none" xmlns="http://www.w3.org/2000/svg">
<path d="M53.3015 75.4659C52.9359 75.4659 52.6367 75.1653 52.6367 74.7978V3.66807C52.6367 3.30063 52.9359 3 53.3015 3C53.6671 3 53.9663 3.30063 53.9663 3.66807V74.7978C53.9663 75.1653 53.6671 75.4659 53.3015 75.4659Z" fill="#CCC1BF"/>
<path d="M74.3295 32.4886L72.169 38.4144L71.7103 39.6504C70.6932 39.0958 63.5668 42.6099 61.3265 40.9798C60.6551 40.0111 59.8906 39.0424 59.1727 38.0403C57.9096 36.2632 56.7928 34.3793 56.6133 32.208C57.0254 31.5399 58.7007 30.0368 59.5915 30.7583L63.6931 36.0628C67.715 34.2857 71.7502 31.7537 74.3295 32.4819V32.4886Z" fill="#A0D1D6"/>
<g style="mix-blend-mode:multiply" opacity="0.3">
<path d="M72.1623 38.4212L71.7037 39.6572C70.6865 39.1027 63.5602 42.6167 61.3199 40.9866C60.6485 40.0179 59.884 39.0492 59.166 38.0471C60.11 38.8755 61.1603 39.6839 62.3436 40.0179C63.3873 40.3119 64.5041 40.1516 65.5744 39.9645C67.7948 39.577 69.9952 39.0626 72.1557 38.4146L72.1623 38.4212Z" fill="#5D8D94"/>
</g>
<path d="M57.3108 32.1213C57.2776 31.333 57.1646 31.3864 57.0981 31.186L56.3536 29.5826C56.1009 29.1617 56.0478 28.6473 56.2007 28.1797L56.2671 27.9726C56.1408 27.6586 56.1807 27.3045 56.3668 27.0172L56.7325 26.4561L57.1646 25.5475L58.9196 25.013C59.5112 24.8326 59.7439 25.5074 59.0991 25.6944L58.4476 26.0485L58.2748 26.6231L59.1988 27.7855L59.5844 27.5116L59.6575 26.4427L59.6176 25.8481C59.6109 25.3203 59.9899 25.3003 60.1561 25.7212L60.4818 26.8903L60.3954 28.821L59.3849 30.685L59.5977 31.2395C59.591 31.9409 57.5634 32.9364 57.2975 32.1213H57.3108Z" fill="#FFB294"/>
<path d="M58.0812 26.9837L58.5199 26.6697C59.085 26.4292 59.0451 25.848 58.6329 26.0083L59.0983 25.6943C59.6102 25.3737 59.311 24.8392 58.9188 25.0129L57.4496 25.4605C57.2702 25.514 57.1173 25.6476 57.0375 25.8213L56.7383 26.4626L56.3727 27.0238C56.1866 27.3044 56.1533 27.6585 56.273 27.9791L56.2065 28.1862C56.0536 28.6539 56.1068 29.1616 56.3594 29.5892L57.9416 27.732C58.8124 27.3779 58.7858 26.7365 58.0878 26.9971L58.0812 26.9837Z" fill="#FFB294"/>
<path d="M60.4016 28.821L60.488 26.8903L60.1623 25.7212C59.9961 25.3003 59.6171 25.3203 59.6238 25.8481L59.6637 26.4427L59.5905 27.5116C58.959 29.3755 59.2249 31.0123 60.4016 28.8144V28.821Z" fill="#FFB294"/>
<path d="M58.0812 26.9837L58.5199 26.6697C59.085 26.4292 59.0451 25.848 58.6329 26.0083L59.0983 25.6943C59.6102 25.3737 59.311 24.8392 58.9188 25.0129L57.4496 25.4605C57.2702 25.514 57.1173 25.6476 57.0375 25.8213L56.7383 26.4626L56.3727 27.0238C56.1866 27.3044 56.1533 27.6585 56.273 27.9791L56.2065 28.1862C56.0536 28.6539 56.1068 29.1616 56.3594 29.5892L57.9416 27.732C58.8124 27.3779 58.7858 26.7365 58.0878 26.9971L58.0812 26.9837Z" fill="#FFB294"/>
<path d="M78.5703 86.7964C78.9093 87.2707 78.8828 88.3463 78.7764 89.5622C78.4174 90.7848 77.2607 90.6646 76.2702 90.7915C74.349 91.0454 73.3651 92.4684 70.8257 92.4015C69.3167 92.3615 68.3129 92.0141 68.0204 91.0453C67.9871 90.5977 68.253 90.1568 68.7981 89.7159C68.7981 89.7159 72.3015 88.2394 72.3879 88.1793C72.4743 88.1192 74.0565 87.0169 74.0897 86.8966C74.123 86.7764 74.7545 84.1174 74.7545 84.1174L78.4839 84.2043L78.5703 86.7897V86.7964Z" fill="black"/>
<path d="M76.8294 72.4928C77.3147 76.8286 78.7905 81.0843 78.8503 85.3065C78.8503 85.8009 78.8503 86.3086 78.8104 86.803C78.498 88.7538 74.4894 88.56 73.6917 87.1437C73.8712 83.4893 71.6242 78.1314 70.6803 72.1588C70.5606 69.8606 70.4742 67.5424 70.4808 65.2843C70.4808 63.8079 70.5274 62.3649 70.6337 60.9753C70.76 58.9978 70.9993 57.1138 71.3982 55.4236L79.3622 56.4858L77.8798 65.8455L76.8228 72.5062L76.8294 72.4928Z" fill="#80B8C7"/>
<g style="mix-blend-mode:multiply" opacity="0.5">
<path d="M78.8492 85.3066C77.2737 81.886 75.9109 78.3319 75.4987 74.5907C75.2262 72.1656 75.2594 69.4465 73.5908 67.6828C72.6801 66.7208 71.3505 66.1061 70.4863 65.2777C70.4863 63.8013 70.5329 62.3582 70.6392 60.9687C70.7589 60.9019 70.9051 60.8684 71.0713 60.8818C71.6962 60.9353 72.8064 62.0042 73.3183 62.3649C74.7608 63.3604 76.1635 64.4159 77.5263 65.5316C77.6459 65.6318 77.7656 65.732 77.8786 65.8389L76.8216 72.4996C77.3069 76.8354 78.7827 81.091 78.8425 85.3132L78.8492 85.3066Z" fill="#5D8D94"/>
</g>
<path d="M85.9764 92.5085C86.3354 93.6709 86.4085 94.0049 86.2556 94.8668C86.0828 95.321 85.91 95.5282 85.7238 96.1561C85.5045 96.9311 85.5377 98.2339 84.381 99.0088C83.0049 100.098 80.3525 100.151 79.5215 98.9888C79.5215 98.4209 79.8938 97.1716 80.5918 96.1561L81.9413 93.6375L81.8548 91.2792L85.7238 90.4241L85.9764 92.5018V92.5085Z" fill="black"/>
<path d="M86.2349 91.8469C86.2349 93.8244 82.2463 93.7242 81.2358 92.4549C80.8436 88.8139 79.1484 83.3156 77.2937 77.5702C76.7287 73.7555 76.3165 70.1078 76.1902 66.714C76.1902 66.5604 76.1769 66.4067 76.1702 66.2597C76.1237 64.9503 76.1171 63.6877 76.1702 62.4651C76.1902 61.9841 76.2168 61.4964 76.25 61.0287L84.4733 60.7415L84.4334 62.5386L84.0811 77.8441C84.8057 80.4563 85.384 83.0618 85.7629 85.6472C86.0687 87.7182 86.2349 89.7826 86.2482 91.8336L86.2349 91.8469Z" fill="#80B8C7"/>
<g style="mix-blend-mode:multiply" opacity="0.5">
<path d="M82.5454 74.4973C82.5654 72.9407 82.7449 71.2972 82.007 69.9343C81.3222 68.685 79.986 67.9368 78.6565 67.4424C78.0183 67.2019 77.0345 67.0215 76.1902 66.7209C76.1902 66.5672 76.1769 66.4136 76.1702 66.2666C76.1237 64.9572 76.1171 63.6945 76.1702 62.4719C78.3241 62.6189 80.4846 62.6189 82.6319 62.4586C83.2301 62.4118 83.8816 62.3717 84.4334 62.5521L84.0811 77.8577C84.8057 80.4698 85.384 83.0753 85.7629 85.6608C83.6556 82.3538 82.5188 78.4255 82.5654 74.4973H82.5454Z" fill="#5D8D94"/>
</g>
<path d="M85.4311 52.531V52.7047C85.4311 53.1456 85.4577 53.7001 85.4909 54.3281C85.5042 54.5753 85.5175 54.8425 85.5308 55.1231C85.5508 55.4772 85.5707 55.8446 85.5973 56.2254C85.6106 56.4526 85.6239 56.6797 85.6438 56.9202C85.6571 57.0605 85.6638 57.2008 85.6704 57.3344C85.7236 58.096 85.7768 58.9044 85.8366 59.7194C85.8898 60.5679 85.9496 61.4097 86.0094 62.2047C86.0094 62.2982 86.0227 62.3984 86.0294 62.4919C86.0427 62.7258 86.0626 62.9529 86.0759 63.1801C85.564 63.4606 85.0123 63.7078 84.4206 63.935C78.8432 66.0795 70.6931 65.6319 70.1546 61.4898C70.1346 59.5791 71.1385 52.3974 70.5933 38.4413C70.9257 35.8492 71.4044 33.9185 73.5649 32.3952L79.129 32.1213C81.9078 33.8516 84.3807 35.8625 86.5147 38.1874L86.1623 42.864L85.8167 47.4135L85.4311 52.5377V52.531Z" fill="#A0D1D6"/>
<path d="M76.1711 36.2568L79.7077 34.5198C79.0895 36.9649 77.514 39.2898 75.1075 41.5078C74.23 36.9182 74.4161 36.1499 74.4427 34.7269L76.1711 36.2568Z" fill="white"/>
<path d="M80.7842 30.2974C80.7842 30.2974 79.8536 32.7425 79.714 34.5263C79.355 35.6553 77.8925 38.3009 75.8383 37.5326C75.1403 37.272 74.7747 36.6841 74.5952 35.9693C74.3958 35.181 74.4157 34.2524 74.4423 33.4507C74.4556 33.2837 74.4622 33.1166 74.4689 32.9697C74.5021 32.2949 74.5487 31.8139 74.5487 31.8139L80.7842 30.2974Z" fill="#FFB294"/>
<g style="mix-blend-mode:multiply" opacity="0.5">
<path d="M78.9749 32.7894C77.991 35.4617 75.6111 36.9181 74.5874 35.9694C74.388 35.1811 74.4079 34.2525 74.4345 33.4508L78.9749 32.7827V32.7894Z" fill="#FFB294"/>
</g>
<path d="M79.8128 31.2662C79.8128 31.2662 78.9552 33.3372 77.8584 34.1256C76.7615 34.9139 75.2392 34.7201 74.6542 34.66C74.0692 34.5999 73.6171 34.4796 73.3047 33.9786C72.9922 33.4775 73.298 29.7697 73.298 29.7697C73.544 28.1864 73.6437 27.7121 73.9628 26.8636C74.4348 25.6076 75.7976 22.8685 79.4804 23.9575C81.262 24.4786 82.1861 25.9818 82.1794 27.6252C82.1794 28.928 80.8233 31.0524 80.8233 31.0524L79.8128 31.2729V31.2662Z" fill="#FFB294"/>
<path d="M79.9133 33.2637L80.2789 31.4332L79.1089 31.0658C79.1156 30.3576 79.1222 29.6094 78.484 29.4557C74.6284 28.5137 74.1298 27.7455 73.8639 27.1575C72.993 24.4385 76.6493 23.3963 78.9427 23.8239C81.7281 24.3383 82.5059 26.3893 82.3331 28.0661C81.9143 32.275 79.92 33.2704 79.92 33.2704L79.9133 33.2637Z" fill="#383034"/>
<path d="M81.3281 30.3911C81.5807 30.8587 80.989 31.5335 80.5968 31.9944C80.1448 32.5222 79.48 32.4821 79.4002 32.2884C79.3072 32.0679 79.4002 31.5201 79.48 31.2996C79.8988 30.1305 81.0223 29.8232 81.3281 30.3911Z" fill="#FFB294"/>
<path d="M66.6575 24.3917C66.0659 23.9441 65.4875 23.5566 64.9025 23.1958C64.7696 22.9152 64.6632 22.5946 64.6366 22.334C64.5502 21.5991 63.9386 21.5056 62.6091 20.7707C61.4258 20.116 61.8047 21.4388 61.0601 21.0179C60.3089 20.5903 59.7705 20.3231 59.3982 20.1494C59.0991 20.0091 58.7467 20.2095 58.7068 20.5369C58.175 24.9796 58.1418 29.2753 58.7334 33.3906C58.7667 33.6244 58.8863 33.8382 59.0592 33.9919C61.3992 36.0429 63.8322 37.4325 66.3251 38.301C66.724 38.4412 67.1428 38.1673 67.1761 37.7464C67.5151 33.3706 67.8275 29.5492 67.0963 25.1265C67.0497 24.8326 66.8902 24.5654 66.6509 24.3917H66.6575Z" fill="#D9F0FF"/>
<g style="mix-blend-mode:screen" opacity="0.5">
<path d="M61.2733 24.5988C62.5496 25.2468 63.8327 25.8881 65.109 26.5362C65.4281 26.6965 65.7472 26.8568 66.0397 27.0706C66.2458 27.2176 66.4386 27.4314 66.4984 27.6652C66.4984 26.0284 66.392 25.1599 65.8403 24.532C65.0758 23.6568 60.3625 20.8976 59.6645 21.4254C59.3521 21.6592 59.3388 22.7081 59.3122 23.0622C59.279 23.5833 59.2524 24.0509 59.2324 24.4785C59.2524 24.4184 59.2923 24.3583 59.3454 24.2981C59.7775 23.8305 60.8412 24.385 61.2733 24.5988Z" fill="white"/>
</g>
<path d="M66.4976 27.9658C66.4311 28.1863 66.2184 28.3333 65.999 28.38C65.7796 28.4268 65.547 28.3934 65.3276 28.3466C63.9781 28.0594 62.7749 27.3178 61.5982 26.5829C61.093 26.2622 60.5811 25.9483 60.0759 25.6343C59.8166 25.4672 59.2981 25.0998 59.2183 24.719C59.1053 27.0305 59.1186 28.2932 59.338 30.8452C59.3779 31.2995 59.4709 33.3037 59.8299 33.7513C61.0066 35.2612 63.4396 36.2767 65.3143 37.1585C66.8233 37.8667 66.4577 33.6044 66.4511 32.5221C66.4511 30.558 66.491 29.0949 66.4976 27.9658Z" fill="#BDDBDE"/>
<g style="mix-blend-mode:screen" opacity="0.5">
<path d="M59.2177 24.7123C59.2177 24.6389 59.2244 24.5587 59.231 24.4785C59.2044 24.5587 59.2044 24.6322 59.2177 24.7123Z" fill="white"/>
</g>
<g style="mix-blend-mode:screen" opacity="0.5">
<path d="M66.498 27.6653C66.498 27.7655 66.498 27.859 66.498 27.9592C66.5313 27.859 66.5246 27.7588 66.498 27.6653Z" fill="white"/>
</g>
<path d="M60.0763 25.6342C60.5815 25.9482 61.0934 26.2689 61.5986 26.5829C62.7686 27.3178 63.9719 28.0593 65.328 28.3466C65.5474 28.3934 65.7801 28.4268 65.9994 28.38C66.2188 28.3332 66.4315 28.1796 66.498 27.9658C66.498 27.8589 66.498 27.7654 66.498 27.6652C66.4382 27.4313 66.2388 27.2175 66.0393 27.0706C65.7535 26.8568 65.4277 26.6964 65.1086 26.5361C63.8323 25.8881 62.5493 25.2467 61.2729 24.5987C60.8474 24.3849 59.7772 23.8304 59.3451 24.2981C59.2919 24.3582 59.252 24.4183 59.232 24.4784C59.232 24.5586 59.2254 24.6388 59.2188 24.7123C59.2985 25.0931 59.817 25.4672 60.0763 25.6275V25.6342Z" fill="#A0D1D6"/>
<g style="mix-blend-mode:screen" opacity="0.5">
<path d="M60.0763 25.6342C60.5815 25.9482 61.0934 26.2689 61.5986 26.5829C62.7686 27.3178 63.9719 28.0593 65.328 28.3466C65.5474 28.3934 65.7801 28.4268 65.9994 28.38C66.2188 28.3332 66.4315 28.1796 66.498 27.9658C66.498 27.8589 66.498 27.7654 66.498 27.6652C66.4382 27.4313 66.2388 27.2175 66.0393 27.0706C65.7535 26.8568 65.4277 26.6964 65.1086 26.5361C63.8323 25.8881 62.5493 25.2467 61.2729 24.5987C60.8474 24.3849 59.7772 23.8304 59.3451 24.2981C59.2919 24.3582 59.252 24.4183 59.232 24.4784C59.232 24.5586 59.2254 24.6388 59.2188 24.7123C59.2985 25.0931 59.817 25.4672 60.0763 25.6275V25.6342Z" fill="white"/>
</g>
<g style="mix-blend-mode:screen" opacity="0.5">
<path d="M59.9167 31.2794C60.0164 32.2281 60.1759 33.2101 60.7543 33.9651C60.9936 33.7379 60.9338 33.3504 60.8739 33.0231C60.3222 30.1904 60.5349 27.271 60.7476 24.3982C60.7809 23.944 60.8141 23.4963 60.8474 23.0421C60.8673 22.7815 60.8806 22.5009 60.721 22.2938C60.1028 21.4721 59.9632 23.1356 59.9366 23.3761C59.8369 24.2446 59.7704 25.1198 59.7372 25.9949C59.6707 27.7587 59.7305 29.529 59.9167 31.2861V31.2794Z" fill="white"/>
</g>
<path d="M57.8825 28.1395L58.2947 28.0459L58.4476 27.4514L59.0991 27.0973C59.7439 26.9102 59.5112 26.2355 58.9196 26.4158L57.1646 26.9503L56.7325 27.8589L56.3668 28.4201C56.2073 28.6673 56.1674 28.9679 56.2339 29.2485C56.6926 28.7541 57.2377 28.38 57.8759 28.1395H57.8825Z" fill="#FFB294"/>
<path d="M59.1317 25.6811C59.7367 25.4807 59.504 24.8327 58.9256 25.013L57.1706 25.5475L56.7385 26.4561L56.3729 27.0173C56.2134 27.2645 56.1735 27.5651 56.2399 27.8457C56.2798 27.8056 56.3264 27.7655 56.3663 27.7254C56.2134 27.9726 56.1735 28.2666 56.2399 28.5405C56.4061 28.3601 56.5856 28.2064 56.7784 28.0595L56.6853 28.2599V29.5092C56.9645 29.3154 57.2703 29.1484 57.6027 29.0282C57.7423 28.9948 57.8753 28.968 58.0149 28.9346C58.0016 28.9146 58.1678 28.34 58.1678 28.34L58.8193 27.986C59.4641 27.7989 59.2314 27.1242 58.6398 27.3045L57.3302 27.7054C57.5097 27.6052 57.6891 27.5183 57.8819 27.4448L58.2941 27.3513L58.447 26.7567L59.0985 26.4026C59.6635 26.2423 59.5572 25.7078 59.1251 25.6945L59.1317 25.6811Z" fill="#FFB294"/>
<g style="mix-blend-mode:multiply" opacity="0.3">
<path d="M86.0024 62.1979C85.9493 61.3694 85.8894 60.5344 85.8296 59.7126C85.7698 58.8976 85.7166 58.0892 85.6634 57.3276C85.6634 57.1873 85.6435 57.047 85.6368 56.9134C85.6169 56.6729 85.6036 56.4457 85.5903 56.2186C85.5637 55.8378 85.5438 55.4637 85.5238 55.1163C85.5105 54.8357 85.4906 54.5751 85.4839 54.3213C85.4507 53.6933 85.4307 53.1455 85.4241 52.6979V52.5242L85.8097 47.4L86.1553 42.8505L82.8581 41.8884L82.9844 42.9039C81.8144 43.0108 80.6577 43.3515 79.5276 43.7189C78.0052 44.2133 76.4696 44.7678 74.8741 44.848C74.329 44.8747 71.5104 44.0196 71.2179 44.4204C70.8988 44.8614 72.8998 47.0526 73.3784 47.3599C74.0831 47.8142 74.9805 47.8209 75.8181 47.8076C76.8751 47.7942 77.9387 47.7742 78.9957 47.7608C79.6073 47.7541 80.2389 47.7474 80.8039 47.9813C81.6482 48.3287 82.2066 49.137 82.7118 49.8986C83.217 50.6602 83.7156 51.4285 84.1278 52.2436L84.3538 54.0808L84.4136 63.9282C84.9986 63.701 85.5504 63.4538 86.0689 63.1732C86.0556 62.9461 86.0357 62.719 86.0224 62.4851C86.0224 62.3916 86.0091 62.2914 86.0024 62.1979Z" fill="#5D8D94"/>
</g>
<g style="mix-blend-mode:multiply" opacity="0.3">
<path d="M73.7114 40.2316C74.2432 40.4186 74.775 40.6057 75.3334 40.6391C75.9118 40.6792 76.4901 40.5589 77.0552 40.4119C78.8833 39.9443 80.6849 39.2428 82.5728 39.2695C82.8587 39.2695 83.1512 39.2963 83.4171 39.3965C83.4969 39.4299 83.5833 39.4833 83.5833 39.5635C83.5833 39.6169 83.55 39.657 83.5168 39.6971C83.2509 40.0311 82.9916 40.3585 82.7257 40.6925C82.3401 41.1735 81.9546 41.6612 81.4693 42.0487C80.8311 42.5498 80.06 42.8504 79.2822 43.0842C78.511 43.3181 77.7067 43.4984 76.9089 43.3916C76.3173 43.3114 75.7655 43.0776 75.2271 42.8237C74.2764 42.3761 73.3391 41.8349 72.6943 40.9798C72.5347 40.7727 71.8899 40.0979 72.2156 39.824C72.4683 39.6103 73.4255 40.1247 73.718 40.2249L73.7114 40.2316Z" fill="#5D8D94"/>
</g>
<path d="M63.5202 33.5776C63.6997 33.6845 63.8592 33.7914 64.0188 33.925C63.8725 33.6979 63.3207 32.9029 63.4803 32.6824C63.5867 32.5354 63.7595 32.2482 64.1318 32.5889C64.2448 32.6891 64.6503 33.0766 64.7234 33.2102C64.3511 32.5488 64.0453 32.001 64.3644 31.8139C64.6104 31.6669 65.1622 32.0344 65.5344 32.5488C65.3749 32.3216 65.3217 31.8139 65.6408 31.8006C65.8602 31.7939 66.053 31.9208 66.2258 32.0544C66.4651 32.2415 67.316 33.0031 67.5354 33.2102C67.5421 33.0432 67.4158 31.707 67.562 31.7805C68.1935 32.0678 67.9409 32.6557 68.5459 33.424C68.8384 33.7914 69.0245 33.8916 68.9846 35.4015C68.978 35.6954 69.0644 35.9894 69.1508 36.2566C69.3635 37.1518 68.3464 38.4345 67.675 38.3343C67.3892 38.1339 67.1698 37.6595 66.4518 37.4725C66.033 37.3656 65.8801 37.3255 65.5211 37.0048C64.863 36.4169 63.5667 34.6332 63.4072 34.4461C63.0349 34.0319 63.0216 33.2636 63.5268 33.5709L63.5202 33.5776Z" fill="#FFB294"/>
<path d="M83.8091 38.0539C80.8176 39.7107 78.2782 40.0714 75.659 41.5145L69.1508 36.2634C68.3066 36.524 66.5117 37.6063 67.1565 38.9558C69.5696 42.5634 71.9163 46.2979 74.6751 47.0127C76.9819 46.8123 80.7777 45.8436 84.5204 44.3137C88.4293 42.8039 87.8243 36.0029 83.8157 38.0539H83.8091Z" fill="#A0D1D6"/>
<path d="M26.1465 92.0541L27.3497 91.3593C27.6755 91.1723 28.1209 91.199 28.6194 91.4796C29.6166 92.0541 30.421 93.4571 30.421 94.6129C30.421 95.1941 30.2149 95.6016 29.8892 95.7953L28.6859 96.4901C29.0183 96.3031 29.2177 95.8889 29.2177 95.3077C29.2177 94.1519 28.4134 92.7489 27.4162 92.1744C26.9243 91.8871 26.4722 91.8604 26.1465 92.0541Z" fill="#383034"/>
<path d="M25.6074 93.2368C25.6074 92.081 26.4118 91.6067 27.409 92.1812C28.4061 92.7557 29.2105 94.1587 29.2105 95.3145C29.2105 96.4702 28.4061 96.9446 27.409 96.37C26.4118 95.7955 25.6074 94.3925 25.6074 93.2368Z" fill="black"/>
<path d="M27.2901 95.2942L27.0109 95.1339C26.4725 94.8199 26.0271 94.1518 25.9739 93.584L25.5684 88.0657L28.726 89.8962L28.3205 94.9468C28.274 95.4546 27.8219 95.6082 27.2835 95.2942H27.2901Z" fill="#CCC1BF"/>
<path d="M61.2715 112.437L62.4747 111.742C62.8005 111.555 63.2459 111.582 63.7444 111.862C64.7416 112.437 65.546 113.84 65.546 114.996C65.546 115.577 65.3399 115.984 65.0142 116.178L63.8109 116.873C64.1433 116.686 64.3427 116.272 64.3427 115.69C64.3427 114.535 63.5384 113.132 62.5412 112.557C62.0493 112.27 61.5972 112.243 61.2715 112.437Z" fill="#383034"/>
<path d="M60.7402 113.619C60.7402 112.464 61.5446 111.989 62.5418 112.564C63.5389 113.138 64.3433 114.541 64.3433 115.697C64.3433 116.853 63.5389 117.327 62.5418 116.753C61.5446 116.178 60.7402 114.775 60.7402 113.619Z" fill="black"/>
<path d="M62.4229 115.677L62.1437 115.517C61.6053 115.203 61.1599 114.535 61.1067 113.967L60.7012 108.448L63.8588 110.279L63.4533 115.33C63.4068 115.837 62.9548 115.991 62.4163 115.677H62.4229Z" fill="#CCC1BF"/>
<path d="M88.9019 81.7324L88.8487 100.946L66.3594 114.081L66.4126 94.8601L88.9019 81.7324Z" fill="#8B8086"/>
<path d="M66.4122 94.8599L66.3591 114.08L24.6777 89.8962L24.7376 70.6824L66.4122 94.8599Z" fill="#CCC1BF"/>
<path d="M88.9023 81.7323L66.413 94.86L24.7383 70.6824L47.2209 57.5481L88.9023 81.7323Z" fill="#C6C6C6"/>
<path d="M98.036 78.3518L48.7231 49.7382C47.4999 49.0301 46.3099 48.9098 45.459 49.3975C44.7278 49.8251 44.3223 50.6468 44.3223 51.7157V56.2787C44.3223 56.4457 44.4087 56.606 44.5549 56.6862L101.26 89.5888C101.333 89.6289 101.413 89.6489 101.493 89.6489C101.573 89.6489 101.652 89.6289 101.725 89.5888C101.872 89.5019 101.958 89.3483 101.958 89.1813V84.6183C101.958 82.3803 100.23 79.6278 98.0294 78.3518H98.036ZM101.027 88.3595L45.2662 56.0048V51.7157C45.2662 51.208 45.3793 50.5332 45.931 50.2192C46.4828 49.8986 47.3337 50.0188 48.2577 50.56L97.5707 79.1735C99.4786 80.2825 101.027 82.7277 101.027 84.625V88.3662V88.3595Z" fill="#CCC1BF"/>
<path d="M55.4979 53.9404H54.5605V62.2112H55.4979V53.9404Z" fill="#CCC1BF"/>
<path d="M73.6131 64.4492H72.6758V72.72H73.6131V64.4492Z" fill="#CCC1BF"/>
<path d="M91.7342 74.9646H90.7969V83.2353H91.7342V74.9646Z" fill="#CCC1BF"/>
<path d="M35.5854 52.0164L12.0391 68.4844V72.0786L82.0996 112.738L107.999 97.7059V94.1116L35.5854 52.0164Z" fill="#8B8086"/>
<path d="M35.5854 48.4155L12.0391 68.4844L82.0996 109.137L107.999 94.1117L35.5854 48.4155Z" fill="#61595D"/>
<path d="M38.8236 40.9598C38.8236 40.0045 38.4846 39.3364 37.9461 39.0224L37.0221 38.4813C36.477 38.1606 35.7191 38.2074 34.8882 38.6884L14.9915 50.2327C13.3295 51.1947 12 53.5263 12 55.4436L12.0399 68.4844L12.9639 69.0256L38.8569 54.0006L38.817 40.9598H38.8236ZM33.2794 43.886L16.6135 53.553C16.5736 52.925 17.0057 52.1834 17.5309 51.8761L34.1968 42.2091C34.2367 42.8371 33.8112 43.5787 33.2794 43.886Z" fill="#8B8086"/>
<path d="M35.812 39.2362C37.4673 38.2741 38.8168 39.0491 38.8234 40.9598L38.8633 54.0006L12.9637 69.0255L12.9238 55.9847C12.9238 54.0741 14.2534 51.7425 15.9153 50.7805L35.812 39.2362ZM34.2099 44.4271C34.7417 44.1198 35.1672 43.3782 35.1672 42.7569C35.1672 42.1423 34.7351 41.8951 34.2032 42.2024L17.5374 51.8694C17.0055 52.1767 16.5801 52.9183 16.5801 53.5396C16.5801 54.1542 17.0122 54.4014 17.544 54.0941L34.2099 44.4271Z" fill="#CCC1BF"/>
<path d="M18.3817 66.1125L35.7788 56.018C37.5538 54.9891 40.4389 54.9891 42.2138 56.018L90.9085 84.0904L107.308 88.9473V92.0872C107.308 92.762 106.863 93.4367 105.979 93.9512L85.1117 106.057C83.3368 107.085 80.4516 107.085 78.6767 106.057L14.9116 69.0654C14.0208 68.551 13.582 67.8763 13.582 67.2015V64.0616L18.3817 66.1192V66.1125Z" fill="#A0D1D6"/>
<path d="M105.972 87.0835L42.2136 50.0856C40.4386 49.0568 37.5535 49.0568 35.7785 50.0856L14.9113 62.1911C13.1363 63.2199 13.1363 64.8901 14.9113 65.9256L78.6697 102.923C80.4447 103.952 83.3232 103.952 85.1048 102.923L105.972 90.818C107.747 89.7892 107.747 88.119 105.972 87.0835Z" fill="#CEF1F5"/>
<path d="M55.1309 63.1599L59.5117 60.9619C59.5117 60.9619 66.1993 64.309 70.3209 67.7829C74.4425 71.2569 84.587 75.6261 84.9992 75.9201C85.4113 76.214 105.328 87.4376 105.328 87.4376L103.453 90.7246L96.8055 96.2429L55.1309 63.1599Z" fill="#2B6673"/>
<g style="mix-blend-mode:multiply" opacity="0.5">
<path d="M55.1309 63.1599L59.5117 60.9619C59.5117 60.9619 66.1993 64.309 70.3209 67.7829C74.4425 71.2569 84.587 75.6261 84.9992 75.9201C85.4113 76.214 105.328 87.4376 105.328 87.4376L103.453 90.7246L96.8055 96.2429L55.1309 63.1599Z" fill="#2E4E57"/>
</g>
<path d="M43.962 57.4145L30.8127 67.4022L30.3142 67.7763C22.3834 68.7116 17.0918 60.9219 17.0918 60.9219C17.1849 60.8016 17.2912 60.6747 17.3843 60.5544C24.73 51.4085 33.3189 49.6982 33.3189 49.6982C42.1205 50.3196 43.962 57.4145 43.962 57.4145Z" fill="#CEF1F5"/>
<path d="M30.8127 67.4021L30.3141 67.7762C22.3834 68.7115 17.0918 60.9218 17.0918 60.9218C17.1849 60.8015 17.2912 60.6746 17.3843 60.5543C18.7072 60.1602 20.5553 60.374 21.5857 60.855C22.8354 61.4496 23.8127 62.5252 25.0491 63.1264C26.6712 63.9214 28.7586 63.9214 29.9286 65.2843C30.4272 65.8789 30.6731 66.6204 30.8127 67.3954V67.4021Z" fill="#A0D1D6"/>
<path d="M46.7615 56.125C44.0891 55.3367 42.1812 56.125 42.1812 56.125L41.1641 57.9355L48.1442 61.0354C48.317 59.7259 48.8621 58.4499 49.6266 57.3209C48.5497 56.7998 47.5259 56.3522 46.7615 56.125Z" fill="#FFCF85"/>
<path d="M66.5044 67.0748L55.3562 60.4342C55.3562 60.4342 52.3248 58.6371 49.6192 57.3276C48.8547 58.4567 48.3096 59.7394 48.1367 61.0421L64.6431 68.3776L66.4978 67.0748H66.5044Z" fill="#FFB294"/>
<g style="mix-blend-mode:multiply" opacity="0.3">
<path d="M47.5801 57.4143L54.9657 61.5564L60.6229 64.1351L66.001 66.8275H61.1614L50.7577 62.9259L47.5801 57.4143Z" fill="#FA952F"/>
</g>
<path d="M62.6895 65.6517C62.6895 65.6517 64.8167 65.3644 66.1529 66.1928C67.4891 67.0212 69.1444 67.8831 69.1444 67.8831L70.3211 69.9474H66.3125L62.6895 66.7006V65.645V65.6517Z" fill="#FFB294"/>
<path d="M39.5278 58.577L34.1432 62.3048L32.8668 61.2226L31.4043 59.9866L32.5477 58.2764L33.1792 57.3477L33.9903 56.1318C33.9903 56.1318 34.2362 56.2454 34.6285 56.4191C34.9475 56.5594 35.373 56.7531 35.8317 56.9536C36.4898 57.2475 37.2344 57.5749 37.8792 57.8621C38.7899 58.263 39.5012 58.577 39.5212 58.577H39.5278Z" fill="#FFB88F"/>
<path d="M35.9723 57.5145C35.9723 57.5145 35.8526 58.1158 35.4604 58.8507C35.015 59.6858 34.2305 60.6945 32.8744 61.2156C32.5952 61.3225 32.2961 61.4094 31.9703 61.4695C30.5145 61.7367 28.9589 61.2758 28.9589 61.2758C28.9589 61.2758 25.8012 60.2536 25.9275 56.1249C26.0538 51.9962 30.2485 52.1633 31.1393 52.3303C32.0301 52.504 33.1935 53.2723 34.3369 54.1007C34.6826 54.3545 34.9751 54.7754 35.2078 55.2297C35.5136 55.831 35.7196 56.4924 35.8393 56.9467C35.9324 57.2874 35.9723 57.5078 35.9723 57.5078V57.5145Z" fill="#FFB294"/>
<path d="M32.4822 61.3494C32.4822 61.3494 30.92 62.0308 29.5638 61.7502C28.2143 61.4696 25.8145 60.3205 25.4755 57.5948C25.4688 57.5213 25.4555 57.4411 25.4489 57.3677C25.0367 52.778 29.8364 51.3684 30.541 52.2703C30.541 52.2703 27.4565 53.0786 27.3501 55.9847C27.3235 56.7397 27.7091 57.4478 28.3207 57.8754L28.3805 57.9222C28.3805 57.9222 28.4005 57.9355 28.4071 57.9422C28.7196 58.1693 28.9323 58.5034 29.0121 58.8842L29.2181 59.8529C29.2181 59.8529 30.8601 60.1602 30.9333 60.2604C31.4451 60.9619 31.9304 61.0554 32.4755 61.3494H32.4822Z" fill="white"/>
<path d="M32.4825 61.3494C32.4825 61.3494 30.9203 62.0308 29.5642 61.7502C28.2147 61.4696 25.8148 60.3206 25.4758 57.5948C25.4692 57.5213 25.4559 57.4412 25.4492 57.3677C25.7484 57.6483 26.0342 58.0291 26.2802 58.156C27.0048 58.5368 27.756 58.3163 28.4141 57.9422C28.7266 58.1694 28.9393 58.5034 29.0191 58.8842L29.2251 59.8529C29.2251 59.8529 30.8671 60.1602 30.9403 60.2604C31.4521 60.9619 31.9374 61.0554 32.4825 61.3494Z" fill="#DEDEE0"/>
<path d="M29.4241 58.8308C29.4241 58.8308 27.8752 58.4901 28.0015 59.706C28.1278 60.9219 30.2085 60.3874 30.3149 59.706C30.4212 59.0246 29.4241 58.8308 29.4241 58.8308Z" fill="#FFB294"/>
<path d="M57.9568 63.7611C53.7754 65.7921 49.7868 68.932 48.5636 72.9872C48.2777 73.9159 48.1381 74.8912 48.1847 75.9134C47.8257 75.6862 47.4468 75.4591 47.0678 75.232C45.9111 74.5572 44.6481 73.9292 43.3119 73.4816C43.046 73.3881 42.7734 73.3012 42.5075 73.2344C42.3546 73.1943 42.1884 73.1409 42.0355 73.0941C41.7164 72.9872 41.3907 72.867 41.0716 72.74C40.4334 72.4728 39.7952 72.1521 39.1836 71.8114C38.8712 71.6377 38.5654 71.464 38.2729 71.277C37.9737 71.0899 37.6879 70.9028 37.402 70.7158C37.1162 70.5287 36.8436 70.3417 36.5844 70.1479C36.3251 69.9542 36.0658 69.7738 35.8265 69.5934C35.7069 69.4999 35.5938 69.4064 35.4808 69.3262C34.1779 68.3174 33.3203 67.5358 33.3203 67.5358L34.5967 64.9169L37.3555 59.2182C39.0839 57.7752 40.1808 56.9201 42.1884 56.1384C48.6035 56.5393 51.5684 60.1268 56.2151 62.8325C56.7669 63.1532 57.3452 63.4672 57.9502 63.7478C57.9568 63.7545 57.9635 63.7545 57.9701 63.7611H57.9568Z" fill="#FFCF85"/>
<g style="mix-blend-mode:multiply" opacity="0.5">
<path d="M37.8932 57.8621C37.8932 57.8621 36.9891 58.6972 35.4602 58.8508C34.6491 58.9243 33.6719 58.8174 32.5551 58.2763C32.3158 58.1627 32.0698 58.0224 31.8105 57.8688C31.8105 57.8688 32.4554 57.6817 33.1866 57.3477C33.6985 57.1139 34.237 56.7999 34.6358 56.4191C34.9948 56.0783 35.2341 55.6842 35.2075 55.2366C35.5133 55.8378 35.7194 56.4992 35.8391 56.9535C36.4972 57.2475 37.2417 57.5748 37.8866 57.8621H37.8932Z" fill="#E5935C"/>
</g>
<g style="mix-blend-mode:multiply" opacity="0.3">
<path d="M48.5638 72.9873C48.2779 73.9159 48.1383 74.8913 48.1848 75.9135C47.8259 75.6863 47.4469 75.4592 47.068 75.232C45.9113 74.5573 44.6482 73.9293 43.3121 73.4817C43.0461 73.3882 42.7736 73.3013 42.5077 73.2345C42.3548 73.1944 42.1886 73.141 42.0357 73.0942C41.7166 72.9873 41.3909 72.8671 41.0718 72.7401C40.4336 72.4796 39.7954 72.1589 39.1838 71.8115C38.8714 71.6378 38.5656 71.4641 38.2731 71.277C37.9739 71.09 37.6881 70.9029 37.4022 70.7159C37.1164 70.5288 36.8438 70.3417 36.5845 70.148C36.3253 69.9543 36.066 69.7739 35.8267 69.5935C35.707 69.5 35.594 69.4064 35.481 69.3263L34.6035 64.917C34.8029 65.1441 38.047 68.872 43.7109 70.5488C46.031 71.2303 47.4469 72.0787 48.5704 72.994L48.5638 72.9873Z" fill="#FA952F"/>
</g>
<path d="M89.0934 88.5267C88.9538 88.9342 88.8541 89.3685 88.8009 89.796C89.1399 90.0633 89.3194 90.0432 89.5056 90.4841C89.5056 90.4841 88.6214 90.9585 88.4087 90.551C87.5844 89.8628 87.1656 89.5756 87.1656 89.5756C82.8445 87.9121 76.7685 82.5608 75.5453 80.8238C73.9897 78.6125 70.9916 78.3319 60.9269 72.8203C63.7389 75.0316 68.7779 79.1403 70.4997 82.2602C70.4332 82.2802 71.4304 83.0084 72.8862 84.0306C76.6289 86.6828 83.4029 91.3526 83.2368 91.3927C83.3165 91.4328 83.3896 91.4929 83.4628 91.5397C84.686 92.5218 84.3669 94.9803 83.0706 95.5548C82.7781 95.6818 82.439 95.7152 82.0601 95.6216C80.7771 95.1072 78.7961 93.25 74.0097 91.9806C67.9802 90.3839 66.1853 86.6227 66.1786 86.6026C64.4768 84.6385 54.5584 79.9553 52.5441 78.8129C51.4871 78.225 49.9914 77.0559 48.1899 75.9135C47.6248 74.9381 47.6182 73.769 47.9904 72.5397C49.3 68.1772 55.3295 63.1065 57.962 63.7545C58.9858 64.2489 60.1026 64.6765 61.3457 65.0239C63.7589 65.6853 66.1454 66.7943 68.3059 68.0369C69.0837 68.4845 69.8482 68.9455 70.5662 69.4131C74.495 71.9652 77.2671 74.5439 77.4 74.6775C77.3867 74.6709 77.3668 74.6642 77.3535 74.6575L77.4 74.6842L80.9699 77.6906C80.9699 77.6906 88.2226 84.7855 89.8778 86.0615C90.0573 86.1951 90.2435 86.2953 90.4362 86.3688C89.8778 86.7697 89.3992 87.578 89.1001 88.5133L89.0934 88.5267Z" fill="#2B6673"/>
<path d="M85.5186 92.5617C85.4654 91.6798 85.9108 90.6644 85.6382 89.9161C85.5651 89.709 85.4255 89.542 85.2327 89.3683C83.8832 88.1591 82.8794 91.3258 83.2251 91.74C82.7332 91.5596 82.5337 91.9471 82.0684 92.6085C81.8025 93.7041 81.756 94.2586 82.1482 95.421C82.3675 95.5747 82.4739 95.6682 82.4739 95.6682C82.4739 95.6682 86.1435 97.8328 86.7418 96.1158C87.3401 94.3922 85.5851 93.6907 85.5252 92.5684L85.5186 92.5617Z" fill="#DB4248"/>
<g style="mix-blend-mode:multiply" opacity="0.5">
<path d="M83.0647 95.5681C82.7722 95.695 82.4332 95.7284 82.0542 95.6349C80.7712 95.1205 78.7902 93.2632 74.0038 91.9939C67.9743 90.3972 66.1794 86.636 66.1728 86.6159C64.471 84.6518 54.5525 79.9686 52.5383 78.8262C51.4813 78.2383 49.9855 77.0692 48.184 75.9267C47.619 74.9514 47.6123 73.7822 47.9846 72.553C47.9846 72.553 62.4766 80.7703 64.7701 82.2801C67.0769 83.7766 68.6192 87.1637 70.321 88.2327C72.0228 89.3016 81.8548 93.8244 81.8548 93.8244L83.0647 95.5815V95.5681Z" fill="#233657"/>
</g>
<g style="mix-blend-mode:multiply" opacity="0.5">
<path d="M89.5131 90.4908C89.5131 90.4908 88.629 90.9652 88.4163 90.5576C87.5919 89.8695 87.1731 89.5822 87.1731 89.5822C82.8521 87.9187 76.7761 82.5675 75.5529 80.8305C73.9973 78.6192 70.9992 78.3386 60.9345 72.827C60.888 72.8002 60.4492 69.0256 60.4492 69.0256C60.4492 69.0256 70.9726 76.154 73.9707 76.8955C76.9821 77.6438 78.7504 82.2602 81.3098 83.6832C83.2709 84.7721 87.3127 87.3709 89.0943 88.5334C88.9547 88.9409 88.855 89.3751 88.8018 89.8027C89.1409 90.0699 89.3203 90.0499 89.5065 90.4908H89.5131Z" fill="#233657"/>
</g>
<g style="mix-blend-mode:multiply" opacity="0.5">
<path d="M89.9716 92.6017C89.9052 92.6351 89.8653 92.6017 89.832 92.5149C89.9583 92.5483 90.0115 92.5817 89.9716 92.6017Z" fill="#1E3A47"/>
</g>
<path d="M102.635 91.9539L86.833 100.525L81.8472 103.231C70.6324 94.8935 50.5895 87.4244 34.8477 76.4947C34.8477 76.4947 39.0158 74.1364 39.521 72.5331C39.8468 71.5042 39.8601 69.9008 40.1858 68.3843C40.3653 67.5292 40.6578 66.6941 41.1497 66.0193C42.8116 63.7947 46.0292 59.6058 50.7756 59.2117L57.9286 63.7412L60.4348 67.8499L78.4236 77.4968L85.6763 82.788C85.6763 82.788 90.7352 85.0527 92.7162 85.1262C93.4608 85.1463 94.3316 84.9859 95.1294 84.7655C96.665 84.3513 98.2937 85.0127 99.0981 86.3956L99.5235 87.1238L102.641 91.9539H102.635Z" fill="#2B6673"/>
<g style="mix-blend-mode:multiply" opacity="0.5">
<path d="M75.6716 85.3666C80.2519 88.8339 85.7695 90.778 91.1874 92.662C91.5863 92.8023 92.2245 92.7823 92.2112 92.3547C92.2045 92.1142 91.9585 91.9672 91.7458 91.8603C82.7115 87.3709 74.4351 81.3448 67.3819 74.1029C67.229 73.9426 67.0428 73.7689 66.8234 73.7756C66.6705 73.7756 66.5376 73.8624 66.4113 73.9493C64.9687 74.9046 63.5395 75.8934 62.0703 76.8086C62.9678 77.303 64.0779 77.2496 65.0751 77.5368C66.4445 77.9377 67.7209 78.8262 68.8577 79.6613C71.2442 81.4183 73.3116 83.5628 75.6716 85.3533V85.3666Z" fill="#2E4E57"/>
</g>
<g style="mix-blend-mode:multiply" opacity="0.5">
<path d="M86.9339 98.5878C86.9073 99.2224 86.894 99.8772 86.8408 100.532L81.855 103.238C70.6402 94.9 50.5973 87.431 34.8555 76.5013C34.8555 76.5013 39.0236 74.143 39.5288 72.5396C39.8546 71.5108 39.8679 69.9074 40.1936 68.3909C40.3731 68.5312 40.5526 68.7115 40.7254 68.9253C43.1651 71.9317 45.5783 74.5639 49.0484 76.4412C51.1424 77.5702 53.4226 78.3919 55.3239 79.8082C56.5404 80.7168 57.5774 81.8325 58.6743 82.8747C63.0286 87.0034 68.3867 89.8828 73.6982 92.6553C75.5197 93.6106 77.4608 94.5793 79.5083 94.4591C80.7116 94.3923 81.8616 93.9514 83.0649 93.7977C84.2681 93.6374 85.6243 93.8445 86.3754 94.7998C87.1798 95.8286 86.9937 97.2917 86.9272 98.5878H86.9339Z" fill="#2E4E57"/>
</g>
<path d="M43.2383 77.5768L45.6115 80.0687C45.6115 80.0687 46.1234 81.4984 47.2203 82.3936L48.4701 84.0972C48.7227 84.5247 49.188 84.3444 49.0019 83.9034L48.3039 82.3268L49.1548 83.2821L50.0456 84.5181C50.3181 84.9456 50.7968 84.7653 50.5774 84.2642L49.6268 82.28L50.5774 82.8345L51.8272 84.1105C52.1662 84.4312 52.5983 84.164 52.2925 83.6429L51.0028 81.9994L52.4853 83.1953C53.057 83.6028 53.3362 83.1084 52.9972 82.6809L50.4777 80.229C50.4777 80.229 51.8338 80.4829 52.1728 80.6766C52.5119 80.8704 53.3827 80.6566 53.17 80.3159C52.9573 79.9752 50.1586 79.0399 50.1586 79.0399L47.5859 78.1313L44.1158 76.8887L43.2449 77.5701L43.2383 77.5768Z" fill="#FFB294"/>
<path d="M47.578 78.1382C46.1089 78.1248 45.6169 80.0689 45.6169 80.0689C43.8353 79.815 34.5551 75.1452 34.5551 75.1452C34.5551 75.1452 30.4867 68.4311 29.782 64.897C29.6491 64.2222 29.8418 63.6009 30.2407 63.033L30.3205 62.9262C32.0954 60.5812 37.3538 59.2117 37.3538 59.2117L35.7849 65.4982L38.1116 72.3326L47.578 78.1382Z" fill="#FFCF85"/>
<g style="mix-blend-mode:multiply" opacity="0.3">
<path d="M45.6111 80.0688C43.8295 79.8149 34.5492 75.1451 34.5492 75.1451C34.5492 75.1451 30.4808 68.431 29.7762 64.8968C29.6432 64.2221 29.836 63.6008 30.2348 63.0329L30.3146 62.926C30.3146 62.926 33.7116 72.3793 35.3603 73.9091C37.0022 75.4457 45.6111 80.0688 45.6111 80.0688Z" fill="#FA952F"/>
</g>
<path d="M107.974 84.9256C107.974 83.9703 107.635 83.3022 107.09 82.9882L106.173 82.4471C105.627 82.1264 104.87 82.1732 104.032 82.6542L84.1419 94.1918C82.4866 95.1538 81.1438 97.4854 81.1504 99.3961L81.177 108.582L82.101 109.123L108.001 94.0983L107.974 84.9123V84.9256ZM102.43 87.8585L85.7639 97.5322C85.7241 96.9042 86.1562 96.1626 86.6813 95.8553L103.347 86.1816C103.387 86.8096 102.955 87.5512 102.43 87.8585Z" fill="#8B8086"/>
<path d="M104.957 83.202C106.612 82.2399 107.968 83.0082 107.968 84.9256L107.995 97.7058L82.095 112.731L82.0684 99.9506C82.0684 98.0399 83.4046 95.7083 85.0598 94.7463L104.95 83.2086L104.957 83.202ZM103.361 88.3996C103.893 88.0923 104.318 87.3507 104.318 86.7294C104.318 86.1148 103.886 85.8676 103.354 86.1749L86.6885 95.8486C86.1567 96.1559 85.7313 96.8975 85.7313 97.5188C85.7313 98.1334 86.1634 98.3806 86.6952 98.0733L103.361 88.3996Z" fill="#CCC1BF"/>
<path d="M74.5885 105.262C74.5087 105.262 74.429 105.242 74.3559 105.202L17.6506 72.2992C17.5044 72.2123 17.418 72.0587 17.418 71.8916V67.3287C17.418 66.2598 17.8235 65.4381 18.5547 65.0105C19.4056 64.5161 20.5956 64.6364 21.8188 65.3512L71.1317 93.9648C73.3387 95.2408 75.0605 97.9933 75.0605 100.231V104.794C75.0605 104.961 74.9741 105.122 74.8278 105.202C74.7547 105.242 74.6749 105.262 74.5952 105.262H74.5885ZM18.3553 71.6177L74.1165 103.973V100.231C74.1165 98.334 72.561 95.8888 70.6531 94.7798L21.3468 66.1663C20.4227 65.6318 19.5718 65.5049 19.0201 65.8255C18.4683 66.1462 18.3553 66.8143 18.3553 67.322V71.6111V71.6177Z" fill="white"/>
<path d="M28.5858 69.5535H27.6484V77.8242H28.5858V69.5535Z" fill="white"/>
<path d="M46.701 80.0688H45.7637V88.3396H46.701V80.0688Z" fill="white"/>
<path d="M64.8221 90.5776H63.8848V98.8484H64.8221V90.5776Z" fill="white"/>
<path d="M59.7051 107.667L31.3923 91.239C30.1093 90.4974 29.0723 88.8473 29.0723 87.5579V85.8076C29.0723 84.5182 30.1093 84.0773 31.3923 84.8188L59.7051 101.247C60.9881 101.988 62.0251 103.638 62.0251 104.928V106.678C62.0251 107.968 60.9881 108.408 59.7051 107.667Z" fill="#8B8086"/>
<path d="M63.1351 22.127C62.949 22.127 62.8027 21.98 62.8027 21.7929V15.6734C62.8027 15.4863 62.949 15.3394 63.1351 15.3394C63.3213 15.3394 63.4675 15.4863 63.4675 15.6734V21.7929C63.4675 21.98 63.3213 22.127 63.1351 22.127Z" fill="#8B8086"/>
<path d="M68.4722 19.4345C68.3592 19.4345 68.2462 19.4078 68.1398 19.3476L47.7977 7.54279C47.4787 7.35573 47.3723 6.9482 47.5518 6.62753C47.7313 6.30685 48.1434 6.19996 48.4625 6.38034L68.8046 18.1852C69.1237 18.3723 69.2301 18.7798 69.0506 19.1005C68.9243 19.3142 68.7049 19.4345 68.4722 19.4345Z" fill="#CCC1BF"/>
<path d="M64.6302 65.1441C62.7822 65.1441 59.7707 63.9282 55.7887 62.0442C55.6624 61.9841 55.6093 61.8371 55.6691 61.7102C55.7289 61.5832 55.8752 61.5298 56.0015 61.5899C58.9664 62.9929 64.4773 65.5984 65.8268 64.2689C66.0794 64.0217 66.1858 63.7812 66.1592 63.5407C66.0794 62.8125 64.8031 62.0242 63.7793 61.3962C62.9949 60.9152 62.3235 60.501 62.0376 60.0801C61.2332 58.8842 61.3728 57.3543 61.7119 53.6532C62.031 50.1926 62.5096 44.9549 62.5495 36.4303C62.5495 36.29 62.6625 36.1831 62.8021 36.1831C62.9417 36.1831 63.0547 36.2967 63.0547 36.437C63.0148 44.9883 62.5295 50.2327 62.2105 53.7067C61.8847 57.2809 61.7451 58.7573 62.4498 59.8062C62.6692 60.1335 63.3339 60.5411 64.0386 60.9753C65.2152 61.6968 66.5514 62.5186 66.6578 63.4939C66.7043 63.8948 66.5381 64.2823 66.1725 64.6363C65.8135 64.9837 65.295 65.1441 64.6236 65.1441H64.6302Z" fill="#8B8086"/>
<path d="M62.2838 50.6335C62.2838 50.6335 62.2505 50.6335 62.2306 50.6335C61.8649 50.6068 61.5924 50.2861 61.619 49.9187C61.6855 49.0235 61.7586 48.0481 61.8184 46.9725C61.8384 46.605 62.1574 46.3178 62.5231 46.3445C62.8887 46.3645 63.1679 46.6852 63.148 47.0527C63.0815 48.1349 63.015 49.117 62.9485 50.0189C62.9219 50.3663 62.6294 50.6335 62.2838 50.6335Z" fill="#8B8086"/>
</svg>
