<svg width="14" height="14" viewBox="0 0 14 14" fill="none" xmlns="http://www.w3.org/2000/svg">
<circle cx="7" cy="7" r="7" fill="#4CC764"/>
<g clip-path="url(#clip0_72_1566)">
<path d="M11.7667 6.79937C11.7667 4.68633 9.68056 2.9668 7.11646 2.9668C4.55235 2.9668 2.46667 4.68633 2.46667 6.79937C2.46667 8.69399 4.12094 10.2804 6.3555 10.5807C6.50699 10.6138 6.7129 10.6819 6.76514 10.8137C6.81216 10.933 6.79562 11.1201 6.78038 11.2408C6.78038 11.2408 6.72596 11.5742 6.71421 11.6449C6.69375 11.7643 6.62061 12.1118 7.11689 11.8996C7.61317 11.6874 9.79462 10.2981 10.7702 9.15781C11.4441 8.40703 11.7671 7.64565 11.7671 6.79981L11.7667 6.79937Z" fill="white"/>
<path d="M10.2201 8.01905C10.2693 8.01905 10.3089 7.97882 10.3089 7.92885V7.5937C10.3089 7.54418 10.2688 7.5035 10.2201 7.5035H9.33243V7.15553H10.2201C10.2693 7.15553 10.3089 7.11529 10.3089 7.06533V6.73062C10.3089 6.6811 10.2688 6.64042 10.2201 6.64042H9.33243V6.29245H10.2201C10.2693 6.29245 10.3089 6.25221 10.3089 6.20225V5.86754C10.3089 5.81802 10.2688 5.77734 10.2201 5.77734H8.91364C8.86444 5.77734 8.82483 5.81758 8.82483 5.86754V5.86931V7.92709V7.92885C8.82483 7.97882 8.86444 8.01905 8.91364 8.01905H10.2201Z" fill="#4CC764"/>
<path d="M5.3873 8.01905C5.4365 8.01905 5.47611 7.97882 5.47611 7.92885V7.5937C5.47611 7.54418 5.43606 7.5035 5.3873 7.5035H4.49966V5.86754C4.49966 5.81802 4.45961 5.77734 4.41085 5.77734H4.08087C4.03168 5.77734 3.99207 5.81758 3.99207 5.86754V7.92709V7.92885C3.99207 7.97882 4.03168 8.01905 4.08087 8.01905H5.3873Z" fill="#4CC764"/>
<path d="M6.17385 5.77734H5.8443C5.79525 5.77734 5.75549 5.81773 5.75549 5.86754V7.92841C5.75549 7.97823 5.79525 8.01861 5.8443 8.01861H6.17385C6.22289 8.01861 6.26266 7.97823 6.26266 7.92841V5.86754C6.26266 5.81773 6.22289 5.77734 6.17385 5.77734Z" fill="#4CC764"/>
<path d="M8.41868 5.77734H8.08869C8.0395 5.77734 7.99989 5.81758 7.99989 5.86754V7.09186L7.07132 5.81846C7.06915 5.81537 7.06654 5.81227 7.06436 5.80918C7.06436 5.80918 7.06436 5.80918 7.06392 5.80874C7.06218 5.80697 7.06044 5.80476 7.0587 5.80299C7.05826 5.80255 7.05739 5.8021 7.05696 5.80166C7.05522 5.80034 7.05391 5.79901 7.05217 5.79768C7.0513 5.79724 7.05043 5.79636 7.04956 5.79591C7.04825 5.79459 7.04651 5.7937 7.04477 5.79282C7.0439 5.79238 7.04303 5.79149 7.04216 5.79105C7.04042 5.79017 7.03911 5.78928 7.03737 5.7884C7.0365 5.78796 7.03563 5.78751 7.03476 5.78707C7.03301 5.78619 7.03127 5.7853 7.02953 5.78486C7.02866 5.78486 7.02779 5.78398 7.02648 5.78398C7.02474 5.78353 7.023 5.78265 7.02126 5.78221C7.02039 5.78221 7.01908 5.78177 7.01821 5.78132C7.01647 5.78132 7.01473 5.78044 7.01299 5.78C7.01168 5.78 7.01038 5.78 7.00907 5.77955C7.00733 5.77955 7.00602 5.77911 7.00428 5.77911C7.00254 5.77911 7.00124 5.77911 6.99949 5.77911C6.99862 5.77911 6.99732 5.77911 6.99645 5.77911H6.66864C6.61945 5.77911 6.57983 5.81935 6.57983 5.86931V7.93062C6.57983 7.98059 6.61945 8.02082 6.66864 8.02082H6.99862C7.04782 8.02082 7.08743 7.98059 7.08743 7.93062V6.70675L8.01687 7.98191C8.02339 7.9912 8.03123 7.99871 8.03994 8.00446C8.03994 8.00446 8.04081 8.0049 8.04081 8.00535C8.04255 8.00667 8.04429 8.00756 8.04647 8.00888C8.04734 8.00933 8.04821 8.00977 8.04908 8.01021C8.05039 8.01109 8.05213 8.01154 8.05343 8.01242C8.05474 8.01331 8.05648 8.01375 8.05779 8.01419C8.05866 8.01419 8.05953 8.01507 8.0604 8.01507C8.06258 8.01596 8.06432 8.0164 8.06649 8.01684C8.06649 8.01684 8.06736 8.01684 8.0678 8.01684C8.0752 8.01861 8.08304 8.01994 8.09087 8.01994H8.41868C8.46787 8.01994 8.50748 7.9797 8.50748 7.92974V5.86843C8.50748 5.81846 8.46787 5.77823 8.41868 5.77823V5.77734Z" fill="#4CC764"/>
</g>
<defs>
<clipPath id="clip0_72_1566">
<rect width="9.3" height="9" fill="white" transform="translate(2.46667 2.9668)"/>
</clipPath>
</defs>
</svg>
