<svg width="163" height="100" viewBox="0 0 163 100" fill="none" xmlns="http://www.w3.org/2000/svg">
<path d="M61.297 51.6477V80.5562H55.0683V76.3903C52.8738 79.4515 49.4747 81.3051 44.9736 81.3051C37.1295 81.3051 30.6113 74.6584 30.6113 66.102C30.6113 57.5455 37.1295 50.8988 44.9736 50.8988C49.4747 50.8988 52.8738 52.7524 55.0683 55.7574V51.6571H61.297V51.6477ZM55.0683 66.102C55.0683 60.7284 51.1462 56.8527 45.9542 56.8527C40.7621 56.8527 36.84 60.7284 36.84 66.102C36.84 71.4755 40.7621 75.3512 45.9542 75.3512C51.1462 75.3512 55.0683 71.4755 55.0683 66.102Z" fill="#49744F"/>
<path d="M83.6719 51.1234V57.8824C79.5817 57.5922 74.7911 59.502 74.7911 65.9802V80.5467H68.5625V51.6383H74.7911V56.4969C76.5187 52.5651 80.0393 51.1234 83.6719 51.1234Z" fill="#49744F"/>
<path d="M101.077 75.5758C104.532 75.5758 107.128 74.0124 108.519 71.9903L113.656 74.9954C111.003 78.9272 106.68 81.2957 101.03 81.2957C91.5144 81.2957 85.3418 74.7613 85.3418 66.0925C85.3418 57.4238 91.5144 50.8894 100.563 50.8894C109.612 50.8894 115.038 57.8263 115.038 66.1487C115.038 67.0193 114.926 67.9368 114.804 68.7512H91.8506C92.8311 73.2635 96.4637 75.5758 101.077 75.5758ZM108.753 63.6679C107.884 58.6969 104.252 56.5531 100.507 56.5531C95.838 56.5531 92.663 59.3242 91.7946 63.6679H108.753Z" fill="#49744F"/>
<path d="M0 66.102C0 57.4893 6.51813 50.8988 15.2214 50.8988C20.8711 50.8988 25.7737 53.8477 28.0803 58.36L22.7201 61.4773C21.4501 58.7625 18.6299 57.0306 15.1654 57.0306C10.0947 57.0306 6.22865 60.9063 6.22865 66.1113C6.22865 71.3163 10.0947 75.192 15.1654 75.192C18.6299 75.192 21.4501 73.4039 22.8321 70.7359L28.1923 73.7971C25.7737 78.3656 20.8711 81.3145 15.2214 81.3145C6.51813 81.3145 0 74.6678 0 66.1113L0 66.102Z" fill="#49744F"/>
<path d="M148.293 50.8988H133.174V81.3051H148.293C156.762 81.3051 163 74.5741 163 66.102C163 57.6298 156.762 50.8988 148.293 50.8988ZM148.293 75.2575H139.197V56.937H148.293C153.326 56.937 156.977 60.794 156.977 66.102C156.977 71.4099 153.326 75.2669 148.293 75.2669V75.2575Z" fill="#49744F"/>
<path d="M124.106 69.9401C126.221 69.9401 127.935 68.2217 127.935 66.1019C127.935 63.9821 126.221 62.2637 124.106 62.2637C121.992 62.2637 120.277 63.9821 120.277 66.1019C120.277 68.2217 121.992 69.9401 124.106 69.9401Z" fill="#49744F"/>
<path d="M62.8477 3.18302C63.464 3.10812 64.127 3.07068 64.818 3.07068C67.6756 3.07068 70.5144 3.71663 71.719 3.99747C72.8957 4.31576 74.754 5.04596 76.8458 6.70296C78.3959 8.01357 79.5072 9.59567 80.1515 11.4025L80.0114 11.4212C77.1633 11.8424 67.825 13.8365 62.857 22.3274V3.18302H62.8477Z" fill="#AA8D68"/>
<path d="M77.2193 38.2326C75.8746 38.2326 74.9314 38.139 74.5859 38.1015C70.0288 37.9143 67.4234 36.3416 66.5176 35.6769L66.06 35.3024C64.0149 33.6361 62.8477 31.277 62.8477 28.8149C62.8477 24.1435 66.7697 20.3521 71.579 20.3521C73.5587 20.3521 75.4263 20.9886 76.9952 22.1963L77.1633 22.318C77.7796 22.8048 79.9461 24.415 80.4784 24.7801C83.6907 26.9707 87.4541 28.2345 90.8159 28.2345C93.7668 28.2345 96.3255 27.2609 98.2772 25.4166C97.5581 27.2609 96.2881 29.9289 94.2057 31.9604C88.8642 37.4088 81.2721 38.2232 77.2193 38.2232V38.2326Z" fill="#AA8D68"/>
<path d="M91.245 26.0907C88.2381 26.0907 85.6981 25.1546 84.0919 23.4414C82.7285 21.9997 82.1028 20.0619 82.2429 17.6934C82.2709 17.2534 82.2896 16.8602 82.355 16.4764C82.5884 15.3156 83.4569 9.32418 78.2648 4.80256C76.0423 2.97706 74.0532 2.17196 72.7645 1.81622C71.84 1.60091 70.0097 1.16092 67.918 0.964323C70.1031 0.449438 72.9046 -0.00927734 76.061 -0.00927734C82.0748 -0.00927734 87.5471 1.61027 92.3189 4.79319C96.213 7.29273 99.2947 11.7301 99.995 15.8398C100.453 18.5453 99.8363 20.9793 98.2114 22.8797C96.4932 24.8831 93.8878 26.0813 91.245 26.0813V26.0907Z" fill="#AA8D68"/>
<path d="M69.4206 98.3431C69.2525 98.6988 69.0284 98.9984 68.7296 99.2324C68.4307 99.4758 68.0852 99.6537 67.6743 99.7847C67.2634 99.9158 66.8152 99.972 66.3203 99.972C65.6199 99.972 64.9382 99.8503 64.2659 99.6162C63.5935 99.3822 62.9865 99.0077 62.4355 98.5116L63.6215 97.0792C64.0417 97.4163 64.4713 97.6877 64.9102 97.8937C65.3491 98.0996 65.8347 98.1933 66.3576 98.1933C66.7779 98.1933 67.1047 98.1184 67.3288 97.9592C67.5623 97.8094 67.6743 97.5941 67.6743 97.3226V97.2946C67.6743 97.1635 67.6463 97.0512 67.5996 96.9482C67.5529 96.8452 67.4595 96.7516 67.3288 96.6673C67.1887 96.5831 67.002 96.4895 66.7685 96.4052C66.5257 96.321 66.2176 96.2273 65.8347 96.1337C65.3678 96.0214 64.9476 95.8903 64.574 95.7499C64.2005 95.6095 63.883 95.441 63.6215 95.235C63.36 95.0291 63.1546 94.7763 63.0145 94.4674C62.8744 94.1584 62.7997 93.784 62.7997 93.3253V93.2972C62.7997 92.8759 62.8744 92.5014 63.0332 92.1644C63.1919 91.8274 63.4067 91.5372 63.6869 91.2938C63.967 91.0504 64.3032 90.8632 64.6954 90.7321C65.0876 90.6011 65.5172 90.5355 65.9841 90.5355C66.6565 90.5355 67.2728 90.6385 67.8331 90.8351C68.3934 91.0317 68.9163 91.3219 69.3832 91.6964L68.3374 93.2129C67.9265 92.9321 67.5249 92.7168 67.1327 92.5483C66.7405 92.3891 66.3483 92.3049 65.9561 92.3049C65.5639 92.3049 65.2651 92.3797 65.0689 92.5389C64.8728 92.698 64.7795 92.8853 64.7795 93.1099V93.138C64.7795 93.2878 64.8075 93.4189 64.8635 93.5219C64.9195 93.6342 65.0223 93.7278 65.1717 93.8214C65.3211 93.9057 65.5265 93.9899 65.7787 94.0742C66.0401 94.1491 66.3576 94.2427 66.7592 94.3457C67.2261 94.4674 67.637 94.6078 68.0012 94.7576C68.3654 94.9074 68.6735 95.0946 68.9163 95.3099C69.1591 95.5252 69.3552 95.778 69.4766 96.0588C69.6074 96.349 69.6634 96.6954 69.6634 97.098V97.126C69.6634 97.5848 69.5793 97.9873 69.4206 98.3431Z" fill="#10223E"/>
<path d="M77.4603 99.8408V96.1617H73.7436V99.8408H71.7266V90.6665H73.7436V94.2988H77.4603V90.6665H79.4774V99.8408H77.4603Z" fill="#10223E"/>
<path d="M90.9351 97.0979C90.6923 97.669 90.3561 98.1745 89.9266 98.6051C89.497 99.0358 88.9834 99.3822 88.3857 99.6256C87.7881 99.8783 87.1344 100 86.434 100C85.7337 100 85.08 99.8783 84.4823 99.6256C83.894 99.3728 83.3804 99.0451 82.9415 98.6145C82.512 98.1932 82.1758 97.6877 81.933 97.1167C81.6902 96.5456 81.5781 95.9277 81.5781 95.2724V95.2443C81.5781 94.589 81.6995 93.9712 81.9423 93.4001C82.1851 92.8291 82.5213 92.3236 82.9602 91.8929C83.3898 91.4623 83.9034 91.1159 84.501 90.8725C85.0987 90.6197 85.7523 90.498 86.4527 90.498C87.1531 90.498 87.8068 90.6197 88.4044 90.8725C88.9927 91.1253 89.5063 91.4623 89.9452 91.8836C90.3748 92.3048 90.711 92.8103 90.9538 93.3814C91.1966 93.9525 91.318 94.5703 91.318 95.2256V95.2537C91.318 95.909 91.1966 96.5269 90.9538 97.0979H90.9351ZM89.1982 95.2537C89.1982 94.8605 89.1328 94.4861 88.9927 94.1397C88.8527 93.7933 88.6659 93.4844 88.4138 93.2223C88.1616 92.9601 87.8721 92.7542 87.536 92.595C87.1998 92.4453 86.8263 92.361 86.4247 92.361C86.0232 92.361 85.6403 92.4359 85.3041 92.5857C84.9679 92.7355 84.6784 92.9414 84.445 93.2035C84.2115 93.4657 84.0154 93.7652 83.8847 94.1116C83.7539 94.458 83.6792 94.8231 83.6792 95.2163V95.2443C83.6792 95.6375 83.7446 96.012 83.8847 96.3584C84.0248 96.7048 84.2115 97.0137 84.4637 97.2758C84.7158 97.5379 85.0053 97.7439 85.3415 97.903C85.6776 98.0528 86.0512 98.1371 86.4621 98.1371C86.8729 98.1371 87.2371 98.0622 87.5733 97.9124C87.9095 97.7626 88.199 97.5567 88.4418 97.2945C88.6846 97.0324 88.8713 96.7328 89.0021 96.3865C89.1328 96.0401 89.2075 95.675 89.2075 95.2818V95.2537H89.1982Z" fill="#10223E"/>
<path d="M100.359 95.2724C100.163 95.675 99.9014 96.012 99.5652 96.2835C99.229 96.5549 98.8368 96.7609 98.3886 96.892C97.9403 97.0324 97.4547 97.0979 96.9411 97.0979H95.4096V99.8502H93.3926V90.6759H97.1279C97.6789 90.6759 98.1644 90.7508 98.594 90.9099C99.0236 91.0691 99.3878 91.275 99.6959 91.5559C99.9948 91.8367 100.228 92.1738 100.387 92.5576C100.546 92.9414 100.63 93.3814 100.63 93.8495V93.8775C100.63 94.4112 100.536 94.8792 100.34 95.2818L100.359 95.2724ZM98.6127 93.8775C98.6127 93.4188 98.4633 93.0818 98.1738 92.8384C97.8843 92.6044 97.4827 92.4827 96.9785 92.4827H95.419V95.2911H97.0158C97.5201 95.2911 97.9123 95.1601 98.1925 94.8886C98.4726 94.6265 98.6127 94.2895 98.6127 93.8963V93.8682V93.8775Z" fill="#10223E"/>
</svg>
