<svg width="163" height="100" viewBox="0 0 163 100" fill="none" xmlns="http://www.w3.org/2000/svg">
<g clip-path="url(#clip0_54_5697)">
<path d="M61.297 51.6476V80.5561H55.0683V76.3902C52.8738 79.4514 49.4747 81.305 44.9736 81.305C37.1295 81.305 30.6113 74.6583 30.6113 66.1018C30.6113 57.5454 37.1295 50.8987 44.9736 50.8987C49.4747 50.8987 52.8738 52.7523 55.0683 55.7573V51.657H61.297V51.6476ZM55.0683 66.1018C55.0683 60.7283 51.1462 56.8526 45.9542 56.8526C40.7621 56.8526 36.84 60.7283 36.84 66.1018C36.84 71.4754 40.7621 75.351 45.9542 75.351C51.1462 75.351 55.0683 71.4754 55.0683 66.1018Z" fill="#49744F"/>
<path d="M83.6719 51.1233V57.8823C79.5817 57.5921 74.7911 59.5019 74.7911 65.9801V80.5466H68.5625V51.6382H74.7911V56.4968C76.5187 52.565 80.0393 51.1233 83.6719 51.1233Z" fill="#49744F"/>
<path d="M101.077 75.5757C104.532 75.5757 107.128 74.0123 108.519 71.9902L113.656 74.9953C111.003 78.9271 106.68 81.2956 101.03 81.2956C91.5144 81.2956 85.3418 74.7612 85.3418 66.0924C85.3418 57.4236 91.5144 50.8893 100.563 50.8893C109.612 50.8893 115.038 57.8262 115.038 66.1486C115.038 67.0192 114.926 67.9367 114.804 68.7511H91.8506C92.8311 73.2634 96.4637 75.5757 101.077 75.5757ZM108.753 63.6678C107.884 58.6968 104.252 56.553 100.507 56.553C95.838 56.553 92.663 59.324 91.7946 63.6678H108.753Z" fill="#49744F"/>
<path d="M0 66.1018C0 57.4892 6.51813 50.8987 15.2214 50.8987C20.8711 50.8987 25.7737 53.8476 28.0803 58.3598L22.7201 61.4772C21.4501 58.7624 18.6299 57.0305 15.1654 57.0305C10.0947 57.0305 6.22865 60.9062 6.22865 66.1112C6.22865 71.3162 10.0947 75.1919 15.1654 75.1919C18.6299 75.1919 21.4501 73.4038 22.8321 70.7358L28.1923 73.797C25.7737 78.3654 20.8711 81.3143 15.2214 81.3143C6.51813 81.3143 0 74.6676 0 66.1112L0 66.1018Z" fill="#49744F"/>
<path d="M148.293 50.8987H133.174V81.305H148.293C156.762 81.305 163 74.574 163 66.1018C163 57.6296 156.762 50.8987 148.293 50.8987ZM148.293 75.2574H139.197V56.9369H148.293C153.326 56.9369 156.977 60.7938 156.977 66.1018C156.977 71.4098 153.326 75.2668 148.293 75.2668V75.2574Z" fill="#49744F"/>
<path d="M124.106 69.94C126.221 69.94 127.935 68.2216 127.935 66.1018C127.935 63.982 126.221 62.2635 124.106 62.2635C121.992 62.2635 120.277 63.982 120.277 66.1018C120.277 68.2216 121.992 69.94 124.106 69.94Z" fill="#49744F"/>
<path d="M62.8477 3.1829C63.464 3.108 64.127 3.07056 64.818 3.07056C67.6756 3.07056 70.5144 3.7165 71.719 3.99735C72.8957 4.31564 74.754 5.04584 76.8458 6.70284C78.3959 8.01345 79.5072 9.59555 80.1515 11.4023L80.0114 11.4211C77.1633 11.8423 67.825 13.8363 62.857 22.3272V3.1829H62.8477Z" fill="#AA8D68"/>
<path d="M77.2193 38.2325C75.8746 38.2325 74.9314 38.1389 74.5859 38.1014C70.0288 37.9142 67.4234 36.3414 66.5176 35.6768L66.06 35.3023C64.0149 33.636 62.8477 31.2768 62.8477 28.8148C62.8477 24.1434 66.7697 20.3519 71.579 20.3519C73.5587 20.3519 75.4263 20.9885 76.9952 22.1962L77.1633 22.3179C77.7796 22.8047 79.9461 24.4148 80.4784 24.7799C83.6907 26.9705 87.4541 28.2343 90.8159 28.2343C93.7668 28.2343 96.3255 27.2607 98.2772 25.4165C97.5581 27.2607 96.2881 29.9288 94.2057 31.9602C88.8642 37.4087 81.2721 38.2231 77.2193 38.2231V38.2325Z" fill="#AA8D68"/>
<path d="M91.245 26.0906C88.2381 26.0906 85.6981 25.1544 84.0919 23.4413C82.7285 21.9996 82.1028 20.0617 82.2429 17.6933C82.2709 17.2533 82.2896 16.8601 82.355 16.4763C82.5884 15.3154 83.4569 9.32406 78.2648 4.80243C76.0423 2.97693 74.0532 2.17184 72.7645 1.8161C71.84 1.60079 70.0097 1.16079 67.918 0.964201C70.1031 0.449316 72.9046 -0.00939941 76.061 -0.00939941C82.0748 -0.00939941 87.5471 1.61015 92.3189 4.79307C96.213 7.2926 99.2947 11.73 99.995 15.8397C100.453 18.5452 99.8363 20.9792 98.2114 22.8796C96.4932 24.8829 93.8878 26.0812 91.245 26.0812V26.0906Z" fill="#AA8D68"/>
<path d="M45.7572 99.8408V96.1617H42.0405V99.8408H40.0234V90.6665H42.0405V94.2988H45.7572V90.6665H47.7742V99.8408H45.7572Z" fill="#10223E"/>
<path d="M59.2417 97.0979C58.9989 97.669 58.6628 98.1745 58.2332 98.6051C57.8036 99.0358 57.29 99.3822 56.6924 99.6256C56.0947 99.8783 55.4411 100 54.7407 100C54.0403 100 53.3866 99.8783 52.789 99.6256C52.2007 99.3728 51.6871 99.0451 51.2482 98.6145C50.8186 98.1932 50.4824 97.6877 50.2396 97.1167C49.9968 96.5456 49.8848 95.9277 49.8848 95.2724V95.2443C49.8848 94.589 50.0062 93.9712 50.249 93.4001C50.4918 92.8291 50.8279 92.3236 51.2668 91.8929C51.6964 91.4623 52.21 91.1159 52.8077 90.8725C53.4053 90.6197 54.059 90.498 54.7594 90.498C55.4597 90.498 56.1134 90.6197 56.7111 90.8725C57.2994 91.1253 57.813 91.4623 58.2519 91.8836C58.6814 92.3048 59.0176 92.8103 59.2604 93.3814C59.5032 93.9525 59.6246 94.5703 59.6246 95.2256V95.2537C59.6246 95.909 59.5032 96.5269 59.2604 97.0979H59.2417ZM57.5048 95.2537C57.5048 94.8605 57.4395 94.4861 57.2994 94.1397C57.1593 93.7933 56.9725 93.4844 56.7204 93.2223C56.4683 92.9601 56.1788 92.7542 55.8426 92.595C55.5064 92.4453 55.1329 92.361 54.7313 92.361C54.3298 92.361 53.9469 92.4359 53.6107 92.5857C53.2746 92.7355 52.9851 92.9414 52.7516 93.2035C52.5182 93.4657 52.3221 93.7652 52.1913 94.1116C52.0606 94.458 51.9859 94.8231 51.9859 95.2163V95.2443C51.9859 95.6375 52.0513 96.012 52.1913 96.3584C52.3314 96.7048 52.5182 97.0137 52.7703 97.2758C53.0224 97.5379 53.3119 97.7439 53.6481 97.903C53.9843 98.0528 54.3578 98.1371 54.7687 98.1371C55.1796 98.1371 55.5438 98.0622 55.88 97.9124C56.2161 97.7626 56.5056 97.5567 56.7484 97.2945C56.9912 97.0324 57.178 96.7328 57.3087 96.3865C57.4394 96.0401 57.5142 95.675 57.5142 95.2818V95.2537H57.5048Z" fill="#10223E"/>
<path d="M68.8788 99.8409V93.8495L66.3015 97.772H66.2454L63.6961 93.8963V99.8502H61.707V90.6759H63.8735L66.2828 94.5516L68.6921 90.6759H70.8586V99.8502H68.8695L68.8788 99.8409Z" fill="#10223E"/>
<path d="M73.3711 99.8408V90.6665H80.2628V92.4639H75.3601V94.3269H79.6744V96.1243H75.3601V98.0528H80.3281V99.8502H73.3711V99.8408Z" fill="#10223E"/>
<path d="M93.3361 99.0451C93.0839 99.2417 92.8038 99.4195 92.5049 99.56C92.2061 99.7004 91.8793 99.8127 91.5151 99.8876C91.1602 99.9625 90.7587 100 90.3104 100C89.6381 100 89.0124 99.8783 88.4428 99.6349C87.8638 99.3915 87.3689 99.0544 86.9487 98.6332C86.5284 98.2119 86.2016 97.7064 85.9681 97.1353C85.7347 96.5549 85.6133 95.9464 85.6133 95.2911V95.263C85.6133 94.6077 85.7347 93.9899 85.9681 93.4188C86.2016 92.8477 86.5284 92.3422 86.9487 91.9116C87.3689 91.481 87.8638 91.1346 88.4521 90.8912C89.0404 90.6384 89.6848 90.5167 90.3852 90.5167C90.8147 90.5167 91.2069 90.5542 91.5524 90.6197C91.9073 90.6946 92.2248 90.7882 92.5143 90.9099C92.8038 91.0316 93.0652 91.1814 93.308 91.3593C93.5508 91.5371 93.775 91.7244 93.9897 91.9397L92.7104 93.4188C92.3555 93.1005 91.9913 92.8384 91.6178 92.6605C91.2443 92.4733 90.8334 92.389 90.3665 92.389C89.9836 92.389 89.6287 92.4639 89.3019 92.6137C88.9751 92.7635 88.6949 92.9694 88.4615 93.2316C88.228 93.4937 88.0412 93.7933 87.9105 94.1396C87.7798 94.486 87.7144 94.8511 87.7144 95.2443V95.2724C87.7144 95.6656 87.7798 96.04 87.9105 96.3864C88.0412 96.7328 88.2187 97.0417 88.4521 97.3038C88.6856 97.566 88.9657 97.7719 89.2926 97.9311C89.6194 98.0808 89.9743 98.1651 90.3665 98.1651C90.8894 98.1651 91.3283 98.0715 91.6925 97.8749C92.0567 97.6783 92.4116 97.4162 92.7758 97.0885L94.0551 98.3898C93.8216 98.6425 93.5789 98.8672 93.3267 99.0732L93.3361 99.0451Z" fill="#10223E"/>
<path d="M102.804 99.8409L101.964 97.7814H98.098L97.2576 99.8409H95.2031L99.1252 90.6011H100.984L104.906 99.8409H102.804ZM100.031 93.0257L98.817 96.0027H101.245L100.031 93.0257Z" fill="#10223E"/>
<path d="M112.189 99.8408L110.228 96.9013H108.65V99.8408H106.633V90.6665H110.816C111.909 90.6665 112.749 90.9286 113.356 91.4622C113.963 91.9958 114.262 92.7354 114.262 93.6903V93.7184C114.262 94.4579 114.085 95.0664 113.721 95.5345C113.356 96.0026 112.889 96.349 112.301 96.5643L114.533 99.8408H112.18H112.189ZM112.226 93.8026C112.226 93.3626 112.086 93.035 111.806 92.8197C111.526 92.6043 111.143 92.492 110.639 92.492H108.641V95.1226H110.676C111.171 95.1226 111.554 95.0009 111.825 94.7669C112.086 94.5328 112.226 94.2145 112.226 93.8213V93.7933V93.8026Z" fill="#10223E"/>
<path d="M116.402 99.8408V90.6665H123.294V92.4639H118.391V94.3269H122.706V96.1243H118.391V98.0528H123.359V99.8502H116.402V99.8408Z" fill="#10223E"/>
</g>
<g clip-path="url(#clip1_54_5697)">
<path d="M61.297 51.6476V80.5561H55.0683V76.3902C52.8738 79.4514 49.4747 81.305 44.9736 81.305C37.1295 81.305 30.6113 74.6583 30.6113 66.1018C30.6113 57.5454 37.1295 50.8987 44.9736 50.8987C49.4747 50.8987 52.8738 52.7523 55.0683 55.7573V51.657H61.297V51.6476ZM55.0683 66.1018C55.0683 60.7283 51.1462 56.8526 45.9542 56.8526C40.7621 56.8526 36.84 60.7283 36.84 66.1018C36.84 71.4754 40.7621 75.351 45.9542 75.351C51.1462 75.351 55.0683 71.4754 55.0683 66.1018Z" fill="#49744F"/>
<path d="M83.6719 51.1233V57.8823C79.5817 57.5921 74.7911 59.5019 74.7911 65.9801V80.5466H68.5625V51.6382H74.7911V56.4968C76.5187 52.565 80.0393 51.1233 83.6719 51.1233Z" fill="#49744F"/>
<path d="M101.077 75.5757C104.532 75.5757 107.128 74.0123 108.519 71.9902L113.656 74.9953C111.003 78.9271 106.68 81.2956 101.03 81.2956C91.5144 81.2956 85.3418 74.7612 85.3418 66.0924C85.3418 57.4236 91.5144 50.8893 100.563 50.8893C109.612 50.8893 115.038 57.8262 115.038 66.1486C115.038 67.0192 114.926 67.9367 114.804 68.7511H91.8506C92.8311 73.2634 96.4637 75.5757 101.077 75.5757ZM108.753 63.6678C107.884 58.6968 104.252 56.553 100.507 56.553C95.838 56.553 92.663 59.324 91.7946 63.6678H108.753Z" fill="#49744F"/>
<path d="M0 66.1018C0 57.4892 6.51813 50.8987 15.2214 50.8987C20.8711 50.8987 25.7737 53.8476 28.0803 58.3598L22.7201 61.4772C21.4501 58.7624 18.6299 57.0305 15.1654 57.0305C10.0947 57.0305 6.22865 60.9062 6.22865 66.1112C6.22865 71.3162 10.0947 75.1919 15.1654 75.1919C18.6299 75.1919 21.4501 73.4038 22.8321 70.7358L28.1923 73.797C25.7737 78.3654 20.8711 81.3143 15.2214 81.3143C6.51813 81.3143 0 74.6676 0 66.1112L0 66.1018Z" fill="#49744F"/>
<path d="M148.293 50.8987H133.174V81.305H148.293C156.762 81.305 163 74.574 163 66.1018C163 57.6296 156.762 50.8987 148.293 50.8987ZM148.293 75.2574H139.197V56.9369H148.293C153.326 56.9369 156.977 60.7938 156.977 66.1018C156.977 71.4098 153.326 75.2668 148.293 75.2668V75.2574Z" fill="#49744F"/>
<path d="M124.106 69.94C126.221 69.94 127.935 68.2216 127.935 66.1018C127.935 63.982 126.221 62.2635 124.106 62.2635C121.992 62.2635 120.277 63.982 120.277 66.1018C120.277 68.2216 121.992 69.94 124.106 69.94Z" fill="#49744F"/>
<path d="M62.8477 3.1829C63.464 3.108 64.127 3.07056 64.818 3.07056C67.6756 3.07056 70.5144 3.7165 71.719 3.99735C72.8957 4.31564 74.754 5.04584 76.8458 6.70284C78.3959 8.01345 79.5072 9.59555 80.1515 11.4023L80.0114 11.4211C77.1633 11.8423 67.825 13.8363 62.857 22.3272V3.1829H62.8477Z" fill="#AA8D68"/>
<path d="M77.2193 38.2325C75.8746 38.2325 74.9314 38.1389 74.5859 38.1014C70.0288 37.9142 67.4234 36.3414 66.5176 35.6768L66.06 35.3023C64.0149 33.636 62.8477 31.2768 62.8477 28.8148C62.8477 24.1434 66.7697 20.3519 71.579 20.3519C73.5587 20.3519 75.4263 20.9885 76.9952 22.1962L77.1633 22.3179C77.7796 22.8047 79.9461 24.4148 80.4784 24.7799C83.6907 26.9705 87.4541 28.2343 90.8159 28.2343C93.7668 28.2343 96.3255 27.2607 98.2772 25.4165C97.5581 27.2607 96.2881 29.9288 94.2057 31.9602C88.8642 37.4087 81.2721 38.2231 77.2193 38.2231V38.2325Z" fill="#AA8D68"/>
<path d="M91.245 26.0906C88.2381 26.0906 85.6981 25.1544 84.0919 23.4413C82.7285 21.9996 82.1028 20.0617 82.2429 17.6933C82.2709 17.2533 82.2896 16.8601 82.355 16.4763C82.5884 15.3154 83.4569 9.32406 78.2648 4.80243C76.0423 2.97693 74.0532 2.17184 72.7645 1.8161C71.84 1.60079 70.0097 1.16079 67.918 0.964201C70.1031 0.449316 72.9046 -0.00939941 76.061 -0.00939941C82.0748 -0.00939941 87.5471 1.61015 92.3189 4.79307C96.213 7.2926 99.2947 11.73 99.995 15.8397C100.453 18.5452 99.8363 20.9792 98.2114 22.8796C96.4932 24.8829 93.8878 26.0812 91.245 26.0812V26.0906Z" fill="#AA8D68"/>
<path d="M45.7572 99.8408V96.1617H42.0405V99.8408H40.0234V90.6665H42.0405V94.2988H45.7572V90.6665H47.7742V99.8408H45.7572Z" fill="#10223E"/>
<path d="M59.2417 97.0979C58.9989 97.669 58.6628 98.1745 58.2332 98.6051C57.8036 99.0358 57.29 99.3822 56.6924 99.6256C56.0947 99.8783 55.4411 100 54.7407 100C54.0403 100 53.3866 99.8783 52.789 99.6256C52.2007 99.3728 51.6871 99.0451 51.2482 98.6145C50.8186 98.1932 50.4824 97.6877 50.2396 97.1167C49.9968 96.5456 49.8848 95.9277 49.8848 95.2724V95.2443C49.8848 94.589 50.0062 93.9712 50.249 93.4001C50.4918 92.8291 50.8279 92.3236 51.2668 91.8929C51.6964 91.4623 52.21 91.1159 52.8077 90.8725C53.4053 90.6197 54.059 90.498 54.7594 90.498C55.4597 90.498 56.1134 90.6197 56.7111 90.8725C57.2994 91.1253 57.813 91.4623 58.2519 91.8836C58.6814 92.3048 59.0176 92.8103 59.2604 93.3814C59.5032 93.9525 59.6246 94.5703 59.6246 95.2256V95.2537C59.6246 95.909 59.5032 96.5269 59.2604 97.0979H59.2417ZM57.5048 95.2537C57.5048 94.8605 57.4395 94.4861 57.2994 94.1397C57.1593 93.7933 56.9725 93.4844 56.7204 93.2223C56.4683 92.9601 56.1788 92.7542 55.8426 92.595C55.5064 92.4453 55.1329 92.361 54.7313 92.361C54.3298 92.361 53.9469 92.4359 53.6107 92.5857C53.2746 92.7355 52.9851 92.9414 52.7516 93.2035C52.5182 93.4657 52.3221 93.7652 52.1913 94.1116C52.0606 94.458 51.9859 94.8231 51.9859 95.2163V95.2443C51.9859 95.6375 52.0513 96.012 52.1913 96.3584C52.3314 96.7048 52.5182 97.0137 52.7703 97.2758C53.0224 97.5379 53.3119 97.7439 53.6481 97.903C53.9843 98.0528 54.3578 98.1371 54.7687 98.1371C55.1796 98.1371 55.5438 98.0622 55.88 97.9124C56.2161 97.7626 56.5056 97.5567 56.7484 97.2945C56.9912 97.0324 57.178 96.7328 57.3087 96.3865C57.4394 96.0401 57.5142 95.675 57.5142 95.2818V95.2537H57.5048Z" fill="#10223E"/>
<path d="M68.8788 99.8409V93.8495L66.3015 97.772H66.2454L63.6961 93.8963V99.8502H61.707V90.6759H63.8735L66.2828 94.5516L68.6921 90.6759H70.8586V99.8502H68.8695L68.8788 99.8409Z" fill="#10223E"/>
<path d="M73.3711 99.8408V90.6665H80.2628V92.4639H75.3601V94.3269H79.6744V96.1243H75.3601V98.0528H80.3281V99.8502H73.3711V99.8408Z" fill="#10223E"/>
<path d="M93.3361 99.0451C93.0839 99.2417 92.8038 99.4195 92.5049 99.56C92.2061 99.7004 91.8793 99.8127 91.5151 99.8876C91.1602 99.9625 90.7587 100 90.3104 100C89.6381 100 89.0124 99.8783 88.4428 99.6349C87.8638 99.3915 87.3689 99.0544 86.9487 98.6332C86.5284 98.2119 86.2016 97.7064 85.9681 97.1353C85.7347 96.5549 85.6133 95.9464 85.6133 95.2911V95.263C85.6133 94.6077 85.7347 93.9899 85.9681 93.4188C86.2016 92.8477 86.5284 92.3422 86.9487 91.9116C87.3689 91.481 87.8638 91.1346 88.4521 90.8912C89.0404 90.6384 89.6848 90.5167 90.3852 90.5167C90.8147 90.5167 91.2069 90.5542 91.5524 90.6197C91.9073 90.6946 92.2248 90.7882 92.5143 90.9099C92.8038 91.0316 93.0652 91.1814 93.308 91.3593C93.5508 91.5371 93.775 91.7244 93.9897 91.9397L92.7104 93.4188C92.3555 93.1005 91.9913 92.8384 91.6178 92.6605C91.2443 92.4733 90.8334 92.389 90.3665 92.389C89.9836 92.389 89.6287 92.4639 89.3019 92.6137C88.9751 92.7635 88.6949 92.9694 88.4615 93.2316C88.228 93.4937 88.0412 93.7933 87.9105 94.1396C87.7798 94.486 87.7144 94.8511 87.7144 95.2443V95.2724C87.7144 95.6656 87.7798 96.04 87.9105 96.3864C88.0412 96.7328 88.2187 97.0417 88.4521 97.3038C88.6856 97.566 88.9657 97.7719 89.2926 97.9311C89.6194 98.0808 89.9743 98.1651 90.3665 98.1651C90.8894 98.1651 91.3283 98.0715 91.6925 97.8749C92.0567 97.6783 92.4116 97.4162 92.7758 97.0885L94.0551 98.3898C93.8216 98.6425 93.5789 98.8672 93.3267 99.0732L93.3361 99.0451Z" fill="#10223E"/>
<path d="M102.804 99.8409L101.964 97.7814H98.098L97.2576 99.8409H95.2031L99.1252 90.6011H100.984L104.906 99.8409H102.804ZM100.031 93.0257L98.817 96.0027H101.245L100.031 93.0257Z" fill="#10223E"/>
<path d="M112.189 99.8408L110.228 96.9013H108.65V99.8408H106.633V90.6665H110.816C111.909 90.6665 112.749 90.9286 113.356 91.4622C113.963 91.9958 114.262 92.7354 114.262 93.6903V93.7184C114.262 94.4579 114.085 95.0664 113.721 95.5345C113.356 96.0026 112.889 96.349 112.301 96.5643L114.533 99.8408H112.18H112.189ZM112.226 93.8026C112.226 93.3626 112.086 93.035 111.806 92.8197C111.526 92.6043 111.143 92.492 110.639 92.492H108.641V95.1226H110.676C111.171 95.1226 111.554 95.0009 111.825 94.7669C112.086 94.5328 112.226 94.2145 112.226 93.8213V93.7933V93.8026Z" fill="#10223E"/>
<path d="M116.402 99.8408V90.6665H123.294V92.4639H118.391V94.3269H122.706V96.1243H118.391V98.0528H123.359V99.8502H116.402V99.8408Z" fill="#10223E"/>
</g>
<defs>
<clipPath id="clip0_54_5697">
<rect width="163" height="100" fill="white"/>
</clipPath>
<clipPath id="clip1_54_5697">
<rect width="163" height="100" fill="white"/>
</clipPath>
</defs>
</svg>
