<svg width="163" height="100" viewBox="0 0 163 100" fill="none" xmlns="http://www.w3.org/2000/svg">
<g clip-path="url(#clip0_54_5589)">
<path d="M61.297 51.6474V80.5558H55.0683V76.3899C52.8738 79.4511 49.4747 81.3047 44.9736 81.3047C37.1295 81.3047 30.6113 74.658 30.6113 66.1016C30.6113 57.5451 37.1295 50.8984 44.9736 50.8984C49.4747 50.8984 52.8738 52.752 55.0683 55.7571V51.6567H61.297V51.6474ZM55.0683 66.1016C55.0683 60.7281 51.1462 56.8524 45.9542 56.8524C40.7621 56.8524 36.84 60.7281 36.84 66.1016C36.84 71.4751 40.7621 75.3508 45.9542 75.3508C51.1462 75.3508 55.0683 71.4751 55.0683 66.1016Z" fill="white"/>
<path d="M83.6719 51.123V57.8821C79.5817 57.5919 74.7911 59.5016 74.7911 65.9798V80.5464H68.5625V51.6379H74.7911V56.4966C76.5187 52.5647 80.0393 51.123 83.6719 51.123Z" fill="white"/>
<path d="M101.077 75.5751C104.532 75.5751 107.128 74.0117 108.519 71.9896L113.656 74.9946C111.003 78.9265 106.68 81.295 101.03 81.295C91.5144 81.295 85.3418 74.7606 85.3418 66.0918C85.3418 57.423 91.5144 50.8887 100.563 50.8887C109.612 50.8887 115.038 57.8256 115.038 66.148C115.038 67.0186 114.926 67.936 114.804 68.7505H91.8506C92.8311 73.2628 96.4637 75.5751 101.077 75.5751ZM108.753 63.6672C107.884 58.6962 104.252 56.5524 100.507 56.5524C95.838 56.5524 92.663 59.3234 91.7946 63.6672H108.753Z" fill="white"/>
<path d="M0 66.1016C0 57.489 6.51813 50.8984 15.2214 50.8984C20.8711 50.8984 25.7737 53.8473 28.0803 58.3596L22.7201 61.477C21.4501 58.7621 18.6299 57.0302 15.1654 57.0302C10.0947 57.0302 6.22865 60.9059 6.22865 66.1109C6.22865 71.316 10.0947 75.1916 15.1654 75.1916C18.6299 75.1916 21.4501 73.4036 22.8321 70.7355L28.1923 73.7968C25.7737 78.3652 20.8711 81.3141 15.2214 81.3141C6.51813 81.3141 0 74.6674 0 66.1109L0 66.1016Z" fill="white"/>
<path d="M148.293 50.8984H133.174V81.3047H148.293C156.762 81.3047 163 74.5738 163 66.1016C163 57.6294 156.762 50.8984 148.293 50.8984ZM148.293 75.2572H139.197V56.9366H148.293C153.326 56.9366 156.977 60.7936 156.977 66.1016C156.977 71.4096 153.326 75.2665 148.293 75.2665V75.2572Z" fill="white"/>
<path d="M124.106 69.9401C126.221 69.9401 127.935 68.2217 127.935 66.1019C127.935 63.9821 126.221 62.2637 124.106 62.2637C121.992 62.2637 120.277 63.9821 120.277 66.1019C120.277 68.2217 121.992 69.9401 124.106 69.9401Z" fill="white"/>
<path d="M62.8477 3.18265C63.464 3.10776 64.127 3.07031 64.818 3.07031C67.6756 3.07031 70.5144 3.71626 71.719 3.99711C72.8957 4.3154 74.754 5.0456 76.8458 6.70259C78.3959 8.01321 79.5072 9.59531 80.1515 11.4021L80.0114 11.4208C77.1633 11.8421 67.825 13.8361 62.857 22.327V3.18265H62.8477Z" fill="#AA8D68"/>
<path d="M77.2193 38.2321C75.8746 38.2321 74.9314 38.1385 74.5859 38.101C70.0288 37.9138 67.4234 36.3411 66.5176 35.6764L66.06 35.3019C64.0149 33.6356 62.8477 31.2765 62.8477 28.8144C62.8477 24.143 66.7697 20.3516 71.579 20.3516C73.5587 20.3516 75.4263 20.9881 76.9952 22.1958L77.1633 22.3175C77.7796 22.8043 79.9461 24.4145 80.4784 24.7796C83.6907 26.9702 87.4541 28.234 90.8159 28.234C93.7668 28.234 96.3255 27.2604 98.2772 25.4162C97.5581 27.2604 96.2881 29.9284 94.2057 31.9599C88.8642 37.4083 81.2721 38.2227 77.2193 38.2227V38.2321Z" fill="#AA8D68"/>
<path d="M91.245 26.0902C88.2381 26.0902 85.6981 25.1541 84.0919 23.4409C82.7285 21.9992 82.1028 20.0614 82.2429 17.6929C82.2709 17.2529 82.2896 16.8597 82.355 16.4759C82.5884 15.3151 83.4569 9.32369 78.2648 4.80207C76.0423 2.97657 74.0532 2.17147 72.7645 1.81574C71.84 1.60042 70.0097 1.16043 67.918 0.963835C70.1031 0.44895 72.9046 -0.00976562 76.061 -0.00976562C82.0748 -0.00976562 87.5471 1.60978 92.3189 4.79271C96.213 7.29224 99.2947 11.7296 99.995 15.8393C100.453 18.5448 99.8363 20.9788 98.2114 22.8792C96.4932 24.8826 93.8878 26.0809 91.245 26.0809V26.0902Z" fill="#AA8D68"/>
<path d="M45.7572 99.8413V96.1622H42.0405V99.8413H40.0234V90.667H42.0405V94.2993H45.7572V90.667H47.7742V99.8413H45.7572Z" fill="white"/>
<path d="M59.2417 97.0979C58.9989 97.669 58.6628 98.1745 58.2332 98.6051C57.8036 99.0358 57.29 99.3822 56.6924 99.6256C56.0947 99.8783 55.4411 100 54.7407 100C54.0403 100 53.3866 99.8783 52.789 99.6256C52.2007 99.3728 51.6871 99.0451 51.2482 98.6145C50.8186 98.1932 50.4824 97.6877 50.2396 97.1167C49.9968 96.5456 49.8848 95.9277 49.8848 95.2724V95.2443C49.8848 94.589 50.0062 93.9712 50.249 93.4001C50.4918 92.8291 50.8279 92.3236 51.2668 91.8929C51.6964 91.4623 52.21 91.1159 52.8077 90.8725C53.4053 90.6197 54.059 90.498 54.7594 90.498C55.4597 90.498 56.1134 90.6197 56.7111 90.8725C57.2994 91.1253 57.813 91.4623 58.2519 91.8836C58.6814 92.3048 59.0176 92.8103 59.2604 93.3814C59.5032 93.9525 59.6246 94.5703 59.6246 95.2256V95.2537C59.6246 95.909 59.5032 96.5269 59.2604 97.0979H59.2417ZM57.5048 95.2537C57.5048 94.8605 57.4395 94.4861 57.2994 94.1397C57.1593 93.7933 56.9725 93.4844 56.7204 93.2223C56.4683 92.9601 56.1788 92.7542 55.8426 92.595C55.5064 92.4453 55.1329 92.361 54.7313 92.361C54.3298 92.361 53.9469 92.4359 53.6107 92.5857C53.2746 92.7355 52.9851 92.9414 52.7516 93.2035C52.5182 93.4657 52.3221 93.7652 52.1913 94.1116C52.0606 94.458 51.9859 94.8231 51.9859 95.2163V95.2443C51.9859 95.6375 52.0513 96.012 52.1913 96.3584C52.3314 96.7048 52.5182 97.0137 52.7703 97.2758C53.0224 97.5379 53.3119 97.7439 53.6481 97.903C53.9843 98.0528 54.3578 98.1371 54.7687 98.1371C55.1796 98.1371 55.5438 98.0622 55.88 97.9124C56.2161 97.7626 56.5056 97.5567 56.7484 97.2945C56.9912 97.0324 57.178 96.7328 57.3087 96.3865C57.4394 96.0401 57.5142 95.675 57.5142 95.2818V95.2537H57.5048Z" fill="white"/>
<path d="M68.8788 99.8407V93.8493L66.3015 97.7718H66.2454L63.6961 93.8962V99.8501H61.707V90.6758H63.8735L66.2828 94.5515L68.6921 90.6758H70.8586V99.8501H68.8695L68.8788 99.8407Z" fill="white"/>
<path d="M73.3711 99.8403V90.666H80.2628V92.4634H75.3601V94.3264H79.6744V96.1238H75.3601V98.0523H80.3281V99.8497H73.3711V99.8403Z" fill="white"/>
<path d="M93.3361 99.045C93.0839 99.2416 92.8038 99.4194 92.5049 99.5598C92.2061 99.7003 91.8793 99.8126 91.5151 99.8875C91.1602 99.9624 90.7587 99.9998 90.3104 99.9998C89.6381 99.9998 89.0124 99.8781 88.4428 99.6347C87.8638 99.3913 87.3689 99.0543 86.9487 98.6331C86.5284 98.2118 86.2016 97.7063 85.9681 97.1352C85.7347 96.5548 85.6133 95.9463 85.6133 95.291V95.2629C85.6133 94.6076 85.7347 93.9897 85.9681 93.4187C86.2016 92.8476 86.5284 92.3421 86.9487 91.9115C87.3689 91.4808 87.8638 91.1345 88.4521 90.8911C89.0404 90.6383 89.6848 90.5166 90.3852 90.5166C90.8147 90.5166 91.2069 90.554 91.5524 90.6196C91.9073 90.6945 92.2248 90.7881 92.5143 90.9098C92.8038 91.0315 93.0652 91.1813 93.308 91.3591C93.5508 91.537 93.775 91.7242 93.9897 91.9396L92.7104 93.4187C92.3555 93.1004 91.9913 92.8383 91.6178 92.6604C91.2443 92.4732 90.8334 92.3889 90.3665 92.3889C89.9836 92.3889 89.6287 92.4638 89.3019 92.6136C88.9751 92.7634 88.6949 92.9693 88.4615 93.2314C88.228 93.4936 88.0412 93.7931 87.9105 94.1395C87.7798 94.4859 87.7144 94.851 87.7144 95.2442V95.2723C87.7144 95.6654 87.7798 96.0399 87.9105 96.3863C88.0412 96.7327 88.2187 97.0416 88.4521 97.3037C88.6856 97.5658 88.9657 97.7718 89.2926 97.9309C89.6194 98.0807 89.9743 98.165 90.3665 98.165C90.8894 98.165 91.3283 98.0714 91.6925 97.8748C92.0567 97.6782 92.4116 97.4161 92.7758 97.0884L94.0551 98.3897C93.8216 98.6424 93.5789 98.8671 93.3267 99.0731L93.3361 99.045Z" fill="white"/>
<path d="M102.804 99.8414L101.964 97.7819H98.098L97.2576 99.8414H95.2031L99.1252 90.6016H100.984L104.906 99.8414H102.804ZM100.031 93.0262L98.817 96.0032H101.245L100.031 93.0262Z" fill="white"/>
<path d="M112.189 99.8403L110.228 96.9008H108.65V99.8403H106.633V90.666H110.816C111.909 90.666 112.749 90.9281 113.356 91.4617C113.963 91.9954 114.262 92.7349 114.262 93.6898V93.7179C114.262 94.4574 114.085 95.0659 113.721 95.534C113.356 96.0021 112.889 96.3485 112.301 96.5638L114.533 99.8403H112.18H112.189ZM112.226 93.8021C112.226 93.3621 112.086 93.0345 111.806 92.8192C111.526 92.6039 111.143 92.4915 110.639 92.4915H108.641V95.1221H110.676C111.171 95.1221 111.554 95.0004 111.825 94.7664C112.086 94.5323 112.226 94.214 112.226 93.8209V93.7928V93.8021Z" fill="white"/>
<path d="M116.402 99.8403V90.666H123.294V92.4634H118.391V94.3264H122.706V96.1238H118.391V98.0523H123.359V99.8497H116.402V99.8403Z" fill="white"/>
</g>
<defs>
<clipPath id="clip0_54_5589">
<rect width="163" height="100" fill="white"/>
</clipPath>
</defs>
</svg>
