<svg width="28" height="27" viewBox="0 0 28 27" fill="none" xmlns="http://www.w3.org/2000/svg">
<path d="M0.954102 2.23461C1.38515 2.18219 1.84886 2.15598 2.33216 2.15598C4.33067 2.15598 6.31612 2.60814 7.15863 2.80473C7.98154 3.02753 9.28123 3.53868 10.7442 4.69857C11.8283 5.616 12.6055 6.72347 13.0562 7.98822L12.9582 8.00132C10.9662 8.29621 4.43516 9.69202 0.960629 15.6357V2.23461H0.954102Z" fill="#AA8D68"/>
<path d="M11.0054 26.7693C10.065 26.7693 9.40532 26.7038 9.16367 26.6776C5.9765 26.5465 4.15433 25.4456 3.52082 24.9804L3.20079 24.7182C1.77048 23.5518 0.954102 21.9004 0.954102 20.1769C0.954102 16.907 3.69715 14.253 7.06066 14.253C8.44525 14.253 9.75146 14.6986 10.8487 15.5439L10.9662 15.6291C11.3973 15.9699 12.9125 17.097 13.2848 17.3526C15.5315 18.886 18.1635 19.7707 20.5147 19.7707C22.5785 19.7707 24.368 19.0891 25.733 17.7982C25.2301 19.0891 24.3419 20.9568 22.8855 22.3788C19.1497 26.1927 13.8399 26.7628 11.0054 26.7628V26.7693Z" fill="#AA8D68"/>
<path d="M20.8151 18.27C18.7121 18.27 16.9357 17.6147 15.8123 16.4155C14.8588 15.4063 14.4212 14.0498 14.5192 12.3919C14.5388 12.0839 14.5518 11.8086 14.5975 11.54C14.7608 10.7274 15.3682 6.53342 11.7369 3.36828C10.1825 2.09043 8.7914 1.52687 7.89012 1.27785C7.24354 1.12713 5.96345 0.819135 4.50049 0.68152C6.02876 0.321101 7.98808 0 10.1956 0C14.4016 0 18.2288 1.13368 21.5662 3.36173C24.2897 5.1114 26.4449 8.21756 26.9347 11.0944C27.2548 12.9882 26.8237 14.692 25.6873 16.0223C24.4856 17.4246 22.6634 18.2634 20.8151 18.2634V18.27Z" fill="#AA8D68"/>
</svg>
