<svg width="77" height="101" viewBox="0 0 77 101" fill="none" xmlns="http://www.w3.org/2000/svg">
<path d="M30.9516 66.911V59.5249C30.9516 59.5249 15.86 49.3574 15.86 39.0081C15.86 35.9138 18.1517 32.6899 21.1995 32.6899C24.2474 32.6899 28.0744 34.9189 32.1857 40.9406V31.386C32.1857 31.386 27.342 26.5729 21.0103 26.5729C14.6786 26.5729 9.78809 32.3816 9.78809 38.9731C9.78809 46.3941 15.1394 57.2051 30.9516 66.9117V66.911Z" fill="#EC3593"/>
<path d="M54.3865 41.5073C54.5194 40.6263 54.5832 39.7796 54.5832 38.9731C54.5832 32.3816 49.6927 26.5729 43.361 26.5729C37.0293 26.5729 32.1855 31.386 32.1855 31.386V40.9406C36.2968 34.9181 40.1239 32.6899 43.1718 32.6899C46.2196 32.6899 48.5112 35.9145 48.5112 39.0081C48.5112 39.8459 48.4125 40.6822 48.2307 41.5126L54.3873 41.5073H54.3865Z" fill="#ED1B23"/>
<path d="M51.4255 50.9026L48.224 56.2243C48.224 56.2243 55.5494 55.7499 60.6151 62.036C60.6151 62.036 66.4792 59.4415 66.7108 54.9278V24.1317C66.7108 24.1317 41.9911 26.0716 32.1855 0V15.0186C32.1855 15.0186 42.1595 27.5901 60.5728 29.8265V54.084C60.5728 54.084 57.5813 51.3926 51.4255 50.9033V50.9026Z" fill="#ED1B23"/>
<path d="M10.708 24.1242C17.151 22.0688 27.7105 13.5277 32.1862 0V15.0186C32.1862 15.0186 25.1458 27.7167 10.7088 24.1242H10.708Z" fill="#FFD202"/>
<path d="M66.71 24.1309C66.71 24.1309 41.9911 26.0716 32.1855 0V15.0186C32.1855 15.0186 42.1595 27.5901 60.5728 29.8265C60.5728 29.8265 64.7857 28.1486 66.7108 24.1309H66.71Z" fill="#F68D1D"/>
<path d="M37.2527 35.1832C35.8167 36.6853 33.9392 38.3714 32.1855 40.9406V31.386C32.1855 31.386 37.0293 26.5729 43.361 26.5729C45.7157 26.5729 47.8708 27.3757 49.6489 28.7236C49.6489 28.7236 44.2293 27.8858 37.2527 35.1832Z" fill="#F68D1D"/>
<path d="M27.4999 35.5027C28.9983 36.7926 30.57 38.5732 32.1856 40.9406V31.386C32.1856 31.386 27.3419 26.5729 21.0102 26.5729C18.6688 26.5729 16.5249 27.3667 14.752 28.7013C14.752 28.7013 17.9631 28.3885 21.8035 30.8892C25.6439 33.39 27.4999 35.5027 27.4999 35.5027Z" fill="#FFD202"/>
<path d="M39.729 66.9065L54.7233 43.1807H24.7354L39.729 66.9065Z" fill="#EE2C23"/>
<path d="M30.5469 44.0051V44.4884C30.5469 44.5264 30.5165 44.5569 30.4786 44.5569H28.7725C28.728 44.5569 28.6924 44.5927 28.6924 44.6373V44.8868C28.6924 44.9315 28.728 44.9673 28.7725 44.9673H30.4786C30.5165 44.9673 30.5469 44.9978 30.5469 45.0358V45.2473C30.5469 45.2852 30.5165 45.3158 30.4786 45.3158H28.7725C28.728 45.3158 28.6924 45.3515 28.6924 45.3962V46.619C28.6924 46.8164 28.8519 46.9765 29.0486 46.9765H30.072C30.0972 46.9765 30.118 46.9556 30.118 46.9303V46.5267C30.118 46.5014 30.0972 46.4805 30.072 46.4805H29.7944C29.7692 46.4805 29.7484 46.4597 29.7484 46.4343V45.8996C29.7484 45.8743 29.7692 45.8535 29.7944 45.8535H30.4779C30.5157 45.8535 30.5462 45.884 30.5462 45.922V46.8983C30.5462 46.9422 30.5818 46.978 30.6256 46.978H31.4649C31.5087 46.978 31.5443 46.9422 31.5443 46.8983V44.0058C31.5443 43.9619 31.5087 43.9261 31.4649 43.9261H30.6256C30.5818 43.9261 30.5462 43.9619 30.5462 44.0058L30.5469 44.0051Z" fill="white"/>
<path d="M47.9199 44.6009V44.8838C47.9199 44.9427 47.9674 44.9903 48.026 44.9903H49.5748C49.6639 44.9903 49.7359 45.0626 49.7359 45.1519V46.3636C49.7359 46.453 49.6639 46.5252 49.5748 46.5252H49.1956C49.137 46.5252 49.0895 46.5729 49.0895 46.6317V46.8715C49.0895 46.9303 49.137 46.978 49.1956 46.978H50.636C50.6947 46.978 50.7422 46.9303 50.7422 46.8715V44.9702C50.7422 44.7081 50.5307 44.4958 50.2694 44.4958H48.0275C47.9689 44.4958 47.9214 44.5435 47.9214 44.6023L47.9199 44.6009Z" fill="white"/>
<path d="M40.2996 59.5793L39.6889 60.7157C39.6792 60.7336 39.6525 60.7269 39.6525 60.7068V59.9114C39.6525 59.6902 39.4736 59.5115 39.254 59.5115H38.2781C38.1534 59.5115 38.0518 59.6128 38.0518 59.7386V59.8965C38.0518 59.939 38.0859 59.974 38.1289 59.974H38.3798C38.4532 59.974 38.5126 60.0336 38.5126 60.1073V61.9877C38.5126 62.0301 38.5467 62.0651 38.5898 62.0651H39.6198C39.6488 62.0651 39.6748 62.0495 39.6881 62.0234L40.3568 60.7425C40.3664 60.7246 40.3931 60.7314 40.3931 60.7515V61.9869C40.3931 62.0294 40.4273 62.0644 40.4703 62.0644H41.3289C41.3712 62.0644 41.4061 62.0301 41.4061 61.9869V59.8489C41.4061 59.6619 41.2555 59.5108 41.0699 59.5108L40.4169 59.5093C40.3679 59.5093 40.3226 59.5361 40.2996 59.5793Z" fill="white"/>
<path d="M39.729 57.7621C43.7964 57.7621 47.0937 54.743 47.0937 51.0188C47.0937 47.2945 43.7964 44.2754 39.729 44.2754C35.6615 44.2754 32.3643 47.2945 32.3643 51.0188C32.3643 54.743 35.6615 57.7621 39.729 57.7621Z" fill="white"/>
<path d="M39.7756 49.6343C39.7355 49.6887 39.714 49.7364 39.6947 49.7848C39.57 50.0998 39.4431 50.4133 39.3222 50.7298C39.2836 50.8296 39.2205 50.8914 39.1166 50.913C39.0669 50.9234 39.0179 50.9346 38.9697 50.9487C38.8851 50.9733 38.8613 50.9994 38.8658 51.0865C38.8739 51.269 38.8858 51.4507 38.8984 51.6324C38.9237 52.0033 38.9511 52.3734 38.9771 52.7442C38.9838 52.8396 38.957 52.9267 38.9044 53.0064C38.7923 53.1784 38.6669 53.3408 38.5474 53.5076C38.5244 53.5396 38.5118 53.5403 38.4895 53.5076C38.4554 53.4584 38.4198 53.4108 38.3908 53.3579C38.2736 53.1427 38.1133 52.9684 37.9018 52.844C37.835 52.8053 37.7994 52.7495 37.786 52.6735C37.7637 52.5454 37.7548 52.4173 37.7793 52.2885C37.8186 52.0815 37.9352 51.928 38.1073 51.8126C38.2142 51.7411 38.229 51.6912 38.183 51.5736C38.1185 51.4067 38.1452 51.295 38.278 51.1774C38.2921 51.1655 38.3062 51.1535 38.3203 51.1416C38.4762 51.0076 38.4836 50.8691 38.3433 50.7201C38.3055 50.6799 38.2632 50.6434 38.2246 50.6039C38.1378 50.5146 38.1303 50.4751 38.183 50.3634C38.2253 50.274 38.2713 50.1862 38.3166 50.0983C38.7084 49.3364 39.1003 48.5739 39.4387 47.7859C39.4891 47.6675 39.5396 47.5484 39.5864 47.4285C39.6264 47.3257 39.6954 47.2646 39.8031 47.2364C40.045 47.173 40.2862 47.1045 40.5274 47.0368C40.6127 47.0129 40.6402 46.9779 40.6372 46.9094C40.6342 46.8424 40.6008 46.8052 40.5363 46.8186C40.376 46.8506 40.2854 46.7761 40.2209 46.6391C40.1593 46.5095 40.0702 46.3971 39.9945 46.2757C39.9567 46.2146 39.9485 46.1617 40.0056 46.1029C40.0799 46.0262 40.1014 45.9249 40.1036 45.8221C40.1058 45.7298 40.1066 45.6382 40.0925 45.5459C40.0613 45.347 40.1385 45.1966 40.3077 45.0968C40.4628 45.0052 40.632 44.9441 40.8064 44.9009C40.8932 44.8793 40.9793 44.8905 41.0654 44.9121C41.2717 44.9635 41.4565 45.0536 41.6242 45.1854C41.8112 45.3329 41.8676 45.5161 41.8305 45.7484C41.783 46.0456 41.6813 46.3181 41.5084 46.5639C41.4394 46.6622 41.429 46.7784 41.4149 46.893C41.4105 46.9273 41.4372 46.9414 41.4594 46.9571C41.5173 46.9973 41.5856 47.0114 41.6509 47.033C41.7837 47.0777 41.9173 47.1209 42.0516 47.1611C42.2119 47.2081 42.3144 47.3101 42.373 47.4665C42.6201 48.1263 42.8709 48.7854 43.1173 49.4459C43.1589 49.5576 43.2264 49.6418 43.3288 49.6991C43.3652 49.7192 43.4053 49.7356 43.4349 49.7624C43.5062 49.828 43.5685 49.8123 43.642 49.7624C43.7578 49.6842 43.8795 49.6157 44.013 49.5345C43.9166 49.5122 43.8357 49.4928 43.7541 49.475C43.6383 49.4489 43.5477 49.3856 43.4802 49.2895C43.429 49.2158 43.3808 49.1398 43.3296 49.0661C43.2977 49.0192 43.2888 48.97 43.3073 48.9149C43.3682 48.7317 43.3964 48.5485 43.3251 48.3601C43.3073 48.3125 43.3281 48.2611 43.3682 48.2291C43.6502 48.0042 43.9693 47.9103 44.324 47.9863C44.5993 48.0451 44.7752 48.2775 44.7975 48.5798C44.8064 48.7019 44.8034 48.8241 44.773 48.944C44.7433 49.0639 44.6832 49.1652 44.5912 49.2471C44.4813 49.3446 44.4761 49.4645 44.5778 49.5718C44.6431 49.6403 44.7099 49.7066 44.7685 49.781C44.9578 50.0238 45.049 50.2964 45.0231 50.6062C45.0119 50.7358 45.0223 50.8638 45.0394 50.9927C45.0772 51.2705 44.9897 51.4864 44.7314 51.6205C44.6424 51.6666 44.6268 51.7568 44.626 51.8469C44.6231 52.0963 44.6216 52.3451 44.6216 52.5946C44.6216 52.9289 44.6201 53.2641 44.6216 53.5984C44.6231 53.9134 44.557 54.2113 44.4079 54.4899C44.2772 54.7326 44.2268 55.0007 44.1659 55.2658C44.1451 55.356 44.1266 55.4461 44.1036 55.5347C44.0873 55.5957 44.1117 55.6382 44.157 55.6725C44.2075 55.7104 44.252 55.7544 44.2743 55.8139C44.3047 55.8929 44.2683 55.954 44.1845 55.9502C43.8861 55.9346 43.6012 56.012 43.3125 56.0694C43.1054 56.1111 42.94 56.018 42.7952 55.884C42.7426 55.8355 42.7559 55.7871 42.8242 55.7544C43.0045 55.668 43.1849 55.5823 43.3674 55.4997C43.4394 55.4677 43.4646 55.417 43.4624 55.3418C43.4483 54.927 43.308 54.5666 43.0053 54.2776C42.9162 54.1927 42.8791 54.0981 42.8873 53.9753C42.917 53.5262 42.9333 53.0764 42.9763 52.6288C43.0142 52.2371 43.1106 51.8573 43.2309 51.4834C43.2887 51.3032 43.2754 51.2846 43.0913 51.2935C42.8925 51.304 42.7426 51.2094 42.6171 51.0672C42.4784 50.91 42.3329 50.7588 42.1867 50.6092C42.1452 50.566 42.1036 50.5228 42.0613 50.4803C42.0472 50.4662 42.0368 50.4461 42.0101 50.4557C41.9819 50.4654 41.9811 50.4878 41.9811 50.5116C41.9811 50.6643 42.0027 50.8154 42.0153 50.9674C42.0383 51.2451 42.0658 51.5237 42.091 51.8014C42.0991 51.8908 42.0754 51.9191 41.9849 51.9221C41.927 51.9236 41.9003 51.9496 41.8988 52.0062C41.8988 52.0293 41.898 52.0524 41.898 52.0755C41.8965 52.5834 41.8943 53.0913 41.8936 53.5992C41.8936 53.6893 41.8995 53.7794 41.9032 53.8688C41.9106 54.0438 41.8587 54.1912 41.7103 54.2955C41.6665 54.326 41.6524 54.3729 41.6517 54.4228C41.6398 54.8242 41.6398 55.2256 41.6524 55.6278C41.6546 55.6859 41.6813 55.738 41.7281 55.77C41.8609 55.8609 41.9886 55.9599 42.1363 56.0277C42.2082 56.0605 42.2832 56.0791 42.3611 56.091C42.442 56.1029 42.4628 56.1453 42.4168 56.2146C42.3485 56.3189 42.2461 56.374 42.1273 56.3978C41.9938 56.4246 41.8632 56.4142 41.7333 56.3695C41.5589 56.3099 41.38 56.2697 41.1997 56.2332C41.193 56.2317 41.1863 56.2317 41.1789 56.2302C40.9607 56.1938 40.9051 56.0605 41.0424 55.8921C41.1144 55.8043 41.1403 55.6985 41.1255 55.5868C41.0832 55.2711 41.0632 54.9531 41.0364 54.6358C41.0283 54.5353 40.9964 54.4578 40.8873 54.4295C40.8353 54.4161 40.819 54.3633 40.8012 54.3186C40.753 54.1942 40.7084 54.0683 40.6617 53.9425C40.655 53.9246 40.6572 53.8971 40.6268 53.9008C40.5956 53.9045 40.6038 53.9306 40.6031 53.9492C40.6001 54.0162 40.5956 54.0825 40.5949 54.1495C40.5941 54.2396 40.5585 54.3029 40.4702 54.3364C40.3322 54.3886 40.2721 54.5025 40.2476 54.6388C40.1912 54.9568 40.117 55.2711 40.042 55.5846C40.016 55.6926 40.0264 55.7946 40.0784 55.8929C40.1088 55.9495 40.1363 56.0083 40.1518 56.0716C40.1786 56.1803 40.1452 56.2392 40.0368 56.2675C40.0057 56.2757 39.9737 56.2846 39.9418 56.2839C39.7808 56.2794 39.6279 56.3204 39.4728 56.3539C39.2732 56.3971 39.075 56.3509 38.8769 56.3248C38.8109 56.3159 38.7455 56.3003 38.6795 56.2928C38.6417 56.2883 38.6305 56.2667 38.6231 56.2355C38.6149 56.2019 38.612 56.1729 38.6424 56.1476C38.6825 56.1148 38.73 56.0977 38.7775 56.0798C38.9756 56.0061 39.1745 55.9339 39.3719 55.8594C39.4565 55.8274 39.4854 55.7827 39.4862 55.6918C39.4914 55.2882 39.4921 54.8838 39.4862 54.4802C39.4854 54.4079 39.4617 54.3491 39.409 54.3022C39.3377 54.2396 39.3066 54.1614 39.3103 54.0691C39.3474 53.1978 39.3563 52.325 39.4275 51.4544C39.452 51.1573 39.5374 50.8705 39.5997 50.5801C39.6613 50.2941 39.7236 50.0082 39.7667 49.7177C39.7697 49.6961 39.7704 49.6745 39.7734 49.6388L39.7756 49.6343Z" fill="#231F20"/>
<path d="M37.2087 47.4695C37.5664 47.5573 37.8188 47.8061 38.1008 48.0056C38.1661 48.0518 38.1854 48.1255 38.195 48.1993C38.2707 48.7883 38.2239 49.3595 37.939 49.895C37.8922 49.9829 37.8432 50.07 37.7816 50.1467C37.7201 50.2234 37.697 50.3076 37.6948 50.4029C37.6852 50.7306 37.6748 51.0582 37.6637 51.3859C37.6392 52.0822 37.6288 52.78 37.5776 53.4748C37.5523 53.8219 37.5041 54.1674 37.4655 54.5137C37.4581 54.5829 37.4329 54.6395 37.3594 54.6693C37.2985 54.6939 37.274 54.752 37.2748 54.8168C37.2763 55.064 37.297 55.3098 37.3193 55.5563C37.3238 55.6054 37.352 55.6397 37.3965 55.6635C37.5828 55.7633 37.7683 55.8653 37.9538 55.9674C37.9761 55.9793 37.9991 55.9912 38.0191 56.0053C38.0458 56.0247 38.0881 56.0344 38.0837 56.0776C38.0785 56.1245 38.0488 56.1565 38.0058 56.1759C37.9501 56.2012 37.893 56.193 37.8358 56.1848C37.5516 56.1446 37.2674 56.1037 36.9824 56.0634C36.8622 56.0463 36.831 55.9919 36.8837 55.8832C36.9497 55.7469 36.9431 55.6054 36.9149 55.4632C36.8711 55.2443 36.8251 55.0253 36.7791 54.8064C36.7627 54.7259 36.7123 54.6775 36.6358 54.6537C36.5928 54.6403 36.572 54.6515 36.5698 54.7006C36.5646 54.8458 36.5557 54.991 36.5505 55.1363C36.5423 55.3738 36.5356 55.6114 36.5297 55.849C36.526 56.0135 36.4971 56.0493 36.3353 56.0754C36.0993 56.1126 35.8625 56.1476 35.6266 56.1863C35.5279 56.2027 35.4403 56.1908 35.3646 56.1185C35.3438 56.0984 35.3364 56.088 35.3601 56.0649C35.3958 56.0314 35.4321 56.0016 35.4759 55.9793C35.6317 55.9003 35.7869 55.8199 35.942 55.7395C36.0236 55.697 36.0622 55.627 36.0585 55.5362C36.0466 55.239 36.0355 54.9412 36.0191 54.644C36.0087 54.4496 35.8462 54.2903 35.6518 54.2754C35.585 54.2702 35.5182 54.2679 35.4522 54.2612C35.3349 54.2493 35.2926 54.2076 35.2874 54.0892C35.2741 53.7958 35.2859 53.5031 35.2896 53.2097C35.2993 52.3972 35.3134 51.5847 35.326 50.7723C35.329 50.5578 35.2785 50.5094 35.0655 50.528C34.973 50.5359 34.9379 50.5848 34.9601 50.6747C34.9624 50.6836 34.9661 50.6926 34.9676 50.7015C34.9802 50.7715 34.9913 50.8437 34.9215 50.8899C34.8548 50.9346 34.7843 50.9152 34.7197 50.8773C34.5943 50.8028 34.4934 50.566 34.5223 50.423C34.5364 50.3545 34.5802 50.309 34.6381 50.2755C34.6997 50.239 34.7687 50.2189 34.8347 50.1921C34.975 50.1355 35.0188 50.0618 35.0054 49.9143C35.001 49.8607 34.9757 49.8339 34.9238 49.8324C34.8896 49.8309 34.8548 49.8324 34.8206 49.8294C34.7227 49.8227 34.6388 49.7885 34.575 49.7081C34.4948 49.6068 34.4125 49.5085 34.3464 49.3968C34.2618 49.2545 34.2447 49.0974 34.241 48.9373C34.2373 48.7615 34.2388 48.5865 34.2514 48.4115C34.2626 48.2551 34.3316 48.1293 34.4525 48.0325C34.5334 47.9677 34.6084 47.8954 34.6796 47.8202C34.762 47.7338 34.7627 47.6571 34.6677 47.5849C34.4815 47.4434 34.4956 47.2386 34.4919 47.0435C34.4882 46.864 34.5698 46.7136 34.7078 46.5981C34.762 46.5527 34.8251 46.5266 34.8941 46.5132C35.1776 46.4566 35.5063 46.648 35.5716 46.9079C35.5872 46.969 35.5865 47.0316 35.5828 47.0941C35.5776 47.1813 35.5716 47.2691 35.5642 47.3563C35.5546 47.4806 35.4885 47.567 35.3794 47.6199C35.3097 47.6534 35.2674 47.7078 35.2496 47.7807C35.2325 47.85 35.2607 47.8887 35.3312 47.8932C35.4381 47.8992 35.5338 47.888 35.6221 47.8053C35.7935 47.6452 35.9776 47.4985 36.1601 47.3429C36.0985 47.3108 36.0525 47.2669 36.0169 47.2125C35.9739 47.1477 35.9843 47.1008 36.054 47.0658C36.0993 47.0435 36.1483 47.0308 36.195 47.0107C36.2648 46.9809 36.2789 46.9415 36.247 46.8729C36.2032 46.7791 36.1594 46.6853 36.1126 46.5922C36.0325 46.4313 36.028 46.269 36.0956 46.1037C36.2336 45.7678 36.5757 45.5757 36.9438 45.6248C37.346 45.6792 37.539 45.9584 37.4796 46.3911C37.4521 46.5877 37.3816 46.7702 37.3097 46.9519C37.2881 47.0055 37.2919 47.036 37.3475 47.0584C37.3705 47.0673 37.3906 47.0852 37.4084 47.1031C37.5011 47.1947 37.4967 47.2624 37.3928 47.3384C37.3342 47.3816 37.274 47.4233 37.2087 47.4695Z" fill="#231F20"/>
<path d="M3.57364 85.7402C3.57364 85.7603 3.57067 85.7811 3.56622 85.8012C3.53579 85.8727 3.50537 85.9271 3.47494 85.9651C3.44451 86.003 3.42077 86.0313 3.40296 86.0485C3.38514 86.0663 3.37253 86.0775 3.36511 86.0827C3.35769 86.0879 3.3614 86.0902 3.37624 86.0902C3.4267 86.1818 3.4549 86.2629 3.4601 86.3337V88.7719H2.66307V87.4768C2.66307 87.3398 2.59183 87.2713 2.45008 87.2713H1.89573C1.8705 87.2713 1.84526 87.2839 1.82003 87.3093C1.7948 87.3346 1.78218 87.3577 1.78218 87.3778V87.6139C1.91354 87.6444 2.02263 87.7181 2.10871 87.835C2.18441 87.9415 2.22226 88.0659 2.22226 88.2081C2.22226 88.3757 2.17402 88.5157 2.07829 88.6274C1.96697 88.7547 1.81261 88.8181 1.61521 88.8181C1.43265 88.8181 1.28497 88.7622 1.17069 88.6505C1.05714 88.5388 1 88.4092 1 88.2618V87.1953C1.00519 87.1395 1.01262 87.0911 1.02301 87.0509C1.05343 86.9496 1.10241 86.8721 1.17143 86.8185C1.2397 86.7649 1.29388 86.7284 1.33469 86.7083C1.4 86.683 1.46605 86.6703 1.53209 86.6703H2.37513C2.40556 86.6703 2.4345 86.6718 2.4627 86.674C2.49016 86.677 2.52726 86.6904 2.57253 86.7157C2.57773 86.7209 2.58366 86.7269 2.59183 86.7351C2.59925 86.7425 2.61112 86.7567 2.62596 86.7768C2.63116 86.782 2.6371 86.7895 2.64526 86.7999C2.65268 86.8103 2.66159 86.82 2.67198 86.8304V86.5176C2.66678 86.4618 2.65417 86.4216 2.63413 86.3955C2.61409 86.3702 2.58589 86.3523 2.55101 86.3419C2.51539 86.3315 2.47012 86.3262 2.41446 86.3262C2.364 86.3262 2.30537 86.321 2.24007 86.3113H1.32653C1.3013 86.3113 1.2679 86.324 1.22783 86.3493C1.19221 86.3799 1.16326 86.403 1.14026 86.4178C1.11725 86.4327 1.08089 86.4737 1.03043 86.54C1.02004 86.5504 1.01039 86.5631 1 86.578V86.0068L1.21224 85.8392C1.2679 85.799 1.32133 85.7692 1.3718 85.7513C1.42226 85.7335 1.4653 85.7245 1.50092 85.7245H2.50277C2.54359 85.7245 2.58886 85.7297 2.63932 85.7394C2.68979 85.7498 2.7358 85.7699 2.77587 85.8005L2.8293 85.6709H3.58106C3.57587 85.6962 3.57364 85.7193 3.57364 85.7394V85.7402ZM1.79332 88.3459C1.83116 88.3057 1.85046 88.2573 1.85046 88.2014C1.85046 88.1508 1.83116 88.1039 1.79332 88.0607C1.75547 88.0175 1.70055 87.9959 1.63005 87.9959C1.55955 87.9959 1.50464 88.016 1.46679 88.057C1.42894 88.0979 1.40965 88.1456 1.40965 88.2014C1.40965 88.2573 1.42894 88.3057 1.46679 88.3459C1.50464 88.3869 1.55881 88.407 1.63005 88.407C1.70129 88.407 1.75547 88.3869 1.79332 88.3459Z" fill="#444648"/>
<path d="M5.8134 88.7727V86.6168C5.8082 86.5967 5.80598 86.581 5.80598 86.5713C5.80598 86.5617 5.80301 86.5512 5.79856 86.5408C5.78372 86.4902 5.76442 86.4522 5.74141 86.4261C5.71841 86.4008 5.69689 86.3777 5.67685 86.3576C5.63603 86.3219 5.58557 86.304 5.52472 86.304H4.81823C4.78261 86.304 4.74476 86.3241 4.70469 86.365C4.67426 86.3956 4.65942 86.4313 4.65942 86.4715V86.5095H4.96294V87.5916C5.09949 87.5916 5.21006 87.6512 5.29318 87.7703C5.37704 87.8895 5.4186 88.0258 5.4186 88.1777C5.4186 88.3557 5.37036 88.4949 5.27463 88.597C5.16331 88.7243 5.00376 88.7876 4.79597 88.7876C4.53771 88.7876 4.36035 88.6886 4.26461 88.4905C4.19857 88.3639 4.16591 88.1829 4.16591 87.9498V87.0509H3.93066V86.1595C3.97074 86.1543 4.01155 86.1416 4.05237 86.1215C4.14365 86.0806 4.21415 86.0277 4.26536 85.9614C4.37667 85.8043 4.51099 85.7253 4.66758 85.7253H5.88242C5.95292 85.7253 6.039 85.7402 6.14067 85.7708C6.26238 85.8117 6.35811 85.8728 6.42935 85.954C6.47982 86.015 6.52508 86.1118 6.5659 86.2437C6.57109 86.2638 6.57629 86.2891 6.58148 86.3196C6.58668 86.3502 6.5941 86.3859 6.60449 86.4261V88.7727H5.81488H5.8134ZM4.93697 88.3192C4.97481 88.276 4.99411 88.2239 4.99411 88.1628C4.99411 88.1069 4.97481 88.0563 4.93697 88.0101C4.89912 87.9647 4.84717 87.9416 4.78112 87.9416C4.71508 87.9416 4.66239 87.9632 4.62157 88.0064C4.58075 88.0496 4.56072 88.1017 4.56072 88.1628C4.56072 88.2239 4.58001 88.276 4.61786 88.3192C4.65571 88.3624 4.70988 88.384 4.78112 88.384C4.84643 88.384 4.89838 88.3624 4.93697 88.3192Z" fill="#444648"/>
<path d="M7.77949 88.7727V86.8372C7.77949 86.8171 7.78172 86.7917 7.78691 86.7612C7.78691 86.6547 7.77429 86.5631 7.74906 86.4872C7.70825 86.3807 7.64739 86.327 7.5665 86.327H7.3461C7.33125 86.327 7.30528 86.3345 7.2704 86.3501C7.24517 86.3606 7.21994 86.3732 7.19471 86.3881C7.16947 86.4037 7.14424 86.4164 7.11901 86.4261C7.09897 86.4313 7.07077 86.4566 7.03589 86.5021C7.0307 86.5125 7.01808 86.5326 6.99805 86.5631V85.9994C7.00324 85.9688 7.0255 85.9376 7.06632 85.904C7.10639 85.8713 7.15463 85.8407 7.21029 85.8124C7.26595 85.7849 7.32383 85.7618 7.38469 85.7439C7.44554 85.7261 7.49897 85.7201 7.54424 85.7246H7.87819C8.00435 85.7246 8.11196 85.7395 8.20101 85.77C8.28932 85.8005 8.36947 85.8586 8.43997 85.945C8.48524 86.0061 8.52308 86.1029 8.55351 86.2347C8.5639 86.2853 8.57132 86.3494 8.57652 86.4253V88.7719H7.77949V88.7727Z" fill="#444648"/>
<path d="M12.0584 87.8469C12.1067 87.9512 12.1304 88.0592 12.1304 88.1709C12.1304 88.3541 12.077 88.5008 11.9709 88.6125C11.8544 88.7495 11.6978 88.8181 11.5004 88.8181C11.303 88.8181 11.1456 88.7443 11.0299 88.5969C10.9282 88.4651 10.8777 88.3072 10.8777 88.1247C10.8629 88.1299 10.8406 88.1352 10.8132 88.1396C10.785 88.1448 10.756 88.15 10.7256 88.1553C10.6952 88.1605 10.6685 88.1642 10.6462 88.1664C10.6232 88.1694 10.6091 88.1701 10.6046 88.1701C10.5082 88.1903 10.4399 88.2997 10.3998 88.4978C10.3894 88.5641 10.3768 88.62 10.362 88.6654C10.3471 88.7108 10.3338 88.7466 10.3241 88.7719H9.53452V86.9734C9.37719 86.9377 9.25623 86.8595 9.17014 86.7373C9.08406 86.6152 9.04102 86.4782 9.04102 86.3255C9.04102 86.1475 9.09445 86.0008 9.20057 85.8839C9.31189 85.7469 9.47144 85.6783 9.67923 85.6783C9.87144 85.6783 10.0258 85.7372 10.1423 85.8534C10.2484 85.9598 10.3093 86.0969 10.3241 86.2644V87.8038C10.3597 87.7278 10.3902 87.6772 10.4154 87.6511C10.451 87.6057 10.4926 87.5759 10.5408 87.5632C10.5891 87.5506 10.6662 87.5439 10.7724 87.5439C10.828 87.5386 10.8733 87.5364 10.9089 87.5364H11.0529V85.723H11.8499V87.5975C11.9412 87.6585 12.0109 87.7412 12.0584 87.8455V87.8469ZM9.84175 86.4826C9.8796 86.4394 9.8989 86.3903 9.8989 86.3337C9.8989 86.2726 9.8796 86.2205 9.84175 86.1773C9.80391 86.1341 9.74899 86.1125 9.67849 86.1125C9.60799 86.1125 9.55307 86.1341 9.51522 86.1773C9.47738 86.2205 9.45808 86.2726 9.45808 86.3337C9.45808 86.3895 9.47738 86.4394 9.51522 86.4826C9.55307 86.5258 9.60725 86.5474 9.67849 86.5474C9.74973 86.5474 9.80391 86.5258 9.84175 86.4826ZM11.6681 88.3191C11.7082 88.2759 11.7289 88.2238 11.7289 88.1627C11.7289 88.1069 11.7089 88.0562 11.6681 88.01C11.6273 87.9646 11.5716 87.9415 11.5011 87.9415C11.4306 87.9415 11.3757 87.9631 11.3378 88.0063C11.3 88.0495 11.2807 88.1016 11.2807 88.1627C11.2807 88.2238 11.3007 88.2759 11.3416 88.3191C11.3816 88.3623 11.4351 88.3839 11.5011 88.3839C11.5716 88.3839 11.6273 88.3623 11.6681 88.3191Z" fill="#444648"/>
<path d="M14.6362 88.7726V86.6926C14.631 86.6673 14.6258 86.6435 14.6214 86.6204C14.6162 86.5973 14.611 86.5787 14.6065 86.563C14.5657 86.4618 14.5078 86.3932 14.4321 86.3575C14.2748 86.2763 14.1056 86.2354 13.9231 86.2354C13.7405 86.2354 13.5854 86.2748 13.4407 86.3538C13.2967 86.4327 13.1891 86.5504 13.1179 86.7082C13.0874 86.7797 13.0726 86.8483 13.0726 86.9138C13.0726 87.1223 13.1713 87.3658 13.3687 87.6451C13.4192 87.701 13.4696 87.7583 13.5208 87.8164C13.5713 87.8752 13.6218 87.9318 13.673 87.9877L13.8251 87.7285C13.6477 87.698 13.5112 87.619 13.4155 87.4924C13.3242 87.3807 13.2789 87.2437 13.2789 87.0814C13.2789 86.9086 13.3323 86.7611 13.4385 86.6397C13.555 86.5079 13.7145 86.4416 13.9171 86.4416C14.1197 86.4416 14.2778 86.5012 14.3913 86.6204C14.5056 86.7395 14.562 86.8855 14.562 87.0583C14.562 87.1648 14.5442 87.2638 14.5086 87.3554L13.6886 88.7726H12.8759C12.8863 88.7324 12.896 88.6974 12.9064 88.6698C12.9168 88.6423 12.9242 88.6177 12.9294 88.5976C12.9694 88.4449 12.9902 88.3235 12.9902 88.2319C12.9902 88.1962 12.9873 88.1657 12.9828 88.1403C12.9672 88.0487 12.8611 87.7873 12.6637 87.3554C12.5828 87.1878 12.542 87.0329 12.542 86.8907V86.8371C12.5472 86.8222 12.5494 86.8043 12.5494 86.7835C12.5895 86.4938 12.7112 86.2473 12.9138 86.0447C13.126 85.8317 13.3665 85.7245 13.6351 85.7245H14.5843C14.827 85.7245 15.0399 85.8235 15.2218 86.0216C15.2975 86.108 15.3531 86.2249 15.3887 86.3724C15.4088 86.5146 15.4244 86.5936 15.434 86.6085V88.7726H14.637H14.6362ZM14.0782 87.2482C14.116 87.2072 14.1353 87.1566 14.1353 87.0955C14.1353 87.0344 14.116 86.9823 14.0782 86.9391C14.0403 86.8959 13.9854 86.8743 13.9149 86.8743C13.8444 86.8743 13.7895 86.8959 13.7516 86.9391C13.7138 86.9823 13.6945 87.0344 13.6945 87.0955C13.6945 87.1514 13.7138 87.2013 13.7516 87.2444C13.7895 87.2876 13.8437 87.3092 13.9149 87.3092C13.9861 87.3092 14.0403 87.2891 14.0782 87.2482Z" fill="#444648"/>
<path d="M13.976 90.2963V89.9537C13.8342 89.9537 13.7251 89.9105 13.6494 89.8241C13.5737 89.7378 13.5352 89.6335 13.5352 89.5114C13.5352 89.3691 13.576 89.2552 13.6569 89.1688C13.7481 89.0623 13.8698 89.0087 14.0212 89.0087C14.1726 89.0087 14.3047 89.0504 14.4012 89.1345C14.4977 89.2187 14.5452 89.3215 14.5452 89.4429V89.8316H14.796V88.9856H15.4335V90.2963H13.976ZM14.2001 89.6447C14.2327 89.6067 14.2498 89.562 14.2498 89.5114C14.2498 89.384 14.1867 89.3207 14.0598 89.3207C13.9329 89.3207 13.8624 89.384 13.8624 89.5114C13.8624 89.562 13.8802 89.6067 13.9159 89.6447C13.9515 89.6826 13.9997 89.702 14.0598 89.702C14.1199 89.702 14.1674 89.6826 14.2001 89.6447Z" fill="#444648"/>
<path d="M17.0279 87.7703C17.1139 87.8895 17.157 88.0258 17.157 88.1777C17.157 88.3452 17.1065 88.4853 17.0048 88.597C16.8987 88.7243 16.7414 88.7876 16.5343 88.7876C16.2761 88.7876 16.0987 88.6886 16.003 88.4905C15.9369 88.3639 15.9043 88.1829 15.9043 87.9498V85.7253H16.7013V87.5923C16.8327 87.5923 16.9418 87.6519 17.0279 87.7711V87.7703ZM16.7429 88.3423C16.7807 88.2991 16.8 88.2469 16.8 88.1859C16.8 88.13 16.7807 88.0794 16.7429 88.0332C16.705 87.9878 16.6531 87.9647 16.587 87.9647C16.521 87.9647 16.4683 87.9863 16.4275 88.0295C16.3867 88.0727 16.3666 88.1248 16.3666 88.1859C16.3666 88.2469 16.3859 88.2991 16.4238 88.3423C16.4616 88.3855 16.5158 88.4071 16.587 88.4071C16.6531 88.4071 16.705 88.3855 16.7429 88.3423ZM18.5611 87.7703C18.6471 87.8895 18.6902 88.0258 18.6902 88.1777C18.6902 88.3557 18.6419 88.4949 18.5462 88.597C18.4349 88.7243 18.2753 88.7876 18.0676 88.7876C17.8093 88.7876 17.6319 88.6886 17.5362 88.4905C17.4702 88.3639 17.4375 88.1829 17.4375 87.9498V85.7253H18.2345V87.5923C18.3659 87.5923 18.475 87.6519 18.5611 87.7711V87.7703ZM18.216 88.3192C18.2538 88.276 18.2731 88.2239 18.2731 88.1628C18.2731 88.1069 18.2538 88.0563 18.216 88.0101C18.1781 87.9647 18.1232 87.9416 18.0527 87.9416C17.9867 87.9416 17.9355 87.9632 17.8969 88.0064C17.859 88.0496 17.8397 88.1017 17.8397 88.1628C17.8397 88.2239 17.859 88.276 17.8969 88.3192C17.9347 88.3624 17.9867 88.384 18.0527 88.384C18.124 88.384 18.1781 88.3624 18.216 88.3192Z" fill="#444648"/>
<path d="M20.8096 88.7727V87.4777C20.8096 87.3406 20.7383 87.2721 20.5966 87.2721H20.0422C20.017 87.2721 19.9917 87.2848 19.9665 87.3101C19.9413 87.3354 19.9287 87.3585 19.9287 87.3786V87.6147C20.06 87.6452 20.1691 87.7189 20.2552 87.8359C20.3309 87.9423 20.3687 88.0667 20.3687 88.209C20.3687 88.3765 20.3205 88.5165 20.2248 88.6282C20.1135 88.7556 19.9591 88.8189 19.7617 88.8189C19.5791 88.8189 19.4315 88.763 19.3172 88.6513C19.2036 88.5396 19.1465 88.41 19.1465 88.2626V87.1961C19.1517 87.1403 19.1591 87.0919 19.1695 87.0517C19.1999 86.9504 19.2489 86.8729 19.3179 86.8193C19.3862 86.7657 19.4404 86.7292 19.4812 86.7091C19.5465 86.6838 19.6125 86.6711 19.6786 86.6711H20.5216C20.552 86.6711 20.581 86.6726 20.6092 86.6749C20.6366 86.6778 20.6737 86.6912 20.719 86.7166C20.7242 86.7218 20.7301 86.7277 20.7383 86.7359C20.7457 86.7434 20.7576 86.7575 20.7724 86.7776C20.7776 86.7828 20.7836 86.7903 20.7917 86.8007C20.7992 86.8111 20.8081 86.8208 20.8185 86.8312V86.5185C20.8133 86.4626 20.8006 86.4224 20.7806 86.3963C20.7606 86.371 20.7324 86.3531 20.6975 86.3427C20.6619 86.3323 20.6166 86.3271 20.5609 86.3271C20.5105 86.3271 20.4519 86.3219 20.3866 86.3122H19.4752C19.45 86.3122 19.4166 86.3248 19.3765 86.3502C19.3409 86.3807 19.312 86.4038 19.289 86.4187C19.266 86.4336 19.2296 86.4745 19.1791 86.5408C19.1687 86.5512 19.1591 86.5639 19.1487 86.5788V86.0076L19.361 85.84C19.4166 85.7998 19.47 85.77 19.5205 85.7522C19.571 85.7343 19.614 85.7253 19.6496 85.7253H20.7658C20.8971 85.7253 21.0277 85.7492 21.1569 85.7976C21.286 85.846 21.378 85.9033 21.4337 85.9689C21.4945 86.0299 21.5391 86.1089 21.5665 86.2049C21.594 86.3018 21.6081 86.403 21.6081 86.5095V88.7727H20.811H20.8096ZM19.9398 88.346C19.9776 88.3058 19.9969 88.2574 19.9969 88.2015C19.9969 88.1509 19.9776 88.104 19.9398 88.0608C19.902 88.0176 19.847 87.996 19.7765 87.996C19.706 87.996 19.6511 88.0161 19.6133 88.057C19.5754 88.098 19.5561 88.1457 19.5561 88.2015C19.5561 88.2574 19.5754 88.3058 19.6133 88.346C19.6511 88.3869 19.7053 88.4071 19.7765 88.4071C19.8478 88.4071 19.902 88.3869 19.9398 88.346Z" fill="#444648"/>
<path d="M23.853 88.7726L23.3973 88.0413L22.9647 88.7726H22.3955C22.3851 88.7726 22.3524 88.6989 22.2968 88.5514C22.2663 88.465 22.2381 88.3734 22.2137 88.2774C22.1884 88.1813 22.1654 88.0823 22.1454 87.9802C22.0897 87.701 22.0615 87.447 22.0615 87.2184C22.0615 86.9391 22.0771 86.703 22.1068 86.5102C22.112 86.4439 22.1268 86.3731 22.1521 86.2964C22.2025 86.149 22.2656 86.0298 22.342 85.9382C22.4734 85.7759 22.6329 85.6947 22.8207 85.6947C23.0285 85.6947 23.1977 85.761 23.3291 85.8928C23.4404 86.0045 23.496 86.1467 23.496 86.3195C23.496 86.4819 23.4404 86.6271 23.3291 86.7537C23.2021 86.8959 23.0329 86.9771 22.8207 86.9972L22.8511 87.3018C22.8563 87.3681 22.8637 87.4329 22.8741 87.4962C22.8845 87.5595 22.8942 87.6243 22.9046 87.6905C22.915 87.7211 22.9246 87.7516 22.935 87.7821C22.9454 87.8127 22.955 87.8432 22.9654 87.8737L23.3906 87.1193L23.8537 87.8276V85.7245H24.6507V88.7719H23.8537L23.853 88.7726ZM22.6686 86.1966C22.6278 86.2421 22.6077 86.2957 22.6077 86.3568C22.6077 86.4126 22.6255 86.4625 22.6612 86.5057C22.6968 86.5489 22.7495 86.5705 22.8207 86.5705C22.8919 86.5705 22.9469 86.5474 22.9877 86.502C23.0278 86.4565 23.0485 86.4029 23.0485 86.3419C23.0485 86.2808 23.0307 86.2302 22.9951 86.1892C22.9595 86.1482 22.9068 86.1281 22.8355 86.1281C22.7643 86.1281 22.7086 86.1512 22.6686 86.1966Z" fill="#444648"/>
<path d="M23.1928 90.2963V89.9537C23.051 89.9537 22.9419 89.9105 22.8662 89.8241C22.7905 89.7378 22.752 89.6335 22.752 89.5114C22.752 89.3691 22.7928 89.2552 22.8737 89.1688C22.9649 89.0623 23.0866 89.0087 23.238 89.0087C23.3894 89.0087 23.5215 89.0504 23.618 89.1345C23.7145 89.2187 23.762 89.3215 23.762 89.4429V89.8316H24.0128V88.9856H24.6503V90.2963H23.1928ZM23.4169 89.6447C23.4495 89.6067 23.4666 89.562 23.4666 89.5114C23.4666 89.384 23.4035 89.3207 23.2766 89.3207C23.1497 89.3207 23.0792 89.384 23.0792 89.5114C23.0792 89.562 23.097 89.6067 23.1327 89.6447C23.1683 89.6826 23.2165 89.702 23.2766 89.702C23.3367 89.702 23.3842 89.6826 23.4169 89.6447Z" fill="#444648"/>
<path d="M24.8332 84.4443C24.8332 84.5508 24.7953 84.6655 24.7189 84.7869C24.6076 84.9597 24.4532 85.0788 24.2558 85.1451C24.2402 85.1503 24.2128 85.1563 24.172 85.1645C24.1319 85.1719 24.0874 85.1786 24.0391 85.1838C23.9909 85.189 23.9404 85.1928 23.887 85.195C23.8336 85.198 23.7868 85.1987 23.7467 85.1987C23.5345 85.1987 23.4276 85.1682 23.4276 85.1071C23.4276 85.0766 23.4729 85.026 23.5642 84.9545C23.5946 84.9344 23.6095 84.9113 23.6095 84.8859C23.6095 84.8554 23.602 84.8405 23.5864 84.8405H23.5256C23.4343 84.8405 23.3623 84.8115 23.3089 84.7526C23.2555 84.6946 23.2295 84.6223 23.2295 84.5359C23.2295 84.4443 23.2614 84.3632 23.3245 84.2924C23.3876 84.2217 23.4751 84.1859 23.5864 84.1859C23.6978 84.1859 23.7816 84.2127 23.8521 84.2656C23.9234 84.3192 23.9582 84.3989 23.9582 84.5054C23.9582 84.6119 23.9471 84.6893 23.9241 84.7534C23.9011 84.8167 23.8543 84.8815 23.7838 84.9478H23.8751C24.0369 84.912 24.1497 84.8666 24.2128 84.8107C24.2759 84.7549 24.3226 84.6685 24.353 84.5516C24.3582 84.5315 24.3634 84.5084 24.3679 84.4831C24.3731 84.4577 24.3805 84.4272 24.3909 84.3915H24.8161C24.8265 84.3915 24.8317 84.4093 24.8317 84.4451L24.8332 84.4443ZM23.7245 84.5128C23.7245 84.4771 23.7133 84.4458 23.6903 84.4175C23.6673 84.39 23.6332 84.3758 23.5879 84.3758C23.5479 84.3758 23.5137 84.39 23.4855 84.4175C23.4581 84.4458 23.444 84.4771 23.444 84.5128C23.444 84.6097 23.4922 84.6573 23.5879 84.6573C23.6837 84.6573 23.7245 84.6089 23.7245 84.5128Z" fill="#444648"/>
<path d="M27.6947 85.7402C27.6947 85.7603 27.6918 85.7811 27.6873 85.8012C27.6569 85.8727 27.6265 85.9271 27.596 85.9651C27.5656 86.003 27.5419 86.0313 27.524 86.0485C27.5062 86.0663 27.4936 86.0775 27.4862 86.0827C27.4788 86.0879 27.4825 86.0902 27.4973 86.0902C27.5478 86.1818 27.576 86.2629 27.5812 86.3337V88.7719H26.7842V87.4768C26.7842 87.3398 26.7129 87.2713 26.5712 87.2713H26.0168C25.9916 87.2713 25.9664 87.2839 25.9411 87.3093C25.9159 87.3346 25.9033 87.3577 25.9033 87.3778V87.6139C26.0346 87.6444 26.1437 87.7181 26.2298 87.835C26.3055 87.9415 26.3434 88.0659 26.3434 88.2081C26.3434 88.3757 26.2951 88.5157 26.1994 88.6274C26.0881 88.7547 25.9337 88.8181 25.7363 88.8181C25.5537 88.8181 25.4061 88.7622 25.2918 88.6505C25.1782 88.5388 25.1211 88.4092 25.1211 88.2618V87.1953C25.1263 87.1395 25.1337 87.0911 25.1441 87.0509C25.1745 86.9496 25.2235 86.8721 25.2925 86.8185C25.3608 86.7649 25.415 86.7284 25.4558 86.7083C25.5211 86.683 25.5871 86.6703 25.6532 86.6703H26.4962C26.5267 86.6703 26.5556 86.6718 26.5838 86.674C26.6113 86.677 26.6484 86.6904 26.6936 86.7157C26.6988 86.7209 26.7048 86.7269 26.7129 86.7351C26.7203 86.7425 26.7322 86.7567 26.7471 86.7768C26.7523 86.782 26.7582 86.7895 26.7664 86.7999C26.7738 86.8103 26.7827 86.82 26.7931 86.8304V86.5176C26.7879 86.4618 26.7753 86.4216 26.7552 86.3955C26.7352 86.3702 26.707 86.3523 26.6721 86.3419C26.6365 86.3315 26.5912 86.3262 26.5356 86.3262C26.4851 86.3262 26.4265 86.321 26.3612 86.3113H25.4498C25.4246 86.3113 25.3912 86.324 25.3511 86.3493C25.3155 86.3799 25.2866 86.403 25.2636 86.4178C25.2406 86.4327 25.2042 86.4737 25.1537 86.54C25.1434 86.5504 25.1337 86.5631 25.1233 86.578V86.0068L25.3356 85.8392C25.3912 85.799 25.4447 85.7692 25.4951 85.7513C25.5456 85.7335 25.5886 85.7245 25.6242 85.7245H26.6261C26.6669 85.7245 26.7122 85.7297 26.7626 85.7394C26.8131 85.7498 26.8584 85.7699 26.8992 85.8005L26.9526 85.6709H27.7044C27.6992 85.6962 27.697 85.7193 27.697 85.7394L27.6947 85.7402ZM25.9144 88.3459C25.9523 88.3057 25.9716 88.2573 25.9716 88.2014C25.9716 88.1508 25.9523 88.1039 25.9144 88.0607C25.8766 88.0175 25.8216 87.9959 25.7511 87.9959C25.6806 87.9959 25.6257 88.016 25.5879 88.057C25.55 88.0979 25.5307 88.1456 25.5307 88.2014C25.5307 88.2573 25.55 88.3057 25.5879 88.3459C25.6257 88.3869 25.6799 88.407 25.7511 88.407C25.8224 88.407 25.8766 88.3869 25.9144 88.3459Z" fill="#444648"/>
<path d="M26.1234 90.2963V89.9537C25.9817 89.9537 25.8726 89.9105 25.7969 89.8241C25.7212 89.7378 25.6826 89.6335 25.6826 89.5114C25.6826 89.3691 25.7234 89.2552 25.8043 89.1688C25.8956 89.0623 26.0173 89.0087 26.1687 89.0087C26.3201 89.0087 26.4522 89.0504 26.5487 89.1345C26.6451 89.2187 26.6926 89.3215 26.6926 89.4429V89.8316H26.9435V88.9856H27.5809V90.2963H26.1234ZM26.3475 89.6447C26.3802 89.6067 26.3973 89.562 26.3973 89.5114C26.3973 89.384 26.3342 89.3207 26.2073 89.3207C26.0804 89.3207 26.0099 89.384 26.0099 89.5114C26.0099 89.562 26.0277 89.6067 26.0633 89.6447C26.0989 89.6826 26.1472 89.702 26.2073 89.702C26.2674 89.702 26.3149 89.6826 26.3475 89.6447Z" fill="#444648"/>
<path d="M29.0165 88.757C28.9557 88.757 28.8837 88.7369 28.7998 88.6959C28.7167 88.6557 28.6381 88.6021 28.5646 88.5358C28.4911 88.4696 28.428 88.3973 28.3746 88.3184C28.3212 88.2394 28.2952 88.165 28.2952 88.0935C28.29 87.9818 28.2848 87.8701 28.2804 87.7584C28.2752 87.6466 28.27 87.5327 28.2648 87.4158C28.2544 87.1872 28.241 87.0032 28.2232 86.8632C28.2054 86.7232 28.1861 86.6256 28.1661 86.5698C28.1557 86.5393 28.1334 86.5065 28.0978 86.4707C28.0926 86.4655 28.0889 86.4603 28.0867 86.4551C28.0837 86.4499 28.0778 86.4447 28.0674 86.4402L28.5765 86.1274L28.6522 86.2034C28.6774 86.2287 28.7004 86.254 28.7204 86.2794C28.7405 86.3047 28.7561 86.3278 28.7657 86.3479C28.7857 86.3888 28.8021 86.4238 28.8154 86.4544C28.828 86.4849 28.8384 86.5192 28.8459 86.5571C28.8533 86.5951 28.857 86.6368 28.857 86.683V86.858L28.8948 87.7263C28.8948 87.7673 28.9 87.806 28.9097 87.8447C28.9193 87.8835 28.9371 87.9222 28.9631 87.9632C29.044 88.1002 29.1605 88.1687 29.3126 88.1687H29.4418V86.957C29.28 86.9317 29.1546 86.8602 29.0663 86.7433C28.978 86.6264 28.9334 86.4894 28.9334 86.3322C28.9334 86.1542 28.9891 86.0023 29.1004 85.875C29.2221 85.7327 29.3861 85.662 29.5939 85.662C29.7809 85.662 29.9353 85.7208 30.057 85.837C30.1787 85.9539 30.2395 86.0962 30.2395 86.2637V88.7555H29.0173L29.0165 88.757ZM29.7572 86.4752C29.795 86.432 29.8143 86.3799 29.8143 86.3188C29.8143 86.263 29.7958 86.2123 29.7572 86.1662C29.7193 86.1207 29.6644 86.0976 29.5939 86.0976C29.5234 86.0976 29.4685 86.1192 29.4306 86.1624C29.3928 86.2056 29.3735 86.2578 29.3735 86.3188C29.3735 86.3747 29.3928 86.4253 29.4306 86.4715C29.4685 86.5169 29.5227 86.54 29.5939 86.54C29.6651 86.54 29.7193 86.5184 29.7572 86.4752Z" fill="#444648"/>
<path d="M30.7097 88.7727V87.249C30.7097 87.0963 30.7669 86.9608 30.8804 86.8417C30.9947 86.7225 31.1402 86.6629 31.3168 86.6629C31.5246 86.6629 31.6886 86.7314 31.8103 86.8685C31.9164 86.9906 31.9698 87.1403 31.9698 87.3183C31.9698 87.4605 31.9305 87.5879 31.8518 87.6996C31.7732 87.8113 31.6581 87.885 31.506 87.9207V88.2253H32.303V86.6555C32.2978 86.6302 32.2956 86.6101 32.2956 86.5944C32.2956 86.5743 32.2926 86.5587 32.2882 86.549C32.2734 86.473 32.2526 86.4224 32.2273 86.3963C32.1465 86.3405 32.0529 86.3129 31.9461 86.3129H31.0429C31.0177 86.3129 30.9843 86.3256 30.9442 86.3509C30.9034 86.3814 30.8722 86.4045 30.8492 86.4194C30.8262 86.4343 30.7899 86.4753 30.7394 86.5415C30.729 86.552 30.7194 86.5646 30.709 86.5795V86.0083L30.9212 85.8408C30.9821 85.7953 31.0355 85.7648 31.0808 85.7492C31.1261 85.7343 31.1721 85.7261 31.2173 85.7261H32.326C32.4574 85.7261 32.5828 85.7529 32.7016 85.8058C32.8203 85.8594 32.9027 85.919 32.9487 85.9845C33.0095 86.0657 33.0526 86.2027 33.0778 86.3956C33.083 86.4365 33.0867 86.4797 33.0889 86.5251C33.0912 86.5706 33.0926 86.6138 33.0926 86.6547V88.7727H30.709H30.7097ZM31.5105 87.4583C31.5483 87.4151 31.5676 87.3659 31.5676 87.3093C31.5676 87.2483 31.5483 87.1961 31.5105 87.1529C31.4726 87.1098 31.4177 87.0882 31.3472 87.0882C31.2767 87.0882 31.2218 87.1098 31.1839 87.1529C31.1461 87.1961 31.1268 87.2483 31.1268 87.3093C31.1268 87.3652 31.1461 87.4151 31.1839 87.4583C31.2218 87.5015 31.276 87.5231 31.3472 87.5231C31.4184 87.5231 31.4726 87.5015 31.5105 87.4583Z" fill="#444648"/>
<path d="M34.2707 88.7727V86.8372C34.2707 86.8171 34.2729 86.7917 34.2781 86.7612C34.2781 86.6547 34.2655 86.5631 34.2403 86.4872C34.1995 86.3807 34.1386 86.327 34.0577 86.327H33.8373C33.8225 86.327 33.7965 86.3345 33.7616 86.3501C33.7364 86.3606 33.7111 86.3732 33.6859 86.3881C33.6607 86.4037 33.6355 86.4164 33.6102 86.4261C33.5902 86.4313 33.562 86.4566 33.5271 86.5021C33.5219 86.5125 33.5093 86.5326 33.4893 86.5631V85.9994C33.4945 85.9688 33.5167 85.9376 33.5575 85.904C33.5976 85.8713 33.6458 85.8407 33.7015 85.8124C33.7572 85.7849 33.815 85.7618 33.8759 85.7439C33.9368 85.7261 33.9902 85.7201 34.0355 85.7246H34.3694C34.4956 85.7246 34.6032 85.7395 34.6922 85.77C34.7805 85.8005 34.8607 85.8586 34.9312 85.945C34.9764 86.0061 35.0143 86.1029 35.0447 86.2347C35.0551 86.2853 35.0625 86.3494 35.0677 86.4253V88.7719H34.2707V88.7727Z" fill="#444648"/>
<path d="M35.5391 88.7726V87.7821C35.5391 87.7665 35.5539 87.7285 35.5843 87.6674C35.6652 87.5103 35.7617 87.4239 35.873 87.4083C35.8478 87.3979 35.8248 87.3852 35.8047 87.3703C35.7847 87.3554 35.7639 87.3427 35.7439 87.3323C35.6073 87.2564 35.5391 87.1849 35.5391 87.1193V86.3195C35.5391 86.1572 35.5969 86.012 35.7135 85.8854C35.8396 85.7483 36.0021 85.6798 36.1995 85.6798C36.3969 85.6798 36.5617 85.7483 36.6782 85.8854C36.7843 86.0075 36.8378 86.1549 36.8378 86.327C36.8378 86.4848 36.7969 86.6189 36.716 86.7306C36.63 86.8527 36.506 86.9339 36.3443 86.9741C36.3443 86.989 36.3643 87.0136 36.4051 87.0464C36.4452 87.0791 36.4756 87.0963 36.4964 87.0963H36.9595V87.6369H36.3368V88.1932H37.1339V85.7245H37.9309V88.7719H35.5391V88.7726ZM36.3628 86.4826C36.4007 86.4394 36.4199 86.3903 36.4199 86.3337C36.4199 86.2726 36.4007 86.2205 36.3628 86.1773C36.325 86.1341 36.27 86.1125 36.1995 86.1125C36.129 86.1125 36.0741 86.1341 36.0363 86.1773C35.9984 86.2205 35.9791 86.2726 35.9791 86.3337C35.9791 86.3895 35.9984 86.4394 36.0363 86.4826C36.0741 86.5258 36.1283 86.5474 36.1995 86.5474C36.2708 86.5474 36.325 86.5258 36.3628 86.4826Z" fill="#444648"/>
<path d="M37.3303 90.2964V89.9762C37.1886 89.9762 37.075 89.933 36.9889 89.8466C36.9177 89.7602 36.8828 89.6589 36.8828 89.542C36.8828 89.3998 36.9281 89.2776 37.0194 89.1763C37.1158 89.0646 37.245 89.0088 37.4067 89.0088C37.5685 89.0088 37.6969 89.0468 37.7904 89.1227C37.8839 89.1987 37.9307 89.3059 37.9307 89.443V90.2964H37.331H37.3303ZM37.5849 89.6448C37.6175 89.6068 37.6346 89.5621 37.6346 89.5115C37.6346 89.3841 37.5715 89.3208 37.4446 89.3208C37.3837 89.3208 37.337 89.3402 37.3043 89.3782C37.2717 89.4162 37.2546 89.4608 37.2546 89.5115C37.2546 89.5621 37.2709 89.6068 37.3043 89.6448C37.337 89.6828 37.3837 89.7021 37.4446 89.7021C37.5054 89.7021 37.5522 89.6828 37.5849 89.6448Z" fill="#444648"/>
<path d="M40.4128 88.7726V87.3018C40.4025 87.2966 40.3824 87.2906 40.352 87.2824C40.3216 87.275 40.2889 87.2713 40.2533 87.2713C40.2229 87.2713 40.1961 87.2728 40.1739 87.275C40.1509 87.278 40.1242 87.2839 40.0945 87.2943C40.0032 87.3249 39.9119 87.4343 39.8214 87.622C39.7709 87.7643 39.7175 87.9065 39.6618 88.0487V88.7726H38.8871V86.9592C38.7297 86.9235 38.6088 86.846 38.5227 86.7269C38.4366 86.6077 38.3936 86.4714 38.3936 86.3195C38.3936 86.1415 38.447 85.9948 38.5531 85.8779C38.6696 85.7461 38.8292 85.6798 39.0318 85.6798C39.2344 85.6798 39.3939 85.7282 39.5104 85.8243C39.6269 85.9211 39.6848 86.0581 39.6848 86.2354V87.0963C39.7049 87.0553 39.7227 87.021 39.7383 86.9935C39.7531 86.9659 39.7657 86.9414 39.7761 86.9212C39.8622 86.7991 39.9631 86.7336 40.0796 86.7232C40.0945 86.7232 40.1138 86.7217 40.1368 86.7194C40.1598 86.7172 40.1813 86.7157 40.2013 86.7157C40.257 86.7157 40.2926 86.7187 40.3075 86.7232C40.2318 86.5966 40.1939 86.4588 40.1939 86.3121C40.1939 86.1393 40.2444 85.9948 40.346 85.8779C40.4626 85.7461 40.6221 85.6798 40.8247 85.6798C41.0273 85.6798 41.1787 85.7483 41.3108 85.8854C41.4221 86.0023 41.4778 86.1467 41.4778 86.3195C41.4778 86.4312 41.4488 86.534 41.3902 86.6278C41.3316 86.7217 41.2499 86.7939 41.1431 86.8453L41.2113 86.9674V88.7733H40.4143L40.4128 88.7726ZM39.1943 86.4826C39.2321 86.4394 39.2514 86.3903 39.2514 86.3337C39.2514 86.2726 39.2321 86.2205 39.1943 86.1773C39.1564 86.1341 39.1015 86.1125 39.031 86.1125C38.9605 86.1125 38.9056 86.1341 38.8678 86.1773C38.8299 86.2205 38.8106 86.2726 38.8106 86.3337C38.8106 86.3895 38.8299 86.4394 38.8678 86.4826C38.9056 86.5258 38.9598 86.5474 39.031 86.5474C39.1023 86.5474 39.1564 86.5258 39.1943 86.4826ZM40.982 86.4789C41.0221 86.4379 41.0429 86.3903 41.0429 86.3344C41.0429 86.2733 41.0236 86.2227 40.9857 86.1817C40.9479 86.1415 40.893 86.1207 40.8225 86.1207C40.752 86.1207 40.6971 86.1408 40.6592 86.1817C40.6214 86.2227 40.6021 86.2733 40.6021 86.3344C40.6021 86.3851 40.6221 86.432 40.6629 86.4752C40.703 86.5184 40.7564 86.54 40.8225 86.54C40.8885 86.54 40.9412 86.5198 40.982 86.4789Z" fill="#444648"/>
<path d="M43.7077 86.4715C43.6416 86.4715 43.4264 86.4053 43.062 86.2734C43.0516 86.2682 43.039 86.266 43.0242 86.266C42.9581 86.266 42.8876 86.2928 42.8119 86.3457C42.7362 86.3993 42.6977 86.4559 42.6977 86.517C42.6977 86.5423 42.7051 86.5654 42.7207 86.5855L42.7741 86.6614H43.5489V88.1702C43.5489 88.3534 43.4932 88.5001 43.3819 88.6118C43.2602 88.7437 43.1006 88.8099 42.9032 88.8099C42.7058 88.8099 42.5359 88.7392 42.4097 88.5962C42.2984 88.4696 42.2427 88.3169 42.2427 88.139C42.2427 87.9818 42.2858 87.847 42.3719 87.7353C42.4676 87.6132 42.6049 87.5402 42.7815 87.5141V87.2244H41.9385V86.1655C42.0298 86.0739 42.1129 86.0031 42.1893 85.9525C42.2902 85.8765 42.3793 85.8207 42.455 85.7849C42.5307 85.7492 42.5967 85.7253 42.6524 85.7127C42.708 85.7 42.7563 85.6948 42.7964 85.697C42.8372 85.7 42.8721 85.7008 42.9025 85.7008C43.0546 85.7008 43.2669 85.7387 43.5399 85.8147C43.5704 85.8199 43.6238 85.802 43.6995 85.7611C43.7099 85.7559 43.7173 85.7536 43.7225 85.7536C43.7277 85.7536 43.7351 85.7514 43.7455 85.7462V86.4544C43.7455 86.4648 43.7329 86.47 43.7077 86.47V86.4715ZM43.0665 88.3035C43.1043 88.2603 43.1236 88.2082 43.1236 88.1471C43.1236 88.0913 43.1043 88.0421 43.0665 87.9982C43.0286 87.955 42.9737 87.9334 42.9032 87.9334C42.8327 87.9334 42.7778 87.955 42.74 87.9982C42.7021 88.0414 42.6828 88.0913 42.6828 88.1471C42.6828 88.2082 42.7021 88.2603 42.74 88.3035C42.7778 88.3467 42.832 88.3683 42.9032 88.3683C42.9745 88.3683 43.0286 88.3467 43.0665 88.3035Z" fill="#444648"/>
<path d="M41.1489 85.1988L41.0576 84.9322L41.2172 84.8182C41.2832 84.778 41.3478 84.7393 41.4109 84.7036C41.4739 84.6678 41.5385 84.6328 41.6046 84.5971C41.7767 84.5159 41.9311 84.4623 42.0676 84.437C42.0929 84.4317 42.1181 84.4295 42.1433 84.4295H42.2116C42.3481 84.4295 42.5277 84.4578 42.7504 84.5129V84.3148H43.183V84.65L43.3426 84.7259V84.3141H43.7374V85.1981H41.1482L41.1489 85.1988ZM42.8654 84.8868C42.8298 84.8719 42.7919 84.8562 42.7511 84.8413C42.5433 84.7855 42.3763 84.7579 42.2502 84.7579C42.2146 84.7579 42.1841 84.7594 42.1589 84.7617C42.1337 84.7646 42.1084 84.7684 42.0832 84.7728C42.0327 84.778 41.9615 84.8056 41.8702 84.857C41.8502 84.8674 41.8324 84.8786 41.8168 84.8912C41.802 84.9039 41.7841 84.9151 41.7634 84.9255H42.9708C42.9352 84.9151 42.9003 84.9024 42.8647 84.8875L42.8654 84.8868Z" fill="#444648"/>
<path d="M44.2166 88.7727V87.249C44.2166 87.0963 44.2737 86.9608 44.3872 86.8417C44.5015 86.7225 44.647 86.6629 44.8236 86.6629C45.0314 86.6629 45.1954 86.7314 45.3171 86.8685C45.4232 86.9906 45.4767 87.1403 45.4767 87.3183C45.4767 87.4605 45.4373 87.5879 45.3587 87.6996C45.28 87.8113 45.165 87.885 45.0128 87.9207V88.2253H45.8099V86.6555C45.8047 86.6302 45.8024 86.6101 45.8024 86.5944C45.8024 86.5743 45.7995 86.5587 45.795 86.549C45.7802 86.473 45.7594 86.4224 45.7342 86.3963C45.6533 86.3405 45.5598 86.3129 45.4529 86.3129H44.5498C44.5245 86.3129 44.4911 86.3256 44.4511 86.3509C44.4103 86.3814 44.3791 86.4045 44.3561 86.4194C44.3331 86.4343 44.2967 86.4753 44.2462 86.5415C44.2359 86.552 44.2262 86.5646 44.2158 86.5795V86.0083L44.4281 85.8408C44.4889 85.7953 44.5423 85.7648 44.5876 85.7492C44.6329 85.7343 44.6789 85.7261 44.7242 85.7261H45.8329C45.9642 85.7261 46.0896 85.7529 46.2084 85.8058C46.3271 85.8594 46.4095 85.919 46.4555 85.9845C46.5164 86.0657 46.5594 86.2027 46.5846 86.3956C46.5898 86.4365 46.5935 86.4797 46.5958 86.5251C46.598 86.5706 46.5995 86.6138 46.5995 86.6547V88.7727H44.2158H44.2166ZM45.0173 87.4583C45.0551 87.4151 45.0744 87.3659 45.0744 87.3093C45.0744 87.2483 45.0551 87.1961 45.0173 87.1529C44.9795 87.1098 44.9245 87.0882 44.854 87.0882C44.7835 87.0882 44.7286 87.1098 44.6908 87.1529C44.6529 87.1961 44.6336 87.2483 44.6336 87.3093C44.6336 87.3652 44.6529 87.4151 44.6908 87.4583C44.7286 87.5015 44.7828 87.5231 44.854 87.5231C44.9253 87.5231 44.9795 87.5015 45.0173 87.4583Z" fill="#444648"/>
<path d="M48.8481 88.7726L48.3924 88.0413L47.9598 88.7726H47.3906C47.3802 88.7726 47.3475 88.6989 47.2919 88.5514C47.2615 88.465 47.2333 88.3734 47.2088 88.2774C47.1835 88.1813 47.1605 88.0823 47.1405 87.9802C47.0848 87.701 47.0566 87.447 47.0566 87.2184C47.0566 86.9391 47.0722 86.703 47.1019 86.5102C47.1071 86.4439 47.1219 86.3731 47.1472 86.2964C47.1976 86.149 47.2607 86.0298 47.3372 85.9382C47.4685 85.7759 47.6281 85.6947 47.8158 85.6947C48.0236 85.6947 48.1928 85.761 48.3242 85.8928C48.4355 86.0045 48.4911 86.1467 48.4911 86.3195C48.4911 86.4819 48.4355 86.6271 48.3242 86.7537C48.1973 86.8959 48.0281 86.9771 47.8158 86.9972L47.8462 87.3018C47.8514 87.3681 47.8589 87.4329 47.8693 87.4962C47.8796 87.5595 47.8893 87.6243 47.8997 87.6905C47.9101 87.7211 47.9197 87.7516 47.9301 87.7821C47.9405 87.8127 47.9501 87.8432 47.9605 87.8737L48.3858 87.1193L48.8488 87.8276V85.7245H49.6459V88.7719H48.8488L48.8481 88.7726ZM47.6637 86.1966C47.6229 86.2421 47.6028 86.2957 47.6028 86.3568C47.6028 86.4126 47.6206 86.4625 47.6563 86.5057C47.6919 86.5489 47.7446 86.5705 47.8158 86.5705C47.8871 86.5705 47.942 86.5474 47.9828 86.502C48.0229 86.4565 48.0436 86.4029 48.0436 86.3419C48.0436 86.2808 48.0258 86.2302 47.9902 86.1892C47.9546 86.1482 47.9019 86.1281 47.8307 86.1281C47.7594 86.1281 47.7038 86.1512 47.6637 86.1966Z" fill="#444648"/>
<path d="M48.1879 90.2963V89.9537C48.0461 89.9537 47.9371 89.9105 47.8614 89.8241C47.7857 89.7378 47.7471 89.6335 47.7471 89.5114C47.7471 89.3691 47.7879 89.2552 47.8688 89.1688C47.9601 89.0623 48.0818 89.0087 48.2332 89.0087C48.3845 89.0087 48.5166 89.0504 48.6131 89.1345C48.7096 89.2187 48.7571 89.3215 48.7571 89.4429V89.8316H49.0079V88.9856H49.6454V90.2963H48.1879ZM48.4113 89.6447C48.4439 89.6067 48.461 89.562 48.461 89.5114C48.461 89.384 48.3979 89.3207 48.271 89.3207C48.1441 89.3207 48.0736 89.384 48.0736 89.5114C48.0736 89.562 48.0914 89.6067 48.127 89.6447C48.1627 89.6826 48.2109 89.702 48.271 89.702C48.3311 89.702 48.3786 89.6826 48.4113 89.6447Z" fill="#444648"/>
<path d="M49.8283 84.4443C49.8283 84.5508 49.7905 84.6655 49.714 84.7869C49.6027 84.9597 49.4484 85.0788 49.2509 85.1451C49.2354 85.1503 49.2079 85.1563 49.1671 85.1645C49.127 85.1719 49.0825 85.1786 49.0343 85.1838C48.986 85.189 48.9356 85.1928 48.8821 85.195C48.8287 85.198 48.7819 85.1987 48.7419 85.1987C48.5296 85.1987 48.4228 85.1682 48.4228 85.1071C48.4228 85.0766 48.468 85.026 48.5593 84.9545C48.5897 84.9344 48.6046 84.9113 48.6046 84.8859C48.6046 84.8554 48.5971 84.8405 48.5816 84.8405H48.5207C48.4294 84.8405 48.3574 84.8115 48.304 84.7526C48.2506 84.6946 48.2246 84.6223 48.2246 84.5359C48.2246 84.4443 48.2565 84.3632 48.3196 84.2924C48.3827 84.2217 48.4702 84.1859 48.5816 84.1859C48.6929 84.1859 48.7767 84.2127 48.8472 84.2656C48.9185 84.3192 48.9534 84.3989 48.9534 84.5054C48.9534 84.6119 48.9422 84.6893 48.9192 84.7534C48.8962 84.8167 48.8495 84.8815 48.779 84.9478H48.8702C49.032 84.912 49.1448 84.8666 49.2079 84.8107C49.271 84.7549 49.3177 84.6685 49.3482 84.5516C49.3534 84.5315 49.3586 84.5084 49.363 84.4831C49.3682 84.4577 49.3756 84.4272 49.386 84.3915H49.8112C49.8216 84.3915 49.8268 84.4093 49.8268 84.4451L49.8283 84.4443ZM48.7196 84.5128C48.7196 84.4771 48.7085 84.4458 48.6855 84.4175C48.6625 84.39 48.6283 84.3758 48.5831 84.3758C48.543 84.3758 48.5088 84.39 48.4806 84.4175C48.4532 84.4458 48.4391 84.4771 48.4391 84.5128C48.4391 84.6097 48.4873 84.6573 48.5831 84.6573C48.6788 84.6573 48.7196 84.6089 48.7196 84.5128Z" fill="#444648"/>
<path d="M52.2187 88.7726L51.93 88.2625C51.8996 88.2014 51.8544 88.156 51.7935 88.1255C51.7527 88.1001 51.7111 88.0823 51.6681 88.0718C51.625 88.0614 51.5857 88.0562 51.5501 88.0562C51.5197 88.0562 51.4944 88.0592 51.4744 88.0636C51.4544 88.0689 51.4365 88.0711 51.421 88.0711V88.1396C51.421 88.3228 51.3653 88.4777 51.254 88.6043C51.1323 88.7466 50.9705 88.818 50.7679 88.818C50.5653 88.818 50.3931 88.7495 50.267 88.6125C50.1609 88.4904 50.1074 88.3384 50.1074 88.1552C50.1074 88.0026 50.1505 87.867 50.2365 87.7479C50.3226 87.6287 50.4495 87.5535 50.6165 87.523V86.9362C50.4644 86.9362 50.3456 86.8788 50.2596 86.7649C50.1735 86.6509 50.1304 86.5146 50.1304 86.3575C50.1304 86.1795 50.1809 86.0276 50.2826 85.9003C50.3991 85.7528 50.5586 85.6791 50.7612 85.6791C50.9638 85.6791 51.1256 85.7476 51.2473 85.8846C51.3534 86.0068 51.4069 86.1512 51.4069 86.3188V87.5833C51.4269 87.5677 51.4677 87.5602 51.5286 87.5602C51.6295 87.5602 51.7564 87.5833 51.9085 87.6287C52.0555 87.6645 52.1564 87.7099 52.2121 87.7658V85.7238H53.0091V88.7711H52.2195L52.2187 88.7726ZM50.9245 86.4826C50.9623 86.4394 50.9816 86.3903 50.9816 86.3337C50.9816 86.2726 50.9623 86.2205 50.9245 86.1773C50.8866 86.1341 50.8317 86.1125 50.7612 86.1125C50.6907 86.1125 50.6358 86.1341 50.598 86.1773C50.5601 86.2205 50.5408 86.2726 50.5408 86.3337C50.5408 86.3895 50.5601 86.4394 50.598 86.4826C50.6358 86.5258 50.69 86.5474 50.7612 86.5474C50.8325 86.5474 50.8866 86.5258 50.9245 86.4826ZM50.9319 88.3191C50.9698 88.2759 50.989 88.2238 50.989 88.1627C50.989 88.1068 50.9698 88.0562 50.9319 88.01C50.8941 87.9646 50.8391 87.9415 50.7686 87.9415C50.6981 87.9415 50.6432 87.9631 50.6054 88.0063C50.5675 88.0495 50.5482 88.1016 50.5482 88.1627C50.5482 88.2238 50.5668 88.2759 50.6054 88.3191C50.6432 88.3623 50.6974 88.3839 50.7686 88.3839C50.8399 88.3839 50.8941 88.3623 50.9319 88.3191Z" fill="#444648"/>
<path d="M50.4116 85.1988L50.3203 84.9322L50.4799 84.8182C50.5459 84.778 50.6105 84.7393 50.6736 84.7035C50.7366 84.6678 50.8012 84.6328 50.8672 84.5971C51.0394 84.5159 51.1938 84.4623 51.3303 84.4369C51.3556 84.4317 51.3808 84.4295 51.406 84.4295H51.4817C51.6895 84.4295 51.93 84.4749 52.203 84.5665V84.3453H53.0001V85.1988H50.4109H50.4116ZM52.1281 84.8867C52.0925 84.8719 52.0546 84.8562 52.0138 84.8413C51.806 84.7855 51.639 84.7579 51.5129 84.7579C51.4773 84.7579 51.4468 84.7594 51.4216 84.7616C51.3964 84.7646 51.3711 84.7683 51.3459 84.7728C51.2954 84.778 51.2242 84.8056 51.1329 84.857C51.1129 84.8674 51.0951 84.8786 51.0795 84.8912C51.0647 84.9039 51.0468 84.915 51.0261 84.9255H52.2335C52.1979 84.915 52.163 84.9024 52.1274 84.8875L52.1281 84.8867Z" fill="#444648"/>
<path d="M55.5367 88.7726V86.6241C55.5367 86.5578 55.5293 86.5072 55.5137 86.4714C55.4982 86.4357 55.4707 86.3977 55.4306 86.3568C55.3898 86.321 55.3393 86.3031 55.2785 86.3031H54.6024C54.5772 86.3031 54.5393 86.3232 54.4889 86.3642C54.4585 86.3947 54.4436 86.4305 54.4436 86.4707V86.5087H54.7471V87.9333C54.7471 88.2632 54.6863 88.4919 54.5646 88.6192C54.4585 88.7361 54.3063 88.7942 54.1089 88.7942C53.9011 88.7942 53.7416 88.7331 53.6303 88.611C53.5241 88.4993 53.4707 88.3623 53.4707 88.1999C53.4707 88.0525 53.5137 87.9221 53.5998 87.8075C53.6859 87.6935 53.8024 87.6287 53.9494 87.6131V87.0493H53.7141V86.1579C53.7542 86.1527 53.795 86.1401 53.8358 86.1199C53.9271 86.079 53.9976 86.0261 54.0481 85.9598C54.1594 85.8027 54.2885 85.7238 54.4354 85.7238H55.6503C55.7208 85.7238 55.8069 85.7386 55.9085 85.7692C56.0347 85.8146 56.1334 85.8757 56.2046 85.9524C56.2603 86.0135 56.2981 86.0998 56.3182 86.2115C56.3182 86.2264 56.3197 86.2458 56.3219 86.2689C56.3241 86.292 56.3278 86.321 56.333 86.3568V88.7719H55.536L55.5367 88.7726ZM53.9308 88.0599C53.893 88.1031 53.8737 88.1552 53.8737 88.2163C53.8737 88.2722 53.893 88.3221 53.9308 88.3652C53.9687 88.4084 54.0228 88.43 54.0941 88.43C54.1698 88.43 54.2269 88.4084 54.2648 88.3652C54.3026 88.3221 54.3219 88.2699 54.3219 88.2089C54.3219 88.153 54.3026 88.1039 54.2648 88.0599C54.2269 88.0167 54.172 87.9951 54.1015 87.9951C54.0258 87.9951 53.9687 88.0167 53.9308 88.0599Z" fill="#444648"/>
<path d="M57.5109 88.7727V86.8372C57.5109 86.8171 57.5132 86.7917 57.5184 86.7612C57.5184 86.6547 57.5057 86.5631 57.4805 86.4872C57.4397 86.3807 57.3788 86.327 57.2979 86.327H57.0775C57.0627 86.327 57.0367 86.3345 57.0018 86.3501C56.9766 86.3606 56.9514 86.3732 56.9261 86.3881C56.9009 86.4037 56.8757 86.4164 56.8505 86.4261C56.8304 86.4313 56.8022 86.4566 56.7673 86.5021C56.7621 86.5125 56.7495 86.5326 56.7295 86.5631V85.9994C56.7347 85.9688 56.7569 85.9376 56.7978 85.904C56.8378 85.8713 56.8861 85.8407 56.9417 85.8124C56.9974 85.7849 57.0553 85.7618 57.1161 85.7439C57.177 85.7261 57.2304 85.7201 57.2757 85.7246H57.6096C57.7358 85.7246 57.8434 85.7395 57.9325 85.77C58.0208 85.8005 58.1009 85.8586 58.1714 85.945C58.2167 86.0061 58.2545 86.1029 58.285 86.2347C58.2953 86.2853 58.3028 86.3494 58.308 86.4253V88.7719H57.5109V88.7727Z" fill="#444648"/>
<path d="M60.3429 88.6199C60.2212 88.7421 60.0646 88.8031 59.8724 88.8031C59.6802 88.8031 59.5103 88.7294 59.3789 88.582C59.2676 88.4501 59.2119 88.29 59.2119 88.1016C59.2119 87.9393 59.252 87.8097 59.3337 87.7129C59.4294 87.6012 59.5615 87.5453 59.7285 87.5453V86.4938C59.7181 86.4632 59.7084 86.4379 59.698 86.4178C59.6372 86.3314 59.4977 86.2882 59.2802 86.2882C59.1889 86.2882 59.0776 86.3314 58.9463 86.4178C58.9262 86.4327 58.9017 86.4521 58.8743 86.4752C58.8461 86.4983 58.8149 86.5251 58.7793 86.5549V86.0216C58.7793 86.0112 58.7986 85.9874 58.8364 85.9494C58.8743 85.9114 58.9084 85.8824 58.9388 85.8615C59.0346 85.8057 59.1429 85.7655 59.2617 85.7394C59.3804 85.7141 59.5058 85.7014 59.6372 85.7014C59.799 85.7014 59.9511 85.723 60.0928 85.7662C60.2346 85.8094 60.331 85.8638 60.3815 85.93C60.4424 85.9963 60.4824 86.0849 60.5032 86.1966C60.5181 86.283 60.5262 86.3642 60.5262 86.4402V88.2081C60.501 88.3757 60.4401 88.5127 60.3437 88.6199H60.3429ZM60.0357 88.3034C60.0735 88.2602 60.0928 88.2081 60.0928 88.147C60.0928 88.0912 60.0735 88.0406 60.0357 87.9944C59.9978 87.949 59.9429 87.9259 59.8724 87.9259C59.8019 87.9259 59.747 87.9475 59.7092 87.9907C59.6713 88.0339 59.652 88.086 59.652 88.147C59.652 88.2081 59.6713 88.2602 59.7092 88.3034C59.747 88.3466 59.8012 88.3682 59.8724 88.3682C59.9437 88.3682 59.9978 88.3466 60.0357 88.3034Z" fill="#444648"/>
<path d="M63.1292 86.3345C63.1136 86.365 63.101 86.3956 63.0914 86.4261C62.96 86.6853 62.8101 86.8506 62.6431 86.9213C62.5771 86.9467 62.5088 86.9712 62.4383 86.9936C62.3671 87.0167 62.2892 87.033 62.2031 87.0435C62.1422 87.0539 62.0799 87.0613 62.0168 87.0666C61.9537 87.0718 61.8862 87.074 61.8157 87.074C61.7652 87.074 61.7192 87.0725 61.6791 87.0703C61.6383 87.0681 61.6109 87.0666 61.5953 87.0666C61.3927 87.036 61.2361 86.9496 61.1248 86.8074C61.0231 86.6756 60.9727 86.5281 60.9727 86.3658C60.9727 86.193 61.0261 86.0485 61.1322 85.9316C61.2435 85.805 61.3957 85.741 61.5879 85.741C61.8001 85.741 61.9611 85.7953 62.0702 85.9048C62.1793 86.0143 62.2335 86.1602 62.2335 86.3427C62.2335 86.4142 62.2209 86.5006 62.1957 86.6019C62.2157 86.5914 62.232 86.5825 62.2446 86.5751C62.2573 86.5676 62.2684 86.5587 62.2788 86.5482C62.3448 86.5028 62.3953 86.4529 62.4309 86.3993C62.4665 86.3457 62.494 86.266 62.514 86.1595C62.5244 86.1185 62.5318 86.0709 62.537 86.015L63.1671 86.2436C63.1567 86.2742 63.1441 86.3047 63.1292 86.3353V86.3345ZM63.1144 88.1248C63.0944 88.1702 63.0713 88.2186 63.0461 88.2693C62.9801 88.3713 62.9155 88.4525 62.8524 88.5128C62.7893 88.5739 62.7233 88.6223 62.655 88.6573C62.5867 88.693 62.5155 88.7183 62.4428 88.7332C62.3693 88.7481 62.2921 88.7638 62.2112 88.7787C62.0947 88.7988 61.9656 88.8092 61.8239 88.8092C61.7786 88.8092 61.7407 88.8077 61.7103 88.8055C61.6799 88.8025 61.6472 88.8017 61.6116 88.8017C61.4142 88.7712 61.2599 88.6848 61.1485 88.5426C61.0424 88.416 60.989 88.2685 60.989 88.101C60.989 87.9334 61.0424 87.7837 61.1485 87.6668C61.2599 87.5402 61.412 87.4762 61.6042 87.4762C61.8068 87.4762 61.9649 87.5305 62.0784 87.64C62.1919 87.7495 62.2491 87.8954 62.2491 88.0779C62.2491 88.159 62.2365 88.2454 62.2112 88.337C62.2313 88.3266 62.2476 88.3177 62.2602 88.3102C62.2728 88.3028 62.284 88.2938 62.2944 88.2834C62.3604 88.238 62.4109 88.1881 62.4465 88.1345C62.4821 88.0809 62.5096 88.0012 62.5296 87.8947C62.54 87.8537 62.5474 87.8061 62.5526 87.7502L63.1827 87.9788C63.1574 88.0295 63.1344 88.0779 63.1144 88.1233V88.1248ZM61.7853 86.5438C61.8209 86.5006 61.8387 86.4514 61.8387 86.3948C61.8387 86.3338 61.8194 86.2809 61.7816 86.2347C61.7437 86.1893 61.6866 86.1662 61.6109 86.1662C61.5396 86.1662 61.4869 86.1878 61.4513 86.231C61.4157 86.2742 61.3979 86.3241 61.3979 86.3799C61.3979 86.441 61.4172 86.4939 61.455 86.5401C61.4929 86.5855 61.55 86.6086 61.6257 86.6086C61.6962 86.6086 61.7496 86.587 61.7853 86.5438ZM61.8046 88.2812C61.8424 88.238 61.8617 88.1859 61.8617 88.1248C61.8617 88.0689 61.8424 88.0183 61.8046 87.9721C61.7667 87.9267 61.7118 87.9036 61.6413 87.9036C61.5708 87.9036 61.5159 87.9252 61.478 87.9684C61.4402 88.0116 61.4209 88.0637 61.4209 88.1248C61.4209 88.1859 61.4402 88.238 61.478 88.2812C61.5159 88.3244 61.5701 88.346 61.6413 88.346C61.7125 88.346 61.7667 88.3244 61.8046 88.2812Z" fill="#444648"/>
<path d="M65.9775 88.7726L65.4231 87.0509L64.9526 88.7726H64.163V86.9667C64.0012 86.9414 63.8743 86.8676 63.783 86.7455C63.6918 86.6234 63.6465 86.4893 63.6465 86.3419C63.6465 86.1639 63.6999 86.0142 63.806 85.8921C63.9322 85.7498 64.0999 85.6783 64.307 85.6783C64.514 85.6783 64.6639 85.7394 64.7856 85.8615C64.8969 85.9732 64.9526 86.1133 64.9526 86.2808V87.1797L65.4231 85.7245L65.9775 87.3249V85.7245H66.7745V88.7719H65.9775V88.7726ZM64.1474 86.1892C64.1066 86.2346 64.0866 86.2883 64.0866 86.3493C64.0866 86.4052 64.1044 86.4536 64.14 86.4938C64.1756 86.5348 64.2283 86.5549 64.2995 86.5549C64.3708 86.5549 64.4257 86.5318 64.4665 86.4864C64.5066 86.4409 64.5274 86.3903 64.5274 86.3337C64.5274 86.2726 64.5081 86.222 64.4702 86.181C64.4324 86.1408 64.3804 86.12 64.3144 86.12C64.2439 86.12 64.1882 86.143 64.1474 86.1885V86.1892Z" fill="#444648"/>
<path d="M66.8121 84.7191C66.7816 84.7802 66.7416 84.8309 66.6904 84.8718L66.7586 84.8949V85.1995H64.1694L64.0781 84.9329C64.1442 84.8822 64.205 84.8376 64.2607 84.7996C64.3163 84.7616 64.3646 84.7296 64.4047 84.7043C64.6778 84.5471 64.9056 84.4577 65.0881 84.4376C65.1238 84.4324 65.1594 84.4287 65.1943 84.4265C65.2299 84.4242 65.2677 84.4227 65.3085 84.4227C65.4451 84.4227 65.5898 84.4429 65.7412 84.4838C65.7917 84.5039 65.8414 84.5248 65.8896 84.5449C65.9379 84.565 65.9846 84.5881 66.0299 84.6134C66.0247 84.6082 66.0225 84.5903 66.0225 84.5598C66.0225 84.4429 66.0618 84.3416 66.1405 84.2552C66.2191 84.1688 66.3141 84.1256 66.4254 84.1256C66.5367 84.1256 66.6429 84.1651 66.7289 84.244C66.815 84.323 66.8581 84.4183 66.8581 84.53C66.8581 84.5963 66.8425 84.6596 66.8128 84.7206L66.8121 84.7191ZM65.8859 84.8867C65.8503 84.8718 65.8124 84.8562 65.7716 84.8413C65.5638 84.7854 65.3969 84.7579 65.2707 84.7579C65.2351 84.7579 65.2047 84.7594 65.1794 84.7616C65.1542 84.7646 65.129 84.7683 65.1037 84.7728C65.0533 84.778 64.982 84.8055 64.8915 84.8569C64.8714 84.8673 64.8536 84.8785 64.838 84.8912C64.8232 84.9038 64.8054 84.915 64.7846 84.9254H65.992C65.9564 84.915 65.9208 84.9023 65.8859 84.8874V84.8867ZM66.5694 84.6812C66.5998 84.6454 66.6147 84.6052 66.6147 84.559C66.6147 84.5084 66.5998 84.4652 66.5694 84.4294C66.539 84.3937 66.4959 84.3758 66.4403 84.3758C66.3846 84.3758 66.3416 84.3937 66.3111 84.4294C66.2807 84.4652 66.2659 84.5084 66.2659 84.559C66.2659 84.6045 66.2815 84.6454 66.3111 84.6812C66.3416 84.7169 66.3846 84.7348 66.4403 84.7348C66.4959 84.7348 66.539 84.7169 66.5694 84.6812Z" fill="#444648"/>
<path d="M65.9688 84.0259V83.2871H66.7658V84.0259H65.9688Z" fill="#444648"/>
<path d="M68.2089 88.757C68.1481 88.757 68.0761 88.7369 67.9922 88.6959C67.9091 88.6557 67.8304 88.6021 67.757 88.5358C67.6835 88.4696 67.6204 88.3973 67.567 88.3184C67.5136 88.2394 67.4876 88.165 67.4876 88.0935C67.4824 87.9818 67.4772 87.8701 67.4728 87.7584C67.4676 87.6466 67.4624 87.5327 67.4572 87.4158C67.4468 87.1872 67.4334 87.0032 67.4156 86.8632C67.3978 86.7232 67.3785 86.6256 67.3585 86.5698C67.3481 86.5393 67.3258 86.5065 67.2902 86.4707C67.285 86.4655 67.2813 86.4603 67.2791 86.4551C67.2761 86.4499 67.2702 86.4447 67.2598 86.4402L67.7689 86.1274L67.8445 86.2034C67.8698 86.2287 67.8928 86.254 67.9128 86.2794C67.9329 86.3047 67.9484 86.3278 67.9581 86.3479C67.9781 86.3888 67.9945 86.4238 68.0078 86.4544C68.0204 86.4849 68.0308 86.5192 68.0382 86.5571C68.0457 86.5951 68.0494 86.6368 68.0494 86.683V86.858L68.0872 87.7263C68.0872 87.7673 68.0924 87.806 68.1021 87.8447C68.1117 87.8835 68.1295 87.9222 68.1555 87.9632C68.2364 88.1002 68.3529 88.1687 68.505 88.1687H68.6342V86.957C68.4724 86.9317 68.347 86.8602 68.2586 86.7433C68.1703 86.6264 68.1258 86.4894 68.1258 86.3322C68.1258 86.1542 68.1815 86.0023 68.2928 85.875C68.4145 85.7327 68.5785 85.662 68.7863 85.662C68.9733 85.662 69.1277 85.7208 69.2494 85.837C69.3711 85.9539 69.4319 86.0962 69.4319 86.2637V88.7555H68.2097L68.2089 88.757ZM68.9488 86.4752C68.9867 86.432 69.006 86.3799 69.006 86.3188C69.006 86.263 68.9874 86.2123 68.9488 86.1662C68.911 86.1207 68.856 86.0976 68.7855 86.0976C68.715 86.0976 68.6601 86.1192 68.6223 86.1624C68.5844 86.2056 68.5651 86.2578 68.5651 86.3188C68.5651 86.3747 68.5844 86.4253 68.6223 86.4715C68.6601 86.5169 68.7143 86.54 68.7855 86.54C68.8568 86.54 68.911 86.5184 68.9488 86.4752Z" fill="#444648"/>
<path d="M72.2255 88.7726L71.6711 87.0509L71.2006 88.7726H70.411V86.9667C70.2493 86.9414 70.1224 86.8676 70.0311 86.7455C69.9398 86.6234 69.8945 86.4893 69.8945 86.3419C69.8945 86.1639 69.948 86.0142 70.0541 85.8921C70.1802 85.7498 70.348 85.6783 70.555 85.6783C70.7621 85.6783 70.912 85.7394 71.0337 85.8615C71.145 85.9732 71.2006 86.1133 71.2006 86.2808V87.1797L71.6711 85.7245L72.2255 87.3249V85.7245H73.0225V88.7719H72.2255V88.7726ZM70.3955 86.1892C70.3546 86.2346 70.3346 86.2883 70.3346 86.3493C70.3346 86.4052 70.3524 86.4536 70.388 86.4938C70.4237 86.5348 70.4763 86.5549 70.5476 86.5549C70.6188 86.5549 70.6737 86.5318 70.7146 86.4864C70.7546 86.4409 70.7754 86.3903 70.7754 86.3337C70.7754 86.2726 70.7561 86.222 70.7183 86.181C70.6804 86.1408 70.6285 86.12 70.5624 86.12C70.4912 86.12 70.4355 86.143 70.3955 86.1885V86.1892Z" fill="#444648"/>
<path d="M70.4262 85.1987L70.335 84.9321L70.4945 84.8182C70.5606 84.778 70.6251 84.7392 70.6882 84.7035C70.7513 84.6678 70.8158 84.6327 70.8819 84.597C71.0541 84.5158 71.2084 84.4622 71.345 84.4369C71.3702 84.4317 71.3984 84.4294 71.4288 84.4294H71.5045C71.6915 84.4294 71.9119 84.4674 72.165 84.5434C72.3476 84.6045 72.545 84.6804 72.7572 84.772C72.798 84.7921 72.8403 84.813 72.8863 84.8331C72.9316 84.8532 72.9746 84.874 73.0155 84.8941V85.1987H70.4262ZM72.1346 84.8867C72.099 84.8718 72.0611 84.8562 72.0203 84.8413C71.8081 84.7854 71.6381 84.7579 71.512 84.7579C71.4615 84.7579 71.411 84.7631 71.3598 84.7728C71.3094 84.778 71.2381 84.8055 71.1468 84.8569C71.1268 84.8673 71.109 84.8785 71.0934 84.8912C71.0786 84.9038 71.0607 84.915 71.04 84.9254H72.2474C72.2073 84.915 72.1687 84.9023 72.1338 84.8874L72.1346 84.8867Z" fill="#444648"/>
<path d="M74.4582 88.757C74.3973 88.757 74.3253 88.7369 74.2415 88.6959C74.1584 88.6557 74.0797 88.6021 74.0062 88.5358C73.9328 88.4696 73.8697 88.3973 73.8163 88.3184C73.7628 88.2394 73.7369 88.165 73.7369 88.0935C73.7317 87.9818 73.7265 87.8701 73.722 87.7584C73.7168 87.6466 73.7116 87.5327 73.7072 87.4158C73.6968 87.1872 73.6834 87.0032 73.6656 86.8632C73.6478 86.7232 73.6285 86.6256 73.6085 86.5698C73.5981 86.5393 73.5758 86.5065 73.5402 86.4707C73.535 86.4655 73.5313 86.4603 73.5291 86.4551C73.5261 86.4499 73.5202 86.4447 73.5098 86.4402L74.0189 86.1274L74.0945 86.2034C74.1198 86.2287 74.1428 86.254 74.1628 86.2794C74.1829 86.3047 74.1984 86.3278 74.2081 86.3479C74.2281 86.3888 74.2445 86.4238 74.2578 86.4544C74.2704 86.4849 74.2808 86.5192 74.2882 86.5571C74.2957 86.5951 74.2994 86.6368 74.2994 86.683V86.858L74.3372 87.7263C74.3372 87.7673 74.3424 87.806 74.3521 87.8447C74.3624 87.8827 74.3795 87.9222 74.4055 87.9632C74.4864 88.1002 74.6029 88.1687 74.755 88.1687H74.8842V86.957C74.7224 86.9317 74.597 86.8602 74.5086 86.7433C74.4203 86.6264 74.3758 86.4894 74.3758 86.3322C74.3758 86.1542 74.4315 86.0023 74.5428 85.875C74.6645 85.7327 74.8285 85.662 75.0363 85.662C75.2233 85.662 75.3777 85.7208 75.4994 85.837C75.6211 85.9539 75.6812 86.0962 75.6812 86.2637V88.7555H74.4589L74.4582 88.757ZM75.1981 86.4752C75.2359 86.432 75.2552 86.3799 75.2552 86.3188C75.2552 86.263 75.2367 86.2123 75.1981 86.1662C75.1602 86.1207 75.1053 86.0976 75.0348 86.0976C74.9643 86.0976 74.9094 86.1192 74.8715 86.1624C74.8337 86.2056 74.8144 86.2578 74.8144 86.3188C74.8144 86.3747 74.8337 86.4253 74.8715 86.4715C74.9094 86.5169 74.9636 86.54 75.0348 86.54C75.106 86.54 75.1602 86.5184 75.1981 86.4752Z" fill="#444648"/>
<path d="M2.46835 79.7498V75.636C2.09581 75.636 1.80268 75.4989 1.58747 75.2241C1.37225 74.9501 1.26465 74.6261 1.26465 74.2523C1.26465 73.8092 1.39229 73.4413 1.64832 73.1494C1.91548 72.8113 2.29989 72.6415 2.80008 72.6415C3.24163 72.6415 3.59636 72.7755 3.86426 73.0444C4.08467 73.2894 4.22493 73.6044 4.28281 73.9894V78.4361H6.30655V72.7465H8.13808V79.749H2.46835V79.7498ZM3.17484 74.4891C3.26241 74.3901 3.30545 74.2761 3.30545 74.148C3.30545 74.008 3.26167 73.8881 3.17484 73.7891C3.08801 73.69 2.9626 73.6401 2.80008 73.6401C2.63755 73.6401 2.51214 73.69 2.42531 73.7891C2.33774 73.8881 2.2947 74.008 2.2947 74.148C2.2947 74.2769 2.33848 74.3901 2.42531 74.4891C2.51288 74.5882 2.63755 74.6381 2.80008 74.6381C2.9626 74.6381 3.08801 74.5882 3.17484 74.4891Z" fill="#FFBC02"/>
<path d="M8.59177 69.8063C8.59177 70.0513 8.5042 70.3142 8.3298 70.5942C8.07377 70.9912 7.71905 71.2652 7.26562 71.4171C7.23074 71.429 7.16691 71.4432 7.07415 71.4611C6.98139 71.4789 6.87972 71.4931 6.7684 71.505C6.65783 71.5169 6.54132 71.5259 6.41961 71.5311C6.29716 71.537 6.1903 71.54 6.09679 71.54C5.60848 71.54 5.36433 71.47 5.36433 71.33C5.36433 71.26 5.46897 71.1438 5.67824 70.98C5.748 70.9338 5.78288 70.8809 5.78288 70.8221C5.78288 70.7521 5.76507 70.7171 5.73019 70.7171H5.59067C5.3814 70.7171 5.21591 70.6501 5.09346 70.516C4.97175 70.382 4.91016 70.2159 4.91016 70.0171C4.91016 69.8071 4.98288 69.6201 5.12834 69.457C5.27379 69.294 5.4749 69.212 5.73019 69.212C5.98547 69.212 6.17842 69.2731 6.34095 69.396C6.50421 69.5189 6.5851 69.7021 6.5851 69.9478C6.5851 70.1936 6.55913 70.3708 6.50644 70.5168C6.45449 70.6627 6.34688 70.8117 6.18362 70.9636H6.39289C6.76543 70.8824 7.02369 70.7774 7.16914 70.6486C7.3146 70.5205 7.4222 70.3217 7.49196 70.0536C7.50383 70.0074 7.51571 69.9545 7.52684 69.8957C7.53871 69.8376 7.55578 69.7676 7.57953 69.6857H8.55615C8.57915 69.6857 8.59103 69.7266 8.59103 69.8086L8.59177 69.8063ZM6.04484 69.9634C6.04484 69.8823 6.01887 69.8086 5.96618 69.7445C5.91349 69.6805 5.83557 69.6484 5.73093 69.6484C5.63817 69.6484 5.5595 69.6805 5.49568 69.7445C5.43186 69.8086 5.39995 69.8815 5.39995 69.9634C5.39995 70.1854 5.51052 70.2963 5.73167 70.2963C5.94095 70.2963 6.04559 70.1854 6.04559 69.9634H6.04484Z" fill="#FFBC02"/>
<path d="M10.9124 79.7497V75.3031C10.9124 75.2569 10.9183 75.1981 10.9295 75.1281C10.9295 74.883 10.9005 74.673 10.8419 74.498C10.7484 74.253 10.6089 74.1301 10.4233 74.1301H9.91722C9.88234 74.1301 9.82372 74.148 9.74283 74.183C9.6842 74.2068 9.62631 74.2359 9.56843 74.2709C9.5098 74.3059 9.45192 74.3349 9.39403 74.3588C9.34728 74.3707 9.28346 74.4288 9.20183 74.5338C9.18995 74.5576 9.16101 74.6038 9.11426 74.6738V73.378C9.12539 73.308 9.17808 73.235 9.27158 73.159C9.36435 73.0831 9.47492 73.0131 9.60331 72.949C9.73095 72.885 9.86527 72.8329 10.0048 72.7912C10.1443 72.7502 10.2668 72.736 10.3714 72.7472H11.1387C11.4296 72.7472 11.6768 72.7822 11.8801 72.8522C12.0834 72.9222 12.2667 73.0563 12.4293 73.2551C12.5339 73.3951 12.6215 73.617 12.6912 73.9201C12.7142 74.0371 12.732 74.183 12.7439 74.358V79.7505H10.9124V79.7497Z" fill="#FFBC02"/>
<path d="M20.7778 77.6229C20.8884 77.8619 20.9433 78.1107 20.9433 78.3668C20.9433 78.7869 20.8216 79.1257 20.5767 79.3819C20.3088 79.6969 19.9489 79.8548 19.4947 79.8548C19.0405 79.8548 18.6806 79.6857 18.4134 79.3469C18.1804 79.0438 18.0646 78.6818 18.0646 78.2611C18.0298 78.273 17.98 78.2849 17.9162 78.2961C17.8524 78.308 17.7856 78.3199 17.7159 78.3311C17.6461 78.343 17.5852 78.3519 17.5325 78.3572C17.4799 78.3631 17.4479 78.3661 17.4368 78.3661C17.2157 78.413 17.0591 78.664 16.9656 79.119C16.9426 79.2709 16.9129 79.399 16.8787 79.504C16.8439 79.609 16.8149 79.6909 16.7912 79.749H14.9767V75.6174C14.6161 75.5362 14.337 75.3545 14.1396 75.0745C13.9415 74.7944 13.8428 74.4794 13.8428 74.1294C13.8428 73.7213 13.9652 73.3825 14.2094 73.1144C14.4654 72.7994 14.8313 72.6415 15.3084 72.6415C15.7507 72.6415 16.1047 72.7755 16.3726 73.0444C16.6168 73.2894 16.7563 73.6044 16.7912 73.9894V77.5261C16.8721 77.351 16.9426 77.2341 17.0005 77.176C17.0821 77.071 17.1778 77.004 17.2884 76.975C17.399 76.9459 17.5763 76.931 17.8205 76.931C17.9481 76.9199 18.0528 76.9132 18.1344 76.9132H18.4661V72.7465H20.2977V77.0532C20.5069 77.1932 20.6665 77.3831 20.7771 77.6221L20.7778 77.6229ZM15.6832 74.4891C15.7708 74.3901 15.8138 74.2761 15.8138 74.148C15.8138 74.008 15.77 73.8881 15.6832 73.7891C15.5956 73.69 15.471 73.6401 15.3084 73.6401C15.1459 73.6401 15.0205 73.69 14.9337 73.7891C14.8461 73.8881 14.8031 74.008 14.8031 74.148C14.8031 74.2769 14.8468 74.3901 14.9337 74.4891C15.0212 74.5882 15.1459 74.6381 15.3084 74.6381C15.471 74.6381 15.5964 74.5882 15.6832 74.4891ZM19.8791 78.7087C19.9719 78.6096 20.0186 78.4897 20.0186 78.3497C20.0186 78.2216 19.9719 78.1047 19.8791 77.9997C19.7856 77.8947 19.658 77.8418 19.4954 77.8418C19.3329 77.8418 19.2075 77.8917 19.1207 77.9908C19.0331 78.0898 18.9901 78.2097 18.9901 78.3497C18.9901 78.4897 19.0361 78.6096 19.1296 78.7087C19.2223 78.8077 19.3448 78.8576 19.4962 78.8576C19.6587 78.8576 19.7871 78.8077 19.8798 78.7087H19.8791Z" fill="#FFBC02"/>
<path d="M26.5611 79.7497V76.371C26.5373 76.3598 26.4913 76.3449 26.4216 76.327C26.3518 76.3092 26.2761 76.301 26.1945 76.301C26.1247 76.301 26.0639 76.3039 26.0112 76.3099C25.9585 76.3159 25.8976 76.3308 25.8279 76.3538C25.6186 76.4239 25.4093 76.6748 25.2001 77.1068C25.0835 77.4337 24.9618 77.7606 24.8334 78.0875V79.7505H23.0539V75.5838C22.6932 75.5026 22.4142 75.3239 22.2168 75.0499C22.0186 74.7758 21.9199 74.463 21.9199 74.113C21.9199 73.7049 22.0424 73.3661 22.2865 73.098C22.5537 72.7949 22.9203 72.6429 23.3856 72.6429C23.8509 72.6429 24.2168 72.7539 24.4847 72.9758C24.7518 73.1978 24.8861 73.5128 24.8861 73.9209V75.8988C24.9321 75.8057 24.9737 75.7268 25.0086 75.6628C25.0435 75.5987 25.0724 75.5429 25.0962 75.4967C25.2936 75.2167 25.5258 75.0647 25.7937 75.0417C25.8286 75.0417 25.8724 75.0387 25.9244 75.0327C25.977 75.0268 26.026 75.0238 26.0728 75.0238C26.2004 75.0238 26.282 75.0297 26.3169 75.0417C26.1425 74.7497 26.055 74.4347 26.055 74.0966C26.055 73.6997 26.1715 73.3675 26.4038 73.0987C26.6709 72.7956 27.0375 72.6437 27.5028 72.6437C27.9681 72.6437 28.3169 72.8016 28.619 73.1166C28.875 73.3854 29.0026 73.7176 29.0026 74.1145C29.0026 74.3714 28.9358 74.6075 28.8023 74.8235C28.6687 75.0394 28.4794 75.2055 28.2353 75.3224L28.3926 75.6024V79.7512H26.5611V79.7497ZM23.7611 74.4891C23.8487 74.39 23.8917 74.2761 23.8917 74.148C23.8917 74.008 23.8479 73.8881 23.7611 73.7891C23.6735 73.69 23.5489 73.6401 23.3863 73.6401C23.2238 73.6401 23.0984 73.69 23.0116 73.7891C22.924 73.8881 22.881 74.008 22.881 74.148C22.881 74.2768 22.9247 74.39 23.0116 74.4891C23.0991 74.5881 23.2238 74.638 23.3863 74.638C23.5489 74.638 23.6743 74.5881 23.7611 74.4891ZM27.8694 74.4801C27.9622 74.3871 28.0089 74.2761 28.0089 74.1473C28.0089 74.0073 27.9652 73.8903 27.8783 73.7972C27.7915 73.7042 27.6661 73.6572 27.5036 73.6572C27.341 73.6572 27.2156 73.7042 27.1288 73.7972C27.0412 73.8911 26.9982 74.0073 26.9982 74.1473C26.9982 74.2642 27.0442 74.3722 27.1377 74.4712C27.2305 74.5703 27.3529 74.6202 27.5043 74.6202C27.6557 74.6202 27.7774 74.574 27.8709 74.4801H27.8694Z" fill="#FFBC02"/>
<path d="M30.1025 79.7497V76.2481C30.1025 75.8981 30.2332 75.586 30.4951 75.3112C30.7571 75.0372 31.091 74.9002 31.4984 74.9002C31.9756 74.9002 32.3534 75.058 32.6324 75.373C32.8765 75.6531 32.999 75.9979 32.999 76.406C32.999 76.7329 32.9085 77.0248 32.7289 77.281C32.5485 77.5379 32.2843 77.707 31.9348 77.7889V78.4889H33.7671V74.8823C33.7552 74.8242 33.7493 74.7773 33.7493 74.7423C33.7493 74.6961 33.7433 74.6611 33.7322 74.6373C33.6973 74.4623 33.6506 74.3453 33.5927 74.2873C33.4064 74.1592 33.1912 74.0944 32.9471 74.0944H30.8714C30.8127 74.0944 30.7378 74.1234 30.645 74.1815C30.5515 74.2515 30.4795 74.3044 30.4268 74.3394C30.3742 74.3744 30.2903 74.4682 30.1738 74.6194C30.15 74.6432 30.127 74.6723 30.104 74.7073V73.3943L30.5923 73.0093C30.7318 72.9043 30.8543 72.8343 30.9589 72.7993C31.0636 72.7643 31.1682 72.7472 31.2728 72.7472H33.8198C34.1218 72.7472 34.4098 72.8083 34.6836 72.9311C34.9567 73.054 35.1459 73.191 35.2506 73.3422C35.3901 73.5291 35.4888 73.8442 35.5474 74.288C35.5585 74.3818 35.5674 74.4809 35.5734 74.5859C35.5793 74.6909 35.5823 74.7899 35.5823 74.8838V79.7505H30.104L30.1025 79.7497ZM31.943 76.7299C32.0298 76.6309 32.0736 76.5169 32.0736 76.3888C32.0736 76.2488 32.0298 76.1289 31.943 76.0299C31.8554 75.9308 31.7307 75.8809 31.5682 75.8809C31.4057 75.8809 31.2803 75.9308 31.1934 76.0299C31.1059 76.1289 31.0628 76.2488 31.0628 76.3888C31.0628 76.5177 31.1066 76.6309 31.1934 76.7299C31.281 76.829 31.4057 76.8789 31.5682 76.8789C31.7307 76.8789 31.8561 76.829 31.943 76.7299Z" fill="#FFBC02"/>
<path d="M41.5294 79.7498L40.8667 78.5769C40.7969 78.4368 40.6923 78.3318 40.5528 78.2618C40.4593 78.2038 40.3635 78.1628 40.2648 78.139C40.1661 78.1159 40.0756 78.104 39.9947 78.104C39.9249 78.104 39.8663 78.1099 39.8203 78.1218C39.7735 78.1337 39.7327 78.139 39.6986 78.139V78.2968C39.6986 78.7169 39.5702 79.0728 39.3149 79.3648C39.0359 79.6917 38.6633 79.8548 38.198 79.8548C37.7327 79.8548 37.3372 79.6969 37.0463 79.3819C36.8021 79.1019 36.6797 78.7519 36.6797 78.3311C36.6797 77.9811 36.7784 77.669 36.9765 77.3942C37.1739 77.1202 37.4648 76.9482 37.8485 76.8782V75.5302C37.4997 75.5302 37.2266 75.3992 37.0285 75.1363C36.8303 74.8734 36.7316 74.5614 36.7316 74.1994C36.7316 73.7913 36.8474 73.4406 37.0804 73.1486C37.3476 72.8105 37.7142 72.6407 38.1795 72.6407C38.6448 72.6407 39.0173 72.7986 39.2956 73.1136C39.5398 73.3937 39.6622 73.7265 39.6622 74.1116V77.0174C39.7082 76.9824 39.8017 76.9645 39.9413 76.9645C40.1735 76.9645 40.4645 77.0174 40.8132 77.1224C41.1502 77.2043 41.3832 77.3093 41.5108 77.4374V72.7458H43.3431V79.7483H41.5286L41.5294 79.7498ZM38.555 74.4891C38.6426 74.3901 38.6856 74.2761 38.6856 74.148C38.6856 74.008 38.6418 73.8881 38.555 73.7891C38.4674 73.6901 38.3428 73.6402 38.1802 73.6402C38.0177 73.6402 37.8923 73.6901 37.8055 73.7891C37.7186 73.8881 37.6749 74.008 37.6749 74.148C37.6749 74.2769 37.7186 74.3901 37.8055 74.4891C37.893 74.5882 38.0177 74.6381 38.1802 74.6381C38.3428 74.6381 38.4682 74.5882 38.555 74.4891ZM38.5721 78.7087C38.6596 78.6096 38.7027 78.4897 38.7027 78.3497C38.7027 78.2216 38.6589 78.1047 38.5721 77.9997C38.4852 77.8947 38.3598 77.8418 38.1973 77.8418C38.0348 77.8418 37.9094 77.8917 37.8225 77.9908C37.735 78.0898 37.6919 78.2097 37.6919 78.3497C37.6919 78.4897 37.7357 78.6096 37.8225 78.7087C37.9101 78.8077 38.0348 78.8576 38.1973 78.8576C38.3598 78.8576 38.4852 78.8077 38.5721 78.7087Z" fill="#FFBC02"/>
<path d="M48.2803 79.7497V76.7738C48.2803 76.4588 48.1171 76.3009 47.792 76.3009H46.5186C46.4599 76.3009 46.4021 76.33 46.3442 76.3888C46.2856 76.4476 46.2566 76.4998 46.2566 76.5467V77.0896C46.5587 77.1596 46.8087 77.3286 47.0069 77.5975C47.1813 77.8425 47.2688 78.1285 47.2688 78.4554C47.2688 78.8404 47.1583 79.1614 46.9371 79.4183C46.6811 79.7102 46.3264 79.8562 45.8729 79.8562C45.4544 79.8562 45.1138 79.7281 44.8525 79.4712C44.5906 79.2143 44.46 78.9171 44.46 78.5783V76.1274C44.4711 75.9993 44.4889 75.8884 44.5127 75.7945C44.5824 75.5614 44.696 75.3834 44.8525 75.2606C45.0099 75.1377 45.1345 75.0535 45.2273 75.0066C45.3787 74.9485 45.5293 74.9195 45.6807 74.9195H47.6176C47.6874 74.9195 47.7542 74.9225 47.818 74.9284C47.8818 74.9344 47.9664 74.9664 48.0711 75.0245C48.0822 75.0364 48.097 75.0506 48.1149 75.0684C48.1319 75.0863 48.1586 75.1183 48.1935 75.1645C48.2047 75.1764 48.2195 75.1935 48.2373 75.2166C48.2551 75.2405 48.2752 75.2636 48.2982 75.2866V74.5687C48.2863 74.4406 48.2573 74.3476 48.2106 74.2887C48.1638 74.2306 48.1 74.1897 48.0184 74.1658C47.9368 74.1428 47.8321 74.1308 47.7045 74.1308C47.588 74.1308 47.4544 74.1197 47.303 74.0958H45.2095C45.1509 74.0958 45.0759 74.1249 44.9831 74.183C44.9015 74.253 44.8347 74.3059 44.7828 74.3409C44.7301 74.3759 44.6455 74.4697 44.5297 74.6209C44.5067 74.6447 44.483 74.6737 44.46 74.7087V73.3958L44.9483 73.0108C45.0759 72.9177 45.1984 72.8507 45.3149 72.8097C45.4306 72.7688 45.5301 72.7487 45.6117 72.7487H48.1765C48.4785 72.7487 48.7783 72.8045 49.0751 72.9147C49.372 73.0257 49.5835 73.1568 49.7119 73.3087C49.8514 73.4487 49.9531 73.6297 50.0169 73.8516C50.0807 74.0735 50.1126 74.3066 50.1126 74.5516V79.7512H48.2811L48.2803 79.7497ZM46.2833 78.7697C46.3709 78.6766 46.4139 78.5656 46.4139 78.4368C46.4139 78.3199 46.3702 78.2119 46.2833 78.1128C46.1958 78.0138 46.0711 77.9639 45.9086 77.9639C45.746 77.9639 45.6206 78.0108 45.5338 78.1039C45.4462 78.1977 45.4032 78.3079 45.4032 78.4368C45.4032 78.5656 45.447 78.6758 45.5338 78.7697C45.6214 78.8635 45.746 78.9097 45.9086 78.9097C46.0711 78.9097 46.1965 78.8635 46.2833 78.7697Z" fill="#FFBC02"/>
<path d="M48.1933 71.2763C47.9959 71.0782 47.8965 70.8332 47.8965 70.5413C47.8965 70.2263 48.0011 69.9522 48.2104 69.7184C48.4546 69.4615 48.7573 69.3334 49.1173 69.3334C49.4772 69.3334 49.7889 69.4563 50.016 69.7013C50.243 69.9463 50.3558 70.2322 50.3558 70.5592C50.3558 70.863 50.2631 71.108 50.0768 71.2942C49.8445 71.5042 49.5299 71.6092 49.1343 71.6092C48.7388 71.6092 48.4137 71.4983 48.1918 71.2763H48.1933ZM49.4579 70.7863C49.5336 70.7051 49.5714 70.6053 49.5714 70.4884C49.5714 70.3715 49.5366 70.2725 49.4668 70.1905C49.397 70.1094 49.2983 70.0677 49.1699 70.0677C49.0416 70.0677 48.9429 70.1086 48.8731 70.1905C48.8033 70.2725 48.7685 70.3715 48.7685 70.4884C48.7685 70.5934 48.8033 70.6895 48.8731 70.7774C48.9429 70.8652 49.0416 70.9084 49.1699 70.9084C49.2865 70.9084 49.3822 70.8675 49.4579 70.7856V70.7863Z" fill="#FFBC02"/>
<path d="M52.8518 79.7497V75.3031C52.8518 75.2569 52.8578 75.1981 52.8689 75.1281C52.8689 74.883 52.84 74.673 52.7813 74.498C52.6878 74.253 52.5483 74.1301 52.3628 74.1301H51.8567C51.8218 74.1301 51.7632 74.148 51.6823 74.183C51.6237 74.2068 51.5658 74.2359 51.5079 74.2709C51.4493 74.3059 51.3914 74.3349 51.3335 74.3588C51.2867 74.3707 51.2229 74.4288 51.1413 74.5338C51.1294 74.5576 51.1005 74.6038 51.0537 74.6738V73.378C51.0648 73.308 51.1175 73.235 51.211 73.159C51.3038 73.0831 51.4144 73.0131 51.5428 72.949C51.6704 72.885 51.8047 72.8329 51.9442 72.7912C52.0838 72.7502 52.2062 72.736 52.3108 72.7472H53.0782C53.3691 72.7472 53.6162 72.7822 53.8196 72.8522C54.0229 72.9222 54.2062 73.0563 54.3687 73.2551C54.4734 73.3951 54.5609 73.617 54.6307 73.9201C54.6537 74.0371 54.6715 74.183 54.6834 74.358V79.7505H52.8518V79.7497Z" fill="#FFBC02"/>
<path d="M60.5978 79.7497V74.9701C60.5859 74.912 60.574 74.8562 60.5629 74.804C60.551 74.7512 60.5392 74.708 60.528 74.673C60.4345 74.4399 60.3009 74.282 60.1265 74.2001C59.7659 74.0139 59.3763 73.9201 58.9577 73.9201C58.5392 73.9201 58.1815 74.0109 57.8497 74.1912C57.5188 74.3721 57.2709 74.6439 57.1084 75.0051C57.0386 75.169 57.0037 75.3261 57.0037 75.478C57.0037 75.9569 57.2308 76.5169 57.6843 77.1588C57.8 77.2877 57.9165 77.4187 58.0331 77.5528C58.1488 77.6868 58.2653 77.8187 58.3818 77.9467L58.7306 77.3517C58.3232 77.2817 58.0093 77.1007 57.7881 76.8088C57.5789 76.5519 57.4742 76.2369 57.4742 75.8638C57.4742 75.4668 57.5959 75.1287 57.8408 74.8487C58.108 74.5456 58.4746 74.3937 58.9399 74.3937C59.4052 74.3937 59.7688 74.5307 60.0301 74.8048C60.292 75.0788 60.4226 75.4147 60.4226 75.8116C60.4226 76.0567 60.3818 76.2845 60.3002 76.4946L58.416 79.7512H56.5496C56.5726 79.6581 56.5956 79.5791 56.6193 79.5151C56.6423 79.4511 56.6601 79.3959 56.672 79.349C56.7648 78.999 56.8115 78.719 56.8115 78.509C56.8115 78.4278 56.8056 78.3578 56.7945 78.299C56.7596 78.089 56.5154 77.488 56.0613 76.496C55.875 76.111 55.7822 75.755 55.7822 75.4281V75.3052C55.7934 75.2702 55.8 75.2293 55.8 75.1824C55.8928 74.5173 56.1718 73.9514 56.6371 73.4844C57.1254 72.9944 57.6783 72.7494 58.2943 72.7494H60.4746C61.0327 72.7494 61.5217 72.9773 61.9403 73.4323C62.1147 73.6311 62.2423 73.8992 62.3239 74.2373C62.3699 74.5643 62.4048 74.7452 62.4286 74.7802V79.7519H60.597L60.5978 79.7497ZM59.3154 76.2488C59.403 76.1557 59.446 76.0388 59.446 75.8988C59.446 75.7588 59.4022 75.6389 59.3154 75.5398C59.2278 75.4408 59.1032 75.3909 58.9406 75.3909C58.7781 75.3909 58.6527 75.4408 58.5659 75.5398C58.4791 75.6389 58.4353 75.7588 58.4353 75.8988C58.4353 76.0276 58.4791 76.1408 58.5659 76.2406C58.6535 76.3396 58.7781 76.3895 58.9406 76.3895C59.1032 76.3895 59.2286 76.3434 59.3154 76.2495V76.2488Z" fill="#FFBC02"/>
<path d="M67.1399 79.3997C66.8609 79.6797 66.5002 79.8197 66.0579 79.8197C65.6156 79.8197 65.226 79.6507 64.924 79.3118C64.668 79.0087 64.5403 78.6408 64.5403 78.2089C64.5403 77.8358 64.6331 77.5379 64.8194 77.316C65.0405 77.0591 65.3425 76.931 65.7262 76.931V74.5151C65.7025 74.4451 65.6795 74.3871 65.6565 74.3401C65.5169 74.142 65.1971 74.0423 64.6969 74.0423C64.4876 74.0423 64.2316 74.1413 63.9296 74.3401C63.8828 74.3751 63.8272 74.4191 63.7641 74.4712C63.7003 74.5241 63.6275 74.5851 63.5459 74.6551V73.4294C63.5459 73.4063 63.5897 73.3504 63.6765 73.2633C63.7633 73.1762 63.842 73.1084 63.9118 73.0622C64.1329 72.9341 64.38 72.8403 64.6531 72.7822C64.9262 72.7241 65.2142 72.6951 65.5169 72.6951C65.8887 72.6951 66.2375 72.745 66.5641 72.844C66.8891 72.9431 67.1103 73.0689 67.2268 73.2201C67.3663 73.372 67.459 73.5761 67.5058 73.833C67.5407 74.0318 67.5585 74.218 67.5585 74.393V78.4547C67.4999 78.8397 67.3603 79.1547 67.1399 79.3997ZM66.4335 78.6729C66.521 78.5738 66.5641 78.4539 66.5641 78.3139C66.5641 78.1858 66.5203 78.0689 66.4335 77.9639C66.3459 77.8589 66.2212 77.806 66.0587 77.806C65.8962 77.806 65.7707 77.8559 65.6839 77.955C65.5964 78.054 65.5533 78.1739 65.5533 78.3139C65.5533 78.4539 65.5971 78.5738 65.6839 78.6729C65.7715 78.7719 65.8962 78.8218 66.0587 78.8218C66.2212 78.8218 66.3466 78.7719 66.4335 78.6729Z" fill="#FFBC02"/>
<path d="M75.5918 77.6229C75.7024 77.8619 75.7573 78.1107 75.7573 78.3668C75.7573 78.7869 75.6348 79.1257 75.3907 79.3819C75.1228 79.6969 74.7628 79.8548 74.3094 79.8548C73.856 79.8548 73.4953 79.6857 73.2274 79.3469C72.9944 79.0438 72.8786 78.6818 72.8786 78.2611C72.8437 78.273 72.794 78.2849 72.7302 78.2961C72.6664 78.308 72.5996 78.3199 72.5298 78.3311C72.4601 78.343 72.3992 78.3519 72.3465 78.3572C72.2938 78.3631 72.2619 78.3661 72.2508 78.3661C72.0297 78.413 71.8723 78.664 71.7796 79.119C71.7558 79.2709 71.7269 79.399 71.692 79.504C71.6571 79.609 71.6282 79.6909 71.6044 79.749H69.79V75.6174C69.4293 75.5362 69.1503 75.3545 68.9521 75.0745C68.754 74.7944 68.6553 74.4794 68.6553 74.1294C68.6553 73.7213 68.7777 73.3825 69.0219 73.1144C69.2779 72.7994 69.6438 72.6415 70.1209 72.6415C70.5632 72.6415 70.9172 72.7755 71.1851 73.0444C71.4293 73.2894 71.5688 73.6044 71.6037 73.9894V77.5261C71.6853 77.351 71.7551 77.2341 71.813 77.176C71.8938 77.071 71.9903 77.004 72.1009 76.975C72.2115 76.9459 72.3888 76.931 72.633 76.931C72.7606 76.9199 72.8653 76.9132 72.9469 76.9132H73.2786V72.7465H75.1102V77.0532C75.3194 77.1932 75.479 77.3831 75.5896 77.6221L75.5918 77.6229ZM70.4972 74.4891C70.5848 74.3901 70.6278 74.2761 70.6278 74.148C70.6278 74.008 70.584 73.8881 70.4972 73.7891C70.4096 73.69 70.285 73.6401 70.1224 73.6401C69.9599 73.6401 69.8345 73.69 69.7477 73.7891C69.6601 73.8881 69.6171 74.008 69.6171 74.148C69.6171 74.2769 69.6608 74.3901 69.7477 74.4891C69.8345 74.5882 69.9599 74.6381 70.1224 74.6381C70.285 74.6381 70.4104 74.5882 70.4972 74.4891ZM74.6931 78.7087C74.7859 78.6096 74.8326 78.4897 74.8326 78.3497C74.8326 78.2216 74.7859 78.1047 74.6931 77.9997C74.5996 77.8947 74.4719 77.8418 74.3094 77.8418C74.1469 77.8418 74.0215 77.8917 73.9347 77.9908C73.8471 78.0898 73.804 78.2097 73.804 78.3497C73.804 78.4897 73.85 78.6096 73.9436 78.7087C74.0363 78.8077 74.1588 78.8576 74.3102 78.8576C74.4727 78.8576 74.6003 78.8077 74.6938 78.7087H74.6931Z" fill="#FFBC02"/>
<path d="M39.568 94.5167V100.22H38.4155V99.3989C38.0103 100.003 37.3803 100.368 36.5484 100.368C35.0975 100.368 33.8916 99.057 33.8916 97.3687C33.8916 95.6805 35.0975 94.3691 36.5484 94.3691C37.381 94.3691 38.0103 94.7341 38.4155 95.3275V94.5175H39.568V94.5167ZM38.4155 97.368C38.4155 96.3073 37.6897 95.5433 36.7294 95.5433C35.7691 95.5433 35.0434 96.3073 35.0434 97.368C35.0434 98.4286 35.7691 99.1926 36.7294 99.1926C37.6897 99.1926 38.4155 98.4286 38.4155 97.368Z" fill="#0A233F"/>
<path d="M43.7067 94.4138V95.7482C42.949 95.6911 42.0636 96.0679 42.0636 97.3452V100.219H40.9111V94.5162H42.0636V95.4745C42.3842 94.6986 43.0351 94.4138 43.7067 94.4138Z" fill="#0A233F"/>
<path d="M46.9294 99.2386C47.5691 99.2386 48.05 98.9308 48.306 98.5318L49.2559 99.1252C48.7654 99.9011 47.9646 100.368 46.919 100.368C45.1587 100.368 44.0166 99.0792 44.0166 97.3687C44.0166 95.6583 45.158 94.3691 46.8337 94.3691C48.5093 94.3691 49.5119 95.7377 49.5119 97.3807C49.5119 97.552 49.4904 97.7345 49.4696 97.8939H45.2233C45.4043 98.7841 46.0767 99.2402 46.9301 99.2402L46.9294 99.2386ZM48.3483 96.8888C48.188 95.9074 47.5157 95.4862 46.8225 95.4862C45.958 95.4862 45.3717 96.0336 45.2114 96.8888H48.3483Z" fill="#0A233F"/>
<path d="M28.2263 97.3681C28.2263 95.6688 29.4323 94.3685 31.0434 94.3685C32.089 94.3685 32.9959 94.95 33.4226 95.8402L32.4304 96.4558C32.1951 95.9195 31.6727 95.5776 31.0322 95.5776C30.0935 95.5776 29.3781 96.3416 29.3781 97.3681C29.3781 98.3947 30.0927 99.1587 31.0322 99.1587C31.6727 99.1587 32.1951 98.8049 32.4512 98.2805L33.4434 98.885C32.9951 99.7862 32.0883 100.368 31.0426 100.368C29.4315 100.368 28.2256 99.0563 28.2256 97.3681H28.2263Z" fill="#0A233F"/>
<path d="M55.664 94.3685H52.8662V100.369H55.664C57.2313 100.369 58.3853 99.0397 58.3853 97.3689C58.3853 95.6982 57.232 94.3693 55.664 94.3693V94.3685ZM55.664 99.1761H53.9816V95.5601H55.664C56.5946 95.5601 57.2699 96.3201 57.2699 97.3681C57.2699 98.4161 56.5946 99.1761 55.664 99.1761Z" fill="#0A233F"/>
<path d="M51.889 97.4941C51.9517 97.0815 51.6896 96.6928 51.3036 96.6258C50.9177 96.5588 50.554 96.839 50.4914 97.2516C50.4287 97.6642 50.6908 98.053 51.0768 98.1199C51.4627 98.1869 51.8264 97.9067 51.889 97.4941Z" fill="#0A233F"/>
<path d="M22.3223 98.5781C22.3223 99.5618 21.578 100.242 20.6504 100.242H18.3721V94.5027H20.4893C21.3947 94.5027 22.1227 95.1588 22.1227 96.1179C22.1227 96.6098 21.9312 96.9953 21.6166 97.2659C22.0463 97.5285 22.3223 97.9791 22.3223 98.5781ZM19.4303 95.5602V96.8232H20.4886C20.8181 96.8232 21.0637 96.5527 21.0637 96.1917C21.0637 95.8307 20.8262 95.5602 20.4886 95.5602H19.4303ZM21.2715 98.5043C21.2715 98.1187 21.011 97.8323 20.6504 97.8323H19.4311V99.185H20.6504C21.011 99.185 21.2715 98.8978 21.2715 98.5043Z" fill="#0A233F"/>
<path d="M25.1758 98.0037V100.242H24.125V98.0037L22.292 94.5027H23.4883L24.6541 96.897L25.82 94.5027H27.0163L25.1751 98.0037H25.1758Z" fill="#0A233F"/>
</svg>
