<svg width="116" height="109" viewBox="0 0 116 109" fill="none" xmlns="http://www.w3.org/2000/svg">
<g clip-path="url(#clip0_72_1052)">
<path d="M9.68396 112.206C15.7332 112.185 21.1432 109.471 25.8333 105.866C30.7985 102.051 35.0872 97.3712 39.1856 92.6754C47.7671 82.8437 55.2108 72.0478 61.3014 60.5396C67.4562 48.9106 72.9924 35.8855 72.0842 22.4797C71.6807 16.5086 70.0981 10.5109 66.2728 5.76591C62.5882 1.19291 56.8389 -0.849994 51.0607 0.327031C45.4976 1.46107 40.5427 5.35651 37.6194 10.0994C34.1914 15.6611 33.0908 22.2279 32.4867 28.6104C32.3377 30.1846 32.2219 31.7628 32.1081 33.339C33.4963 32.7699 34.8824 32.2009 36.2706 31.6339C36.4981 31.9184 36.0492 31.3268 35.9933 31.247C35.8299 31.0116 35.6747 30.7721 35.5237 30.5285C35.2196 30.0352 34.9403 29.5255 34.6796 29.0076C34.1024 27.8592 33.8976 27.3249 33.4238 26.0804C32.5446 23.7652 31.7626 21.4111 30.7033 19.1676C28.3883 14.2671 23.9258 10.7872 18.2158 11.7616C12.0404 12.8137 7.68547 18.6927 5.10149 23.8839C2.70164 28.7026 1.17898 33.8405 0.463165 39.1586C-0.966401 49.758 0.95141 60.687 5.68904 70.2812C10.3977 79.8203 18.1724 87.8793 27.8794 92.4994C37.9029 97.271 49.2546 98.5728 60.1863 96.7776C70.8491 95.0274 81.1271 90.0368 88.6328 82.2767C93.1242 77.6341 96.695 72.1276 99.3473 66.2753C101.956 60.5191 104.271 54.1632 104.608 47.8093C104.923 41.9139 102.558 35.8875 96.695 33.6317C91.9802 31.8181 86.4109 33.2346 82.5794 36.2867C78.2121 39.7646 76.9459 45.6927 78.4231 50.892C79.9954 56.4251 84.2655 60.9469 89.69 62.9407C95.7123 65.1556 102.587 64.0481 108.177 61.1782C113.862 58.2572 118.246 53.2277 121.308 47.7397C122.843 44.9865 124.082 42.0695 125.129 39.1034C125.57 37.8567 124.628 36.4259 123.402 36.0943C122.038 35.7238 120.801 36.5508 120.36 37.8035C116.877 47.6762 109.71 58.2203 98.2363 59.1476C95.6151 59.3605 92.9525 59.0821 90.5713 58.0566C88.5418 57.1804 86.7667 55.7557 85.4426 54.0301C84.1 52.282 83.2455 50.3762 82.8607 48.1327C82.567 46.4193 82.8545 44.0653 83.6986 42.4973C84.2634 41.4513 84.4806 41.1852 85.3516 40.3705C85.5254 40.2067 85.7075 40.0511 85.8916 39.8976C85.9392 39.8587 86.2619 39.6213 85.9619 39.8403C86.0592 39.7686 86.1564 39.699 86.2578 39.6335C86.6964 39.349 87.1391 39.0747 87.6067 38.8352C87.8218 38.7247 88.0411 38.6203 88.2625 38.5241C87.9253 38.6715 88.4694 38.4483 88.5707 38.4115C89.1024 38.2232 89.6465 38.0676 90.1968 37.9468C90.4327 37.8956 90.6685 37.8526 90.9064 37.8138C90.503 37.8813 91.0678 37.7974 91.2002 37.7871C91.7526 37.7421 92.3091 37.7339 92.8615 37.7646C94.3428 37.8486 96.1054 38.5097 97.2102 39.5844C98.8135 41.1422 99.5149 43.3775 99.6535 45.4675C100.02 50.9535 98.0005 56.6339 95.9751 61.6982C93.8504 67.0101 90.9271 72.1399 87.2074 76.5246C80.8436 84.0269 72.3283 88.9601 62.7827 91.2671C58.0678 92.4073 53.5453 92.8453 48.5843 92.6427C46.0437 92.5403 43.9956 92.3131 41.6123 91.8607C39.1959 91.4022 36.8147 90.7717 34.4955 89.9611C25.6678 86.8804 18.0007 80.7803 12.9113 72.9894C7.74133 65.0757 5.02288 55.8335 4.93599 46.5258C4.89047 41.6683 5.46147 37.39 6.87242 32.7126C8.2213 28.2502 10.1598 23.628 13.5196 20.0888C14.4092 19.1513 15.3691 18.2977 16.4822 17.6303C16.8856 17.3888 17.4876 17.0674 17.8103 16.9425C18.2841 16.7583 19.1944 16.5229 19.4571 16.4922C19.8854 16.4431 20.6509 16.4533 20.8826 16.4881C21.226 16.5372 21.5736 16.6355 21.9046 16.7378C22.0308 16.7767 22.6763 17.0408 22.3059 16.8709C22.7176 17.0592 23.1045 17.2885 23.4831 17.5362C23.8596 17.7839 23.3486 17.3949 23.6858 17.6897C23.9072 17.8842 24.1244 18.0827 24.3292 18.2936C24.4844 18.4532 24.6292 18.619 24.7761 18.7869C25.0678 19.1246 24.683 18.6334 24.9416 18.9998C25.2499 19.4399 25.5395 19.8902 25.8043 20.359C26.0381 20.7725 26.2533 21.1962 26.4581 21.6261C26.7684 22.277 26.7994 22.365 26.9939 22.844C27.807 24.8542 28.4835 26.9155 29.3213 28.9175C30.2482 31.1323 31.3074 33.1691 32.8239 35.0462C33.4176 35.7811 34.6879 35.8916 35.4865 35.5457C36.4154 35.1424 36.916 34.3339 36.9843 33.3411C37.6836 23.1654 38.8525 10.2693 49.6725 5.61648C53.8143 3.83559 58.4609 4.32687 61.8703 7.63278C65.526 11.1782 67.1355 16.482 67.6713 21.3968C69.0099 33.6624 64.4502 45.7295 59.1353 56.5827C53.7998 67.4809 47.2747 77.8429 39.7069 87.3614C36.0078 92.0143 32.1081 96.5893 27.809 100.714C23.7231 104.636 19.211 107.903 13.7678 109.676C12.4376 110.11 11.0763 110.409 9.68189 110.556C8.6392 110.667 8.58334 112.21 9.68189 112.206H9.68396Z" fill="white"/>
</g>
<defs>
<clipPath id="clip0_72_1052">
<rect width="116" height="109" fill="white"/>
</clipPath>
</defs>
</svg>
