<svg width="89" height="44" viewBox="0 0 89 44" fill="none" xmlns="http://www.w3.org/2000/svg">
<path d="M33.1713 27.9546V43.5987H29.8006V41.3443C28.613 43.0009 26.7736 44.004 24.3378 44.004C20.0928 44.004 16.5654 40.4071 16.5654 35.7767C16.5654 31.1462 20.0928 27.5493 24.3378 27.5493C26.7736 27.5493 28.613 28.5524 29.8006 30.1786V27.9597H33.1713V27.9546ZM29.8006 35.7767C29.8006 32.8687 27.6781 30.7714 24.8684 30.7714C22.0586 30.7714 19.9361 32.8687 19.9361 35.7767C19.9361 38.6846 22.0586 40.782 24.8684 40.782C27.6781 40.782 29.8006 38.6846 29.8006 35.7767Z" fill="white"/>
<path d="M45.2795 27.6709V31.3286C43.0661 31.1716 40.4736 32.2051 40.4736 35.7108V43.5936H37.1029V27.9495H40.4736V30.5788C41.4085 28.4511 43.3137 27.6709 45.2795 27.6709Z" fill="white"/>
<path d="M54.6993 40.9037C56.5691 40.9037 57.974 40.0577 58.727 38.9634L61.5064 40.5896C60.0712 42.7174 57.7314 43.9991 54.674 43.9991C49.5245 43.9991 46.1841 40.463 46.1841 35.7718C46.1841 31.0806 49.5245 27.5444 54.4214 27.5444C59.3182 27.5444 62.2543 31.2984 62.2543 35.8022C62.2543 36.2733 62.1937 36.7698 62.128 37.2106H49.7064C50.2371 39.6524 52.2029 40.9037 54.6993 40.9037ZM58.8533 34.4597C58.3833 31.7696 56.4175 30.6094 54.391 30.6094C51.8643 30.6094 50.1461 32.109 49.6761 34.4597H58.8533Z" fill="white"/>
<path d="M0 35.7767C0 31.1159 3.52736 27.5493 8.23724 27.5493C11.2946 27.5493 13.9477 29.1451 15.1959 31.587L12.2952 33.274C11.6079 31.8048 10.0818 30.8676 8.20692 30.8676C5.46286 30.8676 3.3707 32.965 3.3707 35.7817C3.3707 38.5985 5.46286 40.6958 8.20692 40.6958C10.0818 40.6958 11.6079 39.7282 12.3559 38.2844L15.2566 39.941C13.9477 42.4133 11.2946 44.0091 8.23724 44.0091C3.52736 44.0091 0 40.4121 0 35.7817L0 35.7767Z" fill="white"/>
<path d="M80.2499 27.5493H72.0683V44.004H80.2499C84.8334 44.004 88.2092 40.3615 88.2092 35.7767C88.2092 31.1918 84.8334 27.5493 80.2499 27.5493ZM80.2499 40.7313H75.3278V30.817H80.2499C82.9738 30.817 84.9497 32.9042 84.9497 35.7767C84.9497 38.6491 82.9738 40.7364 80.2499 40.7364V40.7313Z" fill="white"/>
<path d="M67.1613 37.8539C68.3056 37.8539 69.2332 36.924 69.2332 35.7768C69.2332 34.6297 68.3056 33.6997 67.1613 33.6997C66.017 33.6997 65.0894 34.6297 65.0894 35.7768C65.0894 36.924 66.017 37.8539 67.1613 37.8539Z" fill="white"/>
<path d="M34.0102 1.72779C34.3437 1.68726 34.7025 1.66699 35.0765 1.66699C36.6229 1.66699 38.1591 2.01655 38.811 2.16854C39.4478 2.34078 40.4534 2.73594 41.5854 3.63264C42.4243 4.34189 43.0257 5.19806 43.3744 6.17582L43.2986 6.18595C41.7572 6.41393 36.7037 7.49301 34.0152 12.088V1.72779H34.0102Z" fill="#AA8D68"/>
<path d="M41.7876 20.6948C41.0599 20.6948 40.5494 20.6441 40.3625 20.6239C37.8964 20.5226 36.4864 19.6715 35.9962 19.3118L35.7486 19.1091C34.6419 18.2074 34.0102 16.9307 34.0102 15.5983C34.0102 13.0703 36.1327 11.0186 38.7352 11.0186C39.8066 11.0186 40.8173 11.363 41.6663 12.0166L41.7572 12.0824C42.0908 12.3459 43.2632 13.2172 43.5512 13.4148C45.2896 14.6003 47.3262 15.2842 49.1455 15.2842C50.7424 15.2842 52.1271 14.7573 53.1832 13.7593C52.7941 14.7573 52.1068 16.2012 50.9799 17.3005C48.0893 20.249 43.9808 20.6897 41.7876 20.6897V20.6948Z" fill="#AA8D68"/>
<path d="M49.3779 14.1243C47.7507 14.1243 46.3762 13.6177 45.507 12.6906C44.7691 11.9104 44.4306 10.8617 44.5064 9.57999C44.5215 9.34189 44.5316 9.12911 44.567 8.9214C44.6933 8.29321 45.1633 5.0509 42.3536 2.60398C41.1508 1.61609 40.0744 1.1804 39.377 0.987889C38.8767 0.871369 37.8862 0.633262 36.7543 0.526874C37.9368 0.248239 39.4528 0 41.1609 0C44.4154 0 47.3768 0.876435 49.9591 2.59891C52.0664 3.95156 53.7341 6.35289 54.1131 8.57691C54.3607 10.041 54.0272 11.3582 53.1479 12.3866C52.218 13.4708 50.8081 14.1192 49.3779 14.1192V14.1243Z" fill="#AA8D68"/>
</svg>
