<svg width="274" height="80" viewBox="0 0 274 80" fill="none" xmlns="http://www.w3.org/2000/svg">
<g clip-path="url(#clip0_54_652)">
<path d="M15.7329 0.259277H18.8353L25.991 9.66257V0.259277H29.3048V15.5312H26.4425L19.0466 5.82057V15.5312H15.7329V0.259277Z" fill="#10223E"/>
<path d="M39.2749 8.99022V0.259277H42.6367V8.89417C42.6367 11.3819 43.8757 12.6689 45.9312 12.6689C47.9866 12.6689 49.2257 11.4299 49.2257 8.99982V0.259277H52.5874V8.87496C52.5874 13.5046 49.9941 15.7713 45.8927 15.7713C41.7914 15.7713 39.2845 13.4757 39.2845 8.99022H39.2749Z" fill="#10223E"/>
<path d="M62.5573 0.259277H69.5401C71.4803 0.259277 72.9883 0.806762 73.9872 1.80568C74.8421 2.66053 75.2935 3.85155 75.2935 5.29229V5.34032C75.2935 7.8088 73.9584 9.35521 72.0182 10.0756L75.745 15.5312H71.8165L68.5412 10.6423H65.8998V15.5312H62.5381V0.259277H62.5573ZM69.3192 7.67433C70.9521 7.67433 71.8933 6.80028 71.8933 5.51321V5.46518C71.8933 4.02444 70.8944 3.28485 69.252 3.28485H65.9094V7.67433H69.3096H69.3192Z" fill="#10223E"/>
<path d="M83.8325 13.3127L85.8208 10.9306C87.1943 12.064 88.635 12.7844 90.3831 12.7844C91.7566 12.7844 92.5827 12.2369 92.5827 11.3437V11.2956C92.5827 10.4408 92.0544 10.0086 89.5091 9.35542C86.4355 8.56781 84.4472 7.72257 84.4472 4.68739V4.63937C84.4472 1.87313 86.6756 0.0385742 89.7876 0.0385742C92.016 0.0385742 93.9082 0.739739 95.4642 1.97878L93.7161 4.5049C92.3618 3.56361 91.0363 2.99691 89.7492 2.99691C88.4621 2.99691 87.7898 3.58282 87.7898 4.33201V4.38003C87.7898 5.38856 88.4429 5.71513 91.0843 6.38748C94.1867 7.1943 95.9252 8.30847 95.9252 10.9691V11.0171C95.9252 14.0523 93.6104 15.7523 90.3159 15.7523C88.0011 15.7523 85.6671 14.9455 83.8325 13.3127Z" fill="#10223E"/>
<path d="M105.549 0.259277H108.911V15.5312H105.549V0.259277Z" fill="#10223E"/>
<path d="M119.275 0.259277H122.377L129.533 9.66257V0.259277H132.847V15.5312H129.984L122.589 5.82057V15.5312H119.275V0.259277Z" fill="#10223E"/>
<path d="M142.375 7.94333V7.89531C142.375 3.55385 145.755 0 150.385 0C153.132 0 154.794 0.739585 156.388 2.09389L154.275 4.64882C153.094 3.66911 152.047 3.10241 150.279 3.10241C147.84 3.10241 145.89 5.26354 145.89 7.85689V7.90491C145.89 10.7 147.811 12.7458 150.52 12.7458C151.739 12.7458 152.834 12.4385 153.68 11.8334V9.65302H150.299V6.75231H156.926V13.3894C155.351 14.7245 153.199 15.8098 150.404 15.8098C145.65 15.8098 142.375 12.4673 142.375 7.95294V7.94333Z" fill="#10223E"/>
<path d="M176.991 0.259277H180.353V6.30082H186.548V0.259277H189.91V15.5312H186.548V9.40323H180.353V15.5312H176.991V0.259277Z" fill="#10223E"/>
<path d="M199.448 7.94333V7.89531C199.448 3.55385 202.877 0 207.583 0C212.29 0 215.68 3.51543 215.68 7.85689V7.90491C215.68 12.2464 212.251 15.8002 207.545 15.8002C202.838 15.8002 199.448 12.2848 199.448 7.94333ZM212.165 7.94333V7.89531C212.165 5.27314 210.244 3.09281 207.535 3.09281C204.827 3.09281 202.954 5.23472 202.954 7.84728V7.89531C202.954 10.5175 204.875 12.6978 207.583 12.6978C210.292 12.6978 212.165 10.5559 212.165 7.94333Z" fill="#10223E"/>
<path d="M225.218 0.259277H228.839L232.854 6.71383L236.869 0.259277H240.49V15.5312H237.147V5.56123L232.854 12.083H232.767L228.512 5.62847V15.5312H225.218V0.259277Z" fill="#10223E"/>
<path d="M250.709 0.259277H262.226V3.24643H254.042V6.34884H261.246V9.336H254.042V12.5441H262.331V15.5312H250.7V0.259277H250.709Z" fill="#10223E"/>
<path d="M273.079 26.5098L258.067 47.439V58.9266H250.565V47.439L235.553 26.5098H244.216L254.311 41.1958L264.406 26.5098H273.07H273.079Z" fill="#10223E"/>
<path d="M28.4884 52.5873H10.7L7.92412 58.9362H0L15.0126 26.5098H24.1854L39.15 58.9266H31.2354L28.498 52.5777L28.4884 52.5873ZM25.9815 46.8916L19.5846 32.1575L13.1877 46.8916H25.9719H25.9815Z" fill="#10223E"/>
<path d="M67.8114 46.1039H75.5434C74.0162 55.7377 65.8136 59.6278 57.39 59.6278C48.0347 59.6278 38.958 54.9021 38.958 42.723C38.958 30.5438 48.0347 25.8662 57.39 25.8662C65.8232 25.8662 74.0162 29.7562 75.5434 39.39H67.8114C66.8413 35.1734 64.1039 31.5139 57.39 31.5139C49.6099 31.5139 46.594 36.4701 46.594 42.723C46.594 48.9758 49.6099 53.98 57.39 53.98C64.1039 53.98 66.8413 50.3205 67.8114 46.1039Z" fill="#10223E"/>
<path d="M151.548 42.723C151.548 55.6417 142.096 58.9362 132.002 58.9362H117.268V26.5098H132.002C142.096 26.5098 151.548 29.7947 151.548 42.723ZM143.902 42.723C143.902 34.3859 138.994 32.2536 131.262 32.2536H124.779V53.1828H131.262C138.994 53.1828 143.902 51.0986 143.902 42.7134V42.723Z" fill="#10223E"/>
<path d="M184.713 58.9362H155.812V26.5098H184.252V32.2536H163.275V39.4381H182.965V45.1339H163.275V53.1924H184.723V58.9362H184.713Z" fill="#10223E"/>
<path d="M232.614 26.5098V58.9266H225.151V33.3101L214.268 58.9266H207.18L196.297 33.3101V58.9266H188.844V26.5098H200.466L210.705 51.4251L220.992 26.5098H232.623H232.614Z" fill="#10223E"/>
<path d="M57.2459 70.5585L111.668 24.8003V58.8788H103.897V42.6752L57.2363 79.9906V70.5585H57.2459Z" fill="#9132AF"/>
<path d="M57.2459 70.5585L111.668 24.8003V58.8788H103.897V42.6752L57.2363 79.9906V70.5585H57.2459Z" fill="url(#paint0_linear_54_652)"/>
<path d="M234.371 69.0791V76.9648H232.671V75.8315C232.076 76.6671 231.144 77.1762 229.915 77.1762C227.773 77.1762 225.986 75.3608 225.986 73.0268C225.986 70.6928 227.763 68.8774 229.915 68.8774C231.144 68.8774 232.076 69.3865 232.671 70.2029V69.0791H234.371ZM232.671 73.0172C232.671 71.5476 231.596 70.4911 230.184 70.4911C228.772 70.4911 227.696 71.5476 227.696 73.0172C227.696 74.4868 228.772 75.5433 230.184 75.5433C231.596 75.5433 232.671 74.4868 232.671 73.0172Z" fill="#10223E"/>
<path d="M240.49 68.9351V70.7792C239.366 70.7024 238.06 71.221 238.06 72.9884V76.9648H236.36V69.0791H238.06V70.4046C238.531 69.3289 239.491 68.9351 240.49 68.9351Z" fill="#10223E"/>
<path d="M245.254 75.6011C246.195 75.6011 246.906 75.1785 247.29 74.6214L248.692 75.4378C247.962 76.5136 246.781 77.1571 245.235 77.1571C242.632 77.1571 240.951 75.3802 240.951 73.0078C240.951 70.6353 242.641 68.8584 245.11 68.8584C247.578 68.8584 249.067 70.7506 249.067 73.0174C249.067 73.2575 249.038 73.5072 249 73.7281H242.728C242.997 74.9576 243.986 75.5915 245.254 75.5915V75.6011ZM247.348 72.3546C247.107 71.0003 246.118 70.4144 245.09 70.4144C243.813 70.4144 242.949 71.1732 242.708 72.3546H247.348Z" fill="#10223E"/>
<path d="M217.611 73.0175C217.611 70.6643 219.388 68.8682 221.77 68.8682C223.316 68.8682 224.651 69.675 225.285 70.9044L223.816 71.7593C223.47 71.0197 222.692 70.549 221.751 70.549C220.367 70.549 219.311 71.6056 219.311 73.0271C219.311 74.4487 220.367 75.5052 221.751 75.5052C222.692 75.5052 223.47 75.0154 223.844 74.295L225.314 75.1306C224.651 76.3793 223.316 77.1765 221.77 77.1765C219.388 77.1765 217.611 75.3611 217.611 73.0271V73.0175Z" fill="#10223E"/>
<path d="M258.154 68.868H254.023V77.1571H258.154C260.468 77.1571 262.178 75.3226 262.178 73.0078C262.178 70.693 260.478 68.8584 258.154 68.8584V68.868ZM258.154 75.5147H255.666V70.5201H258.154C259.527 70.5201 260.526 71.567 260.526 73.0174C260.526 74.4677 259.527 75.5147 258.154 75.5147Z" fill="#10223E"/>
<path d="M251.545 74.0641C252.123 74.0641 252.592 73.5954 252.592 73.0172C252.592 72.4389 252.123 71.9702 251.545 71.9702C250.967 71.9702 250.498 72.4389 250.498 73.0172C250.498 73.5954 250.967 74.0641 251.545 74.0641Z" fill="#10223E"/>
<path d="M206.968 74.6886C206.968 76.0525 205.873 76.9938 204.5 76.9938H201.138V69.0601H204.269C205.605 69.0601 206.68 69.9629 206.68 71.2884C206.68 71.9704 206.402 72.4986 205.931 72.8732C206.565 73.2382 206.978 73.8626 206.978 74.6886H206.968ZM202.694 70.52V72.2681H204.26C204.75 72.2681 205.105 71.8935 205.105 71.3941C205.105 70.8946 204.75 70.52 204.26 70.52H202.694ZM205.412 74.5925C205.412 74.0643 205.028 73.6609 204.49 73.6609H202.685V75.5338H204.49C205.019 75.5338 205.412 75.14 205.412 74.5925Z" fill="#10223E"/>
<path d="M211.185 73.901V76.9938H209.629V73.901L206.92 69.0601H208.688L210.407 72.3738L212.126 69.0601H213.894L211.175 73.901H211.185Z" fill="#10223E"/>
</g>
<defs>
<linearGradient id="paint0_linear_54_652" x1="57.2459" y1="52.405" x2="111.677" y2="52.405" gradientUnits="userSpaceOnUse">
<stop stop-color="#1BAFDE"/>
<stop offset="1" stop-color="#1BAFDE" stop-opacity="0"/>
</linearGradient>
<clipPath id="clip0_54_652">
<rect width="273.08" height="80" fill="white"/>
</clipPath>
</defs>
</svg>
